%TF.GenerationSoftware,KiCad,Pcbnew,(6.0.0)*%
%TF.CreationDate,2022-01-20T18:10:17+07:00*%
%TF.ProjectId,CubeSat Thesis MCU V2,43756265-5361-4742-9054-686573697320,rev?*%
%TF.SameCoordinates,Original*%
%TF.FileFunction,Soldermask,Bot*%
%TF.FilePolarity,Negative*%
%FSLAX46Y46*%
G04 Gerber Fmt 4.6, Leading zero omitted, Abs format (unit mm)*
G04 Created by KiCad (PCBNEW (6.0.0)) date 2022-01-20 18:10:17*
%MOMM*%
%LPD*%
G01*
G04 APERTURE LIST*
G04 Aperture macros list*
%AMRoundRect*
0 Rectangle with rounded corners*
0 $1 Rounding radius*
0 $2 $3 $4 $5 $6 $7 $8 $9 X,Y pos of 4 corners*
0 Add a 4 corners polygon primitive as box body*
4,1,4,$2,$3,$4,$5,$6,$7,$8,$9,$2,$3,0*
0 Add four circle primitives for the rounded corners*
1,1,$1+$1,$2,$3*
1,1,$1+$1,$4,$5*
1,1,$1+$1,$6,$7*
1,1,$1+$1,$8,$9*
0 Add four rect primitives between the rounded corners*
20,1,$1+$1,$2,$3,$4,$5,0*
20,1,$1+$1,$4,$5,$6,$7,0*
20,1,$1+$1,$6,$7,$8,$9,0*
20,1,$1+$1,$8,$9,$2,$3,0*%
G04 Aperture macros list end*
%ADD10C,0.800000*%
%ADD11C,6.400000*%
%ADD12R,1.700000X1.700000*%
%ADD13O,1.700000X1.700000*%
%ADD14RoundRect,0.250000X-0.600000X-0.725000X0.600000X-0.725000X0.600000X0.725000X-0.600000X0.725000X0*%
%ADD15O,1.700000X1.950000*%
%ADD16O,1.900000X1.200000*%
%ADD17C,1.450000*%
%ADD18R,1.000000X1.000000*%
%ADD19R,1.800000X1.800000*%
%ADD20C,1.800000*%
%ADD21RoundRect,0.250000X0.600000X0.725000X-0.600000X0.725000X-0.600000X-0.725000X0.600000X-0.725000X0*%
G04 APERTURE END LIST*
D10*
%TO.C,H2*%
X153400000Y-54000000D03*
X152697056Y-55697056D03*
X149302944Y-52302944D03*
X148600000Y-54000000D03*
X151000000Y-51600000D03*
X149302944Y-55697056D03*
X152697056Y-52302944D03*
X151000000Y-56400000D03*
D11*
X151000000Y-54000000D03*
%TD*%
D12*
%TO.C,J12*%
X78000000Y-62000000D03*
D13*
X80540000Y-62000000D03*
X78000000Y-64540000D03*
X80540000Y-64540000D03*
X78000000Y-67080000D03*
X80540000Y-67080000D03*
X78000000Y-69620000D03*
X80540000Y-69620000D03*
X78000000Y-72160000D03*
X80540000Y-72160000D03*
X78000000Y-74700000D03*
X80540000Y-74700000D03*
X78000000Y-77240000D03*
X80540000Y-77240000D03*
X78000000Y-79780000D03*
X80540000Y-79780000D03*
X78000000Y-82320000D03*
X80540000Y-82320000D03*
X78000000Y-84860000D03*
X80540000Y-84860000D03*
%TD*%
D10*
%TO.C,H4*%
X148600000Y-126000000D03*
X149302944Y-124302944D03*
X151000000Y-123600000D03*
D11*
X151000000Y-126000000D03*
D10*
X153400000Y-126000000D03*
X152697056Y-127697056D03*
X149302944Y-127697056D03*
X152697056Y-124302944D03*
X151000000Y-128400000D03*
%TD*%
D14*
%TO.C,J8*%
X116500000Y-124400000D03*
D15*
X119000000Y-124400000D03*
X121500000Y-124400000D03*
X124000000Y-124400000D03*
X126500000Y-124400000D03*
X129000000Y-124400000D03*
X131500000Y-124400000D03*
X134000000Y-124400000D03*
%TD*%
D12*
%TO.C,J1*%
X78207000Y-96759000D03*
D13*
X78207000Y-94219000D03*
X78207000Y-91679000D03*
%TD*%
D11*
%TO.C,H1*%
X79000000Y-54000000D03*
D10*
X79000000Y-51600000D03*
X81400000Y-54000000D03*
X77302944Y-55697056D03*
X80697056Y-52302944D03*
X76600000Y-54000000D03*
X79000000Y-56400000D03*
X77302944Y-52302944D03*
X80697056Y-55697056D03*
%TD*%
D16*
%TO.C,J3*%
X153500000Y-85050000D03*
X153500000Y-92050000D03*
D17*
X150800000Y-91050000D03*
X150800000Y-86050000D03*
%TD*%
D18*
%TO.C,TP1*%
X102300000Y-113600000D03*
%TD*%
D14*
%TO.C,J5*%
X100250000Y-124475000D03*
D15*
X102750000Y-124475000D03*
X105250000Y-124475000D03*
X107750000Y-124475000D03*
%TD*%
D18*
%TO.C,TP4*%
X102400000Y-116000000D03*
%TD*%
D12*
%TO.C,J7*%
X151775000Y-97800000D03*
D13*
X149235000Y-97800000D03*
%TD*%
D12*
%TO.C,J10*%
X142325000Y-78300000D03*
D13*
X144865000Y-78300000D03*
X142325000Y-80840000D03*
X144865000Y-80840000D03*
X142325000Y-83380000D03*
X144865000Y-83380000D03*
X142325000Y-85920000D03*
X144865000Y-85920000D03*
%TD*%
D19*
%TO.C,J2*%
X79085953Y-115895000D03*
D20*
X79085953Y-119705000D03*
%TD*%
D18*
%TO.C,TP2*%
X102300000Y-111200000D03*
%TD*%
D12*
%TO.C,J4*%
X151700000Y-103350000D03*
D13*
X149160000Y-103350000D03*
%TD*%
D21*
%TO.C,J9*%
X134150000Y-55350000D03*
D15*
X131650000Y-55350000D03*
X129150000Y-55350000D03*
X126650000Y-55350000D03*
X124150000Y-55350000D03*
X121650000Y-55350000D03*
X119150000Y-55350000D03*
X116650000Y-55350000D03*
%TD*%
D10*
%TO.C,H3*%
X77302944Y-124302944D03*
D11*
X79000000Y-126000000D03*
D10*
X80697056Y-124302944D03*
X77302944Y-127697056D03*
X76600000Y-126000000D03*
X81400000Y-126000000D03*
X79000000Y-128400000D03*
X79000000Y-123600000D03*
X80697056Y-127697056D03*
%TD*%
D21*
%TO.C,J6*%
X109750000Y-55350000D03*
D15*
X107250000Y-55350000D03*
X104750000Y-55350000D03*
X102250000Y-55350000D03*
%TD*%
D18*
%TO.C,TP3*%
X102300000Y-118700000D03*
%TD*%
G36*
X88442121Y-88020002D02*
G01*
X88488614Y-88073658D01*
X88500000Y-88126000D01*
X88500000Y-94874000D01*
X88479998Y-94942121D01*
X88426342Y-94988614D01*
X88374000Y-95000000D01*
X84626000Y-95000000D01*
X84557879Y-94979998D01*
X84511386Y-94926342D01*
X84500000Y-94874000D01*
X84500000Y-88126000D01*
X84520002Y-88057879D01*
X84573658Y-88011386D01*
X84626000Y-88000000D01*
X88374000Y-88000000D01*
X88442121Y-88020002D01*
G37*
M02*
