M48
; DRILL file {KiCad (6.0.0)} date Thu Jan 20 18:10:15 2022
; FORMAT={-:-/ absolute / inch / decimal}
; #@! TF.CreationDate,2022-01-20T18:10:15+07:00
; #@! TF.GenerationSoftware,Kicad,Pcbnew,(6.0.0)
; #@! TF.FileFunction,Plated,1,4,PTH
FMAT,2
INCH
; #@! TA.AperFunction,Plated,PTH,ViaDrill
T1C0.0118
; #@! TA.AperFunction,Plated,PTH,ComponentDrill
T2C0.0197
; #@! TA.AperFunction,Plated,PTH,ComponentDrill
T3C0.0236
; #@! TA.AperFunction,Plated,PTH,ComponentDrill
T4C0.0335
; #@! TA.AperFunction,Plated,PTH,ComponentDrill
T5C0.0374
; #@! TA.AperFunction,Plated,PTH,ComponentDrill
T6C0.0394
; #@! TA.AperFunction,Plated,PTH,ComponentDrill
T7C0.1260
%
G90
G05
T1
X3.0709Y-4.126
X3.0709Y-4.1732
X3.0709Y-4.2205
X3.1378Y-3.4803
X3.1378Y-3.5276
X3.1535Y-3.6575
X3.189Y-3.4803
X3.3248Y-2.0413
X3.3248Y-2.0906
X3.3248Y-2.1417
X3.3366Y-2.2638
X3.3465Y-3.5846
X3.3465Y-3.626
X3.4016Y-3.5846
X3.4016Y-3.626
X3.4469Y-4.2047
X3.4488Y-4.1535
X3.4528Y-3.5846
X3.4528Y-3.626
X3.4803Y-2.2618
X3.4882Y-4.2047
X3.4902Y-4.1535
X3.5059Y-4.7087
X3.5059Y-4.874
X3.5118Y-2.6398
X3.5189Y-2.7409
X3.5236Y-4.2923
X3.5258Y-2.373
X3.5295Y-4.2047
X3.5315Y-4.1535
X3.5374Y-4.7087
X3.5374Y-4.874
X3.5846Y-4.3425
X3.5846Y-4.4213
X3.5886Y-3.5149
X3.5906Y-2.5551
X3.622Y-4.0276
X3.6339Y-3.0354
X3.6398Y-2.0413
X3.6417Y-3.8937
X3.6457Y-3.811
X3.6476Y-2.6161
X3.6575Y-4.31
X3.6654Y-2.2972
X3.6909Y-3.1909
X3.6969Y-3.0886
X3.7382Y-3.5149
X3.7441Y-2.2972
X3.748Y-2.685
X3.811Y-2.378
X3.8228Y-2.2953
X3.8416Y-4.0212
X3.8543Y-2.811
X3.8626Y-4.1443
X3.9016Y-2.6417
X3.9085Y-3.6654
X3.9508Y-3.7087
X3.9734Y-3.8238
X3.9754Y-3.8868
X4.0039Y-2.9803
X4.0128Y-3.3947
X4.0463Y-3.9961
X4.0463Y-4.0591
X4.0463Y-4.122
X4.0482Y-3.4341
X4.0512Y-2.8386
X4.0561Y-3.7254
X4.0827Y-4.2274
X4.0866Y-3.689
X4.0876Y-3.4774
X4.1024Y-2.6378
X4.1102Y-2.5945
X4.1319Y-2.874
X4.1319Y-3.0236
X4.1319Y-3.4823
X4.1402Y-3.1126
X4.1457Y-3.9744
X4.1496Y-3.6831
X4.1693Y-2.437
X4.1737Y-2.4058
X4.1811Y-4.374
X4.1909Y-2.6201
X4.1929Y-3.3819
X4.2303Y-3.2146
X4.2362Y-2.6063
X4.2697Y-3.3386
X4.2717Y-3.1417
X4.2717Y-4.5512
X4.2756Y-4.7008
X4.2913Y-4.4252
X4.2972Y-4.002
X4.3002Y-3.7077
X4.3189Y-2.4803
X4.3189Y-2.5197
X4.3209Y-3.5689
X4.3248Y-3.5256
X4.3248Y-4.2657
X4.3248Y-4.3268
X4.3346Y-3.1457
X4.3445Y-3.1122
X4.3445Y-4.1299
X4.3681Y-3.5217
X4.3701Y-2.8799
X4.3878Y-4.6004
X4.3976Y-3.4567
X4.4134Y-4.8504
X4.4232Y-4.1299
X4.4429Y-3.3898
X4.4528Y-2.878
X4.4606Y-3.7638
X4.4646Y-2.3268
X4.4646Y-2.4409
X4.4646Y-2.5591
X4.4724Y-4.0354
X4.4724Y-4.4213
X4.4724Y-4.5984
X4.475Y-4.651
X4.4921Y-4.7008
X4.5374Y-2.878
X4.5394Y-3.6772
X4.5394Y-4.5138
X4.5807Y-4.3268
X4.5827Y-4.2657
X4.6004Y-3.3878
X4.6004Y-4.126
X4.6089Y-3.9793
X4.6142Y-4.6476
X4.622Y-2.878
X4.626Y-3.187
X4.626Y-3.248
X4.6457Y-4.5453
X4.689Y-2.9134
X4.7087Y-4.3976
X4.7205Y-2.9055
X4.7264Y-3.1654
X4.745Y-3.5708
X4.752Y-2.8268
X4.752Y-2.874
X4.752Y-3.1024
X4.752Y-3.1417
X4.7776Y-4.2657
X4.7835Y-3.1024
X4.7869Y-3.995
X4.7913Y-2.8465
X4.7913Y-3.0197
X4.7953Y-4.1181
X4.7972Y-3.3839
X4.8159Y-4.3593
X4.8228Y-3.0197
X4.8248Y-3.1811
X4.8268Y-3.2421
X4.8425Y-2.7677
X4.8819Y-3.2756
X4.8855Y-2.7654
X4.8884Y-2.8766
X4.8969Y-3.7594
X4.9134Y-3.2126
X4.9213Y-3.5551
X4.9291Y-2.874
X4.9567Y-3.1102
X4.9685Y-3.5512
X4.9803Y-4.3642
X5.0157Y-3.0079
X5.0335Y-3.687
X5.0394Y-3.9016
X5.0413Y-3.4311
X5.0827Y-4.3268
X5.0846Y-4.2638
X5.1299Y-4.4213
X5.1772Y-2.4665
X5.1772Y-2.5197
X5.1772Y-3.7087
X5.1791Y-3.3484
X5.1791Y-3.9272
X5.1841Y-2.8563
X5.185Y-2.815
X5.189Y-2.7008
X5.2283Y-4.5197
X5.2382Y-3.7067
X5.248Y-4.2913
X5.2707Y-3.8858
X5.2756Y-3.2913
X5.2776Y-3.3917
X5.2776Y-3.4547
X5.2835Y-3.5394
X5.2874Y-2.5807
X5.2894Y-2.5
X5.2894Y-2.6555
X5.2894Y-2.8169
X5.2894Y-2.8957
X5.2973Y-3.8071
X5.2973Y-3.8543
X5.315Y-4.3622
X5.3268Y-3.4547
X5.3268Y-3.5374
X5.3413Y-3.0259
X5.3681Y-3.4528
X5.3681Y-3.5394
X5.3858Y-4.0276
X5.3886Y-3.9817
X5.3989Y-3.2231
X5.4173Y-3.4567
X5.4173Y-3.5394
X5.437Y-3.9035
X5.439Y-3.7598
X5.4685Y-4.2402
X5.5138Y-3.935
X5.5157Y-2.1496
X5.5157Y-4.8268
X5.5177Y-4.2894
X5.5197Y-4.1024
X5.5689Y-4.8701
X5.5915Y-2.3179
X5.5915Y-2.4331
X5.5915Y-2.8612
X5.5915Y-2.9764
X5.6122Y-3.6752
X5.6555Y-4.9528
X5.6555Y-4.9941
X5.6673Y-4.1732
X5.6905Y-2.1373
X5.6909Y-4.9528
X5.7156Y-4.0659
X5.7165Y-4.4685
X5.7244Y-4.9528
X5.7638Y-2.2323
X5.7638Y-2.315
X5.7677Y-4.1969
X5.7756Y-4.3504
X5.8268Y-2.2283
X5.8583Y-3.3031
X5.8584Y-3.5
X5.8661Y-2.2717
X5.874Y-2.7402
X5.8996Y-4.6476
X5.8996Y-4.7972
X5.9134Y-2.8622
X5.9134Y-2.9774
X5.9144Y-2.3179
X5.9144Y-2.4331
X5.9252Y-4.5787
X5.9401Y-3.0992
X6.0079Y-4.5787
T2
X3.0157Y-2.126
X3.0157Y-4.9606
X3.0434Y-2.0592
X3.0434Y-2.1928
X3.0434Y-4.8938
X3.0434Y-5.0274
X3.1102Y-2.0315
X3.1102Y-2.2205
X3.1102Y-4.8661
X3.1102Y-5.0551
X3.177Y-2.0592
X3.177Y-2.1928
X3.177Y-4.8938
X3.177Y-5.0274
X3.2047Y-2.126
X3.2047Y-4.9606
X4.0276Y-4.378
X4.0276Y-4.4724
X4.0276Y-4.6732
X4.0315Y-4.5669
X5.8504Y-2.126
X5.8504Y-4.9606
X5.8781Y-2.0592
X5.8781Y-2.1928
X5.8781Y-4.8938
X5.8781Y-5.0274
X5.9449Y-2.0315
X5.9449Y-2.2205
X5.9449Y-4.8661
X5.9449Y-5.0551
X6.0117Y-2.0592
X6.0117Y-2.1928
X6.0117Y-4.8938
X6.0117Y-5.0274
X6.0394Y-2.126
X6.0394Y-4.9606
T4
X5.937Y-3.3878
X5.937Y-3.5846
T5
X3.9469Y-4.9006
X4.0256Y-2.1791
X4.0453Y-4.9006
X4.124Y-2.1791
X4.1437Y-4.9006
X4.2224Y-2.1791
X4.2421Y-4.9006
X4.3209Y-2.1791
X4.5866Y-4.8976
X4.5925Y-2.1791
X4.685Y-4.8976
X4.6909Y-2.1791
X4.7835Y-4.8976
X4.7894Y-2.1791
X4.8819Y-4.8976
X4.8878Y-2.1791
X4.9803Y-4.8976
X4.9862Y-2.1791
X5.0787Y-4.8976
X5.0846Y-2.1791
X5.1772Y-4.8976
X5.1831Y-2.1791
X5.2756Y-4.8976
X5.2815Y-2.1791
T6
X3.0709Y-2.4409
X3.0709Y-2.5409
X3.0709Y-2.6409
X3.0709Y-2.7409
X3.0709Y-2.8409
X3.0709Y-2.9409
X3.0709Y-3.0409
X3.0709Y-3.1409
X3.0709Y-3.2409
X3.0709Y-3.3409
X3.079Y-3.6094
X3.079Y-3.7094
X3.079Y-3.8094
X3.1136Y-4.5628
X3.1136Y-4.7128
X3.1709Y-2.4409
X3.1709Y-2.5409
X3.1709Y-2.6409
X3.1709Y-2.7409
X3.1709Y-2.8409
X3.1709Y-2.9409
X3.1709Y-3.0409
X3.1709Y-3.1409
X3.1709Y-3.2409
X3.1709Y-3.3409
X5.6033Y-3.0827
X5.6033Y-3.1827
X5.6033Y-3.2827
X5.6033Y-3.3827
X5.7033Y-3.0827
X5.7033Y-3.1827
X5.7033Y-3.2827
X5.7033Y-3.3827
X5.8724Y-4.0689
X5.8754Y-3.8504
X5.9724Y-4.0689
X5.9754Y-3.8504
T7
X3.1102Y-2.126
X3.1102Y-4.9606
X5.9449Y-2.126
X5.9449Y-4.9606
T3
G00X6.0295Y-3.3484
M15
G01X6.0571Y-3.3484
M16
G05
G00X6.0571Y-3.624
M15
G01X6.0295Y-3.624
M16
G05
T0
M30
