%TF.GenerationSoftware,KiCad,Pcbnew,(6.0.0)*%
%TF.CreationDate,2022-01-20T18:10:17+07:00*%
%TF.ProjectId,CubeSat Thesis MCU V2,43756265-5361-4742-9054-686573697320,rev?*%
%TF.SameCoordinates,Original*%
%TF.FileFunction,Legend,Bot*%
%TF.FilePolarity,Positive*%
%FSLAX46Y46*%
G04 Gerber Fmt 4.6, Leading zero omitted, Abs format (unit mm)*
G04 Created by KiCad (PCBNEW (6.0.0)) date 2022-01-20 18:10:17*
%MOMM*%
%LPD*%
G01*
G04 APERTURE LIST*
%ADD10C,0.150000*%
%ADD11C,0.300000*%
G04 APERTURE END LIST*
D10*
X127923806Y-121333333D02*
X127876187Y-121190476D01*
X127876187Y-120952380D01*
X127923806Y-120857142D01*
X127971425Y-120809523D01*
X128066663Y-120761904D01*
X128161901Y-120761904D01*
X128257139Y-120809523D01*
X128304758Y-120857142D01*
X128352377Y-120952380D01*
X128399996Y-121142857D01*
X128447615Y-121238095D01*
X128495234Y-121285714D01*
X128590472Y-121333333D01*
X128685710Y-121333333D01*
X128780948Y-121285714D01*
X128828568Y-121238095D01*
X128876187Y-121142857D01*
X128876187Y-120904761D01*
X128828568Y-120761904D01*
X127876187Y-120333333D02*
X128876187Y-120333333D01*
X128876187Y-119952380D01*
X128828568Y-119857142D01*
X128780948Y-119809523D01*
X128685710Y-119761904D01*
X128542853Y-119761904D01*
X128447615Y-119809523D01*
X128399996Y-119857142D01*
X128352377Y-119952380D01*
X128352377Y-120333333D01*
X127876187Y-119333333D02*
X128876187Y-119333333D01*
X128542853Y-118428571D02*
X127876187Y-118428571D01*
X128923806Y-118666666D02*
X128209520Y-118904761D01*
X128209520Y-118285714D01*
X127780948Y-118142857D02*
X127780948Y-117380952D01*
X127876187Y-117142857D02*
X128876187Y-117142857D01*
X128161901Y-116809523D01*
X128876187Y-116476190D01*
X127876187Y-116476190D01*
X127876187Y-115999999D02*
X128876187Y-115999999D01*
X127923806Y-115571428D02*
X127876187Y-115428571D01*
X127876187Y-115190476D01*
X127923806Y-115095237D01*
X127971425Y-115047618D01*
X128066663Y-114999999D01*
X128161901Y-114999999D01*
X128257139Y-115047618D01*
X128304758Y-115095237D01*
X128352377Y-115190476D01*
X128399996Y-115380952D01*
X128447615Y-115476190D01*
X128495234Y-115523809D01*
X128590472Y-115571428D01*
X128685710Y-115571428D01*
X128780948Y-115523809D01*
X128828568Y-115476190D01*
X128876187Y-115380952D01*
X128876187Y-115142857D01*
X128828568Y-114999999D01*
X128876187Y-114380952D02*
X128876187Y-114190476D01*
X128828568Y-114095237D01*
X128733329Y-113999999D01*
X128542853Y-113952380D01*
X128209520Y-113952380D01*
X128019044Y-113999999D01*
X127923806Y-114095237D01*
X127876187Y-114190476D01*
X127876187Y-114380952D01*
X127923806Y-114476190D01*
X128019044Y-114571428D01*
X128209520Y-114619047D01*
X128542853Y-114619047D01*
X128733329Y-114571428D01*
X128828568Y-114476190D01*
X128876187Y-114380952D01*
X121509522Y-65695239D02*
X121461903Y-65552382D01*
X121461903Y-65314286D01*
X121509522Y-65219048D01*
X121557141Y-65171429D01*
X121652379Y-65123810D01*
X121747617Y-65123810D01*
X121842855Y-65171429D01*
X121890474Y-65219048D01*
X121938093Y-65314286D01*
X121985712Y-65504763D01*
X122033331Y-65600001D01*
X122080950Y-65647620D01*
X122176188Y-65695239D01*
X122271426Y-65695239D01*
X122366664Y-65647620D01*
X122414284Y-65600001D01*
X122461903Y-65504763D01*
X122461903Y-65266667D01*
X122414284Y-65123810D01*
X121461903Y-64695239D02*
X122461903Y-64695239D01*
X122461903Y-64314286D01*
X122414284Y-64219048D01*
X122366664Y-64171429D01*
X122271426Y-64123810D01*
X122128569Y-64123810D01*
X122033331Y-64171429D01*
X121985712Y-64219048D01*
X121938093Y-64314286D01*
X121938093Y-64695239D01*
X121461903Y-63695239D02*
X122461903Y-63695239D01*
X121461903Y-62695239D02*
X121461903Y-63266667D01*
X121461903Y-62980953D02*
X122461903Y-62980953D01*
X122319045Y-63076191D01*
X122223807Y-63171429D01*
X122176188Y-63266667D01*
X121366664Y-62504763D02*
X121366664Y-61742858D01*
X121461903Y-61504763D02*
X122461903Y-61504763D01*
X121747617Y-61171429D01*
X122461903Y-60838096D01*
X121461903Y-60838096D01*
X121461903Y-60361905D02*
X122461903Y-60361905D01*
X121509522Y-59933334D02*
X121461903Y-59790477D01*
X121461903Y-59552382D01*
X121509522Y-59457143D01*
X121557141Y-59409524D01*
X121652379Y-59361905D01*
X121747617Y-59361905D01*
X121842855Y-59409524D01*
X121890474Y-59457143D01*
X121938093Y-59552382D01*
X121985712Y-59742858D01*
X122033331Y-59838096D01*
X122080950Y-59885715D01*
X122176188Y-59933334D01*
X122271426Y-59933334D01*
X122366664Y-59885715D01*
X122414284Y-59838096D01*
X122461903Y-59742858D01*
X122461903Y-59504763D01*
X122414284Y-59361905D01*
X122461903Y-58742858D02*
X122461903Y-58552382D01*
X122414284Y-58457143D01*
X122319045Y-58361905D01*
X122128569Y-58314286D01*
X121795236Y-58314286D01*
X121604760Y-58361905D01*
X121509522Y-58457143D01*
X121461903Y-58552382D01*
X121461903Y-58742858D01*
X121509522Y-58838096D01*
X121604760Y-58933334D01*
X121795236Y-58980953D01*
X122128569Y-58980953D01*
X122319045Y-58933334D01*
X122414284Y-58838096D01*
X122461903Y-58742858D01*
X101847619Y-64838095D02*
X102847619Y-64838095D01*
X102752380Y-64409523D02*
X102800000Y-64361904D01*
X102847619Y-64266666D01*
X102847619Y-64028571D01*
X102800000Y-63933333D01*
X102752380Y-63885714D01*
X102657142Y-63838095D01*
X102561904Y-63838095D01*
X102419047Y-63885714D01*
X101847619Y-64457142D01*
X101847619Y-63838095D01*
X101942857Y-62838095D02*
X101895238Y-62885714D01*
X101847619Y-63028571D01*
X101847619Y-63123809D01*
X101895238Y-63266666D01*
X101990476Y-63361904D01*
X102085714Y-63409523D01*
X102276190Y-63457142D01*
X102419047Y-63457142D01*
X102609523Y-63409523D01*
X102704761Y-63361904D01*
X102800000Y-63266666D01*
X102847619Y-63123809D01*
X102847619Y-63028571D01*
X102800000Y-62885714D01*
X102752380Y-62838095D01*
X102514285Y-61980952D02*
X101847619Y-61980952D01*
X102895238Y-62219047D02*
X102180952Y-62457142D01*
X102180952Y-61838095D01*
X101752380Y-61695238D02*
X101752380Y-60933333D01*
X101895238Y-60742857D02*
X101847619Y-60600000D01*
X101847619Y-60361904D01*
X101895238Y-60266666D01*
X101942857Y-60219047D01*
X102038095Y-60171428D01*
X102133333Y-60171428D01*
X102228571Y-60219047D01*
X102276190Y-60266666D01*
X102323809Y-60361904D01*
X102371428Y-60552380D01*
X102419047Y-60647619D01*
X102466666Y-60695238D01*
X102561904Y-60742857D01*
X102657142Y-60742857D01*
X102752380Y-60695238D01*
X102800000Y-60647619D01*
X102847619Y-60552380D01*
X102847619Y-60314285D01*
X102800000Y-60171428D01*
X101847619Y-59742857D02*
X102847619Y-59742857D01*
X102847619Y-59504761D01*
X102800000Y-59361904D01*
X102704761Y-59266666D01*
X102609523Y-59219047D01*
X102419047Y-59171428D01*
X102276190Y-59171428D01*
X102085714Y-59219047D01*
X101990476Y-59266666D01*
X101895238Y-59361904D01*
X101847619Y-59504761D01*
X101847619Y-59742857D01*
X102133333Y-58790476D02*
X102133333Y-58314285D01*
X101847619Y-58885714D02*
X102847619Y-58552380D01*
X101847619Y-58219047D01*
X103233334Y-122338094D02*
X103280953Y-122433332D01*
X103280953Y-122576190D01*
X103233334Y-122719047D01*
X103138095Y-122814285D01*
X103042857Y-122861904D01*
X102852381Y-122909523D01*
X102709524Y-122909523D01*
X102519048Y-122861904D01*
X102423810Y-122814285D01*
X102328572Y-122719047D01*
X102280953Y-122576190D01*
X102280953Y-122480951D01*
X102328572Y-122338094D01*
X102376191Y-122290475D01*
X102709524Y-122290475D01*
X102709524Y-122480951D01*
X102280953Y-121861904D02*
X103280953Y-121861904D01*
X102280953Y-121290475D01*
X103280953Y-121290475D01*
X102280953Y-120814285D02*
X103280953Y-120814285D01*
X103280953Y-120576190D01*
X103233334Y-120433332D01*
X103138095Y-120338094D01*
X103042857Y-120290475D01*
X102852381Y-120242856D01*
X102709524Y-120242856D01*
X102519048Y-120290475D01*
X102423810Y-120338094D01*
X102328572Y-120433332D01*
X102280953Y-120576190D01*
X102280953Y-120814285D01*
X121504761Y-121428571D02*
X121504761Y-120857143D01*
X120504761Y-121142857D02*
X121504761Y-121142857D01*
X120504761Y-120523810D02*
X121504761Y-120523810D01*
X120504761Y-120047619D02*
X121504761Y-120047619D01*
X120790475Y-119714286D01*
X121504761Y-119380952D01*
X120504761Y-119380952D01*
X120504761Y-118380952D02*
X120504761Y-118952381D01*
X120504761Y-118666667D02*
X121504761Y-118666667D01*
X121361903Y-118761905D01*
X121266665Y-118857143D01*
X121219046Y-118952381D01*
X120409522Y-118190476D02*
X120409522Y-117428571D01*
X120599999Y-116619048D02*
X120552380Y-116666667D01*
X120504761Y-116809524D01*
X120504761Y-116904762D01*
X120552380Y-117047619D01*
X120647618Y-117142857D01*
X120742856Y-117190476D01*
X120933332Y-117238095D01*
X121076189Y-117238095D01*
X121266665Y-117190476D01*
X121361903Y-117142857D01*
X121457142Y-117047619D01*
X121504761Y-116904762D01*
X121504761Y-116809524D01*
X121457142Y-116666667D01*
X121409522Y-116619048D01*
X120504761Y-116190476D02*
X121504761Y-116190476D01*
X121028570Y-116190476D02*
X121028570Y-115619048D01*
X120504761Y-115619048D02*
X121504761Y-115619048D01*
X120504761Y-114619048D02*
X120504761Y-115190476D01*
X120504761Y-114904762D02*
X121504761Y-114904762D01*
X121361903Y-115000000D01*
X121266665Y-115095238D01*
X121219046Y-115190476D01*
X105814286Y-122957142D02*
X105004762Y-122957142D01*
X104909524Y-122909523D01*
X104861905Y-122861904D01*
X104814286Y-122766666D01*
X104814286Y-122576190D01*
X104861905Y-122480952D01*
X104909524Y-122433333D01*
X105004762Y-122385714D01*
X105814286Y-122385714D01*
X105100000Y-121957142D02*
X105100000Y-121480952D01*
X104814286Y-122052380D02*
X105814286Y-121719047D01*
X104814286Y-121385714D01*
X104814286Y-120480952D02*
X105290476Y-120814285D01*
X104814286Y-121052380D02*
X105814286Y-121052380D01*
X105814286Y-120671428D01*
X105766667Y-120576190D01*
X105719047Y-120528571D01*
X105623809Y-120480952D01*
X105480952Y-120480952D01*
X105385714Y-120528571D01*
X105338095Y-120576190D01*
X105290476Y-120671428D01*
X105290476Y-121052380D01*
X105814286Y-120195238D02*
X105814286Y-119623809D01*
X104814286Y-119909523D02*
X105814286Y-119909523D01*
X105719047Y-119338095D02*
X105766667Y-119290476D01*
X105814286Y-119195238D01*
X105814286Y-118957142D01*
X105766667Y-118861904D01*
X105719047Y-118814285D01*
X105623809Y-118766666D01*
X105528571Y-118766666D01*
X105385714Y-118814285D01*
X104814286Y-119385714D01*
X104814286Y-118766666D01*
X104719047Y-118576190D02*
X104719047Y-117814285D01*
X105814286Y-117719047D02*
X105814286Y-117147619D01*
X104814286Y-117433333D02*
X105814286Y-117433333D01*
X105814286Y-116909523D02*
X104814286Y-116242857D01*
X105814286Y-116242857D02*
X104814286Y-116909523D01*
X107866666Y-60409523D02*
X107914285Y-60504761D01*
X107914285Y-60647619D01*
X107866666Y-60790476D01*
X107771427Y-60885714D01*
X107676189Y-60933333D01*
X107485713Y-60980952D01*
X107342856Y-60980952D01*
X107152380Y-60933333D01*
X107057142Y-60885714D01*
X106961904Y-60790476D01*
X106914285Y-60647619D01*
X106914285Y-60552380D01*
X106961904Y-60409523D01*
X107009523Y-60361904D01*
X107342856Y-60361904D01*
X107342856Y-60552380D01*
X106914285Y-59933333D02*
X107914285Y-59933333D01*
X106914285Y-59361904D01*
X107914285Y-59361904D01*
X106914285Y-58885714D02*
X107914285Y-58885714D01*
X107914285Y-58647619D01*
X107866666Y-58504761D01*
X107771427Y-58409523D01*
X107676189Y-58361904D01*
X107485713Y-58314285D01*
X107342856Y-58314285D01*
X107152380Y-58361904D01*
X107057142Y-58409523D01*
X106961904Y-58504761D01*
X106914285Y-58647619D01*
X106914285Y-58885714D01*
X108347619Y-123052380D02*
X107538095Y-123052380D01*
X107442857Y-123004761D01*
X107395238Y-122957142D01*
X107347619Y-122861904D01*
X107347619Y-122671428D01*
X107395238Y-122576189D01*
X107442857Y-122528570D01*
X107538095Y-122480951D01*
X108347619Y-122480951D01*
X107633333Y-122052380D02*
X107633333Y-121576189D01*
X107347619Y-122147618D02*
X108347619Y-121814285D01*
X107347619Y-121480951D01*
X107347619Y-120576189D02*
X107823809Y-120909523D01*
X107347619Y-121147618D02*
X108347619Y-121147618D01*
X108347619Y-120766666D01*
X108300000Y-120671428D01*
X108252380Y-120623809D01*
X108157142Y-120576189D01*
X108014285Y-120576189D01*
X107919047Y-120623809D01*
X107871428Y-120671428D01*
X107823809Y-120766666D01*
X107823809Y-121147618D01*
X108347619Y-120290475D02*
X108347619Y-119719047D01*
X107347619Y-120004761D02*
X108347619Y-120004761D01*
X108252380Y-119433332D02*
X108300000Y-119385713D01*
X108347619Y-119290475D01*
X108347619Y-119052380D01*
X108300000Y-118957142D01*
X108252380Y-118909523D01*
X108157142Y-118861904D01*
X108061904Y-118861904D01*
X107919047Y-118909523D01*
X107347619Y-119480951D01*
X107347619Y-118861904D01*
X107252380Y-118671428D02*
X107252380Y-117909523D01*
X107347619Y-117099999D02*
X107823809Y-117433332D01*
X107347619Y-117671428D02*
X108347619Y-117671428D01*
X108347619Y-117290475D01*
X108300000Y-117195237D01*
X108252380Y-117147618D01*
X108157142Y-117099999D01*
X108014285Y-117099999D01*
X107919047Y-117147618D01*
X107871428Y-117195237D01*
X107823809Y-117290475D01*
X107823809Y-117671428D01*
X108347619Y-116766666D02*
X107347619Y-116099999D01*
X108347619Y-116099999D02*
X107347619Y-116766666D01*
X104380952Y-64790476D02*
X105380952Y-64790476D01*
X105285713Y-64361905D02*
X105333333Y-64314286D01*
X105380952Y-64219048D01*
X105380952Y-63980952D01*
X105333333Y-63885714D01*
X105285713Y-63838095D01*
X105190475Y-63790476D01*
X105095237Y-63790476D01*
X104952380Y-63838095D01*
X104380952Y-64409524D01*
X104380952Y-63790476D01*
X104476190Y-62790476D02*
X104428571Y-62838095D01*
X104380952Y-62980952D01*
X104380952Y-63076191D01*
X104428571Y-63219048D01*
X104523809Y-63314286D01*
X104619047Y-63361905D01*
X104809523Y-63409524D01*
X104952380Y-63409524D01*
X105142856Y-63361905D01*
X105238094Y-63314286D01*
X105333333Y-63219048D01*
X105380952Y-63076191D01*
X105380952Y-62980952D01*
X105333333Y-62838095D01*
X105285713Y-62790476D01*
X105047618Y-61933333D02*
X104380952Y-61933333D01*
X105428571Y-62171429D02*
X104714285Y-62409524D01*
X104714285Y-61790476D01*
X104285713Y-61647619D02*
X104285713Y-60885714D01*
X104428571Y-60695238D02*
X104380952Y-60552381D01*
X104380952Y-60314286D01*
X104428571Y-60219048D01*
X104476190Y-60171429D01*
X104571428Y-60123810D01*
X104666666Y-60123810D01*
X104761904Y-60171429D01*
X104809523Y-60219048D01*
X104857142Y-60314286D01*
X104904761Y-60504762D01*
X104952380Y-60600000D01*
X104999999Y-60647619D01*
X105095237Y-60695238D01*
X105190475Y-60695238D01*
X105285713Y-60647619D01*
X105333333Y-60600000D01*
X105380952Y-60504762D01*
X105380952Y-60266667D01*
X105333333Y-60123810D01*
X104476190Y-59123810D02*
X104428571Y-59171429D01*
X104380952Y-59314286D01*
X104380952Y-59409524D01*
X104428571Y-59552381D01*
X104523809Y-59647619D01*
X104619047Y-59695238D01*
X104809523Y-59742857D01*
X104952380Y-59742857D01*
X105142856Y-59695238D01*
X105238094Y-59647619D01*
X105333333Y-59552381D01*
X105380952Y-59409524D01*
X105380952Y-59314286D01*
X105333333Y-59171429D01*
X105285713Y-59123810D01*
X104380952Y-58219048D02*
X104380952Y-58695238D01*
X105380952Y-58695238D01*
X109828571Y-61885714D02*
X109828571Y-61123810D01*
X109447619Y-61504762D02*
X110209523Y-61504762D01*
X110447619Y-60742857D02*
X110447619Y-60123810D01*
X110066666Y-60457143D01*
X110066666Y-60314286D01*
X110019047Y-60219048D01*
X109971428Y-60171429D01*
X109876190Y-60123810D01*
X109638095Y-60123810D01*
X109542857Y-60171429D01*
X109495238Y-60219048D01*
X109447619Y-60314286D01*
X109447619Y-60600000D01*
X109495238Y-60695238D01*
X109542857Y-60742857D01*
X110447619Y-59838095D02*
X109447619Y-59504762D01*
X110447619Y-59171429D01*
X110447619Y-58933333D02*
X110447619Y-58314286D01*
X110066666Y-58647619D01*
X110066666Y-58504762D01*
X110019047Y-58409524D01*
X109971428Y-58361905D01*
X109876190Y-58314286D01*
X109638095Y-58314286D01*
X109542857Y-58361905D01*
X109495238Y-58409524D01*
X109447619Y-58504762D01*
X109447619Y-58790476D01*
X109495238Y-58885714D01*
X109542857Y-58933333D01*
X125466664Y-121333333D02*
X125419045Y-121190476D01*
X125419045Y-120952381D01*
X125466664Y-120857143D01*
X125514283Y-120809524D01*
X125609521Y-120761905D01*
X125704759Y-120761905D01*
X125799997Y-120809524D01*
X125847616Y-120857143D01*
X125895235Y-120952381D01*
X125942854Y-121142857D01*
X125990473Y-121238095D01*
X126038092Y-121285714D01*
X126133330Y-121333333D01*
X126228568Y-121333333D01*
X126323806Y-121285714D01*
X126371426Y-121238095D01*
X126419045Y-121142857D01*
X126419045Y-120904762D01*
X126371426Y-120761905D01*
X125419045Y-120333333D02*
X126419045Y-120333333D01*
X126419045Y-119952381D01*
X126371426Y-119857143D01*
X126323806Y-119809524D01*
X126228568Y-119761905D01*
X126085711Y-119761905D01*
X125990473Y-119809524D01*
X125942854Y-119857143D01*
X125895235Y-119952381D01*
X125895235Y-120333333D01*
X125419045Y-119333333D02*
X126419045Y-119333333D01*
X126085711Y-118428571D02*
X125419045Y-118428571D01*
X126466664Y-118666667D02*
X125752378Y-118904762D01*
X125752378Y-118285714D01*
X125323806Y-118142857D02*
X125323806Y-117380952D01*
X125466664Y-117190476D02*
X125419045Y-117047619D01*
X125419045Y-116809524D01*
X125466664Y-116714286D01*
X125514283Y-116666667D01*
X125609521Y-116619048D01*
X125704759Y-116619048D01*
X125799997Y-116666667D01*
X125847616Y-116714286D01*
X125895235Y-116809524D01*
X125942854Y-117000000D01*
X125990473Y-117095238D01*
X126038092Y-117142857D01*
X126133330Y-117190476D01*
X126228568Y-117190476D01*
X126323806Y-117142857D01*
X126371426Y-117095238D01*
X126419045Y-117000000D01*
X126419045Y-116761905D01*
X126371426Y-116619048D01*
X125514283Y-115619048D02*
X125466664Y-115666667D01*
X125419045Y-115809524D01*
X125419045Y-115904762D01*
X125466664Y-116047619D01*
X125561902Y-116142857D01*
X125657140Y-116190476D01*
X125847616Y-116238095D01*
X125990473Y-116238095D01*
X126180949Y-116190476D01*
X126276187Y-116142857D01*
X126371426Y-116047619D01*
X126419045Y-115904762D01*
X126419045Y-115809524D01*
X126371426Y-115666667D01*
X126323806Y-115619048D01*
X125419045Y-115190476D02*
X126419045Y-115190476D01*
X125419045Y-114619048D02*
X125990473Y-115047619D01*
X126419045Y-114619048D02*
X125847616Y-115190476D01*
X123961903Y-121428571D02*
X123961903Y-120857143D01*
X122961903Y-121142857D02*
X123961903Y-121142857D01*
X122961903Y-120523810D02*
X123961903Y-120523810D01*
X122961903Y-120047619D02*
X123961903Y-120047619D01*
X123247617Y-119714286D01*
X123961903Y-119380952D01*
X122961903Y-119380952D01*
X122961903Y-118380952D02*
X122961903Y-118952381D01*
X122961903Y-118666667D02*
X123961903Y-118666667D01*
X123819045Y-118761905D01*
X123723807Y-118857143D01*
X123676188Y-118952381D01*
X122866664Y-118190476D02*
X122866664Y-117428571D01*
X123057141Y-116619048D02*
X123009522Y-116666667D01*
X122961903Y-116809524D01*
X122961903Y-116904762D01*
X123009522Y-117047619D01*
X123104760Y-117142857D01*
X123199998Y-117190476D01*
X123390474Y-117238095D01*
X123533331Y-117238095D01*
X123723807Y-117190476D01*
X123819045Y-117142857D01*
X123914284Y-117047619D01*
X123961903Y-116904762D01*
X123961903Y-116809524D01*
X123914284Y-116666667D01*
X123866664Y-116619048D01*
X122961903Y-116190476D02*
X123961903Y-116190476D01*
X123485712Y-116190476D02*
X123485712Y-115619048D01*
X122961903Y-115619048D02*
X123961903Y-115619048D01*
X123866664Y-115190476D02*
X123914284Y-115142857D01*
X123961903Y-115047619D01*
X123961903Y-114809524D01*
X123914284Y-114714286D01*
X123866664Y-114666667D01*
X123771426Y-114619048D01*
X123676188Y-114619048D01*
X123533331Y-114666667D01*
X122961903Y-115238095D01*
X122961903Y-114619048D01*
X119000000Y-120761904D02*
X119047619Y-120857142D01*
X119047619Y-121000000D01*
X119000000Y-121142857D01*
X118904761Y-121238095D01*
X118809523Y-121285714D01*
X118619047Y-121333333D01*
X118476190Y-121333333D01*
X118285714Y-121285714D01*
X118190476Y-121238095D01*
X118095238Y-121142857D01*
X118047619Y-121000000D01*
X118047619Y-120904761D01*
X118095238Y-120761904D01*
X118142857Y-120714285D01*
X118476190Y-120714285D01*
X118476190Y-120904761D01*
X118047619Y-120285714D02*
X119047619Y-120285714D01*
X118047619Y-119714285D01*
X119047619Y-119714285D01*
X118047619Y-119238095D02*
X119047619Y-119238095D01*
X119047619Y-119000000D01*
X119000000Y-118857142D01*
X118904761Y-118761904D01*
X118809523Y-118714285D01*
X118619047Y-118666666D01*
X118476190Y-118666666D01*
X118285714Y-118714285D01*
X118190476Y-118761904D01*
X118095238Y-118857142D01*
X118047619Y-119000000D01*
X118047619Y-119238095D01*
X100128571Y-122861904D02*
X100128571Y-122100000D01*
X99747619Y-122480952D02*
X100509523Y-122480952D01*
X100747619Y-121719047D02*
X100747619Y-121100000D01*
X100366666Y-121433333D01*
X100366666Y-121290476D01*
X100319047Y-121195238D01*
X100271428Y-121147619D01*
X100176190Y-121100000D01*
X99938095Y-121100000D01*
X99842857Y-121147619D01*
X99795238Y-121195238D01*
X99747619Y-121290476D01*
X99747619Y-121576190D01*
X99795238Y-121671428D01*
X99842857Y-121719047D01*
X100747619Y-120814285D02*
X99747619Y-120480952D01*
X100747619Y-120147619D01*
X100747619Y-119909523D02*
X100747619Y-119290476D01*
X100366666Y-119623809D01*
X100366666Y-119480952D01*
X100319047Y-119385714D01*
X100271428Y-119338095D01*
X100176190Y-119290476D01*
X99938095Y-119290476D01*
X99842857Y-119338095D01*
X99795238Y-119385714D01*
X99747619Y-119480952D01*
X99747619Y-119766666D01*
X99795238Y-119861904D01*
X99842857Y-119909523D01*
X115971423Y-121285714D02*
X115971423Y-120523810D01*
X115590471Y-120904762D02*
X116352375Y-120904762D01*
X116590471Y-120142857D02*
X116590471Y-119523810D01*
X116209518Y-119857143D01*
X116209518Y-119714286D01*
X116161899Y-119619048D01*
X116114280Y-119571429D01*
X116019042Y-119523810D01*
X115780947Y-119523810D01*
X115685709Y-119571429D01*
X115638090Y-119619048D01*
X115590471Y-119714286D01*
X115590471Y-120000000D01*
X115638090Y-120095238D01*
X115685709Y-120142857D01*
X116590471Y-119238095D02*
X115590471Y-118904762D01*
X116590471Y-118571429D01*
X116590471Y-118333333D02*
X116590471Y-117714286D01*
X116209518Y-118047619D01*
X116209518Y-117904762D01*
X116161899Y-117809524D01*
X116114280Y-117761905D01*
X116019042Y-117714286D01*
X115780947Y-117714286D01*
X115685709Y-117761905D01*
X115638090Y-117809524D01*
X115590471Y-117904762D01*
X115590471Y-118190476D01*
X115638090Y-118285714D01*
X115685709Y-118333333D01*
X130380948Y-121333333D02*
X130333329Y-121190476D01*
X130333329Y-120952380D01*
X130380948Y-120857142D01*
X130428567Y-120809523D01*
X130523805Y-120761904D01*
X130619043Y-120761904D01*
X130714281Y-120809523D01*
X130761900Y-120857142D01*
X130809519Y-120952380D01*
X130857138Y-121142857D01*
X130904757Y-121238095D01*
X130952376Y-121285714D01*
X131047614Y-121333333D01*
X131142852Y-121333333D01*
X131238090Y-121285714D01*
X131285710Y-121238095D01*
X131333329Y-121142857D01*
X131333329Y-120904761D01*
X131285710Y-120761904D01*
X130333329Y-120333333D02*
X131333329Y-120333333D01*
X131333329Y-119952380D01*
X131285710Y-119857142D01*
X131238090Y-119809523D01*
X131142852Y-119761904D01*
X130999995Y-119761904D01*
X130904757Y-119809523D01*
X130857138Y-119857142D01*
X130809519Y-119952380D01*
X130809519Y-120333333D01*
X130333329Y-119333333D02*
X131333329Y-119333333D01*
X130999995Y-118428571D02*
X130333329Y-118428571D01*
X131380948Y-118666666D02*
X130666662Y-118904761D01*
X130666662Y-118285714D01*
X130238090Y-118142857D02*
X130238090Y-117380952D01*
X130333329Y-117142857D02*
X131333329Y-117142857D01*
X130619043Y-116809523D01*
X131333329Y-116476190D01*
X130333329Y-116476190D01*
X131333329Y-115809523D02*
X131333329Y-115619047D01*
X131285710Y-115523809D01*
X131190471Y-115428571D01*
X130999995Y-115380952D01*
X130666662Y-115380952D01*
X130476186Y-115428571D01*
X130380948Y-115523809D01*
X130333329Y-115619047D01*
X130333329Y-115809523D01*
X130380948Y-115904761D01*
X130476186Y-115999999D01*
X130666662Y-116047618D01*
X130999995Y-116047618D01*
X131190471Y-115999999D01*
X131285710Y-115904761D01*
X131333329Y-115809523D01*
X130380948Y-114999999D02*
X130333329Y-114857142D01*
X130333329Y-114619047D01*
X130380948Y-114523809D01*
X130428567Y-114476190D01*
X130523805Y-114428571D01*
X130619043Y-114428571D01*
X130714281Y-114476190D01*
X130761900Y-114523809D01*
X130809519Y-114619047D01*
X130857138Y-114809523D01*
X130904757Y-114904761D01*
X130952376Y-114952380D01*
X131047614Y-114999999D01*
X131142852Y-114999999D01*
X131238090Y-114952380D01*
X131285710Y-114904761D01*
X131333329Y-114809523D01*
X131333329Y-114571428D01*
X131285710Y-114428571D01*
X130333329Y-113999999D02*
X131333329Y-113999999D01*
X129833329Y-65123809D02*
X129833329Y-64552381D01*
X128833329Y-64838095D02*
X129833329Y-64838095D01*
X128833329Y-64219048D02*
X129833329Y-64219048D01*
X128833329Y-63742857D02*
X129833329Y-63742857D01*
X129119043Y-63409524D01*
X129833329Y-63076190D01*
X128833329Y-63076190D01*
X129833329Y-62695238D02*
X129833329Y-62076190D01*
X129452376Y-62409524D01*
X129452376Y-62266667D01*
X129404757Y-62171429D01*
X129357138Y-62123809D01*
X129261900Y-62076190D01*
X129023805Y-62076190D01*
X128928567Y-62123809D01*
X128880948Y-62171429D01*
X128833329Y-62266667D01*
X128833329Y-62552381D01*
X128880948Y-62647619D01*
X128928567Y-62695238D01*
X128738090Y-61885714D02*
X128738090Y-61123809D01*
X128928567Y-60314286D02*
X128880948Y-60361905D01*
X128833329Y-60504762D01*
X128833329Y-60600000D01*
X128880948Y-60742857D01*
X128976186Y-60838095D01*
X129071424Y-60885714D01*
X129261900Y-60933333D01*
X129404757Y-60933333D01*
X129595233Y-60885714D01*
X129690471Y-60838095D01*
X129785710Y-60742857D01*
X129833329Y-60600000D01*
X129833329Y-60504762D01*
X129785710Y-60361905D01*
X129738090Y-60314286D01*
X128833329Y-59885714D02*
X129833329Y-59885714D01*
X129357138Y-59885714D02*
X129357138Y-59314286D01*
X128833329Y-59314286D02*
X129833329Y-59314286D01*
X128833329Y-58314286D02*
X128833329Y-58885714D01*
X128833329Y-58600000D02*
X129833329Y-58600000D01*
X129690471Y-58695238D01*
X129595233Y-58790476D01*
X129547614Y-58885714D01*
X132242852Y-60409524D02*
X132290471Y-60504762D01*
X132290471Y-60647620D01*
X132242852Y-60790477D01*
X132147613Y-60885715D01*
X132052375Y-60933334D01*
X131861899Y-60980953D01*
X131719042Y-60980953D01*
X131528566Y-60933334D01*
X131433328Y-60885715D01*
X131338090Y-60790477D01*
X131290471Y-60647620D01*
X131290471Y-60552381D01*
X131338090Y-60409524D01*
X131385709Y-60361905D01*
X131719042Y-60361905D01*
X131719042Y-60552381D01*
X131290471Y-59933334D02*
X132290471Y-59933334D01*
X131290471Y-59361905D01*
X132290471Y-59361905D01*
X131290471Y-58885715D02*
X132290471Y-58885715D01*
X132290471Y-58647620D01*
X132242852Y-58504762D01*
X132147613Y-58409524D01*
X132052375Y-58361905D01*
X131861899Y-58314286D01*
X131719042Y-58314286D01*
X131528566Y-58361905D01*
X131433328Y-58409524D01*
X131338090Y-58504762D01*
X131290471Y-58647620D01*
X131290471Y-58885715D01*
D11*
X98671785Y-86807142D02*
X98600357Y-86878571D01*
X98528928Y-87092857D01*
X98528928Y-87235714D01*
X98600357Y-87450000D01*
X98743214Y-87592857D01*
X98886071Y-87664285D01*
X99171785Y-87735714D01*
X99386071Y-87735714D01*
X99671785Y-87664285D01*
X99814642Y-87592857D01*
X99957500Y-87450000D01*
X100028928Y-87235714D01*
X100028928Y-87092857D01*
X99957500Y-86878571D01*
X99886071Y-86807142D01*
X99528928Y-85521428D02*
X98528928Y-85521428D01*
X99528928Y-86164285D02*
X98743214Y-86164285D01*
X98600357Y-86092857D01*
X98528928Y-85950000D01*
X98528928Y-85735714D01*
X98600357Y-85592857D01*
X98671785Y-85521428D01*
X98528928Y-84807142D02*
X100028928Y-84807142D01*
X99457500Y-84807142D02*
X99528928Y-84664285D01*
X99528928Y-84378571D01*
X99457500Y-84235714D01*
X99386071Y-84164285D01*
X99243214Y-84092857D01*
X98814642Y-84092857D01*
X98671785Y-84164285D01*
X98600357Y-84235714D01*
X98528928Y-84378571D01*
X98528928Y-84664285D01*
X98600357Y-84807142D01*
X98600357Y-82878571D02*
X98528928Y-83021428D01*
X98528928Y-83307142D01*
X98600357Y-83450000D01*
X98743214Y-83521428D01*
X99314642Y-83521428D01*
X99457500Y-83450000D01*
X99528928Y-83307142D01*
X99528928Y-83021428D01*
X99457500Y-82878571D01*
X99314642Y-82807142D01*
X99171785Y-82807142D01*
X99028928Y-83521428D01*
X98600357Y-82235714D02*
X98528928Y-82021428D01*
X98528928Y-81664285D01*
X98600357Y-81521428D01*
X98671785Y-81450000D01*
X98814642Y-81378571D01*
X98957500Y-81378571D01*
X99100357Y-81450000D01*
X99171785Y-81521428D01*
X99243214Y-81664285D01*
X99314642Y-81950000D01*
X99386071Y-82092857D01*
X99457500Y-82164285D01*
X99600357Y-82235714D01*
X99743214Y-82235714D01*
X99886071Y-82164285D01*
X99957500Y-82092857D01*
X100028928Y-81950000D01*
X100028928Y-81592857D01*
X99957500Y-81378571D01*
X98528928Y-80092857D02*
X99314642Y-80092857D01*
X99457500Y-80164285D01*
X99528928Y-80307142D01*
X99528928Y-80592857D01*
X99457500Y-80735714D01*
X98600357Y-80092857D02*
X98528928Y-80235714D01*
X98528928Y-80592857D01*
X98600357Y-80735714D01*
X98743214Y-80807142D01*
X98886071Y-80807142D01*
X99028928Y-80735714D01*
X99100357Y-80592857D01*
X99100357Y-80235714D01*
X99171785Y-80092857D01*
X99528928Y-79592857D02*
X99528928Y-79021428D01*
X100028928Y-79378571D02*
X98743214Y-79378571D01*
X98600357Y-79307142D01*
X98528928Y-79164285D01*
X98528928Y-79021428D01*
X98528928Y-77378571D02*
X100028928Y-77378571D01*
X98957500Y-76878571D01*
X100028928Y-76378571D01*
X98528928Y-76378571D01*
X98671785Y-74807142D02*
X98600357Y-74878571D01*
X98528928Y-75092857D01*
X98528928Y-75235714D01*
X98600357Y-75450000D01*
X98743214Y-75592857D01*
X98886071Y-75664285D01*
X99171785Y-75735714D01*
X99386071Y-75735714D01*
X99671785Y-75664285D01*
X99814642Y-75592857D01*
X99957500Y-75450000D01*
X100028928Y-75235714D01*
X100028928Y-75092857D01*
X99957500Y-74878571D01*
X99886071Y-74807142D01*
X100028928Y-74164285D02*
X98814642Y-74164285D01*
X98671785Y-74092857D01*
X98600357Y-74021428D01*
X98528928Y-73878571D01*
X98528928Y-73592857D01*
X98600357Y-73450000D01*
X98671785Y-73378571D01*
X98814642Y-73307142D01*
X100028928Y-73307142D01*
X100028928Y-71664285D02*
X98528928Y-71164285D01*
X100028928Y-70664285D01*
X98671785Y-70164285D02*
X98600357Y-70092857D01*
X98528928Y-70164285D01*
X98600357Y-70235714D01*
X98671785Y-70164285D01*
X98528928Y-70164285D01*
X99886071Y-69521428D02*
X99957500Y-69450000D01*
X100028928Y-69307142D01*
X100028928Y-68950000D01*
X99957500Y-68807142D01*
X99886071Y-68735714D01*
X99743214Y-68664285D01*
X99600357Y-68664285D01*
X99386071Y-68735714D01*
X98528928Y-69592857D01*
X98528928Y-68664285D01*
X96113928Y-92021428D02*
X97613928Y-92021428D01*
X97613928Y-91664285D01*
X97542500Y-91450000D01*
X97399642Y-91307142D01*
X97256785Y-91235714D01*
X96971071Y-91164285D01*
X96756785Y-91164285D01*
X96471071Y-91235714D01*
X96328214Y-91307142D01*
X96185357Y-91450000D01*
X96113928Y-91664285D01*
X96113928Y-92021428D01*
X96185357Y-89950000D02*
X96113928Y-90092857D01*
X96113928Y-90378571D01*
X96185357Y-90521428D01*
X96328214Y-90592857D01*
X96899642Y-90592857D01*
X97042500Y-90521428D01*
X97113928Y-90378571D01*
X97113928Y-90092857D01*
X97042500Y-89950000D01*
X96899642Y-89878571D01*
X96756785Y-89878571D01*
X96613928Y-90592857D01*
X96185357Y-89307142D02*
X96113928Y-89164285D01*
X96113928Y-88878571D01*
X96185357Y-88735714D01*
X96328214Y-88664285D01*
X96399642Y-88664285D01*
X96542500Y-88735714D01*
X96613928Y-88878571D01*
X96613928Y-89092857D01*
X96685357Y-89235714D01*
X96828214Y-89307142D01*
X96899642Y-89307142D01*
X97042500Y-89235714D01*
X97113928Y-89092857D01*
X97113928Y-88878571D01*
X97042500Y-88735714D01*
X96113928Y-88021428D02*
X97113928Y-88021428D01*
X97613928Y-88021428D02*
X97542500Y-88092857D01*
X97471071Y-88021428D01*
X97542500Y-87950000D01*
X97613928Y-88021428D01*
X97471071Y-88021428D01*
X97113928Y-86664285D02*
X95899642Y-86664285D01*
X95756785Y-86735714D01*
X95685357Y-86807142D01*
X95613928Y-86950000D01*
X95613928Y-87164285D01*
X95685357Y-87307142D01*
X96185357Y-86664285D02*
X96113928Y-86807142D01*
X96113928Y-87092857D01*
X96185357Y-87235714D01*
X96256785Y-87307142D01*
X96399642Y-87378571D01*
X96828214Y-87378571D01*
X96971071Y-87307142D01*
X97042500Y-87235714D01*
X97113928Y-87092857D01*
X97113928Y-86807142D01*
X97042500Y-86664285D01*
X97113928Y-85950000D02*
X96113928Y-85950000D01*
X96971071Y-85950000D02*
X97042500Y-85878571D01*
X97113928Y-85735714D01*
X97113928Y-85521428D01*
X97042500Y-85378571D01*
X96899642Y-85307142D01*
X96113928Y-85307142D01*
X96113928Y-83450000D02*
X97613928Y-83450000D01*
X97042500Y-83450000D02*
X97113928Y-83307142D01*
X97113928Y-83021428D01*
X97042500Y-82878571D01*
X96971071Y-82807142D01*
X96828214Y-82735714D01*
X96399642Y-82735714D01*
X96256785Y-82807142D01*
X96185357Y-82878571D01*
X96113928Y-83021428D01*
X96113928Y-83307142D01*
X96185357Y-83450000D01*
X97113928Y-82235714D02*
X96113928Y-81878571D01*
X97113928Y-81521428D02*
X96113928Y-81878571D01*
X95756785Y-82021428D01*
X95685357Y-82092857D01*
X95613928Y-82235714D01*
X96113928Y-79807142D02*
X97613928Y-79807142D01*
X96113928Y-78950000D02*
X96971071Y-79592857D01*
X97613928Y-78950000D02*
X96756785Y-79807142D01*
X96256785Y-78307142D02*
X96185357Y-78235714D01*
X96113928Y-78307142D01*
X96185357Y-78378571D01*
X96256785Y-78307142D01*
X96113928Y-78307142D01*
X96113928Y-75735714D02*
X96113928Y-76450000D01*
X97613928Y-76450000D01*
X96185357Y-74664285D02*
X96113928Y-74807142D01*
X96113928Y-75092857D01*
X96185357Y-75235714D01*
X96328214Y-75307142D01*
X96899642Y-75307142D01*
X97042500Y-75235714D01*
X97113928Y-75092857D01*
X97113928Y-74807142D01*
X97042500Y-74664285D01*
X96899642Y-74592857D01*
X96756785Y-74592857D01*
X96613928Y-75307142D01*
X96113928Y-73735714D02*
X96185357Y-73878571D01*
X96328214Y-73950000D01*
X97613928Y-73950000D01*
X96113928Y-72521428D02*
X96899642Y-72521428D01*
X97042500Y-72592857D01*
X97113928Y-72735714D01*
X97113928Y-73021428D01*
X97042500Y-73164285D01*
X96185357Y-72521428D02*
X96113928Y-72664285D01*
X96113928Y-73021428D01*
X96185357Y-73164285D01*
X96328214Y-73235714D01*
X96471071Y-73235714D01*
X96613928Y-73164285D01*
X96685357Y-73021428D01*
X96685357Y-72664285D01*
X96756785Y-72521428D01*
X97113928Y-71807142D02*
X95613928Y-71807142D01*
X97042500Y-71807142D02*
X97113928Y-71664285D01*
X97113928Y-71378571D01*
X97042500Y-71235714D01*
X96971071Y-71164285D01*
X96828214Y-71092857D01*
X96399642Y-71092857D01*
X96256785Y-71164285D01*
X96185357Y-71235714D01*
X96113928Y-71378571D01*
X96113928Y-71664285D01*
X96185357Y-71807142D01*
X96113928Y-70450000D02*
X97113928Y-70450000D01*
X97613928Y-70450000D02*
X97542500Y-70521428D01*
X97471071Y-70450000D01*
X97542500Y-70378571D01*
X97613928Y-70450000D01*
X97471071Y-70450000D01*
X97113928Y-69878571D02*
X96113928Y-69521428D01*
X97113928Y-69164285D02*
X96113928Y-69521428D01*
X95756785Y-69664285D01*
X95685357Y-69735714D01*
X95613928Y-69878571D01*
X96113928Y-67950000D02*
X96899642Y-67950000D01*
X97042500Y-68021428D01*
X97113928Y-68164285D01*
X97113928Y-68450000D01*
X97042500Y-68592857D01*
X96185357Y-67950000D02*
X96113928Y-68092857D01*
X96113928Y-68450000D01*
X96185357Y-68592857D01*
X96328214Y-68664285D01*
X96471071Y-68664285D01*
X96613928Y-68592857D01*
X96685357Y-68450000D01*
X96685357Y-68092857D01*
X96756785Y-67950000D01*
X96113928Y-67235714D02*
X97113928Y-67235714D01*
X96971071Y-67235714D02*
X97042500Y-67164285D01*
X97113928Y-67021428D01*
X97113928Y-66807142D01*
X97042500Y-66664285D01*
X96899642Y-66592857D01*
X96113928Y-66592857D01*
X96899642Y-66592857D02*
X97042500Y-66521428D01*
X97113928Y-66378571D01*
X97113928Y-66164285D01*
X97042500Y-66021428D01*
X96899642Y-65950000D01*
X96113928Y-65950000D01*
X96113928Y-65235714D02*
X97113928Y-65235714D01*
X97613928Y-65235714D02*
X97542500Y-65307142D01*
X97471071Y-65235714D01*
X97542500Y-65164285D01*
X97613928Y-65235714D01*
X97471071Y-65235714D01*
X97113928Y-64735714D02*
X97113928Y-64164285D01*
X97613928Y-64521428D02*
X96328214Y-64521428D01*
X96185357Y-64450000D01*
X96113928Y-64307142D01*
X96113928Y-64164285D01*
D10*
X116595238Y-64028571D02*
X116547619Y-63885714D01*
X116547619Y-63647619D01*
X116595238Y-63552381D01*
X116642857Y-63504762D01*
X116738095Y-63457143D01*
X116833333Y-63457143D01*
X116928571Y-63504762D01*
X116976190Y-63552381D01*
X117023809Y-63647619D01*
X117071428Y-63838095D01*
X117119047Y-63933333D01*
X117166666Y-63980952D01*
X117261904Y-64028571D01*
X117357142Y-64028571D01*
X117452380Y-63980952D01*
X117500000Y-63933333D01*
X117547619Y-63838095D01*
X117547619Y-63600000D01*
X117500000Y-63457143D01*
X116547619Y-63028571D02*
X117547619Y-63028571D01*
X117547619Y-62647619D01*
X117500000Y-62552381D01*
X117452380Y-62504762D01*
X117357142Y-62457143D01*
X117214285Y-62457143D01*
X117119047Y-62504762D01*
X117071428Y-62552381D01*
X117023809Y-62647619D01*
X117023809Y-63028571D01*
X116547619Y-62028571D02*
X117547619Y-62028571D01*
X116547619Y-61028571D02*
X116547619Y-61600000D01*
X116547619Y-61314286D02*
X117547619Y-61314286D01*
X117404761Y-61409524D01*
X117309523Y-61504762D01*
X117261904Y-61600000D01*
X116452380Y-60838095D02*
X116452380Y-60076190D01*
X116642857Y-59266667D02*
X116595238Y-59314286D01*
X116547619Y-59457143D01*
X116547619Y-59552381D01*
X116595238Y-59695238D01*
X116690476Y-59790476D01*
X116785714Y-59838095D01*
X116976190Y-59885714D01*
X117119047Y-59885714D01*
X117309523Y-59838095D01*
X117404761Y-59790476D01*
X117500000Y-59695238D01*
X117547619Y-59552381D01*
X117547619Y-59457143D01*
X117500000Y-59314286D01*
X117452380Y-59266667D01*
X116595238Y-58885714D02*
X116547619Y-58742857D01*
X116547619Y-58504762D01*
X116595238Y-58409524D01*
X116642857Y-58361905D01*
X116738095Y-58314286D01*
X116833333Y-58314286D01*
X116928571Y-58361905D01*
X116976190Y-58409524D01*
X117023809Y-58504762D01*
X117071428Y-58695238D01*
X117119047Y-58790476D01*
X117166666Y-58838095D01*
X117261904Y-58885714D01*
X117357142Y-58885714D01*
X117452380Y-58838095D01*
X117500000Y-58790476D01*
X117547619Y-58695238D01*
X117547619Y-58457143D01*
X117500000Y-58314286D01*
X134128571Y-61885714D02*
X134128571Y-61123810D01*
X133747619Y-61504762D02*
X134509523Y-61504762D01*
X134747619Y-60742857D02*
X134747619Y-60123810D01*
X134366666Y-60457143D01*
X134366666Y-60314286D01*
X134319047Y-60219048D01*
X134271428Y-60171429D01*
X134176190Y-60123810D01*
X133938095Y-60123810D01*
X133842857Y-60171429D01*
X133795238Y-60219048D01*
X133747619Y-60314286D01*
X133747619Y-60600000D01*
X133795238Y-60695238D01*
X133842857Y-60742857D01*
X134747619Y-59838095D02*
X133747619Y-59504762D01*
X134747619Y-59171429D01*
X134747619Y-58933333D02*
X134747619Y-58314286D01*
X134366666Y-58647619D01*
X134366666Y-58504762D01*
X134319047Y-58409524D01*
X134271428Y-58361905D01*
X134176190Y-58314286D01*
X133938095Y-58314286D01*
X133842857Y-58361905D01*
X133795238Y-58409524D01*
X133747619Y-58504762D01*
X133747619Y-58790476D01*
X133795238Y-58885714D01*
X133842857Y-58933333D01*
X127376187Y-65123809D02*
X127376187Y-64552381D01*
X126376187Y-64838095D02*
X127376187Y-64838095D01*
X126376187Y-64219048D02*
X127376187Y-64219048D01*
X126376187Y-63742857D02*
X127376187Y-63742857D01*
X126661901Y-63409524D01*
X127376187Y-63076190D01*
X126376187Y-63076190D01*
X127376187Y-62695238D02*
X127376187Y-62076190D01*
X126995234Y-62409524D01*
X126995234Y-62266667D01*
X126947615Y-62171429D01*
X126899996Y-62123809D01*
X126804758Y-62076190D01*
X126566663Y-62076190D01*
X126471425Y-62123809D01*
X126423806Y-62171429D01*
X126376187Y-62266667D01*
X126376187Y-62552381D01*
X126423806Y-62647619D01*
X126471425Y-62695238D01*
X126280948Y-61885714D02*
X126280948Y-61123809D01*
X126471425Y-60314286D02*
X126423806Y-60361905D01*
X126376187Y-60504762D01*
X126376187Y-60600000D01*
X126423806Y-60742857D01*
X126519044Y-60838095D01*
X126614282Y-60885714D01*
X126804758Y-60933333D01*
X126947615Y-60933333D01*
X127138091Y-60885714D01*
X127233329Y-60838095D01*
X127328568Y-60742857D01*
X127376187Y-60600000D01*
X127376187Y-60504762D01*
X127328568Y-60361905D01*
X127280948Y-60314286D01*
X126376187Y-59885714D02*
X127376187Y-59885714D01*
X126899996Y-59885714D02*
X126899996Y-59314286D01*
X126376187Y-59314286D02*
X127376187Y-59314286D01*
X127280948Y-58885714D02*
X127328568Y-58838095D01*
X127376187Y-58742857D01*
X127376187Y-58504762D01*
X127328568Y-58409524D01*
X127280948Y-58361905D01*
X127185710Y-58314286D01*
X127090472Y-58314286D01*
X126947615Y-58361905D01*
X126376187Y-58933333D01*
X126376187Y-58314286D01*
X123966664Y-65028571D02*
X123919045Y-64885714D01*
X123919045Y-64647619D01*
X123966664Y-64552381D01*
X124014283Y-64504762D01*
X124109521Y-64457143D01*
X124204759Y-64457143D01*
X124299997Y-64504762D01*
X124347616Y-64552381D01*
X124395235Y-64647619D01*
X124442854Y-64838095D01*
X124490473Y-64933333D01*
X124538092Y-64980952D01*
X124633330Y-65028571D01*
X124728568Y-65028571D01*
X124823806Y-64980952D01*
X124871426Y-64933333D01*
X124919045Y-64838095D01*
X124919045Y-64600000D01*
X124871426Y-64457143D01*
X123919045Y-64028571D02*
X124919045Y-64028571D01*
X124919045Y-63647619D01*
X124871426Y-63552381D01*
X124823806Y-63504762D01*
X124728568Y-63457143D01*
X124585711Y-63457143D01*
X124490473Y-63504762D01*
X124442854Y-63552381D01*
X124395235Y-63647619D01*
X124395235Y-64028571D01*
X123919045Y-63028571D02*
X124919045Y-63028571D01*
X123919045Y-62028571D02*
X123919045Y-62600000D01*
X123919045Y-62314286D02*
X124919045Y-62314286D01*
X124776187Y-62409524D01*
X124680949Y-62504762D01*
X124633330Y-62600000D01*
X123823806Y-61838095D02*
X123823806Y-61076190D01*
X123966664Y-60885714D02*
X123919045Y-60742857D01*
X123919045Y-60504762D01*
X123966664Y-60409524D01*
X124014283Y-60361905D01*
X124109521Y-60314286D01*
X124204759Y-60314286D01*
X124299997Y-60361905D01*
X124347616Y-60409524D01*
X124395235Y-60504762D01*
X124442854Y-60695238D01*
X124490473Y-60790476D01*
X124538092Y-60838095D01*
X124633330Y-60885714D01*
X124728568Y-60885714D01*
X124823806Y-60838095D01*
X124871426Y-60790476D01*
X124919045Y-60695238D01*
X124919045Y-60457143D01*
X124871426Y-60314286D01*
X124014283Y-59314286D02*
X123966664Y-59361905D01*
X123919045Y-59504762D01*
X123919045Y-59600000D01*
X123966664Y-59742857D01*
X124061902Y-59838095D01*
X124157140Y-59885714D01*
X124347616Y-59933333D01*
X124490473Y-59933333D01*
X124680949Y-59885714D01*
X124776187Y-59838095D01*
X124871426Y-59742857D01*
X124919045Y-59600000D01*
X124919045Y-59504762D01*
X124871426Y-59361905D01*
X124823806Y-59314286D01*
X123919045Y-58885714D02*
X124919045Y-58885714D01*
X123919045Y-58314286D02*
X124490473Y-58742857D01*
X124919045Y-58314286D02*
X124347616Y-58885714D01*
X119052380Y-65695239D02*
X119004761Y-65552382D01*
X119004761Y-65314286D01*
X119052380Y-65219048D01*
X119099999Y-65171429D01*
X119195237Y-65123810D01*
X119290475Y-65123810D01*
X119385713Y-65171429D01*
X119433332Y-65219048D01*
X119480951Y-65314286D01*
X119528570Y-65504763D01*
X119576189Y-65600001D01*
X119623808Y-65647620D01*
X119719046Y-65695239D01*
X119814284Y-65695239D01*
X119909522Y-65647620D01*
X119957142Y-65600001D01*
X120004761Y-65504763D01*
X120004761Y-65266667D01*
X119957142Y-65123810D01*
X119004761Y-64695239D02*
X120004761Y-64695239D01*
X120004761Y-64314286D01*
X119957142Y-64219048D01*
X119909522Y-64171429D01*
X119814284Y-64123810D01*
X119671427Y-64123810D01*
X119576189Y-64171429D01*
X119528570Y-64219048D01*
X119480951Y-64314286D01*
X119480951Y-64695239D01*
X119004761Y-63695239D02*
X120004761Y-63695239D01*
X119004761Y-62695239D02*
X119004761Y-63266667D01*
X119004761Y-62980953D02*
X120004761Y-62980953D01*
X119861903Y-63076191D01*
X119766665Y-63171429D01*
X119719046Y-63266667D01*
X118909522Y-62504763D02*
X118909522Y-61742858D01*
X119004761Y-61504763D02*
X120004761Y-61504763D01*
X119290475Y-61171429D01*
X120004761Y-60838096D01*
X119004761Y-60838096D01*
X120004761Y-60171429D02*
X120004761Y-59980953D01*
X119957142Y-59885715D01*
X119861903Y-59790477D01*
X119671427Y-59742858D01*
X119338094Y-59742858D01*
X119147618Y-59790477D01*
X119052380Y-59885715D01*
X119004761Y-59980953D01*
X119004761Y-60171429D01*
X119052380Y-60266667D01*
X119147618Y-60361905D01*
X119338094Y-60409524D01*
X119671427Y-60409524D01*
X119861903Y-60361905D01*
X119957142Y-60266667D01*
X120004761Y-60171429D01*
X119052380Y-59361905D02*
X119004761Y-59219048D01*
X119004761Y-58980953D01*
X119052380Y-58885715D01*
X119099999Y-58838096D01*
X119195237Y-58790477D01*
X119290475Y-58790477D01*
X119385713Y-58838096D01*
X119433332Y-58885715D01*
X119480951Y-58980953D01*
X119528570Y-59171429D01*
X119576189Y-59266667D01*
X119623808Y-59314286D01*
X119719046Y-59361905D01*
X119814284Y-59361905D01*
X119909522Y-59314286D01*
X119957142Y-59266667D01*
X120004761Y-59171429D01*
X120004761Y-58933334D01*
X119957142Y-58790477D01*
X119004761Y-58361905D02*
X120004761Y-58361905D01*
M02*
