%TF.GenerationSoftware,KiCad,Pcbnew,(6.0.0)*%
%TF.CreationDate,2022-01-20T18:10:17+07:00*%
%TF.ProjectId,CubeSat Thesis MCU V2,43756265-5361-4742-9054-686573697320,rev?*%
%TF.SameCoordinates,Original*%
%TF.FileFunction,Paste,Top*%
%TF.FilePolarity,Positive*%
%FSLAX46Y46*%
G04 Gerber Fmt 4.6, Leading zero omitted, Abs format (unit mm)*
G04 Created by KiCad (PCBNEW (6.0.0)) date 2022-01-20 18:10:17*
%MOMM*%
%LPD*%
G01*
G04 APERTURE LIST*
G04 Aperture macros list*
%AMRoundRect*
0 Rectangle with rounded corners*
0 $1 Rounding radius*
0 $2 $3 $4 $5 $6 $7 $8 $9 X,Y pos of 4 corners*
0 Add a 4 corners polygon primitive as box body*
4,1,4,$2,$3,$4,$5,$6,$7,$8,$9,$2,$3,0*
0 Add four circle primitives for the rounded corners*
1,1,$1+$1,$2,$3*
1,1,$1+$1,$4,$5*
1,1,$1+$1,$6,$7*
1,1,$1+$1,$8,$9*
0 Add four rect primitives between the rounded corners*
20,1,$1+$1,$2,$3,$4,$5,0*
20,1,$1+$1,$4,$5,$6,$7,0*
20,1,$1+$1,$6,$7,$8,$9,0*
20,1,$1+$1,$8,$9,$2,$3,0*%
G04 Aperture macros list end*
%ADD10RoundRect,0.225000X-0.225000X-0.250000X0.225000X-0.250000X0.225000X0.250000X-0.225000X0.250000X0*%
%ADD11R,1.200000X0.600000*%
%ADD12RoundRect,0.225000X-0.250000X0.225000X-0.250000X-0.225000X0.250000X-0.225000X0.250000X0.225000X0*%
%ADD13RoundRect,0.225000X0.225000X0.250000X-0.225000X0.250000X-0.225000X-0.250000X0.225000X-0.250000X0*%
%ADD14RoundRect,0.200000X-0.200000X-0.275000X0.200000X-0.275000X0.200000X0.275000X-0.200000X0.275000X0*%
%ADD15RoundRect,0.200000X-0.275000X0.200000X-0.275000X-0.200000X0.275000X-0.200000X0.275000X0.200000X0*%
%ADD16R,1.475000X0.300000*%
%ADD17R,0.300000X1.475000*%
%ADD18RoundRect,0.150000X-0.625000X-0.150000X0.625000X-0.150000X0.625000X0.150000X-0.625000X0.150000X0*%
%ADD19RoundRect,0.250000X-0.550000X1.500000X-0.550000X-1.500000X0.550000X-1.500000X0.550000X1.500000X0*%
%ADD20RoundRect,0.225000X0.250000X-0.225000X0.250000X0.225000X-0.250000X0.225000X-0.250000X-0.225000X0*%
%ADD21RoundRect,0.218750X-0.218750X-0.256250X0.218750X-0.256250X0.218750X0.256250X-0.218750X0.256250X0*%
%ADD22RoundRect,0.250000X-0.250000X-0.475000X0.250000X-0.475000X0.250000X0.475000X-0.250000X0.475000X0*%
%ADD23RoundRect,0.200000X0.275000X-0.200000X0.275000X0.200000X-0.275000X0.200000X-0.275000X-0.200000X0*%
%ADD24R,1.100000X0.600000*%
%ADD25R,1.350000X0.400000*%
%ADD26R,1.900000X1.500000*%
%ADD27R,1.400000X1.390000*%
%ADD28R,4.860000X3.360000*%
%ADD29R,1.528000X0.650000*%
%ADD30R,0.300000X0.300000*%
%ADD31RoundRect,0.218750X-0.256250X0.218750X-0.256250X-0.218750X0.256250X-0.218750X0.256250X0.218750X0*%
%ADD32R,0.350000X0.850000*%
%ADD33R,3.100000X2.700000*%
%ADD34RoundRect,0.237500X-0.250000X-0.237500X0.250000X-0.237500X0.250000X0.237500X-0.250000X0.237500X0*%
%ADD35R,1.500000X0.800000*%
%ADD36R,2.000000X1.450000*%
%ADD37R,1.525000X0.650000*%
%ADD38RoundRect,0.237500X0.250000X0.237500X-0.250000X0.237500X-0.250000X-0.237500X0.250000X-0.237500X0*%
%ADD39R,1.000000X1.200000*%
%ADD40R,1.200000X1.400000*%
%ADD41RoundRect,0.218750X0.218750X0.256250X-0.218750X0.256250X-0.218750X-0.256250X0.218750X-0.256250X0*%
%ADD42R,1.900000X5.100000*%
%ADD43R,2.000000X1.500000*%
%ADD44R,2.000000X3.800000*%
%ADD45R,1.500000X1.000000*%
%ADD46RoundRect,0.200000X0.200000X0.275000X-0.200000X0.275000X-0.200000X-0.275000X0.200000X-0.275000X0*%
G04 APERTURE END LIST*
D10*
%TO.C,C10*%
X100350000Y-87225000D03*
X101900000Y-87225000D03*
%TD*%
D11*
%TO.C,U3*%
X143925000Y-104200000D03*
X143925000Y-103250000D03*
X143925000Y-102300000D03*
X141425000Y-102300000D03*
X141425000Y-104200000D03*
%TD*%
D12*
%TO.C,C7*%
X91800000Y-103875000D03*
X91800000Y-105425000D03*
%TD*%
%TO.C,C28*%
X110600000Y-108350000D03*
X110600000Y-109900000D03*
%TD*%
D13*
%TO.C,C12*%
X103475000Y-97125000D03*
X101925000Y-97125000D03*
%TD*%
D14*
%TO.C,R7*%
X145000000Y-119000000D03*
X146650000Y-119000000D03*
%TD*%
%TO.C,R23*%
X132675000Y-66600000D03*
X134325000Y-66600000D03*
%TD*%
D15*
%TO.C,R14*%
X111000000Y-74175000D03*
X111000000Y-75825000D03*
%TD*%
D16*
%TO.C,IC2*%
X107862000Y-86675000D03*
X107862000Y-87175000D03*
X107862000Y-87675000D03*
X107862000Y-88175000D03*
X107862000Y-88675000D03*
X107862000Y-89175000D03*
X107862000Y-89675000D03*
X107862000Y-90175000D03*
X107862000Y-90675000D03*
X107862000Y-91175000D03*
X107862000Y-91675000D03*
X107862000Y-92175000D03*
X107862000Y-92675000D03*
X107862000Y-93175000D03*
X107862000Y-93675000D03*
X107862000Y-94175000D03*
X107862000Y-94675000D03*
X107862000Y-95175000D03*
X107862000Y-95675000D03*
X107862000Y-96175000D03*
X107862000Y-96675000D03*
X107862000Y-97175000D03*
X107862000Y-97675000D03*
X107862000Y-98175000D03*
X107862000Y-98675000D03*
X107862000Y-99175000D03*
X107862000Y-99675000D03*
X107862000Y-100175000D03*
X107862000Y-100675000D03*
X107862000Y-101175000D03*
X107862000Y-101675000D03*
X107862000Y-102175000D03*
X107862000Y-102675000D03*
X107862000Y-103175000D03*
X107862000Y-103675000D03*
X107862000Y-104175000D03*
D17*
X109850000Y-106163000D03*
X110350000Y-106163000D03*
X110850000Y-106163000D03*
X111350000Y-106163000D03*
X111850000Y-106163000D03*
X112350000Y-106163000D03*
X112850000Y-106163000D03*
X113350000Y-106163000D03*
X113850000Y-106163000D03*
X114350000Y-106163000D03*
X114850000Y-106163000D03*
X115350000Y-106163000D03*
X115850000Y-106163000D03*
X116350000Y-106163000D03*
X116850000Y-106163000D03*
X117350000Y-106163000D03*
X117850000Y-106163000D03*
X118350000Y-106163000D03*
X118850000Y-106163000D03*
X119350000Y-106163000D03*
X119850000Y-106163000D03*
X120350000Y-106163000D03*
X120850000Y-106163000D03*
X121350000Y-106163000D03*
X121850000Y-106163000D03*
X122350000Y-106163000D03*
X122850000Y-106163000D03*
X123350000Y-106163000D03*
X123850000Y-106163000D03*
X124350000Y-106163000D03*
X124850000Y-106163000D03*
X125350000Y-106163000D03*
X125850000Y-106163000D03*
X126350000Y-106163000D03*
X126850000Y-106163000D03*
X127350000Y-106163000D03*
D16*
X129338000Y-104175000D03*
X129338000Y-103675000D03*
X129338000Y-103175000D03*
X129338000Y-102675000D03*
X129338000Y-102175000D03*
X129338000Y-101675000D03*
X129338000Y-101175000D03*
X129338000Y-100675000D03*
X129338000Y-100175000D03*
X129338000Y-99675000D03*
X129338000Y-99175000D03*
X129338000Y-98675000D03*
X129338000Y-98175000D03*
X129338000Y-97675000D03*
X129338000Y-97175000D03*
X129338000Y-96675000D03*
X129338000Y-96175000D03*
X129338000Y-95675000D03*
X129338000Y-95175000D03*
X129338000Y-94675000D03*
X129338000Y-94175000D03*
X129338000Y-93675000D03*
X129338000Y-93175000D03*
X129338000Y-92675000D03*
X129338000Y-92175000D03*
X129338000Y-91675000D03*
X129338000Y-91175000D03*
X129338000Y-90675000D03*
X129338000Y-90175000D03*
X129338000Y-89675000D03*
X129338000Y-89175000D03*
X129338000Y-88675000D03*
X129338000Y-88175000D03*
X129338000Y-87675000D03*
X129338000Y-87175000D03*
X129338000Y-86675000D03*
D17*
X127350000Y-84687000D03*
X126850000Y-84687000D03*
X126350000Y-84687000D03*
X125850000Y-84687000D03*
X125350000Y-84687000D03*
X124850000Y-84687000D03*
X124350000Y-84687000D03*
X123850000Y-84687000D03*
X123350000Y-84687000D03*
X122850000Y-84687000D03*
X122350000Y-84687000D03*
X121850000Y-84687000D03*
X121350000Y-84687000D03*
X120850000Y-84687000D03*
X120350000Y-84687000D03*
X119850000Y-84687000D03*
X119350000Y-84687000D03*
X118850000Y-84687000D03*
X118350000Y-84687000D03*
X117850000Y-84687000D03*
X117350000Y-84687000D03*
X116850000Y-84687000D03*
X116350000Y-84687000D03*
X115850000Y-84687000D03*
X115350000Y-84687000D03*
X114850000Y-84687000D03*
X114350000Y-84687000D03*
X113850000Y-84687000D03*
X113350000Y-84687000D03*
X112850000Y-84687000D03*
X112350000Y-84687000D03*
X111850000Y-84687000D03*
X111350000Y-84687000D03*
X110850000Y-84687000D03*
X110350000Y-84687000D03*
X109850000Y-84687000D03*
%TD*%
D18*
%TO.C,U4*%
X109925000Y-115595000D03*
X109925000Y-116865000D03*
X109925000Y-118135000D03*
X109925000Y-119405000D03*
X115275000Y-119405000D03*
X115275000Y-118135000D03*
X115275000Y-116865000D03*
X115275000Y-115595000D03*
%TD*%
D19*
%TO.C,C1*%
X89200000Y-116100000D03*
X89200000Y-121700000D03*
%TD*%
D12*
%TO.C,C32*%
X147800000Y-108925000D03*
X147800000Y-110475000D03*
%TD*%
D20*
%TO.C,C18*%
X116650000Y-82500000D03*
X116650000Y-80950000D03*
%TD*%
D21*
%TO.C,L2*%
X103712500Y-106300000D03*
X105287500Y-106300000D03*
%TD*%
D22*
%TO.C,C8*%
X89700000Y-96763500D03*
X91600000Y-96763500D03*
%TD*%
D10*
%TO.C,C3*%
X88475000Y-112350000D03*
X90025000Y-112350000D03*
%TD*%
D13*
%TO.C,C11*%
X101900000Y-93125000D03*
X100350000Y-93125000D03*
%TD*%
D15*
%TO.C,R9*%
X93100000Y-55775000D03*
X93100000Y-57425000D03*
%TD*%
D23*
%TO.C,R19*%
X97100000Y-57425000D03*
X97100000Y-55775000D03*
%TD*%
D20*
%TO.C,C20*%
X121600000Y-82375000D03*
X121600000Y-80825000D03*
%TD*%
D24*
%TO.C,Y2*%
X105200000Y-98625000D03*
X105200000Y-97225000D03*
%TD*%
D20*
%TO.C,C16*%
X108500000Y-82350000D03*
X108500000Y-80800000D03*
%TD*%
D13*
%TO.C,C31*%
X105375000Y-89225000D03*
X103825000Y-89225000D03*
%TD*%
D20*
%TO.C,C17*%
X110100000Y-82350000D03*
X110100000Y-80800000D03*
%TD*%
D10*
%TO.C,C27*%
X141450000Y-106000000D03*
X143000000Y-106000000D03*
%TD*%
%TO.C,C36*%
X85775000Y-57475000D03*
X87325000Y-57475000D03*
%TD*%
D25*
%TO.C,J3*%
X150800000Y-89850000D03*
X150800000Y-89200000D03*
X150800000Y-88550000D03*
X150800000Y-87900000D03*
X150800000Y-87250000D03*
D26*
X153500000Y-87550000D03*
X153500000Y-89550000D03*
%TD*%
D14*
%TO.C,R6*%
X89588500Y-102317500D03*
X91238500Y-102317500D03*
%TD*%
%TO.C,R22*%
X132675000Y-68600000D03*
X134325000Y-68600000D03*
%TD*%
%TO.C,R12*%
X145000000Y-120800000D03*
X146650000Y-120800000D03*
%TD*%
D13*
%TO.C,C29*%
X105275000Y-101500000D03*
X103725000Y-101500000D03*
%TD*%
D27*
%TO.C,D3*%
X79448000Y-106920000D03*
X79448000Y-105080000D03*
D28*
X83430000Y-106000000D03*
%TD*%
D10*
%TO.C,C23*%
X131525000Y-98725000D03*
X133075000Y-98725000D03*
%TD*%
D29*
%TO.C,IC4*%
X91211000Y-55655000D03*
X91211000Y-54385000D03*
X91211000Y-53115000D03*
X91211000Y-51845000D03*
X85789000Y-51845000D03*
X85789000Y-53115000D03*
X85789000Y-54385000D03*
X85789000Y-55655000D03*
%TD*%
D13*
%TO.C,C5*%
X86888500Y-109717500D03*
X85338500Y-109717500D03*
%TD*%
D15*
%TO.C,R13*%
X113133333Y-74175000D03*
X113133333Y-75825000D03*
%TD*%
D30*
%TO.C,U2*%
X147202500Y-88575000D03*
X147202500Y-89275000D03*
X148052500Y-88925000D03*
%TD*%
D22*
%TO.C,C9*%
X89700000Y-98863500D03*
X91600000Y-98863500D03*
%TD*%
D10*
%TO.C,C21*%
X131525000Y-86150000D03*
X133075000Y-86150000D03*
%TD*%
%TO.C,C15*%
X131525000Y-87750000D03*
X133075000Y-87750000D03*
%TD*%
D12*
%TO.C,C14*%
X126500000Y-108350000D03*
X126500000Y-109900000D03*
%TD*%
D31*
%TO.C,D1*%
X92050000Y-89287500D03*
X92050000Y-90862500D03*
%TD*%
D13*
%TO.C,C30*%
X105375000Y-94625000D03*
X103825000Y-94625000D03*
%TD*%
D12*
%TO.C,C19*%
X138125000Y-96525000D03*
X138125000Y-98075000D03*
%TD*%
%TO.C,C35*%
X117180000Y-115425000D03*
X117180000Y-116975000D03*
%TD*%
D32*
%TO.C,IC1*%
X87063500Y-108117500D03*
X87863500Y-108117500D03*
X88663500Y-108117500D03*
X89463500Y-108117500D03*
X90263500Y-108117500D03*
X90263500Y-104217500D03*
X89463500Y-104217500D03*
X88663500Y-104217500D03*
X87863500Y-104217500D03*
X87063500Y-104217500D03*
D33*
X88663500Y-106167500D03*
%TD*%
D34*
%TO.C,R18*%
X143712500Y-93400000D03*
X145537500Y-93400000D03*
%TD*%
D14*
%TO.C,R25*%
X132675000Y-72600000D03*
X134325000Y-72600000D03*
%TD*%
D35*
%TO.C,J11*%
X147625000Y-64095000D03*
X147625000Y-65195000D03*
X147625000Y-66295000D03*
X147625000Y-67395000D03*
X147625000Y-68495000D03*
X147625000Y-69595000D03*
X147625000Y-70695000D03*
X147625000Y-71795000D03*
D36*
X150225000Y-60425000D03*
X141925000Y-60425000D03*
X141925000Y-74175000D03*
X150225000Y-74175000D03*
%TD*%
D12*
%TO.C,C24*%
X128100000Y-108350000D03*
X128100000Y-109900000D03*
%TD*%
D10*
%TO.C,C22*%
X131500000Y-93225000D03*
X133050000Y-93225000D03*
%TD*%
D14*
%TO.C,R24*%
X132675000Y-70600000D03*
X134325000Y-70600000D03*
%TD*%
%TO.C,R21*%
X132675000Y-64600000D03*
X134325000Y-64600000D03*
%TD*%
D37*
%TO.C,IC3*%
X140013000Y-95295000D03*
X140013000Y-96565000D03*
X140013000Y-97835000D03*
X140013000Y-99105000D03*
X145437000Y-99105000D03*
X145437000Y-97835000D03*
X145437000Y-96565000D03*
X145437000Y-95295000D03*
%TD*%
D20*
%TO.C,C6*%
X81000000Y-91163500D03*
X81000000Y-89613500D03*
%TD*%
D15*
%TO.C,R8*%
X95100000Y-55775000D03*
X95100000Y-57425000D03*
%TD*%
D31*
%TO.C,D2*%
X94050000Y-89287500D03*
X94050000Y-90862500D03*
%TD*%
D38*
%TO.C,R17*%
X141737500Y-93400000D03*
X139912500Y-93400000D03*
%TD*%
D23*
%TO.C,R2*%
X94050000Y-94400000D03*
X94050000Y-92750000D03*
%TD*%
D39*
%TO.C,S1*%
X151600000Y-108900000D03*
X151600000Y-116300000D03*
%TD*%
D13*
%TO.C,C34*%
X105275000Y-104700000D03*
X103725000Y-104700000D03*
%TD*%
D40*
%TO.C,Y1*%
X100375000Y-89075000D03*
X100375000Y-91275000D03*
X102075000Y-91275000D03*
X102075000Y-89075000D03*
%TD*%
D20*
%TO.C,C4*%
X81000000Y-94338500D03*
X81000000Y-92788500D03*
%TD*%
D13*
%TO.C,C13*%
X103475000Y-98725000D03*
X101925000Y-98725000D03*
%TD*%
D41*
%TO.C,D5*%
X149850000Y-120800000D03*
X148275000Y-120800000D03*
%TD*%
D13*
%TO.C,C33*%
X105275000Y-103100000D03*
X103725000Y-103100000D03*
%TD*%
D15*
%TO.C,R16*%
X115266666Y-74175000D03*
X115266666Y-75825000D03*
%TD*%
D12*
%TO.C,C25*%
X122300000Y-108350000D03*
X122300000Y-109900000D03*
%TD*%
D15*
%TO.C,R3*%
X92900000Y-110475000D03*
X92900000Y-112125000D03*
%TD*%
D42*
%TO.C,L1*%
X82650000Y-99263500D03*
X86850000Y-99263500D03*
%TD*%
D10*
%TO.C,C2*%
X88475000Y-110300000D03*
X90025000Y-110300000D03*
%TD*%
D41*
%TO.C,D4*%
X149850000Y-119000000D03*
X148275000Y-119000000D03*
%TD*%
D15*
%TO.C,R15*%
X117400000Y-74175000D03*
X117400000Y-75825000D03*
%TD*%
D43*
%TO.C,U1*%
X83200000Y-89238500D03*
D44*
X89500000Y-91538500D03*
D43*
X83200000Y-91538500D03*
X83200000Y-93838500D03*
%TD*%
D45*
%TO.C,D6*%
X145000000Y-126900000D03*
X145000000Y-123700000D03*
X140100000Y-123700000D03*
X140100000Y-126900000D03*
%TD*%
D23*
%TO.C,R1*%
X92050000Y-94400000D03*
X92050000Y-92750000D03*
%TD*%
D14*
%TO.C,R20*%
X132675000Y-62600000D03*
X134325000Y-62600000D03*
%TD*%
D12*
%TO.C,C26*%
X117200000Y-108350000D03*
X117200000Y-109900000D03*
%TD*%
D46*
%TO.C,R5*%
X91238500Y-100767500D03*
X89588500Y-100767500D03*
%TD*%
D23*
%TO.C,R4*%
X91800000Y-108525000D03*
X91800000Y-106875000D03*
%TD*%
D38*
%TO.C,R11*%
X106662500Y-74050000D03*
X104837500Y-74050000D03*
%TD*%
D13*
%TO.C,C37*%
X147975000Y-57700000D03*
X146425000Y-57700000D03*
%TD*%
D34*
%TO.C,R10*%
X104837500Y-75650000D03*
X106662500Y-75650000D03*
%TD*%
M02*
