%TF.GenerationSoftware,KiCad,Pcbnew,(6.0.0)*%
%TF.CreationDate,2022-01-20T18:02:09+07:00*%
%TF.ProjectId,CubeSat Encoder,43756265-5361-4742-9045-6e636f646572,rev?*%
%TF.SameCoordinates,Original*%
%TF.FileFunction,Soldermask,Bot*%
%TF.FilePolarity,Negative*%
%FSLAX46Y46*%
G04 Gerber Fmt 4.6, Leading zero omitted, Abs format (unit mm)*
G04 Created by KiCad (PCBNEW (6.0.0)) date 2022-01-20 18:02:09*
%MOMM*%
%LPD*%
G01*
G04 APERTURE LIST*
G04 Aperture macros list*
%AMRoundRect*
0 Rectangle with rounded corners*
0 $1 Rounding radius*
0 $2 $3 $4 $5 $6 $7 $8 $9 X,Y pos of 4 corners*
0 Add a 4 corners polygon primitive as box body*
4,1,4,$2,$3,$4,$5,$6,$7,$8,$9,$2,$3,0*
0 Add four circle primitives for the rounded corners*
1,1,$1+$1,$2,$3*
1,1,$1+$1,$4,$5*
1,1,$1+$1,$6,$7*
1,1,$1+$1,$8,$9*
0 Add four rect primitives between the rounded corners*
20,1,$1+$1,$2,$3,$4,$5,0*
20,1,$1+$1,$4,$5,$6,$7,0*
20,1,$1+$1,$6,$7,$8,$9,0*
20,1,$1+$1,$8,$9,$2,$3,0*%
G04 Aperture macros list end*
%ADD10C,4.400000*%
%ADD11C,0.700000*%
%ADD12RoundRect,0.250000X-0.600000X-0.725000X0.600000X-0.725000X0.600000X0.725000X-0.600000X0.725000X0*%
%ADD13O,1.700000X1.950000*%
G04 APERTURE END LIST*
D10*
%TO.C,H12*%
X125000000Y-55000000D03*
D11*
X126650000Y-55000000D03*
X126166726Y-56166726D03*
X125000000Y-56650000D03*
X123833274Y-56166726D03*
X123350000Y-55000000D03*
X123833274Y-53833274D03*
X125000000Y-53350000D03*
X126166726Y-53833274D03*
%TD*%
D10*
%TO.C,H11*%
X125000000Y-87000000D03*
D11*
X126650000Y-87000000D03*
X126166726Y-88166726D03*
X125000000Y-88650000D03*
X123833274Y-88166726D03*
X123350000Y-87000000D03*
X123833274Y-85833274D03*
X125000000Y-85350000D03*
X126166726Y-85833274D03*
%TD*%
D10*
%TO.C,H10*%
X157000000Y-87000000D03*
D11*
X158650000Y-87000000D03*
X158166726Y-88166726D03*
X157000000Y-88650000D03*
X155833274Y-88166726D03*
X155350000Y-87000000D03*
X155833274Y-85833274D03*
X157000000Y-85350000D03*
X158166726Y-85833274D03*
%TD*%
D10*
%TO.C,H9*%
X157000000Y-55000000D03*
D11*
X158650000Y-55000000D03*
X158166726Y-56166726D03*
X157000000Y-56650000D03*
X155833274Y-56166726D03*
X155350000Y-55000000D03*
X155833274Y-53833274D03*
X157000000Y-53350000D03*
X158166726Y-53833274D03*
%TD*%
D10*
%TO.C,H8*%
X120000000Y-92000000D03*
D11*
X121650000Y-92000000D03*
X121166726Y-93166726D03*
X120000000Y-93650000D03*
X118833274Y-93166726D03*
X118350000Y-92000000D03*
X118833274Y-90833274D03*
X120000000Y-90350000D03*
X121166726Y-90833274D03*
%TD*%
D10*
%TO.C,H7*%
X162000000Y-92000000D03*
D11*
X163650000Y-92000000D03*
X163166726Y-93166726D03*
X162000000Y-93650000D03*
X160833274Y-93166726D03*
X160350000Y-92000000D03*
X160833274Y-90833274D03*
X162000000Y-90350000D03*
X163166726Y-90833274D03*
%TD*%
D10*
%TO.C,H6*%
X120000000Y-50000000D03*
D11*
X121650000Y-50000000D03*
X121166726Y-51166726D03*
X120000000Y-51650000D03*
X118833274Y-51166726D03*
X118350000Y-50000000D03*
X118833274Y-48833274D03*
X120000000Y-48350000D03*
X121166726Y-48833274D03*
%TD*%
D10*
%TO.C,H5*%
X162000000Y-50000000D03*
D11*
X163650000Y-50000000D03*
X163166726Y-51166726D03*
X162000000Y-51650000D03*
X160833274Y-51166726D03*
X160350000Y-50000000D03*
X160833274Y-48833274D03*
X162000000Y-48350000D03*
X163166726Y-48833274D03*
%TD*%
%TO.C,H2*%
X131650000Y-82000000D03*
D10*
X130000000Y-82000000D03*
D11*
X128350000Y-82000000D03*
X130000000Y-80350000D03*
X131166726Y-83166726D03*
X128833274Y-80833274D03*
X130000000Y-83650000D03*
X131166726Y-80833274D03*
X128833274Y-83166726D03*
%TD*%
%TO.C,H1*%
X128350000Y-60000000D03*
X131166726Y-58833274D03*
X128833274Y-61166726D03*
X131650000Y-60000000D03*
X131166726Y-61166726D03*
X130000000Y-58350000D03*
D10*
X130000000Y-60000000D03*
D11*
X128833274Y-58833274D03*
X130000000Y-61650000D03*
%TD*%
%TO.C,H3*%
X150833274Y-58833274D03*
X150833274Y-61166726D03*
X150350000Y-60000000D03*
X153166726Y-61166726D03*
X153166726Y-58833274D03*
X152000000Y-61650000D03*
X153650000Y-60000000D03*
D10*
X152000000Y-60000000D03*
D11*
X152000000Y-58350000D03*
%TD*%
%TO.C,H4*%
X150833274Y-83166726D03*
X150833274Y-80833274D03*
D10*
X152000000Y-82000000D03*
D11*
X150350000Y-82000000D03*
X152000000Y-83650000D03*
X152000000Y-80350000D03*
X153166726Y-80833274D03*
X153166726Y-83166726D03*
X153650000Y-82000000D03*
%TD*%
D12*
%TO.C,J1*%
X132250000Y-52550000D03*
D13*
X134750000Y-52550000D03*
X137250000Y-52550000D03*
X139750000Y-52550000D03*
X142250000Y-52550000D03*
X144750000Y-52550000D03*
X147250000Y-52550000D03*
X149750000Y-52550000D03*
%TD*%
M02*
