M48
; DRILL file {KiCad (6.0.0)} date Thu Jan 20 18:02:07 2022
; FORMAT={-:-/ absolute / inch / decimal}
; #@! TF.CreationDate,2022-01-20T18:02:07+07:00
; #@! TF.GenerationSoftware,Kicad,Pcbnew,(6.0.0)
; #@! TF.FileFunction,Plated,1,4,PTH
FMAT,2
INCH
; #@! TA.AperFunction,Plated,PTH,ViaDrill
T1C0.0118
; #@! TA.AperFunction,Plated,PTH,ViaDrill
T2C0.0157
; #@! TA.AperFunction,Plated,PTH,ComponentDrill
T3C0.0157
; #@! TA.AperFunction,Plated,PTH,ComponentDrill
T4C0.0374
; #@! TA.AperFunction,Plated,PTH,ComponentDrill
T5C0.0866
%
G90
G05
T1
X5.5256Y-2.7433
X5.5344Y-2.6063
X5.5571Y-2.5315
T2
X5.5433Y-2.4094
X5.5669Y-3.0276
X5.5901Y-2.8505
X5.6787Y-2.9866
X5.7874Y-2.4961
X5.8268Y-2.6102
T3
X4.6594Y-1.9685
X4.6594Y-3.622
X4.6785Y-1.9226
X4.6785Y-2.0144
X4.6785Y-3.5761
X4.6785Y-3.668
X4.7244Y-1.9035
X4.7244Y-2.0335
X4.7244Y-3.5571
X4.7244Y-3.687
X4.7703Y-1.9226
X4.7703Y-2.0144
X4.7703Y-3.5761
X4.7703Y-3.668
X4.7894Y-1.9685
X4.7894Y-3.622
X4.8563Y-2.1654
X4.8563Y-3.4252
X4.8753Y-2.1194
X4.8753Y-2.2113
X4.8753Y-3.3793
X4.8753Y-3.4711
X4.9213Y-2.1004
X4.9213Y-2.2303
X4.9213Y-3.3602
X4.9213Y-3.4902
X4.9672Y-2.1194
X4.9672Y-2.2113
X4.9672Y-3.3793
X4.9672Y-3.4711
X4.9862Y-2.1654
X4.9862Y-3.4252
X5.0531Y-2.3622
X5.0531Y-3.2283
X5.0722Y-2.3163
X5.0722Y-2.4081
X5.0722Y-3.1824
X5.0722Y-3.2743
X5.1181Y-2.2972
X5.1181Y-2.4272
X5.1181Y-3.1634
X5.1181Y-3.2933
X5.164Y-2.3163
X5.164Y-2.4081
X5.164Y-3.1824
X5.164Y-3.2743
X5.1831Y-2.3622
X5.1831Y-3.2283
X5.9193Y-2.3622
X5.9193Y-3.2283
X5.9383Y-2.3163
X5.9383Y-2.4081
X5.9383Y-3.1824
X5.9383Y-3.2743
X5.9843Y-2.2972
X5.9843Y-2.4272
X5.9843Y-3.1634
X5.9843Y-3.2933
X6.0302Y-2.3163
X6.0302Y-2.4081
X6.0302Y-3.1824
X6.0302Y-3.2743
X6.0492Y-2.3622
X6.0492Y-3.2283
X6.1161Y-2.1654
X6.1161Y-3.4252
X6.1352Y-2.1194
X6.1352Y-2.2113
X6.1352Y-3.3793
X6.1352Y-3.4711
X6.1811Y-2.1004
X6.1811Y-2.2303
X6.1811Y-3.3602
X6.1811Y-3.4902
X6.227Y-2.1194
X6.227Y-2.2113
X6.227Y-3.3793
X6.227Y-3.4711
X6.2461Y-2.1654
X6.2461Y-3.4252
X6.313Y-1.9685
X6.313Y-3.622
X6.332Y-1.9226
X6.332Y-2.0144
X6.332Y-3.5761
X6.332Y-3.668
X6.378Y-1.9035
X6.378Y-2.0335
X6.378Y-3.5571
X6.378Y-3.687
X6.4239Y-1.9226
X6.4239Y-2.0144
X6.4239Y-3.5761
X6.4239Y-3.668
X6.4429Y-1.9685
X6.4429Y-3.622
T4
X5.2067Y-2.0689
X5.3051Y-2.0689
X5.4035Y-2.0689
X5.502Y-2.0689
X5.6004Y-2.0689
X5.6988Y-2.0689
X5.7972Y-2.0689
X5.8957Y-2.0689
T5
X4.7244Y-1.9685
X4.7244Y-3.622
X4.9213Y-2.1654
X4.9213Y-3.4252
X5.1181Y-2.3622
X5.1181Y-3.2283
X5.9843Y-2.3622
X5.9843Y-3.2283
X6.1811Y-2.1654
X6.1811Y-3.4252
X6.378Y-1.9685
X6.378Y-3.622
T0
M30
