%TF.GenerationSoftware,KiCad,Pcbnew,(6.0.0)*%
%TF.CreationDate,2022-01-20T18:02:09+07:00*%
%TF.ProjectId,CubeSat Encoder,43756265-5361-4742-9045-6e636f646572,rev?*%
%TF.SameCoordinates,Original*%
%TF.FileFunction,Copper,L4,Bot*%
%TF.FilePolarity,Positive*%
%FSLAX46Y46*%
G04 Gerber Fmt 4.6, Leading zero omitted, Abs format (unit mm)*
G04 Created by KiCad (PCBNEW (6.0.0)) date 2022-01-20 18:02:09*
%MOMM*%
%LPD*%
G01*
G04 APERTURE LIST*
G04 Aperture macros list*
%AMRoundRect*
0 Rectangle with rounded corners*
0 $1 Rounding radius*
0 $2 $3 $4 $5 $6 $7 $8 $9 X,Y pos of 4 corners*
0 Add a 4 corners polygon primitive as box body*
4,1,4,$2,$3,$4,$5,$6,$7,$8,$9,$2,$3,0*
0 Add four circle primitives for the rounded corners*
1,1,$1+$1,$2,$3*
1,1,$1+$1,$4,$5*
1,1,$1+$1,$6,$7*
1,1,$1+$1,$8,$9*
0 Add four rect primitives between the rounded corners*
20,1,$1+$1,$2,$3,$4,$5,0*
20,1,$1+$1,$4,$5,$6,$7,0*
20,1,$1+$1,$6,$7,$8,$9,0*
20,1,$1+$1,$8,$9,$2,$3,0*%
G04 Aperture macros list end*
%TA.AperFunction,ComponentPad*%
%ADD10C,4.400000*%
%TD*%
%TA.AperFunction,ComponentPad*%
%ADD11C,0.700000*%
%TD*%
%TA.AperFunction,ComponentPad*%
%ADD12RoundRect,0.250000X-0.600000X-0.725000X0.600000X-0.725000X0.600000X0.725000X-0.600000X0.725000X0*%
%TD*%
%TA.AperFunction,ComponentPad*%
%ADD13O,1.700000X1.950000*%
%TD*%
%TA.AperFunction,ViaPad*%
%ADD14C,0.800000*%
%TD*%
%TA.AperFunction,ViaPad*%
%ADD15C,0.600000*%
%TD*%
%TA.AperFunction,Conductor*%
%ADD16C,0.500000*%
%TD*%
%TA.AperFunction,Conductor*%
%ADD17C,0.300000*%
%TD*%
G04 APERTURE END LIST*
D10*
%TO.P,H12,1,1*%
%TO.N,GND*%
X125000000Y-55000000D03*
D11*
X126650000Y-55000000D03*
X126166726Y-56166726D03*
X125000000Y-56650000D03*
X123833274Y-56166726D03*
X123350000Y-55000000D03*
X123833274Y-53833274D03*
X125000000Y-53350000D03*
X126166726Y-53833274D03*
%TD*%
D10*
%TO.P,H11,1,1*%
%TO.N,GND*%
X125000000Y-87000000D03*
D11*
X126650000Y-87000000D03*
X126166726Y-88166726D03*
X125000000Y-88650000D03*
X123833274Y-88166726D03*
X123350000Y-87000000D03*
X123833274Y-85833274D03*
X125000000Y-85350000D03*
X126166726Y-85833274D03*
%TD*%
D10*
%TO.P,H10,1,1*%
%TO.N,GND*%
X157000000Y-87000000D03*
D11*
X158650000Y-87000000D03*
X158166726Y-88166726D03*
X157000000Y-88650000D03*
X155833274Y-88166726D03*
X155350000Y-87000000D03*
X155833274Y-85833274D03*
X157000000Y-85350000D03*
X158166726Y-85833274D03*
%TD*%
D10*
%TO.P,H9,1,1*%
%TO.N,GND*%
X157000000Y-55000000D03*
D11*
X158650000Y-55000000D03*
X158166726Y-56166726D03*
X157000000Y-56650000D03*
X155833274Y-56166726D03*
X155350000Y-55000000D03*
X155833274Y-53833274D03*
X157000000Y-53350000D03*
X158166726Y-53833274D03*
%TD*%
D10*
%TO.P,H8,1,1*%
%TO.N,GND*%
X120000000Y-92000000D03*
D11*
X121650000Y-92000000D03*
X121166726Y-93166726D03*
X120000000Y-93650000D03*
X118833274Y-93166726D03*
X118350000Y-92000000D03*
X118833274Y-90833274D03*
X120000000Y-90350000D03*
X121166726Y-90833274D03*
%TD*%
D10*
%TO.P,H7,1,1*%
%TO.N,GND*%
X162000000Y-92000000D03*
D11*
X163650000Y-92000000D03*
X163166726Y-93166726D03*
X162000000Y-93650000D03*
X160833274Y-93166726D03*
X160350000Y-92000000D03*
X160833274Y-90833274D03*
X162000000Y-90350000D03*
X163166726Y-90833274D03*
%TD*%
D10*
%TO.P,H6,1,1*%
%TO.N,GND*%
X120000000Y-50000000D03*
D11*
X121650000Y-50000000D03*
X121166726Y-51166726D03*
X120000000Y-51650000D03*
X118833274Y-51166726D03*
X118350000Y-50000000D03*
X118833274Y-48833274D03*
X120000000Y-48350000D03*
X121166726Y-48833274D03*
%TD*%
D10*
%TO.P,H5,1,1*%
%TO.N,GND*%
X162000000Y-50000000D03*
D11*
X163650000Y-50000000D03*
X163166726Y-51166726D03*
X162000000Y-51650000D03*
X160833274Y-51166726D03*
X160350000Y-50000000D03*
X160833274Y-48833274D03*
X162000000Y-48350000D03*
X163166726Y-48833274D03*
%TD*%
%TO.P,H2,1,1*%
%TO.N,GND*%
X131650000Y-82000000D03*
D10*
X130000000Y-82000000D03*
D11*
X128350000Y-82000000D03*
X130000000Y-80350000D03*
X131166726Y-83166726D03*
X128833274Y-80833274D03*
X130000000Y-83650000D03*
X131166726Y-80833274D03*
X128833274Y-83166726D03*
%TD*%
%TO.P,H1,1,1*%
%TO.N,GND*%
X128350000Y-60000000D03*
X131166726Y-58833274D03*
X128833274Y-61166726D03*
X131650000Y-60000000D03*
X131166726Y-61166726D03*
X130000000Y-58350000D03*
D10*
X130000000Y-60000000D03*
D11*
X128833274Y-58833274D03*
X130000000Y-61650000D03*
%TD*%
%TO.P,H3,1,1*%
%TO.N,GND*%
X150833274Y-58833274D03*
X150833274Y-61166726D03*
X150350000Y-60000000D03*
X153166726Y-61166726D03*
X153166726Y-58833274D03*
X152000000Y-61650000D03*
X153650000Y-60000000D03*
D10*
X152000000Y-60000000D03*
D11*
X152000000Y-58350000D03*
%TD*%
%TO.P,H4,1,1*%
%TO.N,GND*%
X150833274Y-83166726D03*
X150833274Y-80833274D03*
D10*
X152000000Y-82000000D03*
D11*
X150350000Y-82000000D03*
X152000000Y-83650000D03*
X152000000Y-80350000D03*
X153166726Y-80833274D03*
X153166726Y-83166726D03*
X153650000Y-82000000D03*
%TD*%
D12*
%TO.P,J1,1,Pin_1*%
%TO.N,+3V3*%
X132250000Y-52550000D03*
D13*
%TO.P,J1,2,Pin_2*%
%TO.N,GND*%
X134750000Y-52550000D03*
%TO.P,J1,3,Pin_3*%
%TO.N,/A*%
X137250000Y-52550000D03*
%TO.P,J1,4,Pin_4*%
%TO.N,/B*%
X139750000Y-52550000D03*
%TO.P,J1,5,Pin_5*%
%TO.N,/CLK*%
X142250000Y-52550000D03*
%TO.P,J1,6,Pin_6*%
%TO.N,/MISO*%
X144750000Y-52550000D03*
%TO.P,J1,7,Pin_7*%
%TO.N,/MOSI*%
X147250000Y-52550000D03*
%TO.P,J1,8,Pin_8*%
%TO.N,/CS*%
X149750000Y-52550000D03*
%TD*%
D14*
%TO.N,+3V3*%
X147000000Y-63400000D03*
X141400000Y-76900000D03*
D15*
%TO.N,GND*%
X140350000Y-69680000D03*
D14*
X148000000Y-66300000D03*
X141987701Y-72402299D03*
X144240000Y-75860000D03*
X140800000Y-61200000D03*
D15*
%TO.N,/MOSI*%
X140575000Y-66200000D03*
%TO.N,/MISO*%
X141150000Y-64300000D03*
%TD*%
D16*
%TO.N,+3V3*%
X137000000Y-67700000D02*
X137000000Y-74600000D01*
X139300000Y-76900000D02*
X141400000Y-76900000D01*
X142700000Y-67700000D02*
X147000000Y-63400000D01*
X137000000Y-67700000D02*
X142700000Y-67700000D01*
X137000000Y-57300000D02*
X137000000Y-67700000D01*
X132250000Y-52550000D02*
X137000000Y-57300000D01*
X137000000Y-74600000D02*
X139300000Y-76900000D01*
D17*
%TO.N,/MOSI*%
X140668548Y-66200000D02*
X147250000Y-59618548D01*
X147250000Y-59618548D02*
X147250000Y-52550000D01*
X140575000Y-66200000D02*
X140668548Y-66200000D01*
%TO.N,/MISO*%
X141150000Y-64300000D02*
X144750000Y-60700000D01*
X145450000Y-56950000D02*
X145050000Y-56950000D01*
X145050000Y-57550000D02*
X145450000Y-57550000D01*
X144750000Y-60700000D02*
X144750000Y-57850000D01*
X144750000Y-56650000D02*
X144750000Y-56600000D01*
X144750000Y-56600000D02*
X144750000Y-52550000D01*
X145050000Y-57550000D02*
G75*
G03*
X144750000Y-57850000I0J-300000D01*
G01*
X145450000Y-56950000D02*
G75*
G02*
X145750000Y-57250000I0J-300000D01*
G01*
X144750000Y-56650000D02*
G75*
G03*
X145050000Y-56950000I300000J0D01*
G01*
X145750000Y-57250000D02*
G75*
G02*
X145450000Y-57550000I-300000J0D01*
G01*
%TD*%
M02*
