%TF.GenerationSoftware,KiCad,Pcbnew,(6.0.0)*%
%TF.CreationDate,2022-01-20T18:02:09+07:00*%
%TF.ProjectId,CubeSat Encoder,43756265-5361-4742-9045-6e636f646572,rev?*%
%TF.SameCoordinates,Original*%
%TF.FileFunction,Legend,Bot*%
%TF.FilePolarity,Positive*%
%FSLAX46Y46*%
G04 Gerber Fmt 4.6, Leading zero omitted, Abs format (unit mm)*
G04 Created by KiCad (PCBNEW (6.0.0)) date 2022-01-20 18:02:09*
%MOMM*%
%LPD*%
G01*
G04 APERTURE LIST*
%ADD10C,0.200000*%
%ADD11C,0.300000*%
%ADD12C,0.120000*%
G04 APERTURE END LIST*
D10*
X134428571Y-55638095D02*
X134380951Y-55542857D01*
X134380951Y-55400000D01*
X134428571Y-55257142D01*
X134523809Y-55161904D01*
X134619047Y-55114285D01*
X134809523Y-55066666D01*
X134952380Y-55066666D01*
X135142856Y-55114285D01*
X135238094Y-55161904D01*
X135333332Y-55257142D01*
X135380951Y-55400000D01*
X135380951Y-55495238D01*
X135333332Y-55638095D01*
X135285713Y-55685714D01*
X134952380Y-55685714D01*
X134952380Y-55495238D01*
X135380951Y-56114285D02*
X134380951Y-56114285D01*
X135380951Y-56685714D01*
X134380951Y-56685714D01*
X135380951Y-57161904D02*
X134380951Y-57161904D01*
X134380951Y-57400000D01*
X134428571Y-57542857D01*
X134523809Y-57638095D01*
X134619047Y-57685714D01*
X134809523Y-57733333D01*
X134952380Y-57733333D01*
X135142856Y-57685714D01*
X135238094Y-57638095D01*
X135333332Y-57542857D01*
X135380951Y-57400000D01*
X135380951Y-57161904D01*
D11*
X150885714Y-74978571D02*
X150885714Y-73478571D01*
X150528571Y-73478571D01*
X150314285Y-73550000D01*
X150171428Y-73692857D01*
X150100000Y-73835714D01*
X150028571Y-74121428D01*
X150028571Y-74335714D01*
X150100000Y-74621428D01*
X150171428Y-74764285D01*
X150314285Y-74907142D01*
X150528571Y-74978571D01*
X150885714Y-74978571D01*
X148814285Y-74907142D02*
X148957142Y-74978571D01*
X149242857Y-74978571D01*
X149385714Y-74907142D01*
X149457142Y-74764285D01*
X149457142Y-74192857D01*
X149385714Y-74050000D01*
X149242857Y-73978571D01*
X148957142Y-73978571D01*
X148814285Y-74050000D01*
X148742857Y-74192857D01*
X148742857Y-74335714D01*
X149457142Y-74478571D01*
X148171428Y-74907142D02*
X148028571Y-74978571D01*
X147742857Y-74978571D01*
X147600000Y-74907142D01*
X147528571Y-74764285D01*
X147528571Y-74692857D01*
X147600000Y-74550000D01*
X147742857Y-74478571D01*
X147957142Y-74478571D01*
X148100000Y-74407142D01*
X148171428Y-74264285D01*
X148171428Y-74192857D01*
X148100000Y-74050000D01*
X147957142Y-73978571D01*
X147742857Y-73978571D01*
X147600000Y-74050000D01*
X146885714Y-74978571D02*
X146885714Y-73978571D01*
X146885714Y-73478571D02*
X146957142Y-73550000D01*
X146885714Y-73621428D01*
X146814285Y-73550000D01*
X146885714Y-73478571D01*
X146885714Y-73621428D01*
X145528571Y-73978571D02*
X145528571Y-75192857D01*
X145600000Y-75335714D01*
X145671428Y-75407142D01*
X145814285Y-75478571D01*
X146028571Y-75478571D01*
X146171428Y-75407142D01*
X145528571Y-74907142D02*
X145671428Y-74978571D01*
X145957142Y-74978571D01*
X146100000Y-74907142D01*
X146171428Y-74835714D01*
X146242857Y-74692857D01*
X146242857Y-74264285D01*
X146171428Y-74121428D01*
X146100000Y-74050000D01*
X145957142Y-73978571D01*
X145671428Y-73978571D01*
X145528571Y-74050000D01*
X144814285Y-73978571D02*
X144814285Y-74978571D01*
X144814285Y-74121428D02*
X144742857Y-74050000D01*
X144600000Y-73978571D01*
X144385714Y-73978571D01*
X144242857Y-74050000D01*
X144171428Y-74192857D01*
X144171428Y-74978571D01*
X141814285Y-74192857D02*
X141600000Y-74264285D01*
X141528571Y-74335714D01*
X141457142Y-74478571D01*
X141457142Y-74692857D01*
X141528571Y-74835714D01*
X141600000Y-74907142D01*
X141742857Y-74978571D01*
X142314285Y-74978571D01*
X142314285Y-73478571D01*
X141814285Y-73478571D01*
X141671428Y-73550000D01*
X141600000Y-73621428D01*
X141528571Y-73764285D01*
X141528571Y-73907142D01*
X141600000Y-74050000D01*
X141671428Y-74121428D01*
X141814285Y-74192857D01*
X142314285Y-74192857D01*
X140957142Y-73978571D02*
X140600000Y-74978571D01*
X140242857Y-73978571D02*
X140600000Y-74978571D01*
X140742857Y-75335714D01*
X140814285Y-75407142D01*
X140957142Y-75478571D01*
X138028571Y-74192857D02*
X138528571Y-74192857D01*
X138528571Y-74978571D02*
X138528571Y-73478571D01*
X137814285Y-73478571D01*
X136600000Y-74978571D02*
X136600000Y-74192857D01*
X136671428Y-74050000D01*
X136814285Y-73978571D01*
X137100000Y-73978571D01*
X137242857Y-74050000D01*
X136600000Y-74907142D02*
X136742857Y-74978571D01*
X137100000Y-74978571D01*
X137242857Y-74907142D01*
X137314285Y-74764285D01*
X137314285Y-74621428D01*
X137242857Y-74478571D01*
X137100000Y-74407142D01*
X136742857Y-74407142D01*
X136600000Y-74335714D01*
X135885714Y-74978571D02*
X135885714Y-73978571D01*
X135885714Y-74121428D02*
X135814285Y-74050000D01*
X135671428Y-73978571D01*
X135457142Y-73978571D01*
X135314285Y-74050000D01*
X135242857Y-74192857D01*
X135242857Y-74978571D01*
X135242857Y-74192857D02*
X135171428Y-74050000D01*
X135028571Y-73978571D01*
X134814285Y-73978571D01*
X134671428Y-74050000D01*
X134600000Y-74192857D01*
X134600000Y-74978571D01*
X133314285Y-74907142D02*
X133457142Y-74978571D01*
X133742857Y-74978571D01*
X133885714Y-74907142D01*
X133957142Y-74764285D01*
X133957142Y-74192857D01*
X133885714Y-74050000D01*
X133742857Y-73978571D01*
X133457142Y-73978571D01*
X133314285Y-74050000D01*
X133242857Y-74192857D01*
X133242857Y-74335714D01*
X133957142Y-74478571D01*
D10*
X142571426Y-55804760D02*
X142619045Y-55757141D01*
X142666664Y-55614284D01*
X142666664Y-55519046D01*
X142619045Y-55376189D01*
X142523807Y-55280951D01*
X142428569Y-55233332D01*
X142238093Y-55185713D01*
X142095236Y-55185713D01*
X141904760Y-55233332D01*
X141809522Y-55280951D01*
X141714284Y-55376189D01*
X141666664Y-55519046D01*
X141666664Y-55614284D01*
X141714284Y-55757141D01*
X141761903Y-55804760D01*
X142666664Y-56709522D02*
X142666664Y-56233332D01*
X141666664Y-56233332D01*
X142666664Y-57042856D02*
X141666664Y-57042856D01*
X142666664Y-57614284D02*
X142095236Y-57185713D01*
X141666664Y-57614284D02*
X142238093Y-57042856D01*
D11*
X148507142Y-67992857D02*
X148007142Y-67992857D01*
X147792857Y-68778571D02*
X148507142Y-68778571D01*
X148507142Y-67278571D01*
X147792857Y-67278571D01*
X147150000Y-68778571D02*
X147150000Y-67278571D01*
X146292857Y-68778571D01*
X146292857Y-67278571D01*
X144721428Y-68635714D02*
X144792857Y-68707142D01*
X145007142Y-68778571D01*
X145150000Y-68778571D01*
X145364285Y-68707142D01*
X145507142Y-68564285D01*
X145578571Y-68421428D01*
X145650000Y-68135714D01*
X145650000Y-67921428D01*
X145578571Y-67635714D01*
X145507142Y-67492857D01*
X145364285Y-67350000D01*
X145150000Y-67278571D01*
X145007142Y-67278571D01*
X144792857Y-67350000D01*
X144721428Y-67421428D01*
X143792857Y-67278571D02*
X143507142Y-67278571D01*
X143364285Y-67350000D01*
X143221428Y-67492857D01*
X143150000Y-67778571D01*
X143150000Y-68278571D01*
X143221428Y-68564285D01*
X143364285Y-68707142D01*
X143507142Y-68778571D01*
X143792857Y-68778571D01*
X143935714Y-68707142D01*
X144078571Y-68564285D01*
X144150000Y-68278571D01*
X144150000Y-67778571D01*
X144078571Y-67492857D01*
X143935714Y-67350000D01*
X143792857Y-67278571D01*
X142507142Y-68778571D02*
X142507142Y-67278571D01*
X142150000Y-67278571D01*
X141935714Y-67350000D01*
X141792857Y-67492857D01*
X141721428Y-67635714D01*
X141650000Y-67921428D01*
X141650000Y-68135714D01*
X141721428Y-68421428D01*
X141792857Y-68564285D01*
X141935714Y-68707142D01*
X142150000Y-68778571D01*
X142507142Y-68778571D01*
X141007142Y-67992857D02*
X140507142Y-67992857D01*
X140292857Y-68778571D02*
X141007142Y-68778571D01*
X141007142Y-67278571D01*
X140292857Y-67278571D01*
X138792857Y-68778571D02*
X139292857Y-68064285D01*
X139650000Y-68778571D02*
X139650000Y-67278571D01*
X139078571Y-67278571D01*
X138935714Y-67350000D01*
X138864285Y-67421428D01*
X138792857Y-67564285D01*
X138792857Y-67778571D01*
X138864285Y-67921428D01*
X138935714Y-67992857D01*
X139078571Y-68064285D01*
X139650000Y-68064285D01*
X137221428Y-67278571D02*
X136721428Y-68778571D01*
X136221428Y-67278571D01*
X135721428Y-68635714D02*
X135650000Y-68707142D01*
X135721428Y-68778571D01*
X135792857Y-68707142D01*
X135721428Y-68635714D01*
X135721428Y-68778571D01*
X134221428Y-68778571D02*
X135078571Y-68778571D01*
X134650000Y-68778571D02*
X134650000Y-67278571D01*
X134792857Y-67492857D01*
X134935714Y-67635714D01*
X135078571Y-67707142D01*
D10*
X131952380Y-55161904D02*
X131952380Y-55780952D01*
X132333333Y-55447619D01*
X132333333Y-55590476D01*
X132380952Y-55685714D01*
X132428571Y-55733333D01*
X132523809Y-55780952D01*
X132761904Y-55780952D01*
X132857142Y-55733333D01*
X132904761Y-55685714D01*
X132952380Y-55590476D01*
X132952380Y-55304761D01*
X132904761Y-55209523D01*
X132857142Y-55161904D01*
X131952380Y-56066666D02*
X132952380Y-56400000D01*
X131952380Y-56733333D01*
X131952380Y-56971428D02*
X131952380Y-57590476D01*
X132333333Y-57257142D01*
X132333333Y-57400000D01*
X132380952Y-57495238D01*
X132428571Y-57542857D01*
X132523809Y-57590476D01*
X132761904Y-57590476D01*
X132857142Y-57542857D01*
X132904761Y-57495238D01*
X132952380Y-57400000D01*
X132952380Y-57114285D01*
X132904761Y-57019047D01*
X132857142Y-56971428D01*
X137523808Y-56161904D02*
X137523808Y-56638095D01*
X137809522Y-56066666D02*
X136809522Y-56400000D01*
X137809522Y-56733333D01*
X147523806Y-54828570D02*
X146523806Y-54828570D01*
X147238092Y-55161903D01*
X146523806Y-55495237D01*
X147523806Y-55495237D01*
X146523806Y-56161903D02*
X146523806Y-56352379D01*
X146571426Y-56447618D01*
X146666664Y-56542856D01*
X146857140Y-56590475D01*
X147190473Y-56590475D01*
X147380949Y-56542856D01*
X147476187Y-56447618D01*
X147523806Y-56352379D01*
X147523806Y-56161903D01*
X147476187Y-56066665D01*
X147380949Y-55971427D01*
X147190473Y-55923808D01*
X146857140Y-55923808D01*
X146666664Y-55971427D01*
X146571426Y-56066665D01*
X146523806Y-56161903D01*
X147476187Y-56971427D02*
X147523806Y-57114284D01*
X147523806Y-57352379D01*
X147476187Y-57447618D01*
X147428568Y-57495237D01*
X147333330Y-57542856D01*
X147238092Y-57542856D01*
X147142854Y-57495237D01*
X147095235Y-57447618D01*
X147047616Y-57352379D01*
X146999997Y-57161903D01*
X146952378Y-57066665D01*
X146904759Y-57019046D01*
X146809521Y-56971427D01*
X146714283Y-56971427D01*
X146619045Y-57019046D01*
X146571426Y-57066665D01*
X146523806Y-57161903D01*
X146523806Y-57399999D01*
X146571426Y-57542856D01*
X147523806Y-57971427D02*
X146523806Y-57971427D01*
X139714284Y-56471427D02*
X139761903Y-56614284D01*
X139809522Y-56661903D01*
X139904760Y-56709522D01*
X140047617Y-56709522D01*
X140142855Y-56661903D01*
X140190474Y-56614284D01*
X140238093Y-56519046D01*
X140238093Y-56138094D01*
X139238093Y-56138094D01*
X139238093Y-56471427D01*
X139285713Y-56566665D01*
X139333332Y-56614284D01*
X139428570Y-56661903D01*
X139523808Y-56661903D01*
X139619046Y-56614284D01*
X139666665Y-56566665D01*
X139714284Y-56471427D01*
X139714284Y-56138094D01*
X149857142Y-56233333D02*
X149904761Y-56185714D01*
X149952380Y-56042857D01*
X149952380Y-55947619D01*
X149904761Y-55804761D01*
X149809523Y-55709523D01*
X149714285Y-55661904D01*
X149523809Y-55614285D01*
X149380952Y-55614285D01*
X149190476Y-55661904D01*
X149095238Y-55709523D01*
X149000000Y-55804761D01*
X148952380Y-55947619D01*
X148952380Y-56042857D01*
X149000000Y-56185714D01*
X149047619Y-56233333D01*
X149904761Y-56614285D02*
X149952380Y-56757142D01*
X149952380Y-56995238D01*
X149904761Y-57090476D01*
X149857142Y-57138095D01*
X149761904Y-57185714D01*
X149666666Y-57185714D01*
X149571428Y-57138095D01*
X149523809Y-57090476D01*
X149476190Y-56995238D01*
X149428571Y-56804761D01*
X149380952Y-56709523D01*
X149333333Y-56661904D01*
X149238095Y-56614285D01*
X149142857Y-56614285D01*
X149047619Y-56661904D01*
X149000000Y-56709523D01*
X148952380Y-56804761D01*
X148952380Y-57042857D01*
X149000000Y-57185714D01*
X145095235Y-54828570D02*
X144095235Y-54828570D01*
X144809521Y-55161903D01*
X144095235Y-55495237D01*
X145095235Y-55495237D01*
X145095235Y-55971427D02*
X144095235Y-55971427D01*
X145047616Y-56399999D02*
X145095235Y-56542856D01*
X145095235Y-56780951D01*
X145047616Y-56876189D01*
X144999997Y-56923808D01*
X144904759Y-56971427D01*
X144809521Y-56971427D01*
X144714283Y-56923808D01*
X144666664Y-56876189D01*
X144619045Y-56780951D01*
X144571426Y-56590475D01*
X144523807Y-56495237D01*
X144476188Y-56447618D01*
X144380950Y-56399999D01*
X144285712Y-56399999D01*
X144190474Y-56447618D01*
X144142855Y-56495237D01*
X144095235Y-56590475D01*
X144095235Y-56828570D01*
X144142855Y-56971427D01*
X144095235Y-57590475D02*
X144095235Y-57780951D01*
X144142855Y-57876189D01*
X144238093Y-57971427D01*
X144428569Y-58019046D01*
X144761902Y-58019046D01*
X144952378Y-57971427D01*
X145047616Y-57876189D01*
X145095235Y-57780951D01*
X145095235Y-57590475D01*
X145047616Y-57495237D01*
X144952378Y-57399999D01*
X144761902Y-57352379D01*
X144428569Y-57352379D01*
X144238093Y-57399999D01*
X144142855Y-57495237D01*
X144095235Y-57590475D01*
D12*
%TO.C,J1*%
X149500000Y-45450000D02*
X150000000Y-45450000D01*
X144500000Y-50950000D02*
X144500000Y-45450000D01*
X150000000Y-50950000D02*
X149500000Y-50950000D01*
X131950000Y-54650000D02*
X132550000Y-54650000D01*
X150890000Y-56560000D02*
X150890000Y-52060000D01*
X140000000Y-45450000D02*
X140000000Y-50950000D01*
X134500000Y-45450000D02*
X135000000Y-45450000D01*
X142500000Y-50950000D02*
X142000000Y-50950000D01*
X132500000Y-50950000D02*
X132000000Y-50950000D01*
X150000000Y-45450000D02*
X150000000Y-50950000D01*
X132250000Y-54050000D02*
X131950000Y-54650000D01*
X142000000Y-45450000D02*
X142500000Y-45450000D01*
X144500000Y-45450000D02*
X145000000Y-45450000D01*
X135000000Y-45450000D02*
X135000000Y-50950000D01*
X132500000Y-45450000D02*
X132500000Y-50950000D01*
X147000000Y-50950000D02*
X147000000Y-45450000D01*
X142000000Y-50950000D02*
X142000000Y-45450000D01*
X139500000Y-50950000D02*
X139500000Y-45450000D01*
X152310000Y-56560000D02*
X150890000Y-56560000D01*
X137500000Y-50950000D02*
X137000000Y-50950000D01*
X129690000Y-44840000D02*
X129690000Y-56560000D01*
X129690000Y-56560000D02*
X131110000Y-56560000D01*
X149500000Y-50950000D02*
X149500000Y-45450000D01*
X147500000Y-45450000D02*
X147500000Y-50950000D01*
X145000000Y-45450000D02*
X145000000Y-50950000D01*
X137500000Y-45450000D02*
X137500000Y-50950000D01*
X145000000Y-50950000D02*
X144500000Y-50950000D01*
X147500000Y-50950000D02*
X147000000Y-50950000D01*
X142500000Y-45450000D02*
X142500000Y-50950000D01*
X137000000Y-45450000D02*
X137500000Y-45450000D01*
X140000000Y-50950000D02*
X139500000Y-50950000D01*
X132000000Y-45450000D02*
X132500000Y-45450000D01*
X139500000Y-45450000D02*
X140000000Y-45450000D01*
X131110000Y-56560000D02*
X131110000Y-52060000D01*
X134500000Y-50950000D02*
X134500000Y-45450000D01*
X152310000Y-44840000D02*
X152310000Y-56560000D01*
X147000000Y-45450000D02*
X147500000Y-45450000D01*
X141000000Y-44840000D02*
X152310000Y-44840000D01*
X141000000Y-44840000D02*
X129690000Y-44840000D01*
X137000000Y-50950000D02*
X137000000Y-45450000D01*
X132550000Y-54650000D02*
X132250000Y-54050000D01*
X135000000Y-50950000D02*
X134500000Y-50950000D01*
X132000000Y-50950000D02*
X132000000Y-45450000D01*
%TO.C,G\u002A\u002A\u002A*%
G36*
X140851124Y-82508338D02*
G01*
X140970364Y-82561585D01*
X141148409Y-82645438D01*
X141373936Y-82754480D01*
X141635623Y-82883291D01*
X141922147Y-83026456D01*
X142981304Y-83559451D01*
X142780866Y-83634009D01*
X142770274Y-83637933D01*
X142654888Y-83679976D01*
X142473448Y-83745403D01*
X142242585Y-83828245D01*
X141978929Y-83922532D01*
X141699111Y-84022295D01*
X141628114Y-84047527D01*
X141367152Y-84139531D01*
X141137740Y-84219280D01*
X140953257Y-84282199D01*
X140827083Y-84323710D01*
X140772598Y-84339237D01*
X140728292Y-84328444D01*
X140610783Y-84291354D01*
X140435412Y-84232735D01*
X140216484Y-84157657D01*
X139968301Y-84071196D01*
X139705165Y-83978424D01*
X139441379Y-83884413D01*
X139191247Y-83794238D01*
X138969071Y-83712972D01*
X138789154Y-83645687D01*
X138665800Y-83597456D01*
X138613310Y-83573353D01*
X138622779Y-83561461D01*
X138696699Y-83514837D01*
X138832081Y-83439777D01*
X139016366Y-83342490D01*
X139236993Y-83229185D01*
X139481402Y-83106069D01*
X139737032Y-82979350D01*
X139991323Y-82855237D01*
X140231715Y-82739937D01*
X140445647Y-82639659D01*
X140620559Y-82560611D01*
X140743890Y-82509001D01*
X140803080Y-82491037D01*
X140851124Y-82508338D01*
G37*
G36*
X134475082Y-76662936D02*
G01*
X134537902Y-76681656D01*
X134628968Y-76718471D01*
X134754701Y-76776470D01*
X134921521Y-76858741D01*
X135135850Y-76968372D01*
X135404110Y-77108451D01*
X135732722Y-77282066D01*
X136128108Y-77492306D01*
X136596688Y-77742259D01*
X137096711Y-78009119D01*
X137571670Y-78262532D01*
X137977091Y-78478969D01*
X138318240Y-78661459D01*
X138600388Y-78813030D01*
X138828804Y-78936711D01*
X139008755Y-79035531D01*
X139145511Y-79112519D01*
X139244340Y-79170704D01*
X139310512Y-79213114D01*
X139349294Y-79242778D01*
X139365956Y-79262725D01*
X139365767Y-79275984D01*
X139353996Y-79285583D01*
X139335910Y-79294551D01*
X139316779Y-79305918D01*
X139285495Y-79330603D01*
X139254944Y-79365818D01*
X139302338Y-79355679D01*
X139427534Y-79300245D01*
X139630391Y-79199577D01*
X139910764Y-79053737D01*
X140014910Y-78999005D01*
X140214329Y-78895620D01*
X140378059Y-78812626D01*
X140491414Y-78757413D01*
X140539708Y-78737367D01*
X140547697Y-78762593D01*
X140555592Y-78868800D01*
X140560492Y-79049873D01*
X140562433Y-79297006D01*
X140561455Y-79601391D01*
X140557593Y-79954219D01*
X140550887Y-80346684D01*
X140541374Y-80769977D01*
X140529092Y-81215291D01*
X140501424Y-82133963D01*
X139416726Y-82668857D01*
X139415577Y-82669424D01*
X139127941Y-82811209D01*
X138868189Y-82939140D01*
X138646957Y-83047989D01*
X138474880Y-83132526D01*
X138362593Y-83187522D01*
X138320730Y-83207748D01*
X138320550Y-83207600D01*
X138318003Y-83159158D01*
X138315664Y-83030921D01*
X138313599Y-82832806D01*
X138311876Y-82574731D01*
X138310563Y-82266613D01*
X138309725Y-81918368D01*
X138309431Y-81539914D01*
X138309431Y-79868084D01*
X138767133Y-79638398D01*
X138932888Y-79551167D01*
X139074499Y-79467884D01*
X139163431Y-79404829D01*
X139185193Y-79371264D01*
X139144464Y-79346960D01*
X139030085Y-79283711D01*
X138849473Y-79185686D01*
X138609731Y-79056687D01*
X138317966Y-78900518D01*
X137981283Y-78720980D01*
X137606787Y-78521877D01*
X137201583Y-78307011D01*
X136772776Y-78080184D01*
X136370672Y-77867563D01*
X135964147Y-77652234D01*
X135588012Y-77452622D01*
X135249347Y-77272504D01*
X134955234Y-77115658D01*
X134712755Y-76985860D01*
X134528991Y-76886887D01*
X134411024Y-76822516D01*
X134365934Y-76796523D01*
X134358235Y-76758953D01*
X134393227Y-76682582D01*
X134408490Y-76667432D01*
X134434085Y-76659224D01*
X134475082Y-76662936D01*
G37*
G36*
X138208955Y-81433485D02*
G01*
X138211218Y-81516340D01*
X138207868Y-81534503D01*
X138190264Y-81573252D01*
X138151423Y-81616604D01*
X138082887Y-81669791D01*
X137976198Y-81738043D01*
X137822898Y-81826595D01*
X137614530Y-81940676D01*
X137342635Y-82085520D01*
X136998755Y-82266358D01*
X136896137Y-82320047D01*
X136600059Y-82473846D01*
X136332216Y-82611370D01*
X136102939Y-82727420D01*
X135922563Y-82816797D01*
X135801421Y-82874303D01*
X135749845Y-82894737D01*
X135716019Y-82878714D01*
X135675362Y-82806430D01*
X135674134Y-82799983D01*
X135681162Y-82769050D01*
X135714226Y-82730352D01*
X135781140Y-82679189D01*
X135889719Y-82610866D01*
X136047775Y-82520683D01*
X136263125Y-82403943D01*
X136543581Y-82255948D01*
X136896958Y-82072000D01*
X137038238Y-81998778D01*
X137337341Y-81844010D01*
X137606616Y-81705008D01*
X137835987Y-81586953D01*
X138015376Y-81495028D01*
X138134707Y-81434412D01*
X138183903Y-81410288D01*
X138208955Y-81433485D01*
G37*
G36*
X147168336Y-76702655D02*
G01*
X147180471Y-76718644D01*
X147194453Y-76779055D01*
X147180471Y-76844403D01*
X147137474Y-76870037D01*
X147021243Y-76934348D01*
X146838985Y-77033389D01*
X146597754Y-77163378D01*
X146304606Y-77320533D01*
X145966596Y-77501072D01*
X145590780Y-77701213D01*
X145184213Y-77917173D01*
X144753950Y-78145170D01*
X144497380Y-78280856D01*
X144019643Y-78532698D01*
X143613332Y-78745516D01*
X143272991Y-78922002D01*
X142993165Y-79064848D01*
X142768397Y-79176748D01*
X142593232Y-79260392D01*
X142462213Y-79318474D01*
X142369887Y-79353686D01*
X142310795Y-79368720D01*
X142279484Y-79366269D01*
X142231259Y-79334133D01*
X142198259Y-79289424D01*
X142199084Y-79288201D01*
X142248867Y-79256256D01*
X142370799Y-79186274D01*
X142558073Y-79081960D01*
X142803882Y-78947018D01*
X143101420Y-78785153D01*
X143443880Y-78600071D01*
X143824455Y-78395476D01*
X144236339Y-78175072D01*
X144672726Y-77942566D01*
X144916609Y-77812940D01*
X145389081Y-77562203D01*
X145790441Y-77349995D01*
X146126543Y-77173460D01*
X146403238Y-77029742D01*
X146626379Y-76915984D01*
X146801819Y-76829331D01*
X146935410Y-76766926D01*
X147033005Y-76725912D01*
X147100456Y-76703433D01*
X147143616Y-76696633D01*
X147168336Y-76702655D01*
G37*
G36*
X143190233Y-79889858D02*
G01*
X143190401Y-80528363D01*
X143190502Y-80584739D01*
X143194497Y-80854060D01*
X143204802Y-81042812D01*
X143222097Y-81159208D01*
X143247065Y-81211456D01*
X143271564Y-81226657D01*
X143369537Y-81281683D01*
X143531418Y-81370021D01*
X143747325Y-81486355D01*
X144007373Y-81625368D01*
X144301680Y-81781744D01*
X144620362Y-81950166D01*
X144963096Y-82131274D01*
X145255283Y-82287146D01*
X145482128Y-82410650D01*
X145651319Y-82506499D01*
X145770542Y-82579408D01*
X145847484Y-82634092D01*
X145889831Y-82675265D01*
X145905269Y-82707640D01*
X145901485Y-82735934D01*
X145870931Y-82789564D01*
X145822412Y-82818330D01*
X145804023Y-82810483D01*
X145714428Y-82766137D01*
X145560443Y-82687271D01*
X145351919Y-82579009D01*
X145098707Y-82446476D01*
X144810655Y-82294797D01*
X144497615Y-82129095D01*
X144316113Y-82032887D01*
X144018190Y-81875455D01*
X143751951Y-81735376D01*
X143527014Y-81617675D01*
X143353001Y-81527379D01*
X143239533Y-81469515D01*
X143196228Y-81449110D01*
X143195344Y-81450034D01*
X143191135Y-81504763D01*
X143190234Y-81634198D01*
X143192492Y-81824681D01*
X143197759Y-82062552D01*
X143205887Y-82334154D01*
X143212660Y-82567552D01*
X143216896Y-82842044D01*
X143214861Y-83043444D01*
X143206642Y-83166054D01*
X143192328Y-83204172D01*
X143148773Y-83184348D01*
X143033608Y-83129426D01*
X142858765Y-83045042D01*
X142635450Y-82936625D01*
X142374867Y-82809600D01*
X142088220Y-82669395D01*
X141027312Y-82149644D01*
X141024244Y-80462739D01*
X141021175Y-78775834D01*
X143190233Y-79889858D01*
G37*
%TD*%
M02*
