%TF.GenerationSoftware,KiCad,Pcbnew,(6.0.0)*%
%TF.CreationDate,2022-01-20T18:02:09+07:00*%
%TF.ProjectId,CubeSat Encoder,43756265-5361-4742-9045-6e636f646572,rev?*%
%TF.SameCoordinates,Original*%
%TF.FileFunction,Copper,L2,Inr*%
%TF.FilePolarity,Positive*%
%FSLAX46Y46*%
G04 Gerber Fmt 4.6, Leading zero omitted, Abs format (unit mm)*
G04 Created by KiCad (PCBNEW (6.0.0)) date 2022-01-20 18:02:09*
%MOMM*%
%LPD*%
G01*
G04 APERTURE LIST*
G04 Aperture macros list*
%AMRoundRect*
0 Rectangle with rounded corners*
0 $1 Rounding radius*
0 $2 $3 $4 $5 $6 $7 $8 $9 X,Y pos of 4 corners*
0 Add a 4 corners polygon primitive as box body*
4,1,4,$2,$3,$4,$5,$6,$7,$8,$9,$2,$3,0*
0 Add four circle primitives for the rounded corners*
1,1,$1+$1,$2,$3*
1,1,$1+$1,$4,$5*
1,1,$1+$1,$6,$7*
1,1,$1+$1,$8,$9*
0 Add four rect primitives between the rounded corners*
20,1,$1+$1,$2,$3,$4,$5,0*
20,1,$1+$1,$4,$5,$6,$7,0*
20,1,$1+$1,$6,$7,$8,$9,0*
20,1,$1+$1,$8,$9,$2,$3,0*%
G04 Aperture macros list end*
%TA.AperFunction,ComponentPad*%
%ADD10C,4.400000*%
%TD*%
%TA.AperFunction,ComponentPad*%
%ADD11C,0.700000*%
%TD*%
%TA.AperFunction,ComponentPad*%
%ADD12RoundRect,0.250000X-0.600000X-0.725000X0.600000X-0.725000X0.600000X0.725000X-0.600000X0.725000X0*%
%TD*%
%TA.AperFunction,ComponentPad*%
%ADD13O,1.700000X1.950000*%
%TD*%
%TA.AperFunction,ViaPad*%
%ADD14C,0.800000*%
%TD*%
%TA.AperFunction,ViaPad*%
%ADD15C,0.600000*%
%TD*%
G04 APERTURE END LIST*
D10*
%TO.N,GND*%
%TO.C,H12*%
X125000000Y-55000000D03*
D11*
X126650000Y-55000000D03*
X126166726Y-56166726D03*
X125000000Y-56650000D03*
X123833274Y-56166726D03*
X123350000Y-55000000D03*
X123833274Y-53833274D03*
X125000000Y-53350000D03*
X126166726Y-53833274D03*
%TD*%
D10*
%TO.N,GND*%
%TO.C,H11*%
X125000000Y-87000000D03*
D11*
X126650000Y-87000000D03*
X126166726Y-88166726D03*
X125000000Y-88650000D03*
X123833274Y-88166726D03*
X123350000Y-87000000D03*
X123833274Y-85833274D03*
X125000000Y-85350000D03*
X126166726Y-85833274D03*
%TD*%
D10*
%TO.N,GND*%
%TO.C,H10*%
X157000000Y-87000000D03*
D11*
X158650000Y-87000000D03*
X158166726Y-88166726D03*
X157000000Y-88650000D03*
X155833274Y-88166726D03*
X155350000Y-87000000D03*
X155833274Y-85833274D03*
X157000000Y-85350000D03*
X158166726Y-85833274D03*
%TD*%
D10*
%TO.N,GND*%
%TO.C,H9*%
X157000000Y-55000000D03*
D11*
X158650000Y-55000000D03*
X158166726Y-56166726D03*
X157000000Y-56650000D03*
X155833274Y-56166726D03*
X155350000Y-55000000D03*
X155833274Y-53833274D03*
X157000000Y-53350000D03*
X158166726Y-53833274D03*
%TD*%
D10*
%TO.N,GND*%
%TO.C,H8*%
X120000000Y-92000000D03*
D11*
X121650000Y-92000000D03*
X121166726Y-93166726D03*
X120000000Y-93650000D03*
X118833274Y-93166726D03*
X118350000Y-92000000D03*
X118833274Y-90833274D03*
X120000000Y-90350000D03*
X121166726Y-90833274D03*
%TD*%
D10*
%TO.N,GND*%
%TO.C,H7*%
X162000000Y-92000000D03*
D11*
X163650000Y-92000000D03*
X163166726Y-93166726D03*
X162000000Y-93650000D03*
X160833274Y-93166726D03*
X160350000Y-92000000D03*
X160833274Y-90833274D03*
X162000000Y-90350000D03*
X163166726Y-90833274D03*
%TD*%
D10*
%TO.N,GND*%
%TO.C,H6*%
X120000000Y-50000000D03*
D11*
X121650000Y-50000000D03*
X121166726Y-51166726D03*
X120000000Y-51650000D03*
X118833274Y-51166726D03*
X118350000Y-50000000D03*
X118833274Y-48833274D03*
X120000000Y-48350000D03*
X121166726Y-48833274D03*
%TD*%
D10*
%TO.N,GND*%
%TO.C,H5*%
X162000000Y-50000000D03*
D11*
X163650000Y-50000000D03*
X163166726Y-51166726D03*
X162000000Y-51650000D03*
X160833274Y-51166726D03*
X160350000Y-50000000D03*
X160833274Y-48833274D03*
X162000000Y-48350000D03*
X163166726Y-48833274D03*
%TD*%
%TO.N,GND*%
%TO.C,H2*%
X131650000Y-82000000D03*
D10*
X130000000Y-82000000D03*
D11*
X128350000Y-82000000D03*
X130000000Y-80350000D03*
X131166726Y-83166726D03*
X128833274Y-80833274D03*
X130000000Y-83650000D03*
X131166726Y-80833274D03*
X128833274Y-83166726D03*
%TD*%
%TO.N,GND*%
%TO.C,H1*%
X128350000Y-60000000D03*
X131166726Y-58833274D03*
X128833274Y-61166726D03*
X131650000Y-60000000D03*
X131166726Y-61166726D03*
X130000000Y-58350000D03*
D10*
X130000000Y-60000000D03*
D11*
X128833274Y-58833274D03*
X130000000Y-61650000D03*
%TD*%
%TO.N,GND*%
%TO.C,H3*%
X150833274Y-58833274D03*
X150833274Y-61166726D03*
X150350000Y-60000000D03*
X153166726Y-61166726D03*
X153166726Y-58833274D03*
X152000000Y-61650000D03*
X153650000Y-60000000D03*
D10*
X152000000Y-60000000D03*
D11*
X152000000Y-58350000D03*
%TD*%
%TO.N,GND*%
%TO.C,H4*%
X150833274Y-83166726D03*
X150833274Y-80833274D03*
D10*
X152000000Y-82000000D03*
D11*
X150350000Y-82000000D03*
X152000000Y-83650000D03*
X152000000Y-80350000D03*
X153166726Y-80833274D03*
X153166726Y-83166726D03*
X153650000Y-82000000D03*
%TD*%
D12*
%TO.N,+3V3*%
%TO.C,J1*%
X132250000Y-52550000D03*
D13*
%TO.N,GND*%
X134750000Y-52550000D03*
%TO.N,/A*%
X137250000Y-52550000D03*
%TO.N,/B*%
X139750000Y-52550000D03*
%TO.N,/CLK*%
X142250000Y-52550000D03*
%TO.N,/MISO*%
X144750000Y-52550000D03*
%TO.N,/MOSI*%
X147250000Y-52550000D03*
%TO.N,/CS*%
X149750000Y-52550000D03*
%TD*%
D14*
%TO.N,+3V3*%
X147000000Y-63400000D03*
X141400000Y-76900000D03*
D15*
%TO.N,GND*%
X140350000Y-69680000D03*
D14*
X148000000Y-66300000D03*
X141987701Y-72402299D03*
X144240000Y-75860000D03*
X140800000Y-61200000D03*
D15*
%TO.N,/MOSI*%
X140575000Y-66200000D03*
%TO.N,/MISO*%
X141150000Y-64300000D03*
%TD*%
%TA.AperFunction,Conductor*%
%TO.N,GND*%
G36*
X151688121Y-46274002D02*
G01*
X151734614Y-46327658D01*
X151746000Y-46380000D01*
X151746001Y-51454521D01*
X151745876Y-51456216D01*
X151743845Y-51461883D01*
X151744448Y-51474279D01*
X151744448Y-51474281D01*
X151745852Y-51503121D01*
X151746001Y-51509246D01*
X151746001Y-51525017D01*
X151747090Y-51530489D01*
X151747369Y-51534284D01*
X151748757Y-51562811D01*
X151751102Y-51567775D01*
X151759842Y-51595498D01*
X151760325Y-51597031D01*
X151760017Y-51597128D01*
X151760333Y-51600062D01*
X151761195Y-51599790D01*
X151830788Y-51820538D01*
X151833707Y-51829798D01*
X151835274Y-51833249D01*
X151835277Y-51833257D01*
X151934223Y-52051169D01*
X151949523Y-52084866D01*
X152095239Y-52324114D01*
X152097592Y-52327097D01*
X152130928Y-52369357D01*
X152268731Y-52544053D01*
X152271436Y-52546740D01*
X152386237Y-52660781D01*
X152467469Y-52741476D01*
X152470462Y-52743805D01*
X152470469Y-52743811D01*
X152537287Y-52795802D01*
X152688555Y-52913505D01*
X152691820Y-52915464D01*
X152925500Y-53055673D01*
X152925505Y-53055676D01*
X152928764Y-53057631D01*
X153184595Y-53171752D01*
X153188221Y-53172869D01*
X153188227Y-53172871D01*
X153298334Y-53206781D01*
X153452316Y-53254204D01*
X153456046Y-53254875D01*
X153456051Y-53254876D01*
X153724279Y-53303111D01*
X153724284Y-53303112D01*
X153728023Y-53303784D01*
X154007697Y-53319770D01*
X154011489Y-53319528D01*
X154011493Y-53319528D01*
X154132237Y-53311822D01*
X154287258Y-53301929D01*
X154290995Y-53301231D01*
X154290998Y-53301231D01*
X154463219Y-53269079D01*
X154557328Y-53251510D01*
X154562811Y-53251243D01*
X154574034Y-53245941D01*
X154580643Y-53244289D01*
X154586935Y-53241683D01*
X154599106Y-53239262D01*
X154617737Y-53226813D01*
X154633915Y-53217654D01*
X154642953Y-53213384D01*
X154642952Y-53213384D01*
X154654177Y-53208082D01*
X154667123Y-53193812D01*
X154681928Y-53177491D01*
X154686155Y-53173054D01*
X160148359Y-47710851D01*
X160152780Y-47706894D01*
X160161781Y-47702226D01*
X160169774Y-47692732D01*
X160179462Y-47684981D01*
X160179590Y-47685140D01*
X160187614Y-47677742D01*
X160422476Y-47510573D01*
X160434442Y-47503030D01*
X160711440Y-47349446D01*
X160724176Y-47343292D01*
X161016644Y-47221720D01*
X161029989Y-47217033D01*
X161334235Y-47129010D01*
X161348022Y-47125848D01*
X161660216Y-47072480D01*
X161674270Y-47070883D01*
X161990478Y-47052843D01*
X162004622Y-47052831D01*
X162173467Y-47062182D01*
X162320873Y-47070346D01*
X162334916Y-47071918D01*
X162491063Y-47098344D01*
X162647202Y-47124769D01*
X162660994Y-47127908D01*
X162965390Y-47215427D01*
X162978742Y-47220092D01*
X163271408Y-47341175D01*
X163284155Y-47347308D01*
X163561402Y-47500430D01*
X163573380Y-47507952D01*
X163831730Y-47691192D01*
X163842778Y-47700000D01*
X164078959Y-47911039D01*
X164088958Y-47921038D01*
X164300000Y-48157222D01*
X164308808Y-48168270D01*
X164490993Y-48425133D01*
X164492048Y-48426620D01*
X164499570Y-48438598D01*
X164652692Y-48715845D01*
X164658825Y-48728592D01*
X164779908Y-49021258D01*
X164784573Y-49034610D01*
X164872092Y-49339006D01*
X164875231Y-49352798D01*
X164928081Y-49665076D01*
X164929655Y-49679134D01*
X164947169Y-49995378D01*
X164947157Y-50009522D01*
X164929117Y-50325730D01*
X164927520Y-50339784D01*
X164874152Y-50651978D01*
X164870990Y-50665765D01*
X164782967Y-50970011D01*
X164778280Y-50983356D01*
X164656708Y-51275824D01*
X164650554Y-51288560D01*
X164496970Y-51565558D01*
X164489427Y-51577524D01*
X164322258Y-51812386D01*
X164314860Y-51820410D01*
X164315019Y-51820538D01*
X164307268Y-51830226D01*
X164297774Y-51838219D01*
X164293106Y-51847220D01*
X164289149Y-51851641D01*
X157352273Y-58788517D01*
X157350651Y-58789924D01*
X157344614Y-58792819D01*
X157338516Y-58799620D01*
X157127280Y-58975751D01*
X156929016Y-59179096D01*
X156752718Y-59401755D01*
X156600255Y-59641365D01*
X156598808Y-59644258D01*
X156598804Y-59644266D01*
X156474699Y-59892477D01*
X156473245Y-59895385D01*
X156373034Y-60161121D01*
X156300686Y-60435755D01*
X156256968Y-60716373D01*
X156256802Y-60719596D01*
X156256801Y-60719604D01*
X156243204Y-60983318D01*
X156242806Y-60991042D01*
X156241024Y-61000000D01*
X156243445Y-61012170D01*
X156243579Y-61012844D01*
X156246000Y-61037425D01*
X156246000Y-80962575D01*
X156243579Y-80987153D01*
X156241024Y-81000000D01*
X156242806Y-81008958D01*
X156256968Y-81283627D01*
X156300686Y-81564245D01*
X156373034Y-81838879D01*
X156473245Y-82104615D01*
X156600255Y-82358635D01*
X156752718Y-82598245D01*
X156929016Y-82820904D01*
X157127280Y-83024249D01*
X157129765Y-83026321D01*
X157281621Y-83152940D01*
X157338516Y-83200380D01*
X157344614Y-83207181D01*
X157350651Y-83210076D01*
X157352273Y-83211483D01*
X164289149Y-90148359D01*
X164293106Y-90152780D01*
X164297774Y-90161781D01*
X164307268Y-90169774D01*
X164315019Y-90179462D01*
X164314860Y-90179590D01*
X164322258Y-90187614D01*
X164489427Y-90422476D01*
X164496970Y-90434442D01*
X164650554Y-90711440D01*
X164656708Y-90724176D01*
X164778280Y-91016644D01*
X164782967Y-91029989D01*
X164870990Y-91334235D01*
X164874152Y-91348022D01*
X164927520Y-91660216D01*
X164929117Y-91674270D01*
X164947157Y-91990478D01*
X164947169Y-92004622D01*
X164929655Y-92320866D01*
X164928081Y-92334924D01*
X164875231Y-92647202D01*
X164872092Y-92660994D01*
X164784573Y-92965390D01*
X164779908Y-92978742D01*
X164658825Y-93271408D01*
X164652692Y-93284155D01*
X164499570Y-93561402D01*
X164492048Y-93573380D01*
X164308808Y-93831730D01*
X164300000Y-93842778D01*
X164260416Y-93887078D01*
X164088961Y-94078959D01*
X164078962Y-94088958D01*
X163842778Y-94300000D01*
X163831730Y-94308808D01*
X163637170Y-94446804D01*
X163573380Y-94492048D01*
X163561402Y-94499570D01*
X163284155Y-94652692D01*
X163271408Y-94658825D01*
X162978742Y-94779908D01*
X162965390Y-94784573D01*
X162660994Y-94872092D01*
X162647202Y-94875231D01*
X162498154Y-94900456D01*
X162334916Y-94928082D01*
X162320873Y-94929654D01*
X162173467Y-94937818D01*
X162004622Y-94947169D01*
X161990478Y-94947157D01*
X161674270Y-94929117D01*
X161660216Y-94927520D01*
X161348022Y-94874152D01*
X161334235Y-94870990D01*
X161029989Y-94782967D01*
X161016644Y-94778280D01*
X160724176Y-94656708D01*
X160711440Y-94650554D01*
X160434442Y-94496970D01*
X160422476Y-94489427D01*
X160187614Y-94322258D01*
X160179590Y-94314860D01*
X160179463Y-94315019D01*
X160169772Y-94307266D01*
X160161781Y-94297774D01*
X160152448Y-94292934D01*
X160147545Y-94288562D01*
X159743169Y-93887078D01*
X153180881Y-87371731D01*
X153164892Y-87352319D01*
X153157998Y-87342002D01*
X153150353Y-87336894D01*
X152915323Y-87121529D01*
X152913161Y-87119870D01*
X152913155Y-87119865D01*
X152657432Y-86923643D01*
X152655257Y-86921974D01*
X152378788Y-86745844D01*
X152088020Y-86594480D01*
X151785167Y-86469034D01*
X151782547Y-86468208D01*
X151782539Y-86468205D01*
X151475156Y-86371288D01*
X151475149Y-86371286D01*
X151472532Y-86370461D01*
X151384565Y-86350959D01*
X151155194Y-86300108D01*
X151155191Y-86300107D01*
X151152496Y-86299510D01*
X151149766Y-86299151D01*
X151149757Y-86299149D01*
X150989995Y-86278116D01*
X150827494Y-86256723D01*
X150824745Y-86256603D01*
X150824734Y-86256602D01*
X150516120Y-86243128D01*
X150509018Y-86242818D01*
X150500000Y-86241024D01*
X150487153Y-86243579D01*
X150462575Y-86246000D01*
X131542110Y-86246000D01*
X131523552Y-86243944D01*
X131518427Y-86243819D01*
X131506314Y-86241101D01*
X131497982Y-86242548D01*
X131395069Y-86244668D01*
X131178610Y-86249128D01*
X131178600Y-86249129D01*
X131175769Y-86249187D01*
X130847204Y-86285669D01*
X130844427Y-86286234D01*
X130844424Y-86286234D01*
X130526032Y-86350959D01*
X130526023Y-86350961D01*
X130523245Y-86351526D01*
X130520530Y-86352338D01*
X130520529Y-86352338D01*
X130209219Y-86445416D01*
X130209208Y-86445420D01*
X130206515Y-86446225D01*
X130203897Y-86447272D01*
X130203889Y-86447275D01*
X129902215Y-86567945D01*
X129899575Y-86569001D01*
X129897046Y-86570287D01*
X129897042Y-86570289D01*
X129849476Y-86594480D01*
X129604909Y-86718861D01*
X129324900Y-86894591D01*
X129061814Y-87094770D01*
X129059727Y-87096677D01*
X129059720Y-87096683D01*
X128890385Y-87251429D01*
X128823904Y-87312182D01*
X128816877Y-87316877D01*
X128809603Y-87327764D01*
X128793932Y-87346858D01*
X121851641Y-94289149D01*
X121847220Y-94293106D01*
X121838219Y-94297774D01*
X121830226Y-94307268D01*
X121820538Y-94315019D01*
X121820410Y-94314860D01*
X121812386Y-94322258D01*
X121577524Y-94489427D01*
X121565558Y-94496970D01*
X121288560Y-94650554D01*
X121275824Y-94656708D01*
X120983356Y-94778280D01*
X120970011Y-94782967D01*
X120665765Y-94870990D01*
X120651978Y-94874152D01*
X120339784Y-94927520D01*
X120325730Y-94929117D01*
X120009522Y-94947157D01*
X119995378Y-94947169D01*
X119826533Y-94937818D01*
X119679127Y-94929654D01*
X119665084Y-94928082D01*
X119501846Y-94900456D01*
X119352798Y-94875231D01*
X119339006Y-94872092D01*
X119034610Y-94784573D01*
X119021258Y-94779908D01*
X118728592Y-94658825D01*
X118715845Y-94652692D01*
X118438598Y-94499570D01*
X118426620Y-94492048D01*
X118362830Y-94446804D01*
X118168270Y-94308808D01*
X118157222Y-94300000D01*
X117921038Y-94088958D01*
X117911039Y-94078959D01*
X117739584Y-93887078D01*
X117700000Y-93842778D01*
X117691192Y-93831730D01*
X117507952Y-93573380D01*
X117500430Y-93561402D01*
X117347308Y-93284155D01*
X117341175Y-93271408D01*
X117220092Y-92978742D01*
X117215427Y-92965390D01*
X117127908Y-92660994D01*
X117124769Y-92647202D01*
X117071919Y-92334924D01*
X117070345Y-92320866D01*
X117052831Y-92004622D01*
X117052843Y-91990478D01*
X117070883Y-91674270D01*
X117072480Y-91660216D01*
X117125848Y-91348022D01*
X117129010Y-91334235D01*
X117217033Y-91029989D01*
X117221720Y-91016644D01*
X117343292Y-90724176D01*
X117349446Y-90711440D01*
X117503030Y-90434442D01*
X117510573Y-90422476D01*
X117677742Y-90187614D01*
X117685142Y-90179588D01*
X117684982Y-90179460D01*
X117692731Y-90169774D01*
X117702226Y-90161781D01*
X117705198Y-90156049D01*
X117706536Y-90154604D01*
X121842474Y-86285356D01*
X124625728Y-83681569D01*
X124641805Y-83668818D01*
X124647681Y-83664892D01*
X124647682Y-83664891D01*
X124657998Y-83657998D01*
X124663106Y-83650353D01*
X124878471Y-83415323D01*
X125078026Y-83155257D01*
X125254156Y-82878788D01*
X125405520Y-82588020D01*
X125530966Y-82285167D01*
X125548350Y-82230034D01*
X125628712Y-81975156D01*
X125628714Y-81975149D01*
X125629539Y-81972532D01*
X125700490Y-81652496D01*
X125712109Y-81564245D01*
X125742916Y-81330233D01*
X125743277Y-81327494D01*
X125743685Y-81318164D01*
X125756872Y-81016120D01*
X125757182Y-81009018D01*
X125758976Y-81000000D01*
X125756421Y-80987153D01*
X125754000Y-80962575D01*
X125754000Y-76893096D01*
X140740729Y-76893096D01*
X140758113Y-77050553D01*
X140812553Y-77199319D01*
X140900908Y-77330805D01*
X140906527Y-77335918D01*
X140906528Y-77335919D01*
X140917903Y-77346269D01*
X141018076Y-77437419D01*
X141157293Y-77513008D01*
X141310522Y-77553207D01*
X141394477Y-77554526D01*
X141461319Y-77555576D01*
X141461322Y-77555576D01*
X141468916Y-77555695D01*
X141623332Y-77520329D01*
X141693742Y-77484917D01*
X141758072Y-77452563D01*
X141758075Y-77452561D01*
X141764855Y-77449151D01*
X141770626Y-77444222D01*
X141770629Y-77444220D01*
X141879536Y-77351204D01*
X141879536Y-77351203D01*
X141885314Y-77346269D01*
X141977755Y-77217624D01*
X142036842Y-77070641D01*
X142059162Y-76913807D01*
X142059307Y-76900000D01*
X142040276Y-76742733D01*
X141984280Y-76594546D01*
X141894553Y-76463992D01*
X141776275Y-76358611D01*
X141768889Y-76354700D01*
X141642988Y-76288039D01*
X141642989Y-76288039D01*
X141636274Y-76284484D01*
X141482633Y-76245892D01*
X141475034Y-76245852D01*
X141475033Y-76245852D01*
X141409181Y-76245507D01*
X141324221Y-76245062D01*
X141316841Y-76246834D01*
X141316839Y-76246834D01*
X141177563Y-76280271D01*
X141177560Y-76280272D01*
X141170184Y-76282043D01*
X141029414Y-76354700D01*
X140910039Y-76458838D01*
X140818950Y-76588444D01*
X140761406Y-76736037D01*
X140740729Y-76893096D01*
X125754000Y-76893096D01*
X125754000Y-66200000D01*
X140015715Y-66200000D01*
X140034772Y-66344754D01*
X140090645Y-66479642D01*
X140179526Y-66595474D01*
X140186076Y-66600500D01*
X140186079Y-66600503D01*
X140288804Y-66679327D01*
X140295357Y-66684355D01*
X140430246Y-66740228D01*
X140575000Y-66759285D01*
X140583188Y-66758207D01*
X140711566Y-66741306D01*
X140719754Y-66740228D01*
X140854643Y-66684355D01*
X140861196Y-66679327D01*
X140963921Y-66600503D01*
X140963924Y-66600500D01*
X140970474Y-66595474D01*
X141059355Y-66479642D01*
X141115228Y-66344754D01*
X141134285Y-66200000D01*
X141115228Y-66055246D01*
X141059355Y-65920358D01*
X140970474Y-65804526D01*
X140963924Y-65799500D01*
X140963921Y-65799497D01*
X140861196Y-65720673D01*
X140861194Y-65720672D01*
X140854643Y-65715645D01*
X140719754Y-65659772D01*
X140575000Y-65640715D01*
X140566812Y-65641793D01*
X140438432Y-65658694D01*
X140438430Y-65658695D01*
X140430246Y-65659772D01*
X140382430Y-65679578D01*
X140302986Y-65712485D01*
X140302984Y-65712486D01*
X140295358Y-65715645D01*
X140179526Y-65804526D01*
X140090645Y-65920358D01*
X140034772Y-66055246D01*
X140015715Y-66200000D01*
X125754000Y-66200000D01*
X125754000Y-64300000D01*
X140590715Y-64300000D01*
X140609772Y-64444754D01*
X140665645Y-64579642D01*
X140754526Y-64695474D01*
X140761076Y-64700500D01*
X140761079Y-64700503D01*
X140863804Y-64779327D01*
X140870357Y-64784355D01*
X141005246Y-64840228D01*
X141150000Y-64859285D01*
X141158188Y-64858207D01*
X141286566Y-64841306D01*
X141294754Y-64840228D01*
X141429643Y-64784355D01*
X141436196Y-64779327D01*
X141538921Y-64700503D01*
X141538924Y-64700500D01*
X141545474Y-64695474D01*
X141634355Y-64579642D01*
X141690228Y-64444754D01*
X141709285Y-64300000D01*
X141690228Y-64155246D01*
X141634355Y-64020358D01*
X141545474Y-63904526D01*
X141538924Y-63899500D01*
X141538921Y-63899497D01*
X141436196Y-63820673D01*
X141436194Y-63820672D01*
X141429643Y-63815645D01*
X141294754Y-63759772D01*
X141150000Y-63740715D01*
X141141812Y-63741793D01*
X141013432Y-63758694D01*
X141013430Y-63758695D01*
X141005246Y-63759772D01*
X140957430Y-63779578D01*
X140877986Y-63812485D01*
X140877984Y-63812486D01*
X140870358Y-63815645D01*
X140754526Y-63904526D01*
X140665645Y-64020358D01*
X140609772Y-64155246D01*
X140590715Y-64300000D01*
X125754000Y-64300000D01*
X125754000Y-63393096D01*
X146340729Y-63393096D01*
X146358113Y-63550553D01*
X146412553Y-63699319D01*
X146416789Y-63705622D01*
X146416789Y-63705623D01*
X146494100Y-63820673D01*
X146500908Y-63830805D01*
X146506527Y-63835918D01*
X146506528Y-63835919D01*
X146581927Y-63904526D01*
X146618076Y-63937419D01*
X146757293Y-64013008D01*
X146910522Y-64053207D01*
X146994477Y-64054526D01*
X147061319Y-64055576D01*
X147061322Y-64055576D01*
X147068916Y-64055695D01*
X147223332Y-64020329D01*
X147293742Y-63984917D01*
X147358072Y-63952563D01*
X147358075Y-63952561D01*
X147364855Y-63949151D01*
X147370626Y-63944222D01*
X147370629Y-63944220D01*
X147479536Y-63851204D01*
X147479536Y-63851203D01*
X147485314Y-63846269D01*
X147577755Y-63717624D01*
X147636842Y-63570641D01*
X147659162Y-63413807D01*
X147659307Y-63400000D01*
X147640276Y-63242733D01*
X147584280Y-63094546D01*
X147494553Y-62963992D01*
X147376275Y-62858611D01*
X147368889Y-62854700D01*
X147242988Y-62788039D01*
X147242989Y-62788039D01*
X147236274Y-62784484D01*
X147082633Y-62745892D01*
X147075034Y-62745852D01*
X147075033Y-62745852D01*
X147009181Y-62745507D01*
X146924221Y-62745062D01*
X146916841Y-62746834D01*
X146916839Y-62746834D01*
X146777563Y-62780271D01*
X146777560Y-62780272D01*
X146770184Y-62782043D01*
X146629414Y-62854700D01*
X146510039Y-62958838D01*
X146418950Y-63088444D01*
X146361406Y-63236037D01*
X146340729Y-63393096D01*
X125754000Y-63393096D01*
X125754000Y-61037425D01*
X125756421Y-61012844D01*
X125756555Y-61012170D01*
X125758976Y-61000000D01*
X125757194Y-60991042D01*
X125743032Y-60716373D01*
X125699314Y-60435755D01*
X125626966Y-60161121D01*
X125526755Y-59895385D01*
X125525301Y-59892477D01*
X125401196Y-59644266D01*
X125401192Y-59644258D01*
X125399745Y-59641365D01*
X125247282Y-59401755D01*
X125070984Y-59179096D01*
X124872720Y-58975751D01*
X124661484Y-58799620D01*
X124655386Y-58792819D01*
X124649349Y-58789924D01*
X124647727Y-58788517D01*
X119181966Y-53322756D01*
X131145500Y-53322756D01*
X131152202Y-53384448D01*
X131202929Y-53519764D01*
X131208309Y-53526943D01*
X131208311Y-53526946D01*
X131246785Y-53578281D01*
X131289596Y-53635404D01*
X131296776Y-53640785D01*
X131398054Y-53716689D01*
X131398057Y-53716691D01*
X131405236Y-53722071D01*
X131489922Y-53753818D01*
X131533157Y-53770026D01*
X131533159Y-53770026D01*
X131540552Y-53772798D01*
X131548402Y-53773651D01*
X131548403Y-53773651D01*
X131549149Y-53773732D01*
X131602244Y-53779500D01*
X132897756Y-53779500D01*
X132950851Y-53773732D01*
X132951597Y-53773651D01*
X132951598Y-53773651D01*
X132959448Y-53772798D01*
X132966841Y-53770026D01*
X132966843Y-53770026D01*
X133010078Y-53753818D01*
X133094764Y-53722071D01*
X133101943Y-53716691D01*
X133101946Y-53716689D01*
X133203224Y-53640785D01*
X133210404Y-53635404D01*
X133253215Y-53578281D01*
X133291689Y-53526946D01*
X133291691Y-53526943D01*
X133297071Y-53519764D01*
X133347798Y-53384448D01*
X133354500Y-53322756D01*
X133354500Y-52727659D01*
X136145500Y-52727659D01*
X136160493Y-52884806D01*
X136219823Y-53087042D01*
X136254137Y-53153667D01*
X136307817Y-53257892D01*
X136316324Y-53274410D01*
X136320028Y-53279125D01*
X136442808Y-53435432D01*
X136442812Y-53435436D01*
X136446514Y-53440149D01*
X136451044Y-53444080D01*
X136451045Y-53444081D01*
X136601165Y-53574350D01*
X136601170Y-53574354D01*
X136605696Y-53578281D01*
X136788126Y-53683819D01*
X136987222Y-53752957D01*
X136993155Y-53753817D01*
X136993158Y-53753818D01*
X137189860Y-53782338D01*
X137189863Y-53782338D01*
X137195800Y-53783199D01*
X137406333Y-53773455D01*
X137412157Y-53772051D01*
X137412160Y-53772051D01*
X137605393Y-53725482D01*
X137605395Y-53725481D01*
X137611226Y-53724076D01*
X137616684Y-53721594D01*
X137616688Y-53721593D01*
X137794414Y-53640785D01*
X137803084Y-53636843D01*
X137974986Y-53514904D01*
X138120728Y-53362660D01*
X138159785Y-53302171D01*
X138231800Y-53190640D01*
X138231801Y-53190637D01*
X138235052Y-53185603D01*
X138313834Y-52990122D01*
X138340045Y-52855901D01*
X138353361Y-52787717D01*
X138353361Y-52787714D01*
X138354229Y-52783271D01*
X138354500Y-52777730D01*
X138354500Y-52727659D01*
X138645500Y-52727659D01*
X138660493Y-52884806D01*
X138719823Y-53087042D01*
X138754137Y-53153667D01*
X138807817Y-53257892D01*
X138816324Y-53274410D01*
X138820028Y-53279125D01*
X138942808Y-53435432D01*
X138942812Y-53435436D01*
X138946514Y-53440149D01*
X138951044Y-53444080D01*
X138951045Y-53444081D01*
X139101165Y-53574350D01*
X139101170Y-53574354D01*
X139105696Y-53578281D01*
X139288126Y-53683819D01*
X139487222Y-53752957D01*
X139493155Y-53753817D01*
X139493158Y-53753818D01*
X139689860Y-53782338D01*
X139689863Y-53782338D01*
X139695800Y-53783199D01*
X139906333Y-53773455D01*
X139912157Y-53772051D01*
X139912160Y-53772051D01*
X140105393Y-53725482D01*
X140105395Y-53725481D01*
X140111226Y-53724076D01*
X140116684Y-53721594D01*
X140116688Y-53721593D01*
X140294414Y-53640785D01*
X140303084Y-53636843D01*
X140474986Y-53514904D01*
X140620728Y-53362660D01*
X140659785Y-53302171D01*
X140731800Y-53190640D01*
X140731801Y-53190637D01*
X140735052Y-53185603D01*
X140813834Y-52990122D01*
X140840045Y-52855901D01*
X140853361Y-52787717D01*
X140853361Y-52787714D01*
X140854229Y-52783271D01*
X140854500Y-52777730D01*
X140854500Y-52727659D01*
X141145500Y-52727659D01*
X141160493Y-52884806D01*
X141219823Y-53087042D01*
X141254137Y-53153667D01*
X141307817Y-53257892D01*
X141316324Y-53274410D01*
X141320028Y-53279125D01*
X141442808Y-53435432D01*
X141442812Y-53435436D01*
X141446514Y-53440149D01*
X141451044Y-53444080D01*
X141451045Y-53444081D01*
X141601165Y-53574350D01*
X141601170Y-53574354D01*
X141605696Y-53578281D01*
X141788126Y-53683819D01*
X141987222Y-53752957D01*
X141993155Y-53753817D01*
X141993158Y-53753818D01*
X142189860Y-53782338D01*
X142189863Y-53782338D01*
X142195800Y-53783199D01*
X142406333Y-53773455D01*
X142412157Y-53772051D01*
X142412160Y-53772051D01*
X142605393Y-53725482D01*
X142605395Y-53725481D01*
X142611226Y-53724076D01*
X142616684Y-53721594D01*
X142616688Y-53721593D01*
X142794414Y-53640785D01*
X142803084Y-53636843D01*
X142974986Y-53514904D01*
X143120728Y-53362660D01*
X143159785Y-53302171D01*
X143231800Y-53190640D01*
X143231801Y-53190637D01*
X143235052Y-53185603D01*
X143313834Y-52990122D01*
X143340045Y-52855901D01*
X143353361Y-52787717D01*
X143353361Y-52787714D01*
X143354229Y-52783271D01*
X143354500Y-52777730D01*
X143354500Y-52727659D01*
X143645500Y-52727659D01*
X143660493Y-52884806D01*
X143719823Y-53087042D01*
X143754137Y-53153667D01*
X143807817Y-53257892D01*
X143816324Y-53274410D01*
X143820028Y-53279125D01*
X143942808Y-53435432D01*
X143942812Y-53435436D01*
X143946514Y-53440149D01*
X143951044Y-53444080D01*
X143951045Y-53444081D01*
X144101165Y-53574350D01*
X144101170Y-53574354D01*
X144105696Y-53578281D01*
X144288126Y-53683819D01*
X144487222Y-53752957D01*
X144493155Y-53753817D01*
X144493158Y-53753818D01*
X144689860Y-53782338D01*
X144689863Y-53782338D01*
X144695800Y-53783199D01*
X144906333Y-53773455D01*
X144912157Y-53772051D01*
X144912160Y-53772051D01*
X145105393Y-53725482D01*
X145105395Y-53725481D01*
X145111226Y-53724076D01*
X145116684Y-53721594D01*
X145116688Y-53721593D01*
X145294414Y-53640785D01*
X145303084Y-53636843D01*
X145474986Y-53514904D01*
X145620728Y-53362660D01*
X145659785Y-53302171D01*
X145731800Y-53190640D01*
X145731801Y-53190637D01*
X145735052Y-53185603D01*
X145813834Y-52990122D01*
X145840045Y-52855901D01*
X145853361Y-52787717D01*
X145853361Y-52787714D01*
X145854229Y-52783271D01*
X145854500Y-52777730D01*
X145854500Y-52727659D01*
X146145500Y-52727659D01*
X146160493Y-52884806D01*
X146219823Y-53087042D01*
X146254137Y-53153667D01*
X146307817Y-53257892D01*
X146316324Y-53274410D01*
X146320028Y-53279125D01*
X146442808Y-53435432D01*
X146442812Y-53435436D01*
X146446514Y-53440149D01*
X146451044Y-53444080D01*
X146451045Y-53444081D01*
X146601165Y-53574350D01*
X146601170Y-53574354D01*
X146605696Y-53578281D01*
X146788126Y-53683819D01*
X146987222Y-53752957D01*
X146993155Y-53753817D01*
X146993158Y-53753818D01*
X147189860Y-53782338D01*
X147189863Y-53782338D01*
X147195800Y-53783199D01*
X147406333Y-53773455D01*
X147412157Y-53772051D01*
X147412160Y-53772051D01*
X147605393Y-53725482D01*
X147605395Y-53725481D01*
X147611226Y-53724076D01*
X147616684Y-53721594D01*
X147616688Y-53721593D01*
X147794414Y-53640785D01*
X147803084Y-53636843D01*
X147974986Y-53514904D01*
X148120728Y-53362660D01*
X148159785Y-53302171D01*
X148231800Y-53190640D01*
X148231801Y-53190637D01*
X148235052Y-53185603D01*
X148313834Y-52990122D01*
X148340045Y-52855901D01*
X148353361Y-52787717D01*
X148353361Y-52787714D01*
X148354229Y-52783271D01*
X148354500Y-52777730D01*
X148354500Y-52727659D01*
X148645500Y-52727659D01*
X148660493Y-52884806D01*
X148719823Y-53087042D01*
X148754137Y-53153667D01*
X148807817Y-53257892D01*
X148816324Y-53274410D01*
X148820028Y-53279125D01*
X148942808Y-53435432D01*
X148942812Y-53435436D01*
X148946514Y-53440149D01*
X148951044Y-53444080D01*
X148951045Y-53444081D01*
X149101165Y-53574350D01*
X149101170Y-53574354D01*
X149105696Y-53578281D01*
X149288126Y-53683819D01*
X149487222Y-53752957D01*
X149493155Y-53753817D01*
X149493158Y-53753818D01*
X149689860Y-53782338D01*
X149689863Y-53782338D01*
X149695800Y-53783199D01*
X149906333Y-53773455D01*
X149912157Y-53772051D01*
X149912160Y-53772051D01*
X150105393Y-53725482D01*
X150105395Y-53725481D01*
X150111226Y-53724076D01*
X150116684Y-53721594D01*
X150116688Y-53721593D01*
X150294414Y-53640785D01*
X150303084Y-53636843D01*
X150474986Y-53514904D01*
X150620728Y-53362660D01*
X150659785Y-53302171D01*
X150731800Y-53190640D01*
X150731801Y-53190637D01*
X150735052Y-53185603D01*
X150813834Y-52990122D01*
X150840045Y-52855901D01*
X150853361Y-52787717D01*
X150853361Y-52787714D01*
X150854229Y-52783271D01*
X150854500Y-52777730D01*
X150854500Y-52372341D01*
X150839507Y-52215194D01*
X150780177Y-52012958D01*
X150729415Y-51914397D01*
X150686422Y-51830921D01*
X150686420Y-51830918D01*
X150683676Y-51825590D01*
X150614355Y-51737340D01*
X150557192Y-51664568D01*
X150557188Y-51664564D01*
X150553486Y-51659851D01*
X150484586Y-51600062D01*
X150398835Y-51525650D01*
X150398830Y-51525646D01*
X150394304Y-51521719D01*
X150211874Y-51416181D01*
X150012778Y-51347043D01*
X150006845Y-51346183D01*
X150006842Y-51346182D01*
X149810140Y-51317662D01*
X149810137Y-51317662D01*
X149804200Y-51316801D01*
X149593667Y-51326545D01*
X149587843Y-51327949D01*
X149587840Y-51327949D01*
X149394607Y-51374518D01*
X149394605Y-51374519D01*
X149388774Y-51375924D01*
X149383316Y-51378406D01*
X149383312Y-51378407D01*
X149304562Y-51414213D01*
X149196916Y-51463157D01*
X149136261Y-51506183D01*
X149035689Y-51577524D01*
X149025014Y-51585096D01*
X148879272Y-51737340D01*
X148876021Y-51742375D01*
X148788890Y-51877318D01*
X148764948Y-51914397D01*
X148686166Y-52109878D01*
X148645771Y-52316729D01*
X148645500Y-52322270D01*
X148645500Y-52727659D01*
X148354500Y-52727659D01*
X148354500Y-52372341D01*
X148339507Y-52215194D01*
X148280177Y-52012958D01*
X148229415Y-51914397D01*
X148186422Y-51830921D01*
X148186420Y-51830918D01*
X148183676Y-51825590D01*
X148114355Y-51737340D01*
X148057192Y-51664568D01*
X148057188Y-51664564D01*
X148053486Y-51659851D01*
X147984586Y-51600062D01*
X147898835Y-51525650D01*
X147898830Y-51525646D01*
X147894304Y-51521719D01*
X147711874Y-51416181D01*
X147512778Y-51347043D01*
X147506845Y-51346183D01*
X147506842Y-51346182D01*
X147310140Y-51317662D01*
X147310137Y-51317662D01*
X147304200Y-51316801D01*
X147093667Y-51326545D01*
X147087843Y-51327949D01*
X147087840Y-51327949D01*
X146894607Y-51374518D01*
X146894605Y-51374519D01*
X146888774Y-51375924D01*
X146883316Y-51378406D01*
X146883312Y-51378407D01*
X146804562Y-51414213D01*
X146696916Y-51463157D01*
X146636261Y-51506183D01*
X146535689Y-51577524D01*
X146525014Y-51585096D01*
X146379272Y-51737340D01*
X146376021Y-51742375D01*
X146288890Y-51877318D01*
X146264948Y-51914397D01*
X146186166Y-52109878D01*
X146145771Y-52316729D01*
X146145500Y-52322270D01*
X146145500Y-52727659D01*
X145854500Y-52727659D01*
X145854500Y-52372341D01*
X145839507Y-52215194D01*
X145780177Y-52012958D01*
X145729415Y-51914397D01*
X145686422Y-51830921D01*
X145686420Y-51830918D01*
X145683676Y-51825590D01*
X145614355Y-51737340D01*
X145557192Y-51664568D01*
X145557188Y-51664564D01*
X145553486Y-51659851D01*
X145484586Y-51600062D01*
X145398835Y-51525650D01*
X145398830Y-51525646D01*
X145394304Y-51521719D01*
X145211874Y-51416181D01*
X145012778Y-51347043D01*
X145006845Y-51346183D01*
X145006842Y-51346182D01*
X144810140Y-51317662D01*
X144810137Y-51317662D01*
X144804200Y-51316801D01*
X144593667Y-51326545D01*
X144587843Y-51327949D01*
X144587840Y-51327949D01*
X144394607Y-51374518D01*
X144394605Y-51374519D01*
X144388774Y-51375924D01*
X144383316Y-51378406D01*
X144383312Y-51378407D01*
X144304562Y-51414213D01*
X144196916Y-51463157D01*
X144136261Y-51506183D01*
X144035689Y-51577524D01*
X144025014Y-51585096D01*
X143879272Y-51737340D01*
X143876021Y-51742375D01*
X143788890Y-51877318D01*
X143764948Y-51914397D01*
X143686166Y-52109878D01*
X143645771Y-52316729D01*
X143645500Y-52322270D01*
X143645500Y-52727659D01*
X143354500Y-52727659D01*
X143354500Y-52372341D01*
X143339507Y-52215194D01*
X143280177Y-52012958D01*
X143229415Y-51914397D01*
X143186422Y-51830921D01*
X143186420Y-51830918D01*
X143183676Y-51825590D01*
X143114355Y-51737340D01*
X143057192Y-51664568D01*
X143057188Y-51664564D01*
X143053486Y-51659851D01*
X142984586Y-51600062D01*
X142898835Y-51525650D01*
X142898830Y-51525646D01*
X142894304Y-51521719D01*
X142711874Y-51416181D01*
X142512778Y-51347043D01*
X142506845Y-51346183D01*
X142506842Y-51346182D01*
X142310140Y-51317662D01*
X142310137Y-51317662D01*
X142304200Y-51316801D01*
X142093667Y-51326545D01*
X142087843Y-51327949D01*
X142087840Y-51327949D01*
X141894607Y-51374518D01*
X141894605Y-51374519D01*
X141888774Y-51375924D01*
X141883316Y-51378406D01*
X141883312Y-51378407D01*
X141804562Y-51414213D01*
X141696916Y-51463157D01*
X141636261Y-51506183D01*
X141535689Y-51577524D01*
X141525014Y-51585096D01*
X141379272Y-51737340D01*
X141376021Y-51742375D01*
X141288890Y-51877318D01*
X141264948Y-51914397D01*
X141186166Y-52109878D01*
X141145771Y-52316729D01*
X141145500Y-52322270D01*
X141145500Y-52727659D01*
X140854500Y-52727659D01*
X140854500Y-52372341D01*
X140839507Y-52215194D01*
X140780177Y-52012958D01*
X140729415Y-51914397D01*
X140686422Y-51830921D01*
X140686420Y-51830918D01*
X140683676Y-51825590D01*
X140614355Y-51737340D01*
X140557192Y-51664568D01*
X140557188Y-51664564D01*
X140553486Y-51659851D01*
X140484586Y-51600062D01*
X140398835Y-51525650D01*
X140398830Y-51525646D01*
X140394304Y-51521719D01*
X140211874Y-51416181D01*
X140012778Y-51347043D01*
X140006845Y-51346183D01*
X140006842Y-51346182D01*
X139810140Y-51317662D01*
X139810137Y-51317662D01*
X139804200Y-51316801D01*
X139593667Y-51326545D01*
X139587843Y-51327949D01*
X139587840Y-51327949D01*
X139394607Y-51374518D01*
X139394605Y-51374519D01*
X139388774Y-51375924D01*
X139383316Y-51378406D01*
X139383312Y-51378407D01*
X139304562Y-51414213D01*
X139196916Y-51463157D01*
X139136261Y-51506183D01*
X139035689Y-51577524D01*
X139025014Y-51585096D01*
X138879272Y-51737340D01*
X138876021Y-51742375D01*
X138788890Y-51877318D01*
X138764948Y-51914397D01*
X138686166Y-52109878D01*
X138645771Y-52316729D01*
X138645500Y-52322270D01*
X138645500Y-52727659D01*
X138354500Y-52727659D01*
X138354500Y-52372341D01*
X138339507Y-52215194D01*
X138280177Y-52012958D01*
X138229415Y-51914397D01*
X138186422Y-51830921D01*
X138186420Y-51830918D01*
X138183676Y-51825590D01*
X138114355Y-51737340D01*
X138057192Y-51664568D01*
X138057188Y-51664564D01*
X138053486Y-51659851D01*
X137984586Y-51600062D01*
X137898835Y-51525650D01*
X137898830Y-51525646D01*
X137894304Y-51521719D01*
X137711874Y-51416181D01*
X137512778Y-51347043D01*
X137506845Y-51346183D01*
X137506842Y-51346182D01*
X137310140Y-51317662D01*
X137310137Y-51317662D01*
X137304200Y-51316801D01*
X137093667Y-51326545D01*
X137087843Y-51327949D01*
X137087840Y-51327949D01*
X136894607Y-51374518D01*
X136894605Y-51374519D01*
X136888774Y-51375924D01*
X136883316Y-51378406D01*
X136883312Y-51378407D01*
X136804562Y-51414213D01*
X136696916Y-51463157D01*
X136636261Y-51506183D01*
X136535689Y-51577524D01*
X136525014Y-51585096D01*
X136379272Y-51737340D01*
X136376021Y-51742375D01*
X136288890Y-51877318D01*
X136264948Y-51914397D01*
X136186166Y-52109878D01*
X136145771Y-52316729D01*
X136145500Y-52322270D01*
X136145500Y-52727659D01*
X133354500Y-52727659D01*
X133354500Y-51777244D01*
X133347798Y-51715552D01*
X133297071Y-51580236D01*
X133291691Y-51573057D01*
X133291689Y-51573054D01*
X133215785Y-51471776D01*
X133210404Y-51464596D01*
X133143178Y-51414213D01*
X133101946Y-51383311D01*
X133101943Y-51383309D01*
X133094764Y-51377929D01*
X133005046Y-51344296D01*
X132966843Y-51329974D01*
X132966841Y-51329974D01*
X132959448Y-51327202D01*
X132951598Y-51326349D01*
X132951597Y-51326349D01*
X132901153Y-51320869D01*
X132901152Y-51320869D01*
X132897756Y-51320500D01*
X131602244Y-51320500D01*
X131598848Y-51320869D01*
X131598847Y-51320869D01*
X131548403Y-51326349D01*
X131548402Y-51326349D01*
X131540552Y-51327202D01*
X131533159Y-51329974D01*
X131533157Y-51329974D01*
X131494954Y-51344296D01*
X131405236Y-51377929D01*
X131398057Y-51383309D01*
X131398054Y-51383311D01*
X131356822Y-51414213D01*
X131289596Y-51464596D01*
X131284215Y-51471776D01*
X131208311Y-51573054D01*
X131208309Y-51573057D01*
X131202929Y-51580236D01*
X131152202Y-51715552D01*
X131145500Y-51777244D01*
X131145500Y-53322756D01*
X119181966Y-53322756D01*
X117710851Y-51851641D01*
X117706894Y-51847220D01*
X117702226Y-51838219D01*
X117692732Y-51830226D01*
X117684981Y-51820538D01*
X117685140Y-51820410D01*
X117677742Y-51812386D01*
X117510573Y-51577524D01*
X117503030Y-51565558D01*
X117349446Y-51288560D01*
X117343292Y-51275824D01*
X117221720Y-50983356D01*
X117217033Y-50970011D01*
X117129010Y-50665765D01*
X117125848Y-50651978D01*
X117072480Y-50339784D01*
X117070883Y-50325730D01*
X117052843Y-50009522D01*
X117052831Y-49995378D01*
X117070345Y-49679134D01*
X117071919Y-49665076D01*
X117124769Y-49352798D01*
X117127908Y-49339006D01*
X117215427Y-49034610D01*
X117220092Y-49021258D01*
X117341175Y-48728592D01*
X117347308Y-48715845D01*
X117500430Y-48438598D01*
X117507952Y-48426620D01*
X117509007Y-48425133D01*
X117691192Y-48168270D01*
X117700000Y-48157222D01*
X117911042Y-47921038D01*
X117921041Y-47911039D01*
X118157222Y-47700000D01*
X118168270Y-47691192D01*
X118426620Y-47507952D01*
X118438598Y-47500430D01*
X118715845Y-47347308D01*
X118728592Y-47341175D01*
X119021258Y-47220092D01*
X119034610Y-47215427D01*
X119339006Y-47127908D01*
X119352798Y-47124769D01*
X119508937Y-47098344D01*
X119665084Y-47071918D01*
X119679127Y-47070346D01*
X119826533Y-47062182D01*
X119995378Y-47052831D01*
X120009522Y-47052843D01*
X120325730Y-47070883D01*
X120339784Y-47072480D01*
X120651978Y-47125848D01*
X120665765Y-47129010D01*
X120970011Y-47217033D01*
X120983356Y-47221720D01*
X121275824Y-47343292D01*
X121288560Y-47349446D01*
X121565558Y-47503030D01*
X121577524Y-47510573D01*
X121812386Y-47677742D01*
X121820411Y-47685141D01*
X121820539Y-47684982D01*
X121830227Y-47692733D01*
X121838219Y-47702226D01*
X121847847Y-47707219D01*
X121853231Y-47712006D01*
X124344316Y-50169373D01*
X127329035Y-53113694D01*
X127333869Y-53118734D01*
X127352413Y-53139176D01*
X127352416Y-53139178D01*
X127360752Y-53148367D01*
X127382190Y-53158494D01*
X127397656Y-53167182D01*
X127407089Y-53173393D01*
X127407091Y-53173394D01*
X127417456Y-53180218D01*
X127429644Y-53182556D01*
X127435138Y-53184788D01*
X127440895Y-53186227D01*
X127452118Y-53191529D01*
X127458425Y-53191836D01*
X127596805Y-53217654D01*
X127712620Y-53239262D01*
X127720874Y-53240802D01*
X127724672Y-53241043D01*
X127724679Y-53241044D01*
X127956124Y-53255738D01*
X127993507Y-53258111D01*
X127997301Y-53257892D01*
X127997302Y-53257892D01*
X128035177Y-53255706D01*
X128266236Y-53242370D01*
X128273578Y-53241044D01*
X128426711Y-53213384D01*
X128535068Y-53193812D01*
X128796069Y-53113145D01*
X129045419Y-53001551D01*
X129048674Y-52999592D01*
X129048679Y-52999589D01*
X129276198Y-52862632D01*
X129276205Y-52862627D01*
X129279468Y-52860663D01*
X129362541Y-52795802D01*
X129491789Y-52694889D01*
X129491792Y-52694886D01*
X129494792Y-52692544D01*
X129526647Y-52660781D01*
X129637784Y-52549962D01*
X129688239Y-52499652D01*
X129856977Y-52284813D01*
X129932394Y-52160337D01*
X129996561Y-52054431D01*
X129996563Y-52054426D01*
X129998537Y-52051169D01*
X130000104Y-52047696D01*
X130000108Y-52047687D01*
X130109276Y-51805625D01*
X130109277Y-51805621D01*
X130110847Y-51802141D01*
X130192264Y-51541373D01*
X130241596Y-51272682D01*
X130253425Y-51077479D01*
X130257107Y-51016718D01*
X130257745Y-51006189D01*
X130258976Y-51000000D01*
X130256421Y-50987153D01*
X130254000Y-50962575D01*
X130254000Y-46380000D01*
X130274002Y-46311879D01*
X130327658Y-46265386D01*
X130380000Y-46254000D01*
X151620000Y-46254000D01*
X151688121Y-46274002D01*
G37*
%TD.AperFunction*%
%TD*%
M02*
