%TF.GenerationSoftware,KiCad,Pcbnew,(6.0.0)*%
%TF.CreationDate,2022-01-20T18:02:09+07:00*%
%TF.ProjectId,CubeSat Encoder,43756265-5361-4742-9045-6e636f646572,rev?*%
%TF.SameCoordinates,Original*%
%TF.FileFunction,Profile,NP*%
%FSLAX46Y46*%
G04 Gerber Fmt 4.6, Leading zero omitted, Abs format (unit mm)*
G04 Created by KiCad (PCBNEW (6.0.0)) date 2022-01-20 18:02:09*
%MOMM*%
%LPD*%
G01*
G04 APERTURE LIST*
%TA.AperFunction,Profile*%
%ADD10C,0.100000*%
%TD*%
G04 APERTURE END LIST*
D10*
X127514929Y-52940285D02*
G75*
G03*
X130000000Y-51000000I485071J1940285D01*
G01*
X152000001Y-51500000D02*
G75*
G03*
X154500000Y-52999999I1999999J500000D01*
G01*
X156500000Y-81000000D02*
G75*
G03*
X157500000Y-83000000I2500000J0D01*
G01*
X152974874Y-87525126D02*
G75*
G03*
X150500000Y-86500000I-2474874J-2474874D01*
G01*
X131500000Y-86500000D02*
G75*
G03*
X129000001Y-87500001I-83331J-3416669D01*
G01*
X124474874Y-83474874D02*
G75*
G03*
X125500000Y-81000000I-2474874J2474874D01*
G01*
X125500000Y-61000000D02*
G75*
G03*
X124500000Y-59000000I-2500000J0D01*
G01*
X157500000Y-59000000D02*
G75*
G03*
X156500000Y-61000000I1500000J-2000000D01*
G01*
X164500000Y-52000000D02*
G75*
G03*
X160000000Y-47500000I-2500000J2000000D01*
G01*
X160000000Y-47500000D02*
X154500000Y-52999999D01*
X157500000Y-59000000D02*
X164500000Y-52000000D01*
X122000000Y-47500000D02*
G75*
G03*
X117500000Y-52000000I-2000000J-2500000D01*
G01*
X122000000Y-47500000D02*
X127514929Y-52940285D01*
X124500000Y-59000000D02*
X117500000Y-52000000D01*
X117500000Y-90000000D02*
G75*
G03*
X122000000Y-94500000I2500000J-2000000D01*
G01*
X160000000Y-94500000D02*
G75*
G03*
X164500000Y-90000000I2000000J2500000D01*
G01*
X124474874Y-83474874D02*
X117500000Y-90000000D01*
X129000000Y-87500000D02*
X122000000Y-94500000D01*
X152974874Y-87525126D02*
X160000000Y-94500000D01*
X157500000Y-83000000D02*
X164500000Y-90000000D01*
X130000000Y-51000000D02*
X130000000Y-46000000D01*
X130000000Y-46000000D02*
X152000000Y-46000000D01*
X125500000Y-81000000D02*
X125500000Y-61000000D01*
X156500000Y-61000000D02*
X156500000Y-81000000D01*
X152000000Y-46000000D02*
X152000001Y-51500000D01*
X150500000Y-86500000D02*
X131500000Y-86500000D01*
M02*
