G04 #@! TF.GenerationSoftware,KiCad,Pcbnew,(5.1.12)-1*
G04 #@! TF.CreationDate,2022-01-20T23:42:30+07:00*
G04 #@! TF.ProjectId,Driver_Board,44726976-6572-45f4-926f-6172642e6b69,v.2.0*
G04 #@! TF.SameCoordinates,Original*
G04 #@! TF.FileFunction,Legend,Bot*
G04 #@! TF.FilePolarity,Positive*
%FSLAX46Y46*%
G04 Gerber Fmt 4.6, Leading zero omitted, Abs format (unit mm)*
G04 Created by KiCad (PCBNEW (5.1.12)-1) date 2022-01-20 23:42:31*
%MOMM*%
%LPD*%
G01*
G04 APERTURE LIST*
%ADD10C,0.127000*%
G04 APERTURE END LIST*
D10*
X184280000Y-135048333D02*
X184280000Y-134278333D01*
X184096666Y-134278333D01*
X183986666Y-134315000D01*
X183913333Y-134388333D01*
X183876666Y-134461666D01*
X183840000Y-134608333D01*
X183840000Y-134718333D01*
X183876666Y-134865000D01*
X183913333Y-134938333D01*
X183986666Y-135011666D01*
X184096666Y-135048333D01*
X184280000Y-135048333D01*
X183216666Y-135011666D02*
X183290000Y-135048333D01*
X183436666Y-135048333D01*
X183510000Y-135011666D01*
X183546666Y-134938333D01*
X183546666Y-134645000D01*
X183510000Y-134571666D01*
X183436666Y-134535000D01*
X183290000Y-134535000D01*
X183216666Y-134571666D01*
X183180000Y-134645000D01*
X183180000Y-134718333D01*
X183546666Y-134791666D01*
X182886666Y-135011666D02*
X182813333Y-135048333D01*
X182666666Y-135048333D01*
X182593333Y-135011666D01*
X182556666Y-134938333D01*
X182556666Y-134901666D01*
X182593333Y-134828333D01*
X182666666Y-134791666D01*
X182776666Y-134791666D01*
X182850000Y-134755000D01*
X182886666Y-134681666D01*
X182886666Y-134645000D01*
X182850000Y-134571666D01*
X182776666Y-134535000D01*
X182666666Y-134535000D01*
X182593333Y-134571666D01*
X182226666Y-135048333D02*
X182226666Y-134535000D01*
X182226666Y-134278333D02*
X182263333Y-134315000D01*
X182226666Y-134351666D01*
X182190000Y-134315000D01*
X182226666Y-134278333D01*
X182226666Y-134351666D01*
X181530000Y-134535000D02*
X181530000Y-135158333D01*
X181566666Y-135231666D01*
X181603333Y-135268333D01*
X181676666Y-135305000D01*
X181786666Y-135305000D01*
X181860000Y-135268333D01*
X181530000Y-135011666D02*
X181603333Y-135048333D01*
X181750000Y-135048333D01*
X181823333Y-135011666D01*
X181860000Y-134975000D01*
X181896666Y-134901666D01*
X181896666Y-134681666D01*
X181860000Y-134608333D01*
X181823333Y-134571666D01*
X181750000Y-134535000D01*
X181603333Y-134535000D01*
X181530000Y-134571666D01*
X181163333Y-134535000D02*
X181163333Y-135048333D01*
X181163333Y-134608333D02*
X181126666Y-134571666D01*
X181053333Y-134535000D01*
X180943333Y-134535000D01*
X180870000Y-134571666D01*
X180833333Y-134645000D01*
X180833333Y-135048333D01*
X179623333Y-134645000D02*
X179513333Y-134681666D01*
X179476666Y-134718333D01*
X179440000Y-134791666D01*
X179440000Y-134901666D01*
X179476666Y-134975000D01*
X179513333Y-135011666D01*
X179586666Y-135048333D01*
X179880000Y-135048333D01*
X179880000Y-134278333D01*
X179623333Y-134278333D01*
X179550000Y-134315000D01*
X179513333Y-134351666D01*
X179476666Y-134425000D01*
X179476666Y-134498333D01*
X179513333Y-134571666D01*
X179550000Y-134608333D01*
X179623333Y-134645000D01*
X179880000Y-134645000D01*
X179183333Y-134535000D02*
X179000000Y-135048333D01*
X178816666Y-134535000D02*
X179000000Y-135048333D01*
X179073333Y-135231666D01*
X179110000Y-135268333D01*
X179183333Y-135305000D01*
X178046666Y-134278333D02*
X177606666Y-134278333D01*
X177826666Y-135048333D02*
X177826666Y-134278333D01*
X177350000Y-135048333D02*
X177350000Y-134278333D01*
X177020000Y-135048333D02*
X177020000Y-134645000D01*
X177056666Y-134571666D01*
X177130000Y-134535000D01*
X177240000Y-134535000D01*
X177313333Y-134571666D01*
X177350000Y-134608333D01*
X176323333Y-135048333D02*
X176323333Y-134645000D01*
X176360000Y-134571666D01*
X176433333Y-134535000D01*
X176580000Y-134535000D01*
X176653333Y-134571666D01*
X176323333Y-135011666D02*
X176396666Y-135048333D01*
X176580000Y-135048333D01*
X176653333Y-135011666D01*
X176690000Y-134938333D01*
X176690000Y-134865000D01*
X176653333Y-134791666D01*
X176580000Y-134755000D01*
X176396666Y-134755000D01*
X176323333Y-134718333D01*
X175956666Y-134535000D02*
X175956666Y-135048333D01*
X175956666Y-134608333D02*
X175920000Y-134571666D01*
X175846666Y-134535000D01*
X175736666Y-134535000D01*
X175663333Y-134571666D01*
X175626666Y-134645000D01*
X175626666Y-135048333D01*
X175296666Y-135011666D02*
X175223333Y-135048333D01*
X175076666Y-135048333D01*
X175003333Y-135011666D01*
X174966666Y-134938333D01*
X174966666Y-134901666D01*
X175003333Y-134828333D01*
X175076666Y-134791666D01*
X175186666Y-134791666D01*
X175260000Y-134755000D01*
X175296666Y-134681666D01*
X175296666Y-134645000D01*
X175260000Y-134571666D01*
X175186666Y-134535000D01*
X175076666Y-134535000D01*
X175003333Y-134571666D01*
X174306666Y-135048333D02*
X174306666Y-134645000D01*
X174343333Y-134571666D01*
X174416666Y-134535000D01*
X174563333Y-134535000D01*
X174636666Y-134571666D01*
X174306666Y-135011666D02*
X174380000Y-135048333D01*
X174563333Y-135048333D01*
X174636666Y-135011666D01*
X174673333Y-134938333D01*
X174673333Y-134865000D01*
X174636666Y-134791666D01*
X174563333Y-134755000D01*
X174380000Y-134755000D01*
X174306666Y-134718333D01*
X173940000Y-135048333D02*
X173940000Y-134278333D01*
X173866666Y-134755000D02*
X173646666Y-135048333D01*
X173646666Y-134535000D02*
X173940000Y-134828333D01*
X172730000Y-135048333D02*
X172730000Y-134278333D01*
X172436666Y-134278333D01*
X172363333Y-134315000D01*
X172326666Y-134351666D01*
X172290000Y-134425000D01*
X172290000Y-134535000D01*
X172326666Y-134608333D01*
X172363333Y-134645000D01*
X172436666Y-134681666D01*
X172730000Y-134681666D01*
X171850000Y-135048333D02*
X171923333Y-135011666D01*
X171960000Y-134975000D01*
X171996666Y-134901666D01*
X171996666Y-134681666D01*
X171960000Y-134608333D01*
X171923333Y-134571666D01*
X171850000Y-134535000D01*
X171740000Y-134535000D01*
X171666666Y-134571666D01*
X171630000Y-134608333D01*
X171593333Y-134681666D01*
X171593333Y-134901666D01*
X171630000Y-134975000D01*
X171666666Y-135011666D01*
X171740000Y-135048333D01*
X171850000Y-135048333D01*
X171263333Y-134535000D02*
X171263333Y-135048333D01*
X171263333Y-134608333D02*
X171226666Y-134571666D01*
X171153333Y-134535000D01*
X171043333Y-134535000D01*
X170970000Y-134571666D01*
X170933333Y-134645000D01*
X170933333Y-135048333D01*
X170236666Y-134535000D02*
X170236666Y-135158333D01*
X170273333Y-135231666D01*
X170310000Y-135268333D01*
X170383333Y-135305000D01*
X170493333Y-135305000D01*
X170566666Y-135268333D01*
X170236666Y-135011666D02*
X170310000Y-135048333D01*
X170456666Y-135048333D01*
X170530000Y-135011666D01*
X170566666Y-134975000D01*
X170603333Y-134901666D01*
X170603333Y-134681666D01*
X170566666Y-134608333D01*
X170530000Y-134571666D01*
X170456666Y-134535000D01*
X170310000Y-134535000D01*
X170236666Y-134571666D01*
X169870000Y-134535000D02*
X169870000Y-135305000D01*
X169870000Y-134571666D02*
X169796666Y-134535000D01*
X169650000Y-134535000D01*
X169576666Y-134571666D01*
X169540000Y-134608333D01*
X169503333Y-134681666D01*
X169503333Y-134901666D01*
X169540000Y-134975000D01*
X169576666Y-135011666D01*
X169650000Y-135048333D01*
X169796666Y-135048333D01*
X169870000Y-135011666D01*
X168843333Y-135048333D02*
X168843333Y-134645000D01*
X168880000Y-134571666D01*
X168953333Y-134535000D01*
X169100000Y-134535000D01*
X169173333Y-134571666D01*
X168843333Y-135011666D02*
X168916666Y-135048333D01*
X169100000Y-135048333D01*
X169173333Y-135011666D01*
X169210000Y-134938333D01*
X169210000Y-134865000D01*
X169173333Y-134791666D01*
X169100000Y-134755000D01*
X168916666Y-134755000D01*
X168843333Y-134718333D01*
X168476666Y-135048333D02*
X168476666Y-134278333D01*
X168403333Y-134755000D02*
X168183333Y-135048333D01*
X168183333Y-134535000D02*
X168476666Y-134828333D01*
X167560000Y-135011666D02*
X167633333Y-135048333D01*
X167780000Y-135048333D01*
X167853333Y-135011666D01*
X167890000Y-134938333D01*
X167890000Y-134645000D01*
X167853333Y-134571666D01*
X167780000Y-134535000D01*
X167633333Y-134535000D01*
X167560000Y-134571666D01*
X167523333Y-134645000D01*
X167523333Y-134718333D01*
X167890000Y-134791666D01*
X167303333Y-134535000D02*
X167010000Y-134535000D01*
X167193333Y-134278333D02*
X167193333Y-134938333D01*
X167156666Y-135011666D01*
X167083333Y-135048333D01*
X167010000Y-135048333D01*
M02*
