M48
; DRILL file {KiCad (5.1.12)-1} date 01/20/22 23:41:47
; FORMAT={-:-/ absolute / inch / decimal}
; #@! TF.CreationDate,2022-01-20T23:41:47+07:00
; #@! TF.GenerationSoftware,Kicad,Pcbnew,(5.1.12)-1
FMAT,2
INCH
T1C0.0118
T2C0.0157
T3C0.0197
T4C0.0394
T5C0.1260
%
G90
G05
T1
X4.9252Y-4.1693
X5.0591Y-3.4567
X5.3228Y-3.9528
X5.3228Y-4.3622
X5.3661Y-4.0709
X5.3661Y-4.4803
X5.4764Y-4.6063
X5.4803Y-4.189
X5.5276Y-5.189
X5.5276Y-5.2205
X5.5276Y-5.252
X5.5591Y-5.189
X5.5591Y-5.2205
X5.5591Y-5.252
X5.5906Y-5.189
X5.5906Y-5.2205
X5.5906Y-5.252
X5.6181Y-4.8583
X5.6299Y-4.8819
X5.6339Y-4.0276
X5.6339Y-4.437
X5.6417Y-4.8583
X5.6535Y-4.8819
X5.6654Y-4.8583
X5.6772Y-4.8819
X5.685Y-3.9528
X5.685Y-4.3622
X5.689Y-4.8583
X5.7008Y-4.8819
X5.7116Y-4.0836
X5.7126Y-4.8583
X5.7156Y-4.4891
X5.7244Y-4.8819
X5.7756Y-3.7283
X5.7835Y-5.0906
X5.7835Y-5.1142
X5.8337Y-4.6073
X5.8425Y-4.1969
X5.8504Y-4.7087
X5.8504Y-4.7323
X5.8661Y-5.2047
X5.874Y-4.7087
X5.874Y-4.7323
X5.8976Y-4.7087
X5.8976Y-4.7323
X5.9213Y-3.9528
X5.9213Y-4.3622
X5.9961Y-4.0276
X5.9961Y-4.4331
X6.1181Y-5.1063
X6.1181Y-5.1299
X6.1181Y-5.1535
X6.1181Y-5.1772
X6.122Y-4.8189
X6.122Y-4.8425
X6.122Y-4.8661
X6.122Y-4.8898
X6.122Y-4.9134
X6.1417Y-5.1063
X6.1417Y-5.1299
X6.1417Y-5.1535
X6.1417Y-5.1772
X6.1457Y-4.8071
X6.1457Y-4.8307
X6.1457Y-4.8543
X6.1457Y-4.878
X6.1457Y-4.9016
X6.3071Y-3.5512
X6.3071Y-3.4094
X6.4621Y-2.9867
X6.5276Y-5.0472
X6.5472Y-2.7165
X6.5472Y-2.5984
X6.5551Y-3.8661
X6.5551Y-5.0079
X6.5906Y-3.4843
X6.5906Y-3.5512
X6.5984Y-3.811
X6.5984Y-3.9213
X6.6102Y-4.8898
X6.6102Y-5.2362
X6.6614Y-2.748
X6.6654Y-2.6614
X6.685Y-4.0197
X6.6856Y-4.0821
X6.7402Y-5.0039
X6.7677Y-4.9724
X6.8307Y-2.815
X6.8307Y-2.8543
X6.8504Y-2.5748
X6.8583Y-2.7244
X6.8583Y-2.7677
X6.8622Y-2.626
X6.874Y-3.1102
X6.874Y-3.1378
X6.874Y-3.2323
X6.874Y-3.4094
X6.8858Y-4.1654
X6.8858Y-4.2717
X6.8898Y-2.626
X6.8898Y-3.9724
X6.8898Y-4.0512
X6.9055Y-5.2559
X6.9173Y-4.9094
X6.9567Y-2.7835
X7.0079Y-3.4094
X7.0551Y-3.4646
X7.0851Y-5.3253
X7.0866Y-4.9803
X7.0984Y-3.4094
X7.1142Y-3.126
X7.1339Y-2.8031
X7.185Y-3.0787
X7.1929Y-3.7795
X7.1929Y-3.811
X7.2126Y-3.0787
X7.2283Y-3.7795
X7.2283Y-3.811
X7.2638Y-3.7795
X7.2638Y-3.811
X7.2665Y-2.927
X7.2677Y-3.0118
X7.2835Y-5.0079
X7.2835Y-5.0354
X7.2835Y-5.063
X7.2945Y-2.9262
X7.2953Y-3.0118
X7.315Y-5.0079
X7.315Y-5.0354
X7.315Y-5.063
X7.3189Y-5.3504
X7.3189Y-5.374
X7.3465Y-5.0079
X7.3465Y-5.0354
X7.3465Y-5.063
X7.3583Y-3.189
X7.3583Y-3.2283
X7.3583Y-3.2677
X7.3583Y-3.3071
X7.378Y-3.2087
X7.378Y-3.248
X7.378Y-3.2874
X7.378Y-3.4724
X7.378Y-3.5039
X7.378Y-3.5354
X7.378Y-3.5669
X7.378Y-4.748
X7.378Y-4.7717
X7.3937Y-5.185
X7.4016Y-4.748
X7.4016Y-4.7717
X7.4094Y-3.4724
X7.4094Y-3.5039
X7.4094Y-3.5354
X7.4094Y-3.5669
X7.4252Y-4.748
X7.4252Y-4.7717
X7.4291Y-5.185
X7.4409Y-3.4724
X7.4409Y-3.5039
X7.4409Y-3.5354
X7.4409Y-3.5669
X7.4449Y-4.1181
X7.4449Y-4.1575
X7.4449Y-4.1969
X7.4449Y-4.2362
X7.4449Y-4.2756
X7.4646Y-3.0984
X7.4646Y-3.1378
X7.4646Y-3.1772
X7.4646Y-3.2165
X7.4646Y-3.2559
X7.4724Y-3.4724
X7.4724Y-3.5039
X7.4724Y-3.5354
X7.4724Y-3.5669
X7.5886Y-4.9862
X7.622Y-4.752
X7.6817Y-4.913
X7.7008Y-4.8701
X7.7717Y-4.8819
X7.8071Y-4.9173
T2
X5.0472Y-3.1654
X5.6299Y-3.5512
X5.6693Y-3.5512
X5.7087Y-3.5512
X5.8189Y-3.4213
X5.8189Y-3.4567
X5.8543Y-3.4213
X5.8543Y-3.4567
X5.9646Y-2.6772
X6.9567Y-2.9291
X6.9567Y-3.0039
X7.0236Y-2.9646
X7.0315Y-3.9291
X7.0315Y-4.0118
X7.0315Y-4.0945
X7.0354Y-2.7894
X7.0591Y-3.9685
X7.0591Y-4.0551
X7.0645Y-2.659
X7.0866Y-3.9291
X7.0866Y-4.0118
X7.0866Y-4.0945
X7.0945Y-2.9291
X7.0945Y-3.0039
T3
X4.7874Y-2.5197
X4.7874Y-5.3543
X4.8151Y-2.4529
X4.8151Y-2.5865
X4.8151Y-5.2875
X4.8151Y-5.4211
X4.8819Y-2.4252
X4.8819Y-2.6142
X4.8819Y-5.2598
X4.8819Y-5.4488
X4.9487Y-2.4529
X4.9487Y-2.5865
X4.9487Y-5.2875
X4.9487Y-5.4211
X4.9764Y-2.5197
X4.9764Y-5.3543
X7.622Y-2.5197
X7.622Y-5.3543
X7.6497Y-2.4529
X7.6497Y-2.5865
X7.6497Y-5.2875
X7.6497Y-5.4211
X7.7165Y-2.4252
X7.7165Y-2.6142
X7.7165Y-5.2598
X7.7165Y-5.4488
X7.7833Y-2.4529
X7.7833Y-2.5865
X7.7833Y-5.2875
X7.7833Y-5.4211
X7.811Y-2.5197
X7.811Y-5.3543
T4
X4.8425Y-2.8346
X4.8425Y-2.9346
X4.8425Y-3.0346
X4.8425Y-3.1346
X4.8425Y-3.2346
X4.8425Y-3.3346
X4.8425Y-3.4346
X4.8425Y-3.5346
X4.8425Y-3.6346
X4.8425Y-3.7346
X4.9425Y-2.8346
X4.9425Y-2.9346
X4.9425Y-3.0346
X4.9425Y-3.1346
X4.9425Y-3.2346
X4.9425Y-3.3346
X4.9425Y-3.4346
X4.9425Y-3.5346
X4.9425Y-3.6346
X4.9425Y-3.7346
X5.2085Y-5.2839
X5.3585Y-5.2839
X5.4093Y-2.5154
X5.5593Y-2.5154
X6.1417Y-2.7165
X6.1421Y-2.5984
X6.2417Y-2.7165
X6.2421Y-2.5984
X6.3213Y-3.8512
X6.3213Y-3.9512
X6.3213Y-4.0512
X6.3213Y-4.1512
X6.3417Y-2.7165
X6.3421Y-2.5984
X6.4213Y-3.8512
X6.4213Y-3.9512
X6.4213Y-4.0512
X6.4213Y-4.1512
X6.4724Y-3.1402
X6.4724Y-3.2402
X6.4803Y-4.4055
X6.5724Y-3.1402
X6.5724Y-3.2402
X6.5803Y-4.4055
X6.6724Y-3.1402
X6.6724Y-3.2402
X6.6803Y-4.4055
X6.7724Y-3.1402
X6.7724Y-3.2402
X6.7803Y-4.4055
X6.8701Y-4.526
X6.8701Y-4.626
X6.9701Y-4.526
X6.9701Y-4.626
X7.0701Y-4.526
X7.0701Y-4.626
X7.1701Y-4.526
X7.1701Y-4.626
X7.2039Y-2.6378
X7.3039Y-2.6378
X7.3701Y-4.5118
X7.3701Y-4.6118
X7.4039Y-2.6378
X7.5039Y-2.6378
T5
X4.8819Y-2.5197
X4.8819Y-5.3543
X7.7165Y-2.5197
X7.7165Y-5.3543
T0
M30
