G04 #@! TF.GenerationSoftware,KiCad,Pcbnew,(5.1.12)-1*
G04 #@! TF.CreationDate,2022-01-20T23:42:30+07:00*
G04 #@! TF.ProjectId,Driver_Board,44726976-6572-45f4-926f-6172642e6b69,v.2.0*
G04 #@! TF.SameCoordinates,Original*
G04 #@! TF.FileFunction,Copper,L4,Bot*
G04 #@! TF.FilePolarity,Positive*
%FSLAX46Y46*%
G04 Gerber Fmt 4.6, Leading zero omitted, Abs format (unit mm)*
G04 Created by KiCad (PCBNEW (5.1.12)-1) date 2022-01-20 23:42:30*
%MOMM*%
%LPD*%
G01*
G04 APERTURE LIST*
G04 #@! TA.AperFunction,ComponentPad*
%ADD10O,1.700000X1.700000*%
G04 #@! TD*
G04 #@! TA.AperFunction,ComponentPad*
%ADD11R,1.700000X1.700000*%
G04 #@! TD*
G04 #@! TA.AperFunction,ComponentPad*
%ADD12C,6.400000*%
G04 #@! TD*
G04 #@! TA.AperFunction,ComponentPad*
%ADD13C,0.800000*%
G04 #@! TD*
G04 #@! TA.AperFunction,ComponentPad*
%ADD14C,1.800000*%
G04 #@! TD*
G04 #@! TA.AperFunction,ComponentPad*
%ADD15R,1.800000X1.800000*%
G04 #@! TD*
G04 #@! TA.AperFunction,ViaPad*
%ADD16C,0.800000*%
G04 #@! TD*
G04 #@! TA.AperFunction,ViaPad*
%ADD17C,0.600000*%
G04 #@! TD*
G04 #@! TA.AperFunction,Conductor*
%ADD18C,0.508000*%
G04 #@! TD*
G04 #@! TA.AperFunction,Conductor*
%ADD19C,1.524000*%
G04 #@! TD*
G04 #@! TA.AperFunction,Conductor*
%ADD20C,0.254000*%
G04 #@! TD*
G04 #@! TA.AperFunction,Conductor*
%ADD21C,0.100000*%
G04 #@! TD*
G04 #@! TA.AperFunction,NonConductor*
%ADD22C,0.254000*%
G04 #@! TD*
G04 #@! TA.AperFunction,NonConductor*
%ADD23C,0.100000*%
G04 #@! TD*
G04 APERTURE END LIST*
D10*
X172220000Y-111900000D03*
X169680000Y-111900000D03*
X167140000Y-111900000D03*
D11*
X164600000Y-111900000D03*
D12*
X124000000Y-64000000D03*
D13*
X126400000Y-64000000D03*
X125697056Y-65697056D03*
X124000000Y-66400000D03*
X122302944Y-65697056D03*
X121600000Y-64000000D03*
X122302944Y-62302944D03*
X124000000Y-61600000D03*
X125697056Y-62302944D03*
X197697056Y-62302944D03*
X196000000Y-61600000D03*
X194302944Y-62302944D03*
X193600000Y-64000000D03*
X194302944Y-65697056D03*
X196000000Y-66400000D03*
X197697056Y-65697056D03*
X198400000Y-64000000D03*
D12*
X196000000Y-64000000D03*
X196000000Y-136000000D03*
D13*
X198400000Y-136000000D03*
X197697056Y-137697056D03*
X196000000Y-138400000D03*
X194302944Y-137697056D03*
X193600000Y-136000000D03*
X194302944Y-134302944D03*
X196000000Y-133600000D03*
X197697056Y-134302944D03*
X125697056Y-134302944D03*
X124000000Y-133600000D03*
X122302944Y-134302944D03*
X121600000Y-136000000D03*
X122302944Y-137697056D03*
X124000000Y-138400000D03*
X125697056Y-137697056D03*
X126400000Y-136000000D03*
D12*
X124000000Y-136000000D03*
D11*
X123000000Y-72000000D03*
D10*
X125540000Y-72000000D03*
X123000000Y-74540000D03*
X125540000Y-74540000D03*
X123000000Y-77080000D03*
X125540000Y-77080000D03*
X123000000Y-79620000D03*
X125540000Y-79620000D03*
X123000000Y-82160000D03*
X125540000Y-82160000D03*
X123000000Y-84700000D03*
X125540000Y-84700000D03*
X123000000Y-87240000D03*
X125540000Y-87240000D03*
X123000000Y-89780000D03*
X125540000Y-89780000D03*
X123000000Y-92320000D03*
X125540000Y-92320000D03*
X123000000Y-94860000D03*
X125540000Y-94860000D03*
D11*
X187200000Y-114600000D03*
D10*
X187200000Y-117140000D03*
D11*
X156010000Y-66000000D03*
D10*
X158550000Y-66000000D03*
X161090000Y-66000000D03*
X161080000Y-69000000D03*
X158540000Y-69000000D03*
D11*
X156000000Y-69000000D03*
X160560000Y-97820000D03*
D10*
X163100000Y-97820000D03*
X160560000Y-100360000D03*
X163100000Y-100360000D03*
X160560000Y-102900000D03*
X163100000Y-102900000D03*
X160560000Y-105440000D03*
X163100000Y-105440000D03*
D11*
X174500000Y-117500000D03*
D10*
X174500000Y-114960000D03*
X177040000Y-117500000D03*
X177040000Y-114960000D03*
X179580000Y-117500000D03*
X179580000Y-114960000D03*
X182120000Y-117500000D03*
X182120000Y-114960000D03*
X172020000Y-79760000D03*
X172020000Y-82300000D03*
X169480000Y-79760000D03*
X169480000Y-82300000D03*
X166940000Y-79760000D03*
X166940000Y-82300000D03*
X164400000Y-79760000D03*
D11*
X164400000Y-82300000D03*
X190600000Y-67000000D03*
D10*
X188060000Y-67000000D03*
X185520000Y-67000000D03*
X182980000Y-67000000D03*
D14*
X136105000Y-134210000D03*
D15*
X132295000Y-134210000D03*
X141205000Y-63890000D03*
D14*
X137395000Y-63890000D03*
D16*
X180200000Y-76300000D03*
X176700000Y-76300000D03*
X176700000Y-74400000D03*
X180200000Y-74400000D03*
X178400000Y-75300000D03*
D17*
X136300000Y-113800000D03*
X139100000Y-117000000D03*
D16*
X179437500Y-67537500D03*
D17*
X174600000Y-82100000D03*
X166300006Y-66000000D03*
X166300000Y-69000000D03*
X164137500Y-75862500D03*
X180300000Y-86600000D03*
X178000000Y-86600000D03*
X179200000Y-88000000D03*
X167400000Y-88500000D03*
X175000000Y-100900000D03*
X175000000Y-102900000D03*
X169800000Y-102100000D03*
X167600000Y-96800000D03*
X167600000Y-99600000D03*
X166500000Y-98200000D03*
X180000003Y-126499997D03*
X179962500Y-135262500D03*
X175400000Y-133500000D03*
X175700016Y-124700010D03*
X169814272Y-103685728D03*
X145175728Y-114024272D03*
X148175728Y-117024272D03*
X145075728Y-103724272D03*
X193600000Y-120700000D03*
X198300000Y-124900000D03*
X197400000Y-124000000D03*
X192750009Y-126650009D03*
X149800000Y-120200000D03*
X149200000Y-120200000D03*
X148600000Y-120200000D03*
X149800000Y-119600000D03*
X149200000Y-119600000D03*
X148600000Y-119600000D03*
X148399950Y-106600000D03*
X189599984Y-78700000D03*
X189100000Y-104600000D03*
X139200000Y-106400000D03*
X125100000Y-105900000D03*
X146700000Y-94700000D03*
X136299982Y-103400000D03*
X174600000Y-79000000D03*
X174600000Y-79700000D03*
X174300000Y-66700000D03*
X174999994Y-66700000D03*
X174600000Y-86600000D03*
X160200012Y-86599988D03*
X140400000Y-131800000D03*
X140400000Y-132600000D03*
X140400000Y-133400000D03*
X141200000Y-131800000D03*
X141200000Y-132600000D03*
X141200000Y-133400000D03*
X142000000Y-131800000D03*
X142000000Y-132600000D03*
X142000000Y-133400000D03*
X146900000Y-129300000D03*
X146900000Y-129900000D03*
X149000000Y-132200000D03*
D16*
X143000000Y-90200000D03*
X144000000Y-90200000D03*
X145000000Y-90200000D03*
X180000000Y-104000000D03*
X178600000Y-104000000D03*
X178600000Y-99800000D03*
X180000000Y-99800000D03*
X179300000Y-103000000D03*
X179300000Y-100800000D03*
X180000000Y-101900000D03*
X178600000Y-101900000D03*
X147800000Y-87800000D03*
X147800000Y-86900000D03*
X148700000Y-86900000D03*
D17*
X142700000Y-123400000D03*
X143300000Y-123400000D03*
X143000000Y-124000000D03*
X144800000Y-124000000D03*
X145400000Y-124000000D03*
X143600000Y-124000000D03*
X144500000Y-123400000D03*
X144200000Y-124000000D03*
X145100000Y-123400000D03*
X143900000Y-123400000D03*
X184600000Y-76499998D03*
X185300000Y-76500000D03*
X167400000Y-90200000D03*
X184569053Y-74344887D03*
X185279464Y-74325391D03*
X182500000Y-78200000D03*
X183200002Y-78200000D03*
X156100000Y-122100000D03*
X156100000Y-122700000D03*
X156100000Y-123300000D03*
X156100000Y-123900000D03*
X155500000Y-123000000D03*
X155500000Y-122400000D03*
X155500000Y-123600000D03*
X155500000Y-124200000D03*
X156100000Y-124500000D03*
X155500000Y-124800000D03*
X189000000Y-89000000D03*
X189000000Y-88200000D03*
X189800000Y-89000000D03*
X189000000Y-89800000D03*
X188200000Y-89000000D03*
X188200000Y-88200000D03*
X189800000Y-88200000D03*
X189800000Y-89800000D03*
X188200000Y-89800000D03*
X188200000Y-90600000D03*
X189000000Y-90600000D03*
X189800000Y-90600000D03*
X187400000Y-90600000D03*
X187400000Y-89800000D03*
X187400000Y-89000000D03*
X187400000Y-88200000D03*
D16*
X148700000Y-87800000D03*
D17*
X187400000Y-120600000D03*
X188000000Y-120600000D03*
X188600000Y-120600000D03*
X188600000Y-121200000D03*
X188000000Y-121200000D03*
X187400000Y-121200000D03*
X155400000Y-129700000D03*
X155400000Y-130300000D03*
X155400000Y-130900000D03*
X155400000Y-131500000D03*
X156000000Y-131500000D03*
X156000000Y-130900000D03*
X156000000Y-130300000D03*
X156000000Y-129700000D03*
X187800000Y-131700000D03*
X188700000Y-131700000D03*
X143100000Y-102300000D03*
X171900000Y-126300000D03*
X135200000Y-100400000D03*
X144400000Y-100400000D03*
X150400000Y-100400000D03*
X135200000Y-110800000D03*
X144400002Y-110800000D03*
X150400000Y-110800000D03*
X143100000Y-112700000D03*
X171200000Y-127100000D03*
X152300000Y-102300000D03*
X166500000Y-127200000D03*
X152300000Y-112600000D03*
X165800000Y-128199998D03*
X167900000Y-133000000D03*
X128500000Y-87800000D03*
X167900000Y-124200000D03*
X195600000Y-123700000D03*
X195114496Y-124791302D03*
X181200000Y-71200000D03*
X174000000Y-65400000D03*
X169300000Y-67600000D03*
X176700000Y-70700000D03*
X174200000Y-69199998D03*
X174200000Y-70300000D03*
X173500000Y-71500000D03*
X173500000Y-72500000D03*
X169200000Y-69800000D03*
D16*
X128200008Y-80400000D03*
D17*
X185900000Y-135900000D03*
X185900000Y-136500000D03*
X174900000Y-105800000D03*
X174900000Y-108500000D03*
X185000000Y-128600000D03*
X185800000Y-128600000D03*
X186600000Y-128600000D03*
X185000000Y-127900000D03*
X185000000Y-127200000D03*
X186600000Y-127200000D03*
X186600000Y-127900000D03*
X185800000Y-127900000D03*
X185800000Y-127200000D03*
X182700000Y-96000000D03*
X183600000Y-96000000D03*
X184500000Y-96000000D03*
X182700000Y-96800000D03*
X183600000Y-96800000D03*
X184500000Y-96800000D03*
X160200000Y-90200000D03*
X180700004Y-79400000D03*
X186900000Y-81000000D03*
X187400000Y-81500000D03*
X186900000Y-82000000D03*
X187400000Y-82500000D03*
X186900000Y-83000000D03*
X187400000Y-83500000D03*
X186900000Y-84000000D03*
D16*
X178700000Y-70850000D03*
X151500000Y-68000000D03*
D17*
X189100000Y-105600000D03*
X189100000Y-106600000D03*
X189100000Y-107600000D03*
X189100000Y-108600000D03*
X189600000Y-82700000D03*
X189600000Y-81700000D03*
X189600000Y-80700000D03*
X189600000Y-79700000D03*
D18*
X135400000Y-136600000D02*
X136105000Y-135895000D01*
X127300000Y-133500000D02*
X130400000Y-136600000D01*
X127300000Y-98000000D02*
X127300000Y-133500000D01*
X136105000Y-135895000D02*
X136105000Y-134210000D01*
X130400000Y-136600000D02*
X135400000Y-136600000D01*
X135100000Y-90200000D02*
X127300000Y-98000000D01*
X143000000Y-90200000D02*
X135100000Y-90200000D01*
X132295000Y-134210000D02*
X130410000Y-134210000D01*
X130410000Y-134210000D02*
X128700000Y-132500000D01*
X128700000Y-132500000D02*
X128700000Y-98200000D01*
X128700000Y-98200000D02*
X134800000Y-92100000D01*
X134800000Y-92100000D02*
X146300000Y-92100000D01*
X146300000Y-92100000D02*
X148700000Y-89700000D01*
X148700000Y-89700000D02*
X148700000Y-87800000D01*
X148700000Y-87800000D02*
X148700000Y-87800000D01*
D19*
X174500000Y-119874000D02*
X174626000Y-120000000D01*
X174500000Y-117500000D02*
X174500000Y-119874000D01*
X179580000Y-117500000D02*
X179580000Y-119820000D01*
X179580000Y-119820000D02*
X179400000Y-120000000D01*
X174626000Y-120000000D02*
X179400000Y-120000000D01*
X185800000Y-123200000D02*
X185800000Y-127200000D01*
X182600000Y-120000000D02*
X185800000Y-123200000D01*
X179400000Y-120000000D02*
X182600000Y-120000000D01*
D18*
X128240000Y-94860000D02*
X125540000Y-94860000D01*
X141205000Y-81895000D02*
X128240000Y-94860000D01*
X141205000Y-63890000D02*
X141205000Y-81895000D01*
D20*
X186865000Y-128865000D02*
X184627000Y-128865000D01*
X184627000Y-126827000D01*
X186865000Y-126827000D01*
X186865000Y-128865000D01*
G04 #@! TA.AperFunction,Conductor*
D21*
G36*
X186865000Y-128865000D02*
G01*
X184627000Y-128865000D01*
X184627000Y-126827000D01*
X186865000Y-126827000D01*
X186865000Y-128865000D01*
G37*
G04 #@! TD.AperFunction*
D20*
X188473000Y-118700000D02*
X188475440Y-118724776D01*
X188482667Y-118748601D01*
X188494403Y-118770557D01*
X188510197Y-118789803D01*
X188529443Y-118805597D01*
X188551399Y-118817333D01*
X188575224Y-118824560D01*
X188600000Y-118827000D01*
X191373000Y-118827000D01*
X191373000Y-132173000D01*
X168345263Y-132173000D01*
X168342889Y-132171414D01*
X168172729Y-132100932D01*
X167992089Y-132065000D01*
X167807911Y-132065000D01*
X167627271Y-132100932D01*
X167457111Y-132171414D01*
X167454737Y-132173000D01*
X154827000Y-132173000D01*
X154827000Y-129127000D01*
X165667703Y-129127000D01*
X165707911Y-129134998D01*
X165892089Y-129134998D01*
X165932297Y-129127000D01*
X183547394Y-129127000D01*
X184010197Y-129589803D01*
X184029443Y-129605597D01*
X184051399Y-129617333D01*
X184075224Y-129624560D01*
X184100000Y-129627000D01*
X187500000Y-129627000D01*
X187524776Y-129624560D01*
X187548601Y-129617333D01*
X187570557Y-129605597D01*
X187589803Y-129589803D01*
X187605597Y-129570557D01*
X187617333Y-129548601D01*
X187624560Y-129524776D01*
X187627000Y-129500000D01*
X187627000Y-122700000D01*
X187624560Y-122675224D01*
X187617333Y-122651399D01*
X187605597Y-122629443D01*
X187589803Y-122610197D01*
X183889803Y-118910197D01*
X183870557Y-118894403D01*
X183848601Y-118882667D01*
X183824776Y-118875440D01*
X183800000Y-118873000D01*
X183428850Y-118873000D01*
X183379887Y-118832817D01*
X183137195Y-118703096D01*
X182873860Y-118623214D01*
X182668625Y-118603000D01*
X182600000Y-118596241D01*
X182531375Y-118603000D01*
X180977000Y-118603000D01*
X180977000Y-118007835D01*
X181007932Y-117933158D01*
X181065000Y-117646260D01*
X181065000Y-117353740D01*
X181007932Y-117066842D01*
X180927000Y-116871454D01*
X180927000Y-116635000D01*
X184400000Y-116635000D01*
X184504393Y-116626360D01*
X184624584Y-116593959D01*
X184736145Y-116538732D01*
X184834787Y-116462802D01*
X184916721Y-116369086D01*
X184946782Y-116327000D01*
X185200000Y-116327000D01*
X185224776Y-116324560D01*
X185248601Y-116317333D01*
X185270557Y-116305597D01*
X185289803Y-116289803D01*
X185305597Y-116270557D01*
X185317333Y-116248601D01*
X185324560Y-116224776D01*
X185327000Y-116200000D01*
X185327000Y-116127000D01*
X188473000Y-116127000D01*
X188473000Y-118700000D01*
G04 #@! TA.AperFunction,Conductor*
D21*
G36*
X188473000Y-118700000D02*
G01*
X188475440Y-118724776D01*
X188482667Y-118748601D01*
X188494403Y-118770557D01*
X188510197Y-118789803D01*
X188529443Y-118805597D01*
X188551399Y-118817333D01*
X188575224Y-118824560D01*
X188600000Y-118827000D01*
X191373000Y-118827000D01*
X191373000Y-132173000D01*
X168345263Y-132173000D01*
X168342889Y-132171414D01*
X168172729Y-132100932D01*
X167992089Y-132065000D01*
X167807911Y-132065000D01*
X167627271Y-132100932D01*
X167457111Y-132171414D01*
X167454737Y-132173000D01*
X154827000Y-132173000D01*
X154827000Y-129127000D01*
X165667703Y-129127000D01*
X165707911Y-129134998D01*
X165892089Y-129134998D01*
X165932297Y-129127000D01*
X183547394Y-129127000D01*
X184010197Y-129589803D01*
X184029443Y-129605597D01*
X184051399Y-129617333D01*
X184075224Y-129624560D01*
X184100000Y-129627000D01*
X187500000Y-129627000D01*
X187524776Y-129624560D01*
X187548601Y-129617333D01*
X187570557Y-129605597D01*
X187589803Y-129589803D01*
X187605597Y-129570557D01*
X187617333Y-129548601D01*
X187624560Y-129524776D01*
X187627000Y-129500000D01*
X187627000Y-122700000D01*
X187624560Y-122675224D01*
X187617333Y-122651399D01*
X187605597Y-122629443D01*
X187589803Y-122610197D01*
X183889803Y-118910197D01*
X183870557Y-118894403D01*
X183848601Y-118882667D01*
X183824776Y-118875440D01*
X183800000Y-118873000D01*
X183428850Y-118873000D01*
X183379887Y-118832817D01*
X183137195Y-118703096D01*
X182873860Y-118623214D01*
X182668625Y-118603000D01*
X182600000Y-118596241D01*
X182531375Y-118603000D01*
X180977000Y-118603000D01*
X180977000Y-118007835D01*
X181007932Y-117933158D01*
X181065000Y-117646260D01*
X181065000Y-117353740D01*
X181007932Y-117066842D01*
X180927000Y-116871454D01*
X180927000Y-116635000D01*
X184400000Y-116635000D01*
X184504393Y-116626360D01*
X184624584Y-116593959D01*
X184736145Y-116538732D01*
X184834787Y-116462802D01*
X184916721Y-116369086D01*
X184946782Y-116327000D01*
X185200000Y-116327000D01*
X185224776Y-116324560D01*
X185248601Y-116317333D01*
X185270557Y-116305597D01*
X185289803Y-116289803D01*
X185305597Y-116270557D01*
X185317333Y-116248601D01*
X185324560Y-116224776D01*
X185327000Y-116200000D01*
X185327000Y-116127000D01*
X188473000Y-116127000D01*
X188473000Y-118700000D01*
G37*
G04 #@! TD.AperFunction*
D20*
X187773000Y-82700000D02*
X187775440Y-82724776D01*
X187782667Y-82748601D01*
X187794403Y-82770557D01*
X187810197Y-82789803D01*
X187832690Y-82807696D01*
X196573000Y-88270390D01*
X196573000Y-110348743D01*
X193946038Y-113073000D01*
X186400000Y-113073000D01*
X186375224Y-113075440D01*
X186351399Y-113082667D01*
X186329443Y-113094403D01*
X186310197Y-113110197D01*
X186296656Y-113126183D01*
X184334644Y-115873000D01*
X178527000Y-115873000D01*
X178527000Y-113227000D01*
X183000000Y-113227000D01*
X183024776Y-113224560D01*
X183048601Y-113217333D01*
X183070557Y-113205597D01*
X183089803Y-113189803D01*
X183103344Y-113173817D01*
X185565993Y-109726108D01*
X192801740Y-109626988D01*
X192826480Y-109624209D01*
X192850203Y-109616656D01*
X192871997Y-109604620D01*
X192891024Y-109588564D01*
X192906553Y-109569104D01*
X192917987Y-109546989D01*
X192924887Y-109523068D01*
X192927000Y-109500000D01*
X192927000Y-89200000D01*
X192924560Y-89175224D01*
X192917333Y-89151399D01*
X192905597Y-89129443D01*
X192889803Y-89110197D01*
X192870447Y-89094330D01*
X185727000Y-84332032D01*
X185727000Y-80427000D01*
X187773000Y-80427000D01*
X187773000Y-82700000D01*
G04 #@! TA.AperFunction,Conductor*
D21*
G36*
X187773000Y-82700000D02*
G01*
X187775440Y-82724776D01*
X187782667Y-82748601D01*
X187794403Y-82770557D01*
X187810197Y-82789803D01*
X187832690Y-82807696D01*
X196573000Y-88270390D01*
X196573000Y-110348743D01*
X193946038Y-113073000D01*
X186400000Y-113073000D01*
X186375224Y-113075440D01*
X186351399Y-113082667D01*
X186329443Y-113094403D01*
X186310197Y-113110197D01*
X186296656Y-113126183D01*
X184334644Y-115873000D01*
X178527000Y-115873000D01*
X178527000Y-113227000D01*
X183000000Y-113227000D01*
X183024776Y-113224560D01*
X183048601Y-113217333D01*
X183070557Y-113205597D01*
X183089803Y-113189803D01*
X183103344Y-113173817D01*
X185565993Y-109726108D01*
X192801740Y-109626988D01*
X192826480Y-109624209D01*
X192850203Y-109616656D01*
X192871997Y-109604620D01*
X192891024Y-109588564D01*
X192906553Y-109569104D01*
X192917987Y-109546989D01*
X192924887Y-109523068D01*
X192927000Y-109500000D01*
X192927000Y-89200000D01*
X192924560Y-89175224D01*
X192917333Y-89151399D01*
X192905597Y-89129443D01*
X192889803Y-89110197D01*
X192870447Y-89094330D01*
X185727000Y-84332032D01*
X185727000Y-80427000D01*
X187773000Y-80427000D01*
X187773000Y-82700000D01*
G37*
G04 #@! TD.AperFunction*
D20*
X185273000Y-106247394D02*
X179047394Y-112473000D01*
X178200000Y-112473000D01*
X178175224Y-112475440D01*
X178151399Y-112482667D01*
X178129443Y-112494403D01*
X178110197Y-112510197D01*
X178094403Y-112529443D01*
X178082667Y-112551399D01*
X178075440Y-112575224D01*
X178073000Y-112600000D01*
X178073000Y-115873000D01*
X172727000Y-115873000D01*
X172727000Y-113652606D01*
X173452606Y-112927000D01*
X174500000Y-112927000D01*
X174524776Y-112924560D01*
X174548601Y-112917333D01*
X174570557Y-112905597D01*
X174589803Y-112889803D01*
X182189803Y-105289803D01*
X182205597Y-105270557D01*
X182217333Y-105248601D01*
X182224560Y-105224776D01*
X182227000Y-105200000D01*
X182227000Y-95527000D01*
X185273000Y-95527000D01*
X185273000Y-106247394D01*
G04 #@! TA.AperFunction,Conductor*
D21*
G36*
X185273000Y-106247394D02*
G01*
X179047394Y-112473000D01*
X178200000Y-112473000D01*
X178175224Y-112475440D01*
X178151399Y-112482667D01*
X178129443Y-112494403D01*
X178110197Y-112510197D01*
X178094403Y-112529443D01*
X178082667Y-112551399D01*
X178075440Y-112575224D01*
X178073000Y-112600000D01*
X178073000Y-115873000D01*
X172727000Y-115873000D01*
X172727000Y-113652606D01*
X173452606Y-112927000D01*
X174500000Y-112927000D01*
X174524776Y-112924560D01*
X174548601Y-112917333D01*
X174570557Y-112905597D01*
X174589803Y-112889803D01*
X182189803Y-105289803D01*
X182205597Y-105270557D01*
X182217333Y-105248601D01*
X182224560Y-105224776D01*
X182227000Y-105200000D01*
X182227000Y-95527000D01*
X185273000Y-95527000D01*
X185273000Y-106247394D01*
G37*
G04 #@! TD.AperFunction*
D20*
X195873000Y-87233832D02*
X189698475Y-83374754D01*
X189798640Y-83354829D01*
X189922574Y-83303494D01*
X190034112Y-83228967D01*
X190128967Y-83134112D01*
X190203494Y-83022574D01*
X190254829Y-82898640D01*
X190281000Y-82767073D01*
X190281000Y-82632927D01*
X190254829Y-82501360D01*
X190203494Y-82377426D01*
X190128967Y-82265888D01*
X190063079Y-82200000D01*
X190128967Y-82134112D01*
X190203494Y-82022574D01*
X190254829Y-81898640D01*
X190281000Y-81767073D01*
X190281000Y-81632927D01*
X190254829Y-81501360D01*
X190203494Y-81377426D01*
X190128967Y-81265888D01*
X190063079Y-81200000D01*
X190128967Y-81134112D01*
X190203494Y-81022574D01*
X190254829Y-80898640D01*
X190281000Y-80767073D01*
X190281000Y-80632927D01*
X190254829Y-80501360D01*
X190203494Y-80377426D01*
X190128967Y-80265888D01*
X190063079Y-80200000D01*
X190128967Y-80134112D01*
X190203494Y-80022574D01*
X190254829Y-79898640D01*
X190281000Y-79767073D01*
X190281000Y-79632927D01*
X190254829Y-79501360D01*
X190203494Y-79377426D01*
X190128967Y-79265888D01*
X190063071Y-79199992D01*
X190128951Y-79134112D01*
X190203478Y-79022574D01*
X190254813Y-78898640D01*
X190280984Y-78767073D01*
X190280984Y-78632927D01*
X190254813Y-78501360D01*
X190203478Y-78377426D01*
X190128951Y-78265888D01*
X190034096Y-78171033D01*
X189922558Y-78096506D01*
X189798624Y-78045171D01*
X189667057Y-78019000D01*
X189532911Y-78019000D01*
X189401344Y-78045171D01*
X189277410Y-78096506D01*
X189165872Y-78171033D01*
X189071017Y-78265888D01*
X188996490Y-78377426D01*
X188945155Y-78501360D01*
X188918984Y-78632927D01*
X188918984Y-78767073D01*
X188945155Y-78898640D01*
X188996490Y-79022574D01*
X189071017Y-79134112D01*
X189136913Y-79200008D01*
X189071033Y-79265888D01*
X188996506Y-79377426D01*
X188945171Y-79501360D01*
X188919000Y-79632927D01*
X188919000Y-79767073D01*
X188945171Y-79898640D01*
X188996506Y-80022574D01*
X189071033Y-80134112D01*
X189136921Y-80200000D01*
X189071033Y-80265888D01*
X188996506Y-80377426D01*
X188945171Y-80501360D01*
X188919000Y-80632927D01*
X188919000Y-80767073D01*
X188945171Y-80898640D01*
X188996506Y-81022574D01*
X189071033Y-81134112D01*
X189136921Y-81200000D01*
X189071033Y-81265888D01*
X188996506Y-81377426D01*
X188945171Y-81501360D01*
X188919000Y-81632927D01*
X188919000Y-81767073D01*
X188945171Y-81898640D01*
X188996506Y-82022574D01*
X189071033Y-82134112D01*
X189136921Y-82200000D01*
X189071033Y-82265888D01*
X188996506Y-82377426D01*
X188945171Y-82501360D01*
X188919000Y-82632927D01*
X188919000Y-82767073D01*
X188945171Y-82898640D01*
X188948133Y-82905790D01*
X188281000Y-82488832D01*
X188281000Y-80300000D01*
X188273679Y-80225671D01*
X188251998Y-80154198D01*
X188216790Y-80088328D01*
X188169408Y-80030592D01*
X188111672Y-79983210D01*
X188045802Y-79948002D01*
X187974329Y-79926321D01*
X187900000Y-79919000D01*
X185600000Y-79919000D01*
X185525671Y-79926321D01*
X185454198Y-79948002D01*
X185388328Y-79983210D01*
X185330592Y-80030592D01*
X185283210Y-80088328D01*
X185248002Y-80154198D01*
X185226321Y-80225671D01*
X185219000Y-80300000D01*
X185219000Y-84400000D01*
X185226399Y-84474720D01*
X185248155Y-84546171D01*
X185283432Y-84612004D01*
X185330874Y-84669689D01*
X185388659Y-84717011D01*
X192419000Y-89403905D01*
X192419000Y-109124184D01*
X189481038Y-109164430D01*
X189534112Y-109128967D01*
X189628967Y-109034112D01*
X189703494Y-108922574D01*
X189754829Y-108798640D01*
X189781000Y-108667073D01*
X189781000Y-108532927D01*
X189754829Y-108401360D01*
X189703494Y-108277426D01*
X189628967Y-108165888D01*
X189563079Y-108100000D01*
X189628967Y-108034112D01*
X189703494Y-107922574D01*
X189754829Y-107798640D01*
X189781000Y-107667073D01*
X189781000Y-107532927D01*
X189754829Y-107401360D01*
X189703494Y-107277426D01*
X189628967Y-107165888D01*
X189563079Y-107100000D01*
X189628967Y-107034112D01*
X189703494Y-106922574D01*
X189754829Y-106798640D01*
X189781000Y-106667073D01*
X189781000Y-106532927D01*
X189754829Y-106401360D01*
X189703494Y-106277426D01*
X189628967Y-106165888D01*
X189563079Y-106100000D01*
X189628967Y-106034112D01*
X189703494Y-105922574D01*
X189754829Y-105798640D01*
X189781000Y-105667073D01*
X189781000Y-105532927D01*
X189754829Y-105401360D01*
X189703494Y-105277426D01*
X189628967Y-105165888D01*
X189563079Y-105100000D01*
X189628967Y-105034112D01*
X189703494Y-104922574D01*
X189754829Y-104798640D01*
X189781000Y-104667073D01*
X189781000Y-104532927D01*
X189754829Y-104401360D01*
X189703494Y-104277426D01*
X189628967Y-104165888D01*
X189534112Y-104071033D01*
X189422574Y-103996506D01*
X189298640Y-103945171D01*
X189167073Y-103919000D01*
X189032927Y-103919000D01*
X188901360Y-103945171D01*
X188777426Y-103996506D01*
X188665888Y-104071033D01*
X188571033Y-104165888D01*
X188496506Y-104277426D01*
X188445171Y-104401360D01*
X188419000Y-104532927D01*
X188419000Y-104667073D01*
X188445171Y-104798640D01*
X188496506Y-104922574D01*
X188571033Y-105034112D01*
X188636921Y-105100000D01*
X188571033Y-105165888D01*
X188496506Y-105277426D01*
X188445171Y-105401360D01*
X188419000Y-105532927D01*
X188419000Y-105667073D01*
X188445171Y-105798640D01*
X188496506Y-105922574D01*
X188571033Y-106034112D01*
X188636921Y-106100000D01*
X188571033Y-106165888D01*
X188496506Y-106277426D01*
X188445171Y-106401360D01*
X188419000Y-106532927D01*
X188419000Y-106667073D01*
X188445171Y-106798640D01*
X188496506Y-106922574D01*
X188571033Y-107034112D01*
X188636921Y-107100000D01*
X188571033Y-107165888D01*
X188496506Y-107277426D01*
X188445171Y-107401360D01*
X188419000Y-107532927D01*
X188419000Y-107667073D01*
X188445171Y-107798640D01*
X188496506Y-107922574D01*
X188571033Y-108034112D01*
X188636921Y-108100000D01*
X188571033Y-108165888D01*
X188496506Y-108277426D01*
X188445171Y-108401360D01*
X188419000Y-108532927D01*
X188419000Y-108667073D01*
X188445171Y-108798640D01*
X188496506Y-108922574D01*
X188571033Y-109034112D01*
X188665888Y-109128967D01*
X188734272Y-109174660D01*
X185494781Y-109219036D01*
X185437364Y-109224184D01*
X185365249Y-109243625D01*
X185298313Y-109276761D01*
X185239128Y-109322319D01*
X185189968Y-109378548D01*
X182803931Y-112719000D01*
X179519816Y-112719000D01*
X185669408Y-106569408D01*
X185716790Y-106511672D01*
X185751998Y-106445802D01*
X185773679Y-106374329D01*
X185781000Y-106300000D01*
X185781000Y-95400000D01*
X185773679Y-95325671D01*
X185751998Y-95254198D01*
X185716790Y-95188328D01*
X185669408Y-95130592D01*
X185611672Y-95083210D01*
X185545802Y-95048002D01*
X185474329Y-95026321D01*
X185400000Y-95019000D01*
X182100000Y-95019000D01*
X182025671Y-95026321D01*
X181954198Y-95048002D01*
X181888328Y-95083210D01*
X181830592Y-95130592D01*
X181783210Y-95188328D01*
X181748002Y-95254198D01*
X181726321Y-95325671D01*
X181719000Y-95400000D01*
X181719000Y-105042184D01*
X174342184Y-112419000D01*
X173400000Y-112419000D01*
X173334787Y-112425423D01*
X173403693Y-112259069D01*
X173451000Y-112021243D01*
X173451000Y-111778757D01*
X173403693Y-111540931D01*
X173310898Y-111316903D01*
X173176180Y-111115283D01*
X173004717Y-110943820D01*
X172803097Y-110809102D01*
X172579069Y-110716307D01*
X172341243Y-110669000D01*
X172098757Y-110669000D01*
X171860931Y-110716307D01*
X171636903Y-110809102D01*
X171435283Y-110943820D01*
X171263820Y-111115283D01*
X171129102Y-111316903D01*
X171036307Y-111540931D01*
X170989000Y-111778757D01*
X170989000Y-112021243D01*
X171036307Y-112259069D01*
X171129102Y-112483097D01*
X171263820Y-112684717D01*
X171435283Y-112856180D01*
X171636903Y-112990898D01*
X171835116Y-113073000D01*
X171600000Y-113073000D01*
X171575224Y-113075440D01*
X171551399Y-113082667D01*
X171529443Y-113094403D01*
X171510197Y-113110197D01*
X156255394Y-128365000D01*
X154700000Y-128365000D01*
X154576118Y-128377201D01*
X154456996Y-128413336D01*
X154347213Y-128472017D01*
X154250987Y-128550987D01*
X154172017Y-128647213D01*
X154113336Y-128756996D01*
X154077201Y-128876118D01*
X154065000Y-129000000D01*
X154065000Y-130555394D01*
X150135000Y-134485394D01*
X150135000Y-128600000D01*
X150122799Y-128476118D01*
X150086664Y-128356996D01*
X150027983Y-128247213D01*
X149949013Y-128150987D01*
X149852787Y-128072017D01*
X149743004Y-128013336D01*
X149623882Y-127977201D01*
X149500000Y-127965000D01*
X136800000Y-127965000D01*
X136676118Y-127977201D01*
X136556996Y-128013336D01*
X136447213Y-128072017D01*
X136350987Y-128150987D01*
X133950987Y-130550987D01*
X133872017Y-130647213D01*
X133813336Y-130756996D01*
X133777201Y-130876118D01*
X133765000Y-131000000D01*
X133765000Y-135873000D01*
X130571025Y-135873000D01*
X130127000Y-135428975D01*
X130127000Y-127852606D01*
X136852606Y-121127000D01*
X152000000Y-121127000D01*
X152024776Y-121124560D01*
X152048601Y-121117333D01*
X152070557Y-121105597D01*
X152089803Y-121089803D01*
X160089803Y-113089803D01*
X160090542Y-113089057D01*
X162096171Y-111050000D01*
X163367157Y-111050000D01*
X163367157Y-112750000D01*
X163374513Y-112824689D01*
X163396299Y-112896508D01*
X163431678Y-112962696D01*
X163479289Y-113020711D01*
X163537304Y-113068322D01*
X163603492Y-113103701D01*
X163675311Y-113125487D01*
X163750000Y-113132843D01*
X165450000Y-113132843D01*
X165524689Y-113125487D01*
X165596508Y-113103701D01*
X165662696Y-113068322D01*
X165720711Y-113020711D01*
X165768322Y-112962696D01*
X165803701Y-112896508D01*
X165825487Y-112824689D01*
X165832843Y-112750000D01*
X165832843Y-111778757D01*
X165909000Y-111778757D01*
X165909000Y-112021243D01*
X165956307Y-112259069D01*
X166049102Y-112483097D01*
X166183820Y-112684717D01*
X166355283Y-112856180D01*
X166556903Y-112990898D01*
X166780931Y-113083693D01*
X167018757Y-113131000D01*
X167261243Y-113131000D01*
X167499069Y-113083693D01*
X167723097Y-112990898D01*
X167924717Y-112856180D01*
X168096180Y-112684717D01*
X168230898Y-112483097D01*
X168323693Y-112259069D01*
X168371000Y-112021243D01*
X168371000Y-111778757D01*
X168449000Y-111778757D01*
X168449000Y-112021243D01*
X168496307Y-112259069D01*
X168589102Y-112483097D01*
X168723820Y-112684717D01*
X168895283Y-112856180D01*
X169096903Y-112990898D01*
X169320931Y-113083693D01*
X169558757Y-113131000D01*
X169801243Y-113131000D01*
X170039069Y-113083693D01*
X170263097Y-112990898D01*
X170464717Y-112856180D01*
X170636180Y-112684717D01*
X170770898Y-112483097D01*
X170863693Y-112259069D01*
X170911000Y-112021243D01*
X170911000Y-111778757D01*
X170863693Y-111540931D01*
X170770898Y-111316903D01*
X170636180Y-111115283D01*
X170464717Y-110943820D01*
X170263097Y-110809102D01*
X170039069Y-110716307D01*
X169801243Y-110669000D01*
X169558757Y-110669000D01*
X169320931Y-110716307D01*
X169096903Y-110809102D01*
X168895283Y-110943820D01*
X168723820Y-111115283D01*
X168589102Y-111316903D01*
X168496307Y-111540931D01*
X168449000Y-111778757D01*
X168371000Y-111778757D01*
X168323693Y-111540931D01*
X168230898Y-111316903D01*
X168096180Y-111115283D01*
X167924717Y-110943820D01*
X167723097Y-110809102D01*
X167499069Y-110716307D01*
X167261243Y-110669000D01*
X167018757Y-110669000D01*
X166780931Y-110716307D01*
X166556903Y-110809102D01*
X166355283Y-110943820D01*
X166183820Y-111115283D01*
X166049102Y-111316903D01*
X165956307Y-111540931D01*
X165909000Y-111778757D01*
X165832843Y-111778757D01*
X165832843Y-111050000D01*
X165825487Y-110975311D01*
X165803701Y-110903492D01*
X165768322Y-110837304D01*
X165720711Y-110779289D01*
X165662696Y-110731678D01*
X165596508Y-110696299D01*
X165524689Y-110674513D01*
X165450000Y-110667157D01*
X163750000Y-110667157D01*
X163675311Y-110674513D01*
X163603492Y-110696299D01*
X163537304Y-110731678D01*
X163479289Y-110779289D01*
X163431678Y-110837304D01*
X163396299Y-110903492D01*
X163374513Y-110975311D01*
X163367157Y-111050000D01*
X162096171Y-111050000D01*
X164670341Y-108432927D01*
X174219000Y-108432927D01*
X174219000Y-108567073D01*
X174245171Y-108698640D01*
X174296506Y-108822574D01*
X174371033Y-108934112D01*
X174465888Y-109028967D01*
X174577426Y-109103494D01*
X174701360Y-109154829D01*
X174832927Y-109181000D01*
X174967073Y-109181000D01*
X175098640Y-109154829D01*
X175222574Y-109103494D01*
X175334112Y-109028967D01*
X175428967Y-108934112D01*
X175503494Y-108822574D01*
X175554829Y-108698640D01*
X175581000Y-108567073D01*
X175581000Y-108432927D01*
X175554829Y-108301360D01*
X175503494Y-108177426D01*
X175428967Y-108065888D01*
X175334112Y-107971033D01*
X175222574Y-107896506D01*
X175098640Y-107845171D01*
X174967073Y-107819000D01*
X174832927Y-107819000D01*
X174701360Y-107845171D01*
X174577426Y-107896506D01*
X174465888Y-107971033D01*
X174371033Y-108065888D01*
X174296506Y-108177426D01*
X174245171Y-108301360D01*
X174219000Y-108432927D01*
X164670341Y-108432927D01*
X166053221Y-107027000D01*
X175500000Y-107027000D01*
X175524776Y-107024560D01*
X175548601Y-107017333D01*
X175570557Y-107005597D01*
X175589803Y-106989803D01*
X175605597Y-106970557D01*
X175617333Y-106948601D01*
X175624560Y-106924776D01*
X175627000Y-106900000D01*
X175627000Y-103165825D01*
X175654829Y-103098640D01*
X175681000Y-102967073D01*
X175681000Y-102832927D01*
X175654829Y-102701360D01*
X175627000Y-102634175D01*
X175627000Y-101165825D01*
X175654829Y-101098640D01*
X175681000Y-100967073D01*
X175681000Y-100832927D01*
X175654829Y-100701360D01*
X175627000Y-100634175D01*
X175627000Y-96052606D01*
X182189803Y-89489803D01*
X182205597Y-89470557D01*
X182217333Y-89448601D01*
X182224560Y-89424776D01*
X182227000Y-89400000D01*
X182227000Y-74027000D01*
X195873000Y-74027000D01*
X195873000Y-87233832D01*
G04 #@! TA.AperFunction,Conductor*
D21*
G36*
X195873000Y-87233832D02*
G01*
X189698475Y-83374754D01*
X189798640Y-83354829D01*
X189922574Y-83303494D01*
X190034112Y-83228967D01*
X190128967Y-83134112D01*
X190203494Y-83022574D01*
X190254829Y-82898640D01*
X190281000Y-82767073D01*
X190281000Y-82632927D01*
X190254829Y-82501360D01*
X190203494Y-82377426D01*
X190128967Y-82265888D01*
X190063079Y-82200000D01*
X190128967Y-82134112D01*
X190203494Y-82022574D01*
X190254829Y-81898640D01*
X190281000Y-81767073D01*
X190281000Y-81632927D01*
X190254829Y-81501360D01*
X190203494Y-81377426D01*
X190128967Y-81265888D01*
X190063079Y-81200000D01*
X190128967Y-81134112D01*
X190203494Y-81022574D01*
X190254829Y-80898640D01*
X190281000Y-80767073D01*
X190281000Y-80632927D01*
X190254829Y-80501360D01*
X190203494Y-80377426D01*
X190128967Y-80265888D01*
X190063079Y-80200000D01*
X190128967Y-80134112D01*
X190203494Y-80022574D01*
X190254829Y-79898640D01*
X190281000Y-79767073D01*
X190281000Y-79632927D01*
X190254829Y-79501360D01*
X190203494Y-79377426D01*
X190128967Y-79265888D01*
X190063071Y-79199992D01*
X190128951Y-79134112D01*
X190203478Y-79022574D01*
X190254813Y-78898640D01*
X190280984Y-78767073D01*
X190280984Y-78632927D01*
X190254813Y-78501360D01*
X190203478Y-78377426D01*
X190128951Y-78265888D01*
X190034096Y-78171033D01*
X189922558Y-78096506D01*
X189798624Y-78045171D01*
X189667057Y-78019000D01*
X189532911Y-78019000D01*
X189401344Y-78045171D01*
X189277410Y-78096506D01*
X189165872Y-78171033D01*
X189071017Y-78265888D01*
X188996490Y-78377426D01*
X188945155Y-78501360D01*
X188918984Y-78632927D01*
X188918984Y-78767073D01*
X188945155Y-78898640D01*
X188996490Y-79022574D01*
X189071017Y-79134112D01*
X189136913Y-79200008D01*
X189071033Y-79265888D01*
X188996506Y-79377426D01*
X188945171Y-79501360D01*
X188919000Y-79632927D01*
X188919000Y-79767073D01*
X188945171Y-79898640D01*
X188996506Y-80022574D01*
X189071033Y-80134112D01*
X189136921Y-80200000D01*
X189071033Y-80265888D01*
X188996506Y-80377426D01*
X188945171Y-80501360D01*
X188919000Y-80632927D01*
X188919000Y-80767073D01*
X188945171Y-80898640D01*
X188996506Y-81022574D01*
X189071033Y-81134112D01*
X189136921Y-81200000D01*
X189071033Y-81265888D01*
X188996506Y-81377426D01*
X188945171Y-81501360D01*
X188919000Y-81632927D01*
X188919000Y-81767073D01*
X188945171Y-81898640D01*
X188996506Y-82022574D01*
X189071033Y-82134112D01*
X189136921Y-82200000D01*
X189071033Y-82265888D01*
X188996506Y-82377426D01*
X188945171Y-82501360D01*
X188919000Y-82632927D01*
X188919000Y-82767073D01*
X188945171Y-82898640D01*
X188948133Y-82905790D01*
X188281000Y-82488832D01*
X188281000Y-80300000D01*
X188273679Y-80225671D01*
X188251998Y-80154198D01*
X188216790Y-80088328D01*
X188169408Y-80030592D01*
X188111672Y-79983210D01*
X188045802Y-79948002D01*
X187974329Y-79926321D01*
X187900000Y-79919000D01*
X185600000Y-79919000D01*
X185525671Y-79926321D01*
X185454198Y-79948002D01*
X185388328Y-79983210D01*
X185330592Y-80030592D01*
X185283210Y-80088328D01*
X185248002Y-80154198D01*
X185226321Y-80225671D01*
X185219000Y-80300000D01*
X185219000Y-84400000D01*
X185226399Y-84474720D01*
X185248155Y-84546171D01*
X185283432Y-84612004D01*
X185330874Y-84669689D01*
X185388659Y-84717011D01*
X192419000Y-89403905D01*
X192419000Y-109124184D01*
X189481038Y-109164430D01*
X189534112Y-109128967D01*
X189628967Y-109034112D01*
X189703494Y-108922574D01*
X189754829Y-108798640D01*
X189781000Y-108667073D01*
X189781000Y-108532927D01*
X189754829Y-108401360D01*
X189703494Y-108277426D01*
X189628967Y-108165888D01*
X189563079Y-108100000D01*
X189628967Y-108034112D01*
X189703494Y-107922574D01*
X189754829Y-107798640D01*
X189781000Y-107667073D01*
X189781000Y-107532927D01*
X189754829Y-107401360D01*
X189703494Y-107277426D01*
X189628967Y-107165888D01*
X189563079Y-107100000D01*
X189628967Y-107034112D01*
X189703494Y-106922574D01*
X189754829Y-106798640D01*
X189781000Y-106667073D01*
X189781000Y-106532927D01*
X189754829Y-106401360D01*
X189703494Y-106277426D01*
X189628967Y-106165888D01*
X189563079Y-106100000D01*
X189628967Y-106034112D01*
X189703494Y-105922574D01*
X189754829Y-105798640D01*
X189781000Y-105667073D01*
X189781000Y-105532927D01*
X189754829Y-105401360D01*
X189703494Y-105277426D01*
X189628967Y-105165888D01*
X189563079Y-105100000D01*
X189628967Y-105034112D01*
X189703494Y-104922574D01*
X189754829Y-104798640D01*
X189781000Y-104667073D01*
X189781000Y-104532927D01*
X189754829Y-104401360D01*
X189703494Y-104277426D01*
X189628967Y-104165888D01*
X189534112Y-104071033D01*
X189422574Y-103996506D01*
X189298640Y-103945171D01*
X189167073Y-103919000D01*
X189032927Y-103919000D01*
X188901360Y-103945171D01*
X188777426Y-103996506D01*
X188665888Y-104071033D01*
X188571033Y-104165888D01*
X188496506Y-104277426D01*
X188445171Y-104401360D01*
X188419000Y-104532927D01*
X188419000Y-104667073D01*
X188445171Y-104798640D01*
X188496506Y-104922574D01*
X188571033Y-105034112D01*
X188636921Y-105100000D01*
X188571033Y-105165888D01*
X188496506Y-105277426D01*
X188445171Y-105401360D01*
X188419000Y-105532927D01*
X188419000Y-105667073D01*
X188445171Y-105798640D01*
X188496506Y-105922574D01*
X188571033Y-106034112D01*
X188636921Y-106100000D01*
X188571033Y-106165888D01*
X188496506Y-106277426D01*
X188445171Y-106401360D01*
X188419000Y-106532927D01*
X188419000Y-106667073D01*
X188445171Y-106798640D01*
X188496506Y-106922574D01*
X188571033Y-107034112D01*
X188636921Y-107100000D01*
X188571033Y-107165888D01*
X188496506Y-107277426D01*
X188445171Y-107401360D01*
X188419000Y-107532927D01*
X188419000Y-107667073D01*
X188445171Y-107798640D01*
X188496506Y-107922574D01*
X188571033Y-108034112D01*
X188636921Y-108100000D01*
X188571033Y-108165888D01*
X188496506Y-108277426D01*
X188445171Y-108401360D01*
X188419000Y-108532927D01*
X188419000Y-108667073D01*
X188445171Y-108798640D01*
X188496506Y-108922574D01*
X188571033Y-109034112D01*
X188665888Y-109128967D01*
X188734272Y-109174660D01*
X185494781Y-109219036D01*
X185437364Y-109224184D01*
X185365249Y-109243625D01*
X185298313Y-109276761D01*
X185239128Y-109322319D01*
X185189968Y-109378548D01*
X182803931Y-112719000D01*
X179519816Y-112719000D01*
X185669408Y-106569408D01*
X185716790Y-106511672D01*
X185751998Y-106445802D01*
X185773679Y-106374329D01*
X185781000Y-106300000D01*
X185781000Y-95400000D01*
X185773679Y-95325671D01*
X185751998Y-95254198D01*
X185716790Y-95188328D01*
X185669408Y-95130592D01*
X185611672Y-95083210D01*
X185545802Y-95048002D01*
X185474329Y-95026321D01*
X185400000Y-95019000D01*
X182100000Y-95019000D01*
X182025671Y-95026321D01*
X181954198Y-95048002D01*
X181888328Y-95083210D01*
X181830592Y-95130592D01*
X181783210Y-95188328D01*
X181748002Y-95254198D01*
X181726321Y-95325671D01*
X181719000Y-95400000D01*
X181719000Y-105042184D01*
X174342184Y-112419000D01*
X173400000Y-112419000D01*
X173334787Y-112425423D01*
X173403693Y-112259069D01*
X173451000Y-112021243D01*
X173451000Y-111778757D01*
X173403693Y-111540931D01*
X173310898Y-111316903D01*
X173176180Y-111115283D01*
X173004717Y-110943820D01*
X172803097Y-110809102D01*
X172579069Y-110716307D01*
X172341243Y-110669000D01*
X172098757Y-110669000D01*
X171860931Y-110716307D01*
X171636903Y-110809102D01*
X171435283Y-110943820D01*
X171263820Y-111115283D01*
X171129102Y-111316903D01*
X171036307Y-111540931D01*
X170989000Y-111778757D01*
X170989000Y-112021243D01*
X171036307Y-112259069D01*
X171129102Y-112483097D01*
X171263820Y-112684717D01*
X171435283Y-112856180D01*
X171636903Y-112990898D01*
X171835116Y-113073000D01*
X171600000Y-113073000D01*
X171575224Y-113075440D01*
X171551399Y-113082667D01*
X171529443Y-113094403D01*
X171510197Y-113110197D01*
X156255394Y-128365000D01*
X154700000Y-128365000D01*
X154576118Y-128377201D01*
X154456996Y-128413336D01*
X154347213Y-128472017D01*
X154250987Y-128550987D01*
X154172017Y-128647213D01*
X154113336Y-128756996D01*
X154077201Y-128876118D01*
X154065000Y-129000000D01*
X154065000Y-130555394D01*
X150135000Y-134485394D01*
X150135000Y-128600000D01*
X150122799Y-128476118D01*
X150086664Y-128356996D01*
X150027983Y-128247213D01*
X149949013Y-128150987D01*
X149852787Y-128072017D01*
X149743004Y-128013336D01*
X149623882Y-127977201D01*
X149500000Y-127965000D01*
X136800000Y-127965000D01*
X136676118Y-127977201D01*
X136556996Y-128013336D01*
X136447213Y-128072017D01*
X136350987Y-128150987D01*
X133950987Y-130550987D01*
X133872017Y-130647213D01*
X133813336Y-130756996D01*
X133777201Y-130876118D01*
X133765000Y-131000000D01*
X133765000Y-135873000D01*
X130571025Y-135873000D01*
X130127000Y-135428975D01*
X130127000Y-127852606D01*
X136852606Y-121127000D01*
X152000000Y-121127000D01*
X152024776Y-121124560D01*
X152048601Y-121117333D01*
X152070557Y-121105597D01*
X152089803Y-121089803D01*
X160089803Y-113089803D01*
X160090542Y-113089057D01*
X162096171Y-111050000D01*
X163367157Y-111050000D01*
X163367157Y-112750000D01*
X163374513Y-112824689D01*
X163396299Y-112896508D01*
X163431678Y-112962696D01*
X163479289Y-113020711D01*
X163537304Y-113068322D01*
X163603492Y-113103701D01*
X163675311Y-113125487D01*
X163750000Y-113132843D01*
X165450000Y-113132843D01*
X165524689Y-113125487D01*
X165596508Y-113103701D01*
X165662696Y-113068322D01*
X165720711Y-113020711D01*
X165768322Y-112962696D01*
X165803701Y-112896508D01*
X165825487Y-112824689D01*
X165832843Y-112750000D01*
X165832843Y-111778757D01*
X165909000Y-111778757D01*
X165909000Y-112021243D01*
X165956307Y-112259069D01*
X166049102Y-112483097D01*
X166183820Y-112684717D01*
X166355283Y-112856180D01*
X166556903Y-112990898D01*
X166780931Y-113083693D01*
X167018757Y-113131000D01*
X167261243Y-113131000D01*
X167499069Y-113083693D01*
X167723097Y-112990898D01*
X167924717Y-112856180D01*
X168096180Y-112684717D01*
X168230898Y-112483097D01*
X168323693Y-112259069D01*
X168371000Y-112021243D01*
X168371000Y-111778757D01*
X168449000Y-111778757D01*
X168449000Y-112021243D01*
X168496307Y-112259069D01*
X168589102Y-112483097D01*
X168723820Y-112684717D01*
X168895283Y-112856180D01*
X169096903Y-112990898D01*
X169320931Y-113083693D01*
X169558757Y-113131000D01*
X169801243Y-113131000D01*
X170039069Y-113083693D01*
X170263097Y-112990898D01*
X170464717Y-112856180D01*
X170636180Y-112684717D01*
X170770898Y-112483097D01*
X170863693Y-112259069D01*
X170911000Y-112021243D01*
X170911000Y-111778757D01*
X170863693Y-111540931D01*
X170770898Y-111316903D01*
X170636180Y-111115283D01*
X170464717Y-110943820D01*
X170263097Y-110809102D01*
X170039069Y-110716307D01*
X169801243Y-110669000D01*
X169558757Y-110669000D01*
X169320931Y-110716307D01*
X169096903Y-110809102D01*
X168895283Y-110943820D01*
X168723820Y-111115283D01*
X168589102Y-111316903D01*
X168496307Y-111540931D01*
X168449000Y-111778757D01*
X168371000Y-111778757D01*
X168323693Y-111540931D01*
X168230898Y-111316903D01*
X168096180Y-111115283D01*
X167924717Y-110943820D01*
X167723097Y-110809102D01*
X167499069Y-110716307D01*
X167261243Y-110669000D01*
X167018757Y-110669000D01*
X166780931Y-110716307D01*
X166556903Y-110809102D01*
X166355283Y-110943820D01*
X166183820Y-111115283D01*
X166049102Y-111316903D01*
X165956307Y-111540931D01*
X165909000Y-111778757D01*
X165832843Y-111778757D01*
X165832843Y-111050000D01*
X165825487Y-110975311D01*
X165803701Y-110903492D01*
X165768322Y-110837304D01*
X165720711Y-110779289D01*
X165662696Y-110731678D01*
X165596508Y-110696299D01*
X165524689Y-110674513D01*
X165450000Y-110667157D01*
X163750000Y-110667157D01*
X163675311Y-110674513D01*
X163603492Y-110696299D01*
X163537304Y-110731678D01*
X163479289Y-110779289D01*
X163431678Y-110837304D01*
X163396299Y-110903492D01*
X163374513Y-110975311D01*
X163367157Y-111050000D01*
X162096171Y-111050000D01*
X164670341Y-108432927D01*
X174219000Y-108432927D01*
X174219000Y-108567073D01*
X174245171Y-108698640D01*
X174296506Y-108822574D01*
X174371033Y-108934112D01*
X174465888Y-109028967D01*
X174577426Y-109103494D01*
X174701360Y-109154829D01*
X174832927Y-109181000D01*
X174967073Y-109181000D01*
X175098640Y-109154829D01*
X175222574Y-109103494D01*
X175334112Y-109028967D01*
X175428967Y-108934112D01*
X175503494Y-108822574D01*
X175554829Y-108698640D01*
X175581000Y-108567073D01*
X175581000Y-108432927D01*
X175554829Y-108301360D01*
X175503494Y-108177426D01*
X175428967Y-108065888D01*
X175334112Y-107971033D01*
X175222574Y-107896506D01*
X175098640Y-107845171D01*
X174967073Y-107819000D01*
X174832927Y-107819000D01*
X174701360Y-107845171D01*
X174577426Y-107896506D01*
X174465888Y-107971033D01*
X174371033Y-108065888D01*
X174296506Y-108177426D01*
X174245171Y-108301360D01*
X174219000Y-108432927D01*
X164670341Y-108432927D01*
X166053221Y-107027000D01*
X175500000Y-107027000D01*
X175524776Y-107024560D01*
X175548601Y-107017333D01*
X175570557Y-107005597D01*
X175589803Y-106989803D01*
X175605597Y-106970557D01*
X175617333Y-106948601D01*
X175624560Y-106924776D01*
X175627000Y-106900000D01*
X175627000Y-103165825D01*
X175654829Y-103098640D01*
X175681000Y-102967073D01*
X175681000Y-102832927D01*
X175654829Y-102701360D01*
X175627000Y-102634175D01*
X175627000Y-101165825D01*
X175654829Y-101098640D01*
X175681000Y-100967073D01*
X175681000Y-100832927D01*
X175654829Y-100701360D01*
X175627000Y-100634175D01*
X175627000Y-96052606D01*
X182189803Y-89489803D01*
X182205597Y-89470557D01*
X182217333Y-89448601D01*
X182224560Y-89424776D01*
X182227000Y-89400000D01*
X182227000Y-74027000D01*
X195873000Y-74027000D01*
X195873000Y-87233832D01*
G37*
G04 #@! TD.AperFunction*
D20*
X149373000Y-134873000D02*
X142000000Y-134873000D01*
X141975224Y-134875440D01*
X141951399Y-134882667D01*
X141929443Y-134894403D01*
X141910197Y-134910197D01*
X139947394Y-136873000D01*
X134527000Y-136873000D01*
X134527000Y-131052606D01*
X136852606Y-128727000D01*
X149373000Y-128727000D01*
X149373000Y-134873000D01*
G04 #@! TA.AperFunction,Conductor*
D21*
G36*
X149373000Y-134873000D02*
G01*
X142000000Y-134873000D01*
X141975224Y-134875440D01*
X141951399Y-134882667D01*
X141929443Y-134894403D01*
X141910197Y-134910197D01*
X139947394Y-136873000D01*
X134527000Y-136873000D01*
X134527000Y-131052606D01*
X136852606Y-128727000D01*
X149373000Y-128727000D01*
X149373000Y-134873000D01*
G37*
G04 #@! TD.AperFunction*
D20*
X193879330Y-60782445D02*
X193838912Y-60809452D01*
X193478724Y-61299119D01*
X196000000Y-63820395D01*
X196014143Y-63806253D01*
X196193748Y-63985858D01*
X196179605Y-64000000D01*
X198700881Y-66521276D01*
X199190548Y-66161088D01*
X199340000Y-65885675D01*
X199340001Y-134111928D01*
X199217555Y-133879330D01*
X199190548Y-133838912D01*
X198700881Y-133478724D01*
X196179605Y-136000000D01*
X196193748Y-136014143D01*
X196014143Y-136193748D01*
X196000000Y-136179605D01*
X193478724Y-138700881D01*
X193838912Y-139190548D01*
X194114325Y-139340000D01*
X125888074Y-139340000D01*
X126120670Y-139217555D01*
X126161088Y-139190548D01*
X126521276Y-138700881D01*
X124000000Y-136179605D01*
X123985858Y-136193748D01*
X123806253Y-136014143D01*
X123820395Y-136000000D01*
X121299119Y-133478724D01*
X120809452Y-133838912D01*
X120660000Y-134114325D01*
X120660000Y-133299119D01*
X121478724Y-133299119D01*
X124000000Y-135820395D01*
X124014143Y-135806253D01*
X124193748Y-135985858D01*
X124179605Y-136000000D01*
X126700881Y-138521276D01*
X127190548Y-138161088D01*
X127550849Y-137497118D01*
X127774694Y-136775615D01*
X127853480Y-136024305D01*
X127784178Y-135272062D01*
X127771262Y-135228498D01*
X129740506Y-137197742D01*
X129768341Y-137231659D01*
X129903709Y-137342753D01*
X130058149Y-137425303D01*
X130093888Y-137436144D01*
X130225725Y-137476136D01*
X130244073Y-137477943D01*
X130356333Y-137489000D01*
X130356339Y-137489000D01*
X130399999Y-137493300D01*
X130443659Y-137489000D01*
X133999712Y-137489000D01*
X134047213Y-137527983D01*
X134156996Y-137586664D01*
X134276118Y-137622799D01*
X134400000Y-137635000D01*
X140000000Y-137635000D01*
X140123882Y-137622799D01*
X140243004Y-137586664D01*
X140352787Y-137527983D01*
X140449013Y-137449013D01*
X141263026Y-136635000D01*
X148800000Y-136635000D01*
X148923882Y-136622799D01*
X149043004Y-136586664D01*
X149152787Y-136527983D01*
X149249013Y-136449013D01*
X149890115Y-135807911D01*
X184965000Y-135807911D01*
X184965000Y-135992089D01*
X185000932Y-136172729D01*
X185012228Y-136200000D01*
X185000932Y-136227271D01*
X184965000Y-136407911D01*
X184965000Y-136592089D01*
X185000932Y-136772729D01*
X185071414Y-136942889D01*
X185173738Y-137096028D01*
X185303972Y-137226262D01*
X185457111Y-137328586D01*
X185627271Y-137399068D01*
X185807911Y-137435000D01*
X185992089Y-137435000D01*
X186172729Y-137399068D01*
X186342889Y-137328586D01*
X186496028Y-137226262D01*
X186626262Y-137096028D01*
X186728586Y-136942889D01*
X186799068Y-136772729D01*
X186835000Y-136592089D01*
X186835000Y-136407911D01*
X186799068Y-136227271D01*
X186787772Y-136200000D01*
X186799068Y-136172729D01*
X186835000Y-135992089D01*
X186835000Y-135975695D01*
X192146520Y-135975695D01*
X192215822Y-136727938D01*
X192430548Y-137452208D01*
X192782445Y-138120670D01*
X192809452Y-138161088D01*
X193299119Y-138521276D01*
X195820395Y-136000000D01*
X193299119Y-133478724D01*
X192809452Y-133838912D01*
X192449151Y-134502882D01*
X192225306Y-135224385D01*
X192146520Y-135975695D01*
X186835000Y-135975695D01*
X186835000Y-135807911D01*
X186799068Y-135627271D01*
X186728586Y-135457111D01*
X186626262Y-135303972D01*
X186496028Y-135173738D01*
X186342889Y-135071414D01*
X186172729Y-135000932D01*
X185992089Y-134965000D01*
X185807911Y-134965000D01*
X185627271Y-135000932D01*
X185457111Y-135071414D01*
X185303972Y-135173738D01*
X185173738Y-135303972D01*
X185071414Y-135457111D01*
X185000932Y-135627271D01*
X184965000Y-135807911D01*
X149890115Y-135807911D01*
X154065000Y-131633026D01*
X154065000Y-132300000D01*
X154077201Y-132423882D01*
X154113336Y-132543004D01*
X154172017Y-132652787D01*
X154250987Y-132749013D01*
X154347213Y-132827983D01*
X154456996Y-132886664D01*
X154576118Y-132922799D01*
X154700000Y-132935000D01*
X166965000Y-132935000D01*
X166965000Y-133092089D01*
X167000932Y-133272729D01*
X167071414Y-133442889D01*
X167173738Y-133596028D01*
X167303972Y-133726262D01*
X167457111Y-133828586D01*
X167627271Y-133899068D01*
X167807911Y-133935000D01*
X167992089Y-133935000D01*
X168172729Y-133899068D01*
X168342889Y-133828586D01*
X168496028Y-133726262D01*
X168626262Y-133596028D01*
X168728586Y-133442889D01*
X168788136Y-133299119D01*
X193478724Y-133299119D01*
X196000000Y-135820395D01*
X198521276Y-133299119D01*
X198161088Y-132809452D01*
X197497118Y-132449151D01*
X196775615Y-132225306D01*
X196024305Y-132146520D01*
X195272062Y-132215822D01*
X194547792Y-132430548D01*
X193879330Y-132782445D01*
X193838912Y-132809452D01*
X193478724Y-133299119D01*
X168788136Y-133299119D01*
X168799068Y-133272729D01*
X168835000Y-133092089D01*
X168835000Y-132935000D01*
X191500000Y-132935000D01*
X191623882Y-132922799D01*
X191743004Y-132886664D01*
X191852787Y-132827983D01*
X191949013Y-132749013D01*
X192027983Y-132652787D01*
X192086664Y-132543004D01*
X192122799Y-132423882D01*
X192135000Y-132300000D01*
X192135000Y-124699213D01*
X194179496Y-124699213D01*
X194179496Y-124883391D01*
X194215428Y-125064031D01*
X194285910Y-125234191D01*
X194388234Y-125387330D01*
X194518468Y-125517564D01*
X194671607Y-125619888D01*
X194841767Y-125690370D01*
X195022407Y-125726302D01*
X195206585Y-125726302D01*
X195387225Y-125690370D01*
X195557385Y-125619888D01*
X195710524Y-125517564D01*
X195840758Y-125387330D01*
X195943082Y-125234191D01*
X196013564Y-125064031D01*
X196049496Y-124883391D01*
X196049496Y-124699213D01*
X196017636Y-124539046D01*
X196042889Y-124528586D01*
X196196028Y-124426262D01*
X196326262Y-124296028D01*
X196428586Y-124142889D01*
X196499068Y-123972729D01*
X196535000Y-123792089D01*
X196535000Y-123607911D01*
X196499068Y-123427271D01*
X196428586Y-123257111D01*
X196326262Y-123103972D01*
X196196028Y-122973738D01*
X196042889Y-122871414D01*
X195872729Y-122800932D01*
X195692089Y-122765000D01*
X195507911Y-122765000D01*
X195327271Y-122800932D01*
X195157111Y-122871414D01*
X195003972Y-122973738D01*
X194873738Y-123103972D01*
X194771414Y-123257111D01*
X194700932Y-123427271D01*
X194665000Y-123607911D01*
X194665000Y-123792089D01*
X194696860Y-123952256D01*
X194671607Y-123962716D01*
X194518468Y-124065040D01*
X194388234Y-124195274D01*
X194285910Y-124348413D01*
X194215428Y-124518573D01*
X194179496Y-124699213D01*
X192135000Y-124699213D01*
X192135000Y-118700000D01*
X192122799Y-118576118D01*
X192086664Y-118456996D01*
X192027983Y-118347213D01*
X191949013Y-118250987D01*
X191852787Y-118172017D01*
X191743004Y-118113336D01*
X191623882Y-118077201D01*
X191500000Y-118065000D01*
X189235000Y-118065000D01*
X189235000Y-116000000D01*
X189222799Y-115876118D01*
X189186664Y-115756996D01*
X189127983Y-115647213D01*
X189049013Y-115550987D01*
X188952787Y-115472017D01*
X188843004Y-115413336D01*
X188723882Y-115377201D01*
X188688072Y-115373674D01*
X188688072Y-113835000D01*
X196000000Y-113835000D01*
X196123882Y-113822799D01*
X196243004Y-113786664D01*
X196352787Y-113727983D01*
X196449013Y-113649013D01*
X196527983Y-113552787D01*
X196586664Y-113443004D01*
X196622799Y-113323882D01*
X196635000Y-113200000D01*
X196635000Y-111382214D01*
X197157101Y-110840776D01*
X197227983Y-110752787D01*
X197286664Y-110643004D01*
X197322799Y-110523882D01*
X197335000Y-110400000D01*
X197335000Y-88200000D01*
X197318738Y-88057214D01*
X197278993Y-87939248D01*
X197216998Y-87831302D01*
X197135135Y-87737525D01*
X197036549Y-87661521D01*
X196635000Y-87410553D01*
X196635000Y-73900000D01*
X196622799Y-73776118D01*
X196586664Y-73656996D01*
X196527983Y-73547213D01*
X196449013Y-73450987D01*
X196352787Y-73372017D01*
X196243004Y-73313336D01*
X196123882Y-73277201D01*
X196000000Y-73265000D01*
X182100000Y-73265000D01*
X181976118Y-73277201D01*
X181856996Y-73313336D01*
X181747213Y-73372017D01*
X181650987Y-73450987D01*
X181572017Y-73547213D01*
X181513336Y-73656996D01*
X181477201Y-73776118D01*
X181465000Y-73900000D01*
X181465000Y-78861942D01*
X181426266Y-78803972D01*
X181296032Y-78673738D01*
X181142893Y-78571414D01*
X180972733Y-78500932D01*
X180792093Y-78465000D01*
X180607915Y-78465000D01*
X180427275Y-78500932D01*
X180257115Y-78571414D01*
X180103976Y-78673738D01*
X179973742Y-78803972D01*
X179871418Y-78957111D01*
X179800936Y-79127271D01*
X179765004Y-79307911D01*
X179765004Y-79492089D01*
X179800936Y-79672729D01*
X179871418Y-79842889D01*
X179973742Y-79996028D01*
X180103976Y-80126262D01*
X180257115Y-80228586D01*
X180427275Y-80299068D01*
X180607915Y-80335000D01*
X180792093Y-80335000D01*
X180972733Y-80299068D01*
X181142893Y-80228586D01*
X181296032Y-80126262D01*
X181426266Y-79996028D01*
X181465000Y-79938058D01*
X181465000Y-89136974D01*
X175050987Y-95550987D01*
X174972017Y-95647213D01*
X174913336Y-95756996D01*
X174877201Y-95876118D01*
X174865000Y-96000000D01*
X174865000Y-104865000D01*
X174807911Y-104865000D01*
X174627271Y-104900932D01*
X174457111Y-104971414D01*
X174303972Y-105073738D01*
X174173738Y-105203972D01*
X174071414Y-105357111D01*
X174000932Y-105527271D01*
X173965000Y-105707911D01*
X173965000Y-105892089D01*
X174000932Y-106072729D01*
X174071414Y-106242889D01*
X174086188Y-106265000D01*
X166000000Y-106265000D01*
X165870975Y-106278246D01*
X165752156Y-106315365D01*
X165642862Y-106374950D01*
X165547292Y-106454713D01*
X159549152Y-112552822D01*
X151736974Y-120365000D01*
X136800000Y-120365000D01*
X136676118Y-120377201D01*
X136556996Y-120413336D01*
X136447213Y-120472017D01*
X136350987Y-120550987D01*
X129589000Y-127312974D01*
X129589000Y-112607911D01*
X142165000Y-112607911D01*
X142165000Y-112792089D01*
X142200932Y-112972729D01*
X142271414Y-113142889D01*
X142373738Y-113296028D01*
X142503972Y-113426262D01*
X142657111Y-113528586D01*
X142827271Y-113599068D01*
X143007911Y-113635000D01*
X143192089Y-113635000D01*
X143372729Y-113599068D01*
X143542889Y-113528586D01*
X143696028Y-113426262D01*
X143826262Y-113296028D01*
X143928586Y-113142889D01*
X143999068Y-112972729D01*
X144035000Y-112792089D01*
X144035000Y-112607911D01*
X144015109Y-112507911D01*
X151365000Y-112507911D01*
X151365000Y-112692089D01*
X151400932Y-112872729D01*
X151471414Y-113042889D01*
X151573738Y-113196028D01*
X151703972Y-113326262D01*
X151857111Y-113428586D01*
X152027271Y-113499068D01*
X152207911Y-113535000D01*
X152392089Y-113535000D01*
X152572729Y-113499068D01*
X152742889Y-113428586D01*
X152896028Y-113326262D01*
X153026262Y-113196028D01*
X153128586Y-113042889D01*
X153199068Y-112872729D01*
X153235000Y-112692089D01*
X153235000Y-112507911D01*
X153199068Y-112327271D01*
X153128586Y-112157111D01*
X153026262Y-112003972D01*
X152896028Y-111873738D01*
X152742889Y-111771414D01*
X152572729Y-111700932D01*
X152392089Y-111665000D01*
X152207911Y-111665000D01*
X152027271Y-111700932D01*
X151857111Y-111771414D01*
X151703972Y-111873738D01*
X151573738Y-112003972D01*
X151471414Y-112157111D01*
X151400932Y-112327271D01*
X151365000Y-112507911D01*
X144015109Y-112507911D01*
X143999068Y-112427271D01*
X143928586Y-112257111D01*
X143826262Y-112103972D01*
X143696028Y-111973738D01*
X143542889Y-111871414D01*
X143372729Y-111800932D01*
X143192089Y-111765000D01*
X143007911Y-111765000D01*
X142827271Y-111800932D01*
X142657111Y-111871414D01*
X142503972Y-111973738D01*
X142373738Y-112103972D01*
X142271414Y-112257111D01*
X142200932Y-112427271D01*
X142165000Y-112607911D01*
X129589000Y-112607911D01*
X129589000Y-110707911D01*
X134265000Y-110707911D01*
X134265000Y-110892089D01*
X134300932Y-111072729D01*
X134371414Y-111242889D01*
X134473738Y-111396028D01*
X134603972Y-111526262D01*
X134757111Y-111628586D01*
X134927271Y-111699068D01*
X135107911Y-111735000D01*
X135292089Y-111735000D01*
X135472729Y-111699068D01*
X135642889Y-111628586D01*
X135796028Y-111526262D01*
X135926262Y-111396028D01*
X136028586Y-111242889D01*
X136099068Y-111072729D01*
X136135000Y-110892089D01*
X136135000Y-110707911D01*
X143465002Y-110707911D01*
X143465002Y-110892089D01*
X143500934Y-111072729D01*
X143571416Y-111242889D01*
X143673740Y-111396028D01*
X143803974Y-111526262D01*
X143957113Y-111628586D01*
X144127273Y-111699068D01*
X144307913Y-111735000D01*
X144492091Y-111735000D01*
X144672731Y-111699068D01*
X144842891Y-111628586D01*
X144996030Y-111526262D01*
X145126264Y-111396028D01*
X145228588Y-111242889D01*
X145299070Y-111072729D01*
X145335002Y-110892089D01*
X145335002Y-110707911D01*
X149465000Y-110707911D01*
X149465000Y-110892089D01*
X149500932Y-111072729D01*
X149571414Y-111242889D01*
X149673738Y-111396028D01*
X149803972Y-111526262D01*
X149957111Y-111628586D01*
X150127271Y-111699068D01*
X150307911Y-111735000D01*
X150492089Y-111735000D01*
X150672729Y-111699068D01*
X150842889Y-111628586D01*
X150996028Y-111526262D01*
X151126262Y-111396028D01*
X151228586Y-111242889D01*
X151299068Y-111072729D01*
X151335000Y-110892089D01*
X151335000Y-110707911D01*
X151299068Y-110527271D01*
X151228586Y-110357111D01*
X151126262Y-110203972D01*
X150996028Y-110073738D01*
X150842889Y-109971414D01*
X150672729Y-109900932D01*
X150492089Y-109865000D01*
X150307911Y-109865000D01*
X150127271Y-109900932D01*
X149957111Y-109971414D01*
X149803972Y-110073738D01*
X149673738Y-110203972D01*
X149571414Y-110357111D01*
X149500932Y-110527271D01*
X149465000Y-110707911D01*
X145335002Y-110707911D01*
X145299070Y-110527271D01*
X145228588Y-110357111D01*
X145126264Y-110203972D01*
X144996030Y-110073738D01*
X144842891Y-109971414D01*
X144672731Y-109900932D01*
X144492091Y-109865000D01*
X144307913Y-109865000D01*
X144127273Y-109900932D01*
X143957113Y-109971414D01*
X143803974Y-110073738D01*
X143673740Y-110203972D01*
X143571416Y-110357111D01*
X143500934Y-110527271D01*
X143465002Y-110707911D01*
X136135000Y-110707911D01*
X136099068Y-110527271D01*
X136028586Y-110357111D01*
X135926262Y-110203972D01*
X135796028Y-110073738D01*
X135642889Y-109971414D01*
X135472729Y-109900932D01*
X135292089Y-109865000D01*
X135107911Y-109865000D01*
X134927271Y-109900932D01*
X134757111Y-109971414D01*
X134603972Y-110073738D01*
X134473738Y-110203972D01*
X134371414Y-110357111D01*
X134300932Y-110527271D01*
X134265000Y-110707911D01*
X129589000Y-110707911D01*
X129589000Y-102207911D01*
X142165000Y-102207911D01*
X142165000Y-102392089D01*
X142200932Y-102572729D01*
X142271414Y-102742889D01*
X142373738Y-102896028D01*
X142503972Y-103026262D01*
X142657111Y-103128586D01*
X142827271Y-103199068D01*
X143007911Y-103235000D01*
X143192089Y-103235000D01*
X143372729Y-103199068D01*
X143542889Y-103128586D01*
X143696028Y-103026262D01*
X143826262Y-102896028D01*
X143928586Y-102742889D01*
X143999068Y-102572729D01*
X144035000Y-102392089D01*
X144035000Y-102207911D01*
X151365000Y-102207911D01*
X151365000Y-102392089D01*
X151400932Y-102572729D01*
X151471414Y-102742889D01*
X151573738Y-102896028D01*
X151703972Y-103026262D01*
X151857111Y-103128586D01*
X152027271Y-103199068D01*
X152207911Y-103235000D01*
X152392089Y-103235000D01*
X152572729Y-103199068D01*
X152742889Y-103128586D01*
X152896028Y-103026262D01*
X153026262Y-102896028D01*
X153128586Y-102742889D01*
X153199068Y-102572729D01*
X153235000Y-102392089D01*
X153235000Y-102207911D01*
X153199068Y-102027271D01*
X153128586Y-101857111D01*
X153026262Y-101703972D01*
X152896028Y-101573738D01*
X152742889Y-101471414D01*
X152572729Y-101400932D01*
X152392089Y-101365000D01*
X152207911Y-101365000D01*
X152027271Y-101400932D01*
X151857111Y-101471414D01*
X151703972Y-101573738D01*
X151573738Y-101703972D01*
X151471414Y-101857111D01*
X151400932Y-102027271D01*
X151365000Y-102207911D01*
X144035000Y-102207911D01*
X143999068Y-102027271D01*
X143928586Y-101857111D01*
X143826262Y-101703972D01*
X143696028Y-101573738D01*
X143542889Y-101471414D01*
X143372729Y-101400932D01*
X143192089Y-101365000D01*
X143007911Y-101365000D01*
X142827271Y-101400932D01*
X142657111Y-101471414D01*
X142503972Y-101573738D01*
X142373738Y-101703972D01*
X142271414Y-101857111D01*
X142200932Y-102027271D01*
X142165000Y-102207911D01*
X129589000Y-102207911D01*
X129589000Y-100307911D01*
X134265000Y-100307911D01*
X134265000Y-100492089D01*
X134300932Y-100672729D01*
X134371414Y-100842889D01*
X134473738Y-100996028D01*
X134603972Y-101126262D01*
X134757111Y-101228586D01*
X134927271Y-101299068D01*
X135107911Y-101335000D01*
X135292089Y-101335000D01*
X135472729Y-101299068D01*
X135642889Y-101228586D01*
X135796028Y-101126262D01*
X135926262Y-100996028D01*
X136028586Y-100842889D01*
X136099068Y-100672729D01*
X136135000Y-100492089D01*
X136135000Y-100307911D01*
X143465000Y-100307911D01*
X143465000Y-100492089D01*
X143500932Y-100672729D01*
X143571414Y-100842889D01*
X143673738Y-100996028D01*
X143803972Y-101126262D01*
X143957111Y-101228586D01*
X144127271Y-101299068D01*
X144307911Y-101335000D01*
X144492089Y-101335000D01*
X144672729Y-101299068D01*
X144842889Y-101228586D01*
X144996028Y-101126262D01*
X145126262Y-100996028D01*
X145228586Y-100842889D01*
X145299068Y-100672729D01*
X145335000Y-100492089D01*
X145335000Y-100307911D01*
X149465000Y-100307911D01*
X149465000Y-100492089D01*
X149500932Y-100672729D01*
X149571414Y-100842889D01*
X149673738Y-100996028D01*
X149803972Y-101126262D01*
X149957111Y-101228586D01*
X150127271Y-101299068D01*
X150307911Y-101335000D01*
X150492089Y-101335000D01*
X150672729Y-101299068D01*
X150842889Y-101228586D01*
X150996028Y-101126262D01*
X151126262Y-100996028D01*
X151228586Y-100842889D01*
X151299068Y-100672729D01*
X151335000Y-100492089D01*
X151335000Y-100307911D01*
X151299068Y-100127271D01*
X151228586Y-99957111D01*
X151126262Y-99803972D01*
X150996028Y-99673738D01*
X150842889Y-99571414D01*
X150672729Y-99500932D01*
X150492089Y-99465000D01*
X150307911Y-99465000D01*
X150127271Y-99500932D01*
X149957111Y-99571414D01*
X149803972Y-99673738D01*
X149673738Y-99803972D01*
X149571414Y-99957111D01*
X149500932Y-100127271D01*
X149465000Y-100307911D01*
X145335000Y-100307911D01*
X145299068Y-100127271D01*
X145228586Y-99957111D01*
X145126262Y-99803972D01*
X144996028Y-99673738D01*
X144842889Y-99571414D01*
X144672729Y-99500932D01*
X144492089Y-99465000D01*
X144307911Y-99465000D01*
X144127271Y-99500932D01*
X143957111Y-99571414D01*
X143803972Y-99673738D01*
X143673738Y-99803972D01*
X143571414Y-99957111D01*
X143500932Y-100127271D01*
X143465000Y-100307911D01*
X136135000Y-100307911D01*
X136099068Y-100127271D01*
X136028586Y-99957111D01*
X135926262Y-99803972D01*
X135796028Y-99673738D01*
X135642889Y-99571414D01*
X135472729Y-99500932D01*
X135292089Y-99465000D01*
X135107911Y-99465000D01*
X134927271Y-99500932D01*
X134757111Y-99571414D01*
X134603972Y-99673738D01*
X134473738Y-99803972D01*
X134371414Y-99957111D01*
X134300932Y-100127271D01*
X134265000Y-100307911D01*
X129589000Y-100307911D01*
X129589000Y-98568235D01*
X131187235Y-96970000D01*
X159071928Y-96970000D01*
X159071928Y-98670000D01*
X159084188Y-98794482D01*
X159120498Y-98914180D01*
X159179463Y-99024494D01*
X159258815Y-99121185D01*
X159355506Y-99200537D01*
X159465820Y-99259502D01*
X159538380Y-99281513D01*
X159406525Y-99413368D01*
X159244010Y-99656589D01*
X159132068Y-99926842D01*
X159075000Y-100213740D01*
X159075000Y-100506260D01*
X159132068Y-100793158D01*
X159244010Y-101063411D01*
X159406525Y-101306632D01*
X159613368Y-101513475D01*
X159787760Y-101630000D01*
X159613368Y-101746525D01*
X159406525Y-101953368D01*
X159244010Y-102196589D01*
X159132068Y-102466842D01*
X159075000Y-102753740D01*
X159075000Y-103046260D01*
X159132068Y-103333158D01*
X159244010Y-103603411D01*
X159406525Y-103846632D01*
X159613368Y-104053475D01*
X159787760Y-104170000D01*
X159613368Y-104286525D01*
X159406525Y-104493368D01*
X159244010Y-104736589D01*
X159132068Y-105006842D01*
X159075000Y-105293740D01*
X159075000Y-105586260D01*
X159132068Y-105873158D01*
X159244010Y-106143411D01*
X159406525Y-106386632D01*
X159613368Y-106593475D01*
X159856589Y-106755990D01*
X160126842Y-106867932D01*
X160413740Y-106925000D01*
X160706260Y-106925000D01*
X160993158Y-106867932D01*
X161263411Y-106755990D01*
X161506632Y-106593475D01*
X161713475Y-106386632D01*
X161830000Y-106212240D01*
X161946525Y-106386632D01*
X162153368Y-106593475D01*
X162396589Y-106755990D01*
X162666842Y-106867932D01*
X162953740Y-106925000D01*
X163246260Y-106925000D01*
X163533158Y-106867932D01*
X163803411Y-106755990D01*
X164046632Y-106593475D01*
X164253475Y-106386632D01*
X164415990Y-106143411D01*
X164527932Y-105873158D01*
X164585000Y-105586260D01*
X164585000Y-105293740D01*
X164527932Y-105006842D01*
X164415990Y-104736589D01*
X164253475Y-104493368D01*
X164046632Y-104286525D01*
X163872240Y-104170000D01*
X164046632Y-104053475D01*
X164253475Y-103846632D01*
X164415990Y-103603411D01*
X164527932Y-103333158D01*
X164585000Y-103046260D01*
X164585000Y-102753740D01*
X164527932Y-102466842D01*
X164415990Y-102196589D01*
X164253475Y-101953368D01*
X164046632Y-101746525D01*
X163872240Y-101630000D01*
X164046632Y-101513475D01*
X164253475Y-101306632D01*
X164415990Y-101063411D01*
X164527932Y-100793158D01*
X164585000Y-100506260D01*
X164585000Y-100213740D01*
X164527932Y-99926842D01*
X164415990Y-99656589D01*
X164253475Y-99413368D01*
X164046632Y-99206525D01*
X163872240Y-99090000D01*
X164046632Y-98973475D01*
X164253475Y-98766632D01*
X164415990Y-98523411D01*
X164527932Y-98253158D01*
X164585000Y-97966260D01*
X164585000Y-97673740D01*
X164527932Y-97386842D01*
X164415990Y-97116589D01*
X164253475Y-96873368D01*
X164046632Y-96666525D01*
X163803411Y-96504010D01*
X163533158Y-96392068D01*
X163246260Y-96335000D01*
X162953740Y-96335000D01*
X162666842Y-96392068D01*
X162396589Y-96504010D01*
X162153368Y-96666525D01*
X162021513Y-96798380D01*
X161999502Y-96725820D01*
X161940537Y-96615506D01*
X161861185Y-96518815D01*
X161764494Y-96439463D01*
X161654180Y-96380498D01*
X161534482Y-96344188D01*
X161410000Y-96331928D01*
X159710000Y-96331928D01*
X159585518Y-96344188D01*
X159465820Y-96380498D01*
X159355506Y-96439463D01*
X159258815Y-96518815D01*
X159179463Y-96615506D01*
X159120498Y-96725820D01*
X159084188Y-96845518D01*
X159071928Y-96970000D01*
X131187235Y-96970000D01*
X135168236Y-92989000D01*
X146256340Y-92989000D01*
X146300000Y-92993300D01*
X146343660Y-92989000D01*
X146343667Y-92989000D01*
X146474274Y-92976136D01*
X146641851Y-92925303D01*
X146796291Y-92842753D01*
X146931659Y-92731659D01*
X146959499Y-92697736D01*
X149297743Y-90359493D01*
X149331659Y-90331659D01*
X149442753Y-90196291D01*
X149489993Y-90107911D01*
X159265000Y-90107911D01*
X159265000Y-90292089D01*
X159300932Y-90472729D01*
X159371414Y-90642889D01*
X159473738Y-90796028D01*
X159603972Y-90926262D01*
X159757111Y-91028586D01*
X159927271Y-91099068D01*
X160107911Y-91135000D01*
X160292089Y-91135000D01*
X160472729Y-91099068D01*
X160642889Y-91028586D01*
X160796028Y-90926262D01*
X160926262Y-90796028D01*
X161028586Y-90642889D01*
X161099068Y-90472729D01*
X161135000Y-90292089D01*
X161135000Y-90107911D01*
X166465000Y-90107911D01*
X166465000Y-90292089D01*
X166500932Y-90472729D01*
X166571414Y-90642889D01*
X166673738Y-90796028D01*
X166803972Y-90926262D01*
X166957111Y-91028586D01*
X167127271Y-91099068D01*
X167307911Y-91135000D01*
X167492089Y-91135000D01*
X167672729Y-91099068D01*
X167842889Y-91028586D01*
X167996028Y-90926262D01*
X168126262Y-90796028D01*
X168228586Y-90642889D01*
X168299068Y-90472729D01*
X168335000Y-90292089D01*
X168335000Y-90107911D01*
X168299068Y-89927271D01*
X168228586Y-89757111D01*
X168126262Y-89603972D01*
X167996028Y-89473738D01*
X167842889Y-89371414D01*
X167672729Y-89300932D01*
X167492089Y-89265000D01*
X167307911Y-89265000D01*
X167127271Y-89300932D01*
X166957111Y-89371414D01*
X166803972Y-89473738D01*
X166673738Y-89603972D01*
X166571414Y-89757111D01*
X166500932Y-89927271D01*
X166465000Y-90107911D01*
X161135000Y-90107911D01*
X161099068Y-89927271D01*
X161028586Y-89757111D01*
X160926262Y-89603972D01*
X160796028Y-89473738D01*
X160642889Y-89371414D01*
X160472729Y-89300932D01*
X160292089Y-89265000D01*
X160107911Y-89265000D01*
X159927271Y-89300932D01*
X159757111Y-89371414D01*
X159603972Y-89473738D01*
X159473738Y-89603972D01*
X159371414Y-89757111D01*
X159300932Y-89927271D01*
X159265000Y-90107911D01*
X149489993Y-90107911D01*
X149525303Y-90041851D01*
X149576136Y-89874274D01*
X149589000Y-89743667D01*
X149589000Y-89743666D01*
X149593301Y-89700000D01*
X149589000Y-89656332D01*
X149589000Y-89126234D01*
X149623882Y-89122799D01*
X149743004Y-89086664D01*
X149852787Y-89027983D01*
X149949013Y-88949013D01*
X150027983Y-88852787D01*
X150086664Y-88743004D01*
X150122799Y-88623882D01*
X150135000Y-88500000D01*
X150135000Y-86507899D01*
X159265012Y-86507899D01*
X159265012Y-86692077D01*
X159300944Y-86872717D01*
X159371426Y-87042877D01*
X159473750Y-87196016D01*
X159603984Y-87326250D01*
X159757123Y-87428574D01*
X159927283Y-87499056D01*
X160107923Y-87534988D01*
X160292101Y-87534988D01*
X160472741Y-87499056D01*
X160642901Y-87428574D01*
X160796040Y-87326250D01*
X160926274Y-87196016D01*
X161028598Y-87042877D01*
X161099080Y-86872717D01*
X161135012Y-86692077D01*
X161135012Y-86507911D01*
X173665000Y-86507911D01*
X173665000Y-86692089D01*
X173700932Y-86872729D01*
X173771414Y-87042889D01*
X173873738Y-87196028D01*
X174003972Y-87326262D01*
X174157111Y-87428586D01*
X174327271Y-87499068D01*
X174507911Y-87535000D01*
X174692089Y-87535000D01*
X174872729Y-87499068D01*
X175042889Y-87428586D01*
X175196028Y-87326262D01*
X175326262Y-87196028D01*
X175428586Y-87042889D01*
X175499068Y-86872729D01*
X175535000Y-86692089D01*
X175535000Y-86507911D01*
X175499068Y-86327271D01*
X175428586Y-86157111D01*
X175326262Y-86003972D01*
X175196028Y-85873738D01*
X175042889Y-85771414D01*
X174872729Y-85700932D01*
X174692089Y-85665000D01*
X174507911Y-85665000D01*
X174327271Y-85700932D01*
X174157111Y-85771414D01*
X174003972Y-85873738D01*
X173873738Y-86003972D01*
X173771414Y-86157111D01*
X173700932Y-86327271D01*
X173665000Y-86507911D01*
X161135012Y-86507911D01*
X161135012Y-86507899D01*
X161099080Y-86327259D01*
X161028598Y-86157099D01*
X160926274Y-86003960D01*
X160796040Y-85873726D01*
X160642901Y-85771402D01*
X160472741Y-85700920D01*
X160292101Y-85664988D01*
X160107923Y-85664988D01*
X159927283Y-85700920D01*
X159757123Y-85771402D01*
X159603984Y-85873726D01*
X159473750Y-86003960D01*
X159371426Y-86157099D01*
X159300944Y-86327259D01*
X159265012Y-86507899D01*
X150135000Y-86507899D01*
X150135000Y-86300000D01*
X150122799Y-86176118D01*
X150086664Y-86056996D01*
X150027983Y-85947213D01*
X149949013Y-85850987D01*
X149852787Y-85772017D01*
X149743004Y-85713336D01*
X149623882Y-85677201D01*
X149500000Y-85665000D01*
X147100000Y-85665000D01*
X146976118Y-85677201D01*
X146856996Y-85713336D01*
X146747213Y-85772017D01*
X146650987Y-85850987D01*
X146572017Y-85947213D01*
X146513336Y-86056996D01*
X146477201Y-86176118D01*
X146465000Y-86300000D01*
X146465000Y-87566466D01*
X146427983Y-87497213D01*
X146349013Y-87400987D01*
X146252787Y-87322017D01*
X146143004Y-87263336D01*
X146023882Y-87227201D01*
X145900000Y-87215000D01*
X142000000Y-87215000D01*
X141876118Y-87227201D01*
X141756996Y-87263336D01*
X141647213Y-87322017D01*
X141550987Y-87400987D01*
X141472017Y-87497213D01*
X141413336Y-87606996D01*
X141377201Y-87726118D01*
X141365000Y-87850000D01*
X141365000Y-89311000D01*
X135143660Y-89311000D01*
X135100000Y-89306700D01*
X135056340Y-89311000D01*
X135056333Y-89311000D01*
X135045132Y-89312103D01*
X141802742Y-82554494D01*
X141836659Y-82526659D01*
X141947753Y-82391291D01*
X142030303Y-82236851D01*
X142071533Y-82100932D01*
X142081136Y-82069275D01*
X142086606Y-82013740D01*
X142094000Y-81938667D01*
X142094000Y-81938660D01*
X142098300Y-81895000D01*
X142094000Y-81851340D01*
X142094000Y-81450000D01*
X162911928Y-81450000D01*
X162911928Y-83150000D01*
X162924188Y-83274482D01*
X162960498Y-83394180D01*
X163019463Y-83504494D01*
X163098815Y-83601185D01*
X163195506Y-83680537D01*
X163305820Y-83739502D01*
X163425518Y-83775812D01*
X163550000Y-83788072D01*
X165250000Y-83788072D01*
X165374482Y-83775812D01*
X165494180Y-83739502D01*
X165604494Y-83680537D01*
X165701185Y-83601185D01*
X165780537Y-83504494D01*
X165839502Y-83394180D01*
X165861513Y-83321620D01*
X165993368Y-83453475D01*
X166236589Y-83615990D01*
X166506842Y-83727932D01*
X166793740Y-83785000D01*
X167086260Y-83785000D01*
X167373158Y-83727932D01*
X167643411Y-83615990D01*
X167886632Y-83453475D01*
X168093475Y-83246632D01*
X168210000Y-83072240D01*
X168326525Y-83246632D01*
X168533368Y-83453475D01*
X168776589Y-83615990D01*
X169046842Y-83727932D01*
X169333740Y-83785000D01*
X169626260Y-83785000D01*
X169913158Y-83727932D01*
X170183411Y-83615990D01*
X170426632Y-83453475D01*
X170633475Y-83246632D01*
X170750000Y-83072240D01*
X170866525Y-83246632D01*
X171073368Y-83453475D01*
X171316589Y-83615990D01*
X171586842Y-83727932D01*
X171873740Y-83785000D01*
X172166260Y-83785000D01*
X172453158Y-83727932D01*
X172723411Y-83615990D01*
X172966632Y-83453475D01*
X173173475Y-83246632D01*
X173335990Y-83003411D01*
X173447932Y-82733158D01*
X173505000Y-82446260D01*
X173505000Y-82153740D01*
X173447932Y-81866842D01*
X173335990Y-81596589D01*
X173173475Y-81353368D01*
X172966632Y-81146525D01*
X172792240Y-81030000D01*
X172966632Y-80913475D01*
X173173475Y-80706632D01*
X173335990Y-80463411D01*
X173447932Y-80193158D01*
X173505000Y-79906260D01*
X173505000Y-79613740D01*
X173447932Y-79326842D01*
X173335990Y-79056589D01*
X173236647Y-78907911D01*
X173665000Y-78907911D01*
X173665000Y-79092089D01*
X173700932Y-79272729D01*
X173732938Y-79350000D01*
X173700932Y-79427271D01*
X173665000Y-79607911D01*
X173665000Y-79792089D01*
X173700932Y-79972729D01*
X173771414Y-80142889D01*
X173873738Y-80296028D01*
X174003972Y-80426262D01*
X174157111Y-80528586D01*
X174327271Y-80599068D01*
X174507911Y-80635000D01*
X174692089Y-80635000D01*
X174872729Y-80599068D01*
X175042889Y-80528586D01*
X175196028Y-80426262D01*
X175326262Y-80296028D01*
X175428586Y-80142889D01*
X175499068Y-79972729D01*
X175535000Y-79792089D01*
X175535000Y-79607911D01*
X175499068Y-79427271D01*
X175467062Y-79350000D01*
X175499068Y-79272729D01*
X175535000Y-79092089D01*
X175535000Y-78907911D01*
X175499068Y-78727271D01*
X175428586Y-78557111D01*
X175326262Y-78403972D01*
X175196028Y-78273738D01*
X175042889Y-78171414D01*
X174872729Y-78100932D01*
X174692089Y-78065000D01*
X174507911Y-78065000D01*
X174327271Y-78100932D01*
X174157111Y-78171414D01*
X174003972Y-78273738D01*
X173873738Y-78403972D01*
X173771414Y-78557111D01*
X173700932Y-78727271D01*
X173665000Y-78907911D01*
X173236647Y-78907911D01*
X173173475Y-78813368D01*
X172966632Y-78606525D01*
X172723411Y-78444010D01*
X172453158Y-78332068D01*
X172166260Y-78275000D01*
X171873740Y-78275000D01*
X171586842Y-78332068D01*
X171316589Y-78444010D01*
X171073368Y-78606525D01*
X170866525Y-78813368D01*
X170750000Y-78987760D01*
X170633475Y-78813368D01*
X170426632Y-78606525D01*
X170183411Y-78444010D01*
X169913158Y-78332068D01*
X169626260Y-78275000D01*
X169333740Y-78275000D01*
X169046842Y-78332068D01*
X168776589Y-78444010D01*
X168533368Y-78606525D01*
X168326525Y-78813368D01*
X168210000Y-78987760D01*
X168093475Y-78813368D01*
X167886632Y-78606525D01*
X167643411Y-78444010D01*
X167373158Y-78332068D01*
X167086260Y-78275000D01*
X166793740Y-78275000D01*
X166506842Y-78332068D01*
X166236589Y-78444010D01*
X165993368Y-78606525D01*
X165786525Y-78813368D01*
X165670000Y-78987760D01*
X165553475Y-78813368D01*
X165346632Y-78606525D01*
X165103411Y-78444010D01*
X164833158Y-78332068D01*
X164546260Y-78275000D01*
X164253740Y-78275000D01*
X163966842Y-78332068D01*
X163696589Y-78444010D01*
X163453368Y-78606525D01*
X163246525Y-78813368D01*
X163084010Y-79056589D01*
X162972068Y-79326842D01*
X162915000Y-79613740D01*
X162915000Y-79906260D01*
X162972068Y-80193158D01*
X163084010Y-80463411D01*
X163246525Y-80706632D01*
X163378380Y-80838487D01*
X163305820Y-80860498D01*
X163195506Y-80919463D01*
X163098815Y-80998815D01*
X163019463Y-81095506D01*
X162960498Y-81205820D01*
X162924188Y-81325518D01*
X162911928Y-81450000D01*
X142094000Y-81450000D01*
X142094000Y-71407911D01*
X172565000Y-71407911D01*
X172565000Y-71592089D01*
X172600932Y-71772729D01*
X172671414Y-71942889D01*
X172709574Y-72000000D01*
X172671414Y-72057111D01*
X172600932Y-72227271D01*
X172565000Y-72407911D01*
X172565000Y-72592089D01*
X172600932Y-72772729D01*
X172671414Y-72942889D01*
X172773738Y-73096028D01*
X172903972Y-73226262D01*
X173057111Y-73328586D01*
X173227271Y-73399068D01*
X173407911Y-73435000D01*
X173592089Y-73435000D01*
X173772729Y-73399068D01*
X173942889Y-73328586D01*
X174096028Y-73226262D01*
X174226262Y-73096028D01*
X174328586Y-72942889D01*
X174399068Y-72772729D01*
X174435000Y-72592089D01*
X174435000Y-72407911D01*
X174399068Y-72227271D01*
X174328586Y-72057111D01*
X174290426Y-72000000D01*
X174328586Y-71942889D01*
X174399068Y-71772729D01*
X174435000Y-71592089D01*
X174435000Y-71407911D01*
X174399068Y-71227271D01*
X174393882Y-71214752D01*
X174472729Y-71199068D01*
X174642889Y-71128586D01*
X174796028Y-71026262D01*
X174926262Y-70896028D01*
X175028586Y-70742889D01*
X175084495Y-70607911D01*
X175765000Y-70607911D01*
X175765000Y-70792089D01*
X175800932Y-70972729D01*
X175871414Y-71142889D01*
X175973738Y-71296028D01*
X176103972Y-71426262D01*
X176257111Y-71528586D01*
X176427271Y-71599068D01*
X176607911Y-71635000D01*
X176792089Y-71635000D01*
X176972729Y-71599068D01*
X177142889Y-71528586D01*
X177296028Y-71426262D01*
X177426262Y-71296028D01*
X177528586Y-71142889D01*
X177599068Y-70972729D01*
X177635000Y-70792089D01*
X177635000Y-70748061D01*
X177665000Y-70748061D01*
X177665000Y-70951939D01*
X177704774Y-71151898D01*
X177782795Y-71340256D01*
X177896063Y-71509774D01*
X178040226Y-71653937D01*
X178209744Y-71767205D01*
X178398102Y-71845226D01*
X178598061Y-71885000D01*
X178801939Y-71885000D01*
X179001898Y-71845226D01*
X179190256Y-71767205D01*
X179359774Y-71653937D01*
X179503937Y-71509774D01*
X179617205Y-71340256D01*
X179695226Y-71151898D01*
X179703975Y-71107911D01*
X180265000Y-71107911D01*
X180265000Y-71292089D01*
X180300932Y-71472729D01*
X180371414Y-71642889D01*
X180473738Y-71796028D01*
X180603972Y-71926262D01*
X180757111Y-72028586D01*
X180927271Y-72099068D01*
X181107911Y-72135000D01*
X181292089Y-72135000D01*
X181472729Y-72099068D01*
X181642889Y-72028586D01*
X181796028Y-71926262D01*
X181926262Y-71796028D01*
X182028586Y-71642889D01*
X182099068Y-71472729D01*
X182135000Y-71292089D01*
X182135000Y-71107911D01*
X182099068Y-70927271D01*
X182028586Y-70757111D01*
X181926262Y-70603972D01*
X181796028Y-70473738D01*
X181642889Y-70371414D01*
X181472729Y-70300932D01*
X181292089Y-70265000D01*
X181107911Y-70265000D01*
X180927271Y-70300932D01*
X180757111Y-70371414D01*
X180603972Y-70473738D01*
X180473738Y-70603972D01*
X180371414Y-70757111D01*
X180300932Y-70927271D01*
X180265000Y-71107911D01*
X179703975Y-71107911D01*
X179735000Y-70951939D01*
X179735000Y-70748061D01*
X179695226Y-70548102D01*
X179617205Y-70359744D01*
X179503937Y-70190226D01*
X179359774Y-70046063D01*
X179190256Y-69932795D01*
X179001898Y-69854774D01*
X178801939Y-69815000D01*
X178598061Y-69815000D01*
X178398102Y-69854774D01*
X178209744Y-69932795D01*
X178040226Y-70046063D01*
X177896063Y-70190226D01*
X177782795Y-70359744D01*
X177704774Y-70548102D01*
X177665000Y-70748061D01*
X177635000Y-70748061D01*
X177635000Y-70607911D01*
X177599068Y-70427271D01*
X177528586Y-70257111D01*
X177426262Y-70103972D01*
X177296028Y-69973738D01*
X177142889Y-69871414D01*
X176972729Y-69800932D01*
X176792089Y-69765000D01*
X176607911Y-69765000D01*
X176427271Y-69800932D01*
X176257111Y-69871414D01*
X176103972Y-69973738D01*
X175973738Y-70103972D01*
X175871414Y-70257111D01*
X175800932Y-70427271D01*
X175765000Y-70607911D01*
X175084495Y-70607911D01*
X175099068Y-70572729D01*
X175135000Y-70392089D01*
X175135000Y-70207911D01*
X175099068Y-70027271D01*
X175028586Y-69857111D01*
X174957016Y-69749999D01*
X175028586Y-69642887D01*
X175099068Y-69472727D01*
X175135000Y-69292087D01*
X175135000Y-69107909D01*
X175099068Y-68927269D01*
X175028586Y-68757109D01*
X174926262Y-68603970D01*
X174796028Y-68473736D01*
X174642889Y-68371412D01*
X174472729Y-68300930D01*
X174292089Y-68264998D01*
X174107911Y-68264998D01*
X173927271Y-68300930D01*
X173757111Y-68371412D01*
X173603972Y-68473736D01*
X173473738Y-68603970D01*
X173371414Y-68757109D01*
X173300932Y-68927269D01*
X173265000Y-69107909D01*
X173265000Y-69292087D01*
X173300932Y-69472727D01*
X173371414Y-69642887D01*
X173442984Y-69749999D01*
X173371414Y-69857111D01*
X173300932Y-70027271D01*
X173265000Y-70207911D01*
X173265000Y-70392089D01*
X173300932Y-70572729D01*
X173306118Y-70585248D01*
X173227271Y-70600932D01*
X173057111Y-70671414D01*
X172903972Y-70773738D01*
X172773738Y-70903972D01*
X172671414Y-71057111D01*
X172600932Y-71227271D01*
X172565000Y-71407911D01*
X142094000Y-71407911D01*
X142094000Y-67898061D01*
X150465000Y-67898061D01*
X150465000Y-68101939D01*
X150504774Y-68301898D01*
X150582795Y-68490256D01*
X150696063Y-68659774D01*
X150840226Y-68803937D01*
X151009744Y-68917205D01*
X151198102Y-68995226D01*
X151398061Y-69035000D01*
X151601939Y-69035000D01*
X151801898Y-68995226D01*
X151990256Y-68917205D01*
X152159774Y-68803937D01*
X152303937Y-68659774D01*
X152417205Y-68490256D01*
X152495226Y-68301898D01*
X152525440Y-68150000D01*
X154511928Y-68150000D01*
X154511928Y-69850000D01*
X154524188Y-69974482D01*
X154560498Y-70094180D01*
X154619463Y-70204494D01*
X154698815Y-70301185D01*
X154795506Y-70380537D01*
X154905820Y-70439502D01*
X155025518Y-70475812D01*
X155150000Y-70488072D01*
X156850000Y-70488072D01*
X156974482Y-70475812D01*
X157094180Y-70439502D01*
X157204494Y-70380537D01*
X157301185Y-70301185D01*
X157380537Y-70204494D01*
X157439502Y-70094180D01*
X157461513Y-70021620D01*
X157593368Y-70153475D01*
X157836589Y-70315990D01*
X158106842Y-70427932D01*
X158393740Y-70485000D01*
X158686260Y-70485000D01*
X158973158Y-70427932D01*
X159243411Y-70315990D01*
X159486632Y-70153475D01*
X159693475Y-69946632D01*
X159810000Y-69772240D01*
X159926525Y-69946632D01*
X160133368Y-70153475D01*
X160376589Y-70315990D01*
X160646842Y-70427932D01*
X160933740Y-70485000D01*
X161226260Y-70485000D01*
X161513158Y-70427932D01*
X161783411Y-70315990D01*
X162026632Y-70153475D01*
X162233475Y-69946632D01*
X162392983Y-69707911D01*
X168265000Y-69707911D01*
X168265000Y-69892089D01*
X168300932Y-70072729D01*
X168371414Y-70242889D01*
X168473738Y-70396028D01*
X168603972Y-70526262D01*
X168757111Y-70628586D01*
X168927271Y-70699068D01*
X169107911Y-70735000D01*
X169292089Y-70735000D01*
X169472729Y-70699068D01*
X169642889Y-70628586D01*
X169796028Y-70526262D01*
X169926262Y-70396028D01*
X170028586Y-70242889D01*
X170099068Y-70072729D01*
X170135000Y-69892089D01*
X170135000Y-69707911D01*
X170099068Y-69527271D01*
X170028586Y-69357111D01*
X169926262Y-69203972D01*
X169796028Y-69073738D01*
X169642889Y-68971414D01*
X169472729Y-68900932D01*
X169292089Y-68865000D01*
X169107911Y-68865000D01*
X168927271Y-68900932D01*
X168757111Y-68971414D01*
X168603972Y-69073738D01*
X168473738Y-69203972D01*
X168371414Y-69357111D01*
X168300932Y-69527271D01*
X168265000Y-69707911D01*
X162392983Y-69707911D01*
X162395990Y-69703411D01*
X162507932Y-69433158D01*
X162565000Y-69146260D01*
X162565000Y-68853740D01*
X162507932Y-68566842D01*
X162395990Y-68296589D01*
X162233475Y-68053368D01*
X162026632Y-67846525D01*
X161783411Y-67684010D01*
X161513158Y-67572068D01*
X161226260Y-67515000D01*
X160933740Y-67515000D01*
X160646842Y-67572068D01*
X160376589Y-67684010D01*
X160133368Y-67846525D01*
X159926525Y-68053368D01*
X159810000Y-68227760D01*
X159693475Y-68053368D01*
X159486632Y-67846525D01*
X159243411Y-67684010D01*
X158973158Y-67572068D01*
X158686260Y-67515000D01*
X158393740Y-67515000D01*
X158106842Y-67572068D01*
X157836589Y-67684010D01*
X157593368Y-67846525D01*
X157461513Y-67978380D01*
X157439502Y-67905820D01*
X157380537Y-67795506D01*
X157301185Y-67698815D01*
X157204494Y-67619463D01*
X157094180Y-67560498D01*
X156974482Y-67524188D01*
X156850000Y-67511928D01*
X155150000Y-67511928D01*
X155025518Y-67524188D01*
X154905820Y-67560498D01*
X154795506Y-67619463D01*
X154698815Y-67698815D01*
X154619463Y-67795506D01*
X154560498Y-67905820D01*
X154524188Y-68025518D01*
X154511928Y-68150000D01*
X152525440Y-68150000D01*
X152535000Y-68101939D01*
X152535000Y-67898061D01*
X152495226Y-67698102D01*
X152417205Y-67509744D01*
X152415981Y-67507911D01*
X168365000Y-67507911D01*
X168365000Y-67692089D01*
X168400932Y-67872729D01*
X168471414Y-68042889D01*
X168573738Y-68196028D01*
X168703972Y-68326262D01*
X168857111Y-68428586D01*
X169027271Y-68499068D01*
X169207911Y-68535000D01*
X169392089Y-68535000D01*
X169572729Y-68499068D01*
X169742889Y-68428586D01*
X169896028Y-68326262D01*
X170026262Y-68196028D01*
X170128586Y-68042889D01*
X170199068Y-67872729D01*
X170235000Y-67692089D01*
X170235000Y-67507911D01*
X170199068Y-67327271D01*
X170128586Y-67157111D01*
X170026262Y-67003972D01*
X169896028Y-66873738D01*
X169742889Y-66771414D01*
X169572729Y-66700932D01*
X169392089Y-66665000D01*
X169207911Y-66665000D01*
X169027271Y-66700932D01*
X168857111Y-66771414D01*
X168703972Y-66873738D01*
X168573738Y-67003972D01*
X168471414Y-67157111D01*
X168400932Y-67327271D01*
X168365000Y-67507911D01*
X152415981Y-67507911D01*
X152303937Y-67340226D01*
X152159774Y-67196063D01*
X151990256Y-67082795D01*
X151801898Y-67004774D01*
X151601939Y-66965000D01*
X151398061Y-66965000D01*
X151198102Y-67004774D01*
X151009744Y-67082795D01*
X150840226Y-67196063D01*
X150696063Y-67340226D01*
X150582795Y-67509744D01*
X150504774Y-67698102D01*
X150465000Y-67898061D01*
X142094000Y-67898061D01*
X142094000Y-65428072D01*
X142105000Y-65428072D01*
X142229482Y-65415812D01*
X142349180Y-65379502D01*
X142459494Y-65320537D01*
X142556185Y-65241185D01*
X142631018Y-65150000D01*
X154521928Y-65150000D01*
X154521928Y-66850000D01*
X154534188Y-66974482D01*
X154570498Y-67094180D01*
X154629463Y-67204494D01*
X154708815Y-67301185D01*
X154805506Y-67380537D01*
X154915820Y-67439502D01*
X155035518Y-67475812D01*
X155160000Y-67488072D01*
X156860000Y-67488072D01*
X156984482Y-67475812D01*
X157104180Y-67439502D01*
X157214494Y-67380537D01*
X157311185Y-67301185D01*
X157390537Y-67204494D01*
X157449502Y-67094180D01*
X157471513Y-67021620D01*
X157603368Y-67153475D01*
X157846589Y-67315990D01*
X158116842Y-67427932D01*
X158403740Y-67485000D01*
X158696260Y-67485000D01*
X158983158Y-67427932D01*
X159253411Y-67315990D01*
X159496632Y-67153475D01*
X159703475Y-66946632D01*
X159820000Y-66772240D01*
X159936525Y-66946632D01*
X160143368Y-67153475D01*
X160386589Y-67315990D01*
X160656842Y-67427932D01*
X160943740Y-67485000D01*
X161236260Y-67485000D01*
X161523158Y-67427932D01*
X161793411Y-67315990D01*
X162036632Y-67153475D01*
X162243475Y-66946632D01*
X162405990Y-66703411D01*
X162517932Y-66433158D01*
X162575000Y-66146260D01*
X162575000Y-65853740D01*
X162517932Y-65566842D01*
X162410680Y-65307911D01*
X173065000Y-65307911D01*
X173065000Y-65492089D01*
X173100932Y-65672729D01*
X173171414Y-65842889D01*
X173273738Y-65996028D01*
X173403972Y-66126262D01*
X173511042Y-66197804D01*
X173471414Y-66257111D01*
X173400932Y-66427271D01*
X173365000Y-66607911D01*
X173365000Y-66792089D01*
X173400932Y-66972729D01*
X173471414Y-67142889D01*
X173573738Y-67296028D01*
X173703972Y-67426262D01*
X173857111Y-67528586D01*
X174027271Y-67599068D01*
X174207911Y-67635000D01*
X174392089Y-67635000D01*
X174572729Y-67599068D01*
X174649997Y-67567063D01*
X174727265Y-67599068D01*
X174907905Y-67635000D01*
X175092083Y-67635000D01*
X175272723Y-67599068D01*
X175442883Y-67528586D01*
X175596022Y-67426262D01*
X175726256Y-67296028D01*
X175828580Y-67142889D01*
X175899062Y-66972729D01*
X175922730Y-66853740D01*
X181495000Y-66853740D01*
X181495000Y-67146260D01*
X181552068Y-67433158D01*
X181664010Y-67703411D01*
X181826525Y-67946632D01*
X182033368Y-68153475D01*
X182276589Y-68315990D01*
X182546842Y-68427932D01*
X182833740Y-68485000D01*
X183126260Y-68485000D01*
X183413158Y-68427932D01*
X183683411Y-68315990D01*
X183926632Y-68153475D01*
X184133475Y-67946632D01*
X184250000Y-67772240D01*
X184366525Y-67946632D01*
X184573368Y-68153475D01*
X184816589Y-68315990D01*
X185086842Y-68427932D01*
X185373740Y-68485000D01*
X185666260Y-68485000D01*
X185953158Y-68427932D01*
X186223411Y-68315990D01*
X186466632Y-68153475D01*
X186673475Y-67946632D01*
X186790000Y-67772240D01*
X186906525Y-67946632D01*
X187113368Y-68153475D01*
X187356589Y-68315990D01*
X187626842Y-68427932D01*
X187913740Y-68485000D01*
X188206260Y-68485000D01*
X188493158Y-68427932D01*
X188763411Y-68315990D01*
X189006632Y-68153475D01*
X189138487Y-68021620D01*
X189160498Y-68094180D01*
X189219463Y-68204494D01*
X189298815Y-68301185D01*
X189395506Y-68380537D01*
X189505820Y-68439502D01*
X189625518Y-68475812D01*
X189750000Y-68488072D01*
X191450000Y-68488072D01*
X191574482Y-68475812D01*
X191694180Y-68439502D01*
X191804494Y-68380537D01*
X191901185Y-68301185D01*
X191980537Y-68204494D01*
X192039502Y-68094180D01*
X192075812Y-67974482D01*
X192088072Y-67850000D01*
X192088072Y-66700881D01*
X193478724Y-66700881D01*
X193838912Y-67190548D01*
X194502882Y-67550849D01*
X195224385Y-67774694D01*
X195975695Y-67853480D01*
X196727938Y-67784178D01*
X197452208Y-67569452D01*
X198120670Y-67217555D01*
X198161088Y-67190548D01*
X198521276Y-66700881D01*
X196000000Y-64179605D01*
X193478724Y-66700881D01*
X192088072Y-66700881D01*
X192088072Y-66150000D01*
X192075812Y-66025518D01*
X192039502Y-65905820D01*
X191980537Y-65795506D01*
X191901185Y-65698815D01*
X191804494Y-65619463D01*
X191694180Y-65560498D01*
X191574482Y-65524188D01*
X191450000Y-65511928D01*
X189750000Y-65511928D01*
X189625518Y-65524188D01*
X189505820Y-65560498D01*
X189395506Y-65619463D01*
X189298815Y-65698815D01*
X189219463Y-65795506D01*
X189160498Y-65905820D01*
X189138487Y-65978380D01*
X189006632Y-65846525D01*
X188763411Y-65684010D01*
X188493158Y-65572068D01*
X188206260Y-65515000D01*
X187913740Y-65515000D01*
X187626842Y-65572068D01*
X187356589Y-65684010D01*
X187113368Y-65846525D01*
X186906525Y-66053368D01*
X186790000Y-66227760D01*
X186673475Y-66053368D01*
X186466632Y-65846525D01*
X186223411Y-65684010D01*
X185953158Y-65572068D01*
X185666260Y-65515000D01*
X185373740Y-65515000D01*
X185086842Y-65572068D01*
X184816589Y-65684010D01*
X184573368Y-65846525D01*
X184366525Y-66053368D01*
X184250000Y-66227760D01*
X184133475Y-66053368D01*
X183926632Y-65846525D01*
X183683411Y-65684010D01*
X183413158Y-65572068D01*
X183126260Y-65515000D01*
X182833740Y-65515000D01*
X182546842Y-65572068D01*
X182276589Y-65684010D01*
X182033368Y-65846525D01*
X181826525Y-66053368D01*
X181664010Y-66296589D01*
X181552068Y-66566842D01*
X181495000Y-66853740D01*
X175922730Y-66853740D01*
X175934994Y-66792089D01*
X175934994Y-66607911D01*
X175899062Y-66427271D01*
X175828580Y-66257111D01*
X175726256Y-66103972D01*
X175596022Y-65973738D01*
X175442883Y-65871414D01*
X175272723Y-65800932D01*
X175092083Y-65765000D01*
X174907905Y-65765000D01*
X174856623Y-65775201D01*
X174899068Y-65672729D01*
X174935000Y-65492089D01*
X174935000Y-65307911D01*
X174899068Y-65127271D01*
X174828586Y-64957111D01*
X174726262Y-64803972D01*
X174596028Y-64673738D01*
X174442889Y-64571414D01*
X174272729Y-64500932D01*
X174092089Y-64465000D01*
X173907911Y-64465000D01*
X173727271Y-64500932D01*
X173557111Y-64571414D01*
X173403972Y-64673738D01*
X173273738Y-64803972D01*
X173171414Y-64957111D01*
X173100932Y-65127271D01*
X173065000Y-65307911D01*
X162410680Y-65307911D01*
X162405990Y-65296589D01*
X162243475Y-65053368D01*
X162036632Y-64846525D01*
X161793411Y-64684010D01*
X161523158Y-64572068D01*
X161236260Y-64515000D01*
X160943740Y-64515000D01*
X160656842Y-64572068D01*
X160386589Y-64684010D01*
X160143368Y-64846525D01*
X159936525Y-65053368D01*
X159820000Y-65227760D01*
X159703475Y-65053368D01*
X159496632Y-64846525D01*
X159253411Y-64684010D01*
X158983158Y-64572068D01*
X158696260Y-64515000D01*
X158403740Y-64515000D01*
X158116842Y-64572068D01*
X157846589Y-64684010D01*
X157603368Y-64846525D01*
X157471513Y-64978380D01*
X157449502Y-64905820D01*
X157390537Y-64795506D01*
X157311185Y-64698815D01*
X157214494Y-64619463D01*
X157104180Y-64560498D01*
X156984482Y-64524188D01*
X156860000Y-64511928D01*
X155160000Y-64511928D01*
X155035518Y-64524188D01*
X154915820Y-64560498D01*
X154805506Y-64619463D01*
X154708815Y-64698815D01*
X154629463Y-64795506D01*
X154570498Y-64905820D01*
X154534188Y-65025518D01*
X154521928Y-65150000D01*
X142631018Y-65150000D01*
X142635537Y-65144494D01*
X142694502Y-65034180D01*
X142730812Y-64914482D01*
X142743072Y-64790000D01*
X142743072Y-63975695D01*
X192146520Y-63975695D01*
X192215822Y-64727938D01*
X192430548Y-65452208D01*
X192782445Y-66120670D01*
X192809452Y-66161088D01*
X193299119Y-66521276D01*
X195820395Y-64000000D01*
X193299119Y-61478724D01*
X192809452Y-61838912D01*
X192449151Y-62502882D01*
X192225306Y-63224385D01*
X192146520Y-63975695D01*
X142743072Y-63975695D01*
X142743072Y-62990000D01*
X142730812Y-62865518D01*
X142694502Y-62745820D01*
X142635537Y-62635506D01*
X142556185Y-62538815D01*
X142459494Y-62459463D01*
X142349180Y-62400498D01*
X142229482Y-62364188D01*
X142105000Y-62351928D01*
X140305000Y-62351928D01*
X140180518Y-62364188D01*
X140060820Y-62400498D01*
X139950506Y-62459463D01*
X139853815Y-62538815D01*
X139774463Y-62635506D01*
X139715498Y-62745820D01*
X139679188Y-62865518D01*
X139666928Y-62990000D01*
X139666928Y-64790000D01*
X139679188Y-64914482D01*
X139715498Y-65034180D01*
X139774463Y-65144494D01*
X139853815Y-65241185D01*
X139950506Y-65320537D01*
X140060820Y-65379502D01*
X140180518Y-65415812D01*
X140305000Y-65428072D01*
X140316000Y-65428072D01*
X140316001Y-81526763D01*
X127871765Y-93971000D01*
X126731983Y-93971000D01*
X126693475Y-93913368D01*
X126486632Y-93706525D01*
X126312240Y-93590000D01*
X126486632Y-93473475D01*
X126693475Y-93266632D01*
X126855990Y-93023411D01*
X126967932Y-92753158D01*
X127025000Y-92466260D01*
X127025000Y-92173740D01*
X126967932Y-91886842D01*
X126855990Y-91616589D01*
X126693475Y-91373368D01*
X126486632Y-91166525D01*
X126312240Y-91050000D01*
X126486632Y-90933475D01*
X126693475Y-90726632D01*
X126855990Y-90483411D01*
X126967932Y-90213158D01*
X127025000Y-89926260D01*
X127025000Y-89633740D01*
X126967932Y-89346842D01*
X126855990Y-89076589D01*
X126693475Y-88833368D01*
X126486632Y-88626525D01*
X126312240Y-88510000D01*
X126486632Y-88393475D01*
X126693475Y-88186632D01*
X126855990Y-87943411D01*
X126953536Y-87707911D01*
X127565000Y-87707911D01*
X127565000Y-87892089D01*
X127600932Y-88072729D01*
X127671414Y-88242889D01*
X127773738Y-88396028D01*
X127903972Y-88526262D01*
X128057111Y-88628586D01*
X128227271Y-88699068D01*
X128407911Y-88735000D01*
X128592089Y-88735000D01*
X128772729Y-88699068D01*
X128942889Y-88628586D01*
X129096028Y-88526262D01*
X129226262Y-88396028D01*
X129328586Y-88242889D01*
X129399068Y-88072729D01*
X129435000Y-87892089D01*
X129435000Y-87707911D01*
X129399068Y-87527271D01*
X129328586Y-87357111D01*
X129226262Y-87203972D01*
X129096028Y-87073738D01*
X128942889Y-86971414D01*
X128772729Y-86900932D01*
X128592089Y-86865000D01*
X128407911Y-86865000D01*
X128227271Y-86900932D01*
X128057111Y-86971414D01*
X127903972Y-87073738D01*
X127773738Y-87203972D01*
X127671414Y-87357111D01*
X127600932Y-87527271D01*
X127565000Y-87707911D01*
X126953536Y-87707911D01*
X126967932Y-87673158D01*
X127025000Y-87386260D01*
X127025000Y-87093740D01*
X126967932Y-86806842D01*
X126855990Y-86536589D01*
X126693475Y-86293368D01*
X126486632Y-86086525D01*
X126312240Y-85970000D01*
X126486632Y-85853475D01*
X126693475Y-85646632D01*
X126855990Y-85403411D01*
X126967932Y-85133158D01*
X127025000Y-84846260D01*
X127025000Y-84553740D01*
X126967932Y-84266842D01*
X126855990Y-83996589D01*
X126693475Y-83753368D01*
X126486632Y-83546525D01*
X126312240Y-83430000D01*
X126486632Y-83313475D01*
X126693475Y-83106632D01*
X126855990Y-82863411D01*
X126967932Y-82593158D01*
X127025000Y-82306260D01*
X127025000Y-82013740D01*
X126967932Y-81726842D01*
X126855990Y-81456589D01*
X126693475Y-81213368D01*
X126486632Y-81006525D01*
X126312240Y-80890000D01*
X126486632Y-80773475D01*
X126693475Y-80566632D01*
X126855990Y-80323411D01*
X126866490Y-80298061D01*
X127165008Y-80298061D01*
X127165008Y-80501939D01*
X127204782Y-80701898D01*
X127282803Y-80890256D01*
X127396071Y-81059774D01*
X127540234Y-81203937D01*
X127709752Y-81317205D01*
X127898110Y-81395226D01*
X128098069Y-81435000D01*
X128301947Y-81435000D01*
X128501906Y-81395226D01*
X128690264Y-81317205D01*
X128859782Y-81203937D01*
X129003945Y-81059774D01*
X129117213Y-80890256D01*
X129195234Y-80701898D01*
X129235008Y-80501939D01*
X129235008Y-80298061D01*
X129195234Y-80098102D01*
X129117213Y-79909744D01*
X129003945Y-79740226D01*
X128859782Y-79596063D01*
X128690264Y-79482795D01*
X128501906Y-79404774D01*
X128301947Y-79365000D01*
X128098069Y-79365000D01*
X127898110Y-79404774D01*
X127709752Y-79482795D01*
X127540234Y-79596063D01*
X127396071Y-79740226D01*
X127282803Y-79909744D01*
X127204782Y-80098102D01*
X127165008Y-80298061D01*
X126866490Y-80298061D01*
X126967932Y-80053158D01*
X127025000Y-79766260D01*
X127025000Y-79473740D01*
X126967932Y-79186842D01*
X126855990Y-78916589D01*
X126693475Y-78673368D01*
X126486632Y-78466525D01*
X126312240Y-78350000D01*
X126486632Y-78233475D01*
X126693475Y-78026632D01*
X126855990Y-77783411D01*
X126967932Y-77513158D01*
X127025000Y-77226260D01*
X127025000Y-76933740D01*
X126967932Y-76646842D01*
X126855990Y-76376589D01*
X126693475Y-76133368D01*
X126486632Y-75926525D01*
X126312240Y-75810000D01*
X126486632Y-75693475D01*
X126693475Y-75486632D01*
X126855990Y-75243411D01*
X126967932Y-74973158D01*
X127025000Y-74686260D01*
X127025000Y-74393740D01*
X126967932Y-74106842D01*
X126855990Y-73836589D01*
X126693475Y-73593368D01*
X126486632Y-73386525D01*
X126312240Y-73270000D01*
X126486632Y-73153475D01*
X126693475Y-72946632D01*
X126855990Y-72703411D01*
X126967932Y-72433158D01*
X127025000Y-72146260D01*
X127025000Y-71853740D01*
X126967932Y-71566842D01*
X126855990Y-71296589D01*
X126693475Y-71053368D01*
X126486632Y-70846525D01*
X126243411Y-70684010D01*
X125973158Y-70572068D01*
X125686260Y-70515000D01*
X125393740Y-70515000D01*
X125106842Y-70572068D01*
X124836589Y-70684010D01*
X124593368Y-70846525D01*
X124461513Y-70978380D01*
X124439502Y-70905820D01*
X124380537Y-70795506D01*
X124301185Y-70698815D01*
X124204494Y-70619463D01*
X124094180Y-70560498D01*
X123974482Y-70524188D01*
X123850000Y-70511928D01*
X122150000Y-70511928D01*
X122025518Y-70524188D01*
X121905820Y-70560498D01*
X121795506Y-70619463D01*
X121698815Y-70698815D01*
X121619463Y-70795506D01*
X121560498Y-70905820D01*
X121524188Y-71025518D01*
X121511928Y-71150000D01*
X121511928Y-72850000D01*
X121524188Y-72974482D01*
X121560498Y-73094180D01*
X121619463Y-73204494D01*
X121698815Y-73301185D01*
X121795506Y-73380537D01*
X121905820Y-73439502D01*
X121978380Y-73461513D01*
X121846525Y-73593368D01*
X121684010Y-73836589D01*
X121572068Y-74106842D01*
X121515000Y-74393740D01*
X121515000Y-74686260D01*
X121572068Y-74973158D01*
X121684010Y-75243411D01*
X121846525Y-75486632D01*
X122053368Y-75693475D01*
X122227760Y-75810000D01*
X122053368Y-75926525D01*
X121846525Y-76133368D01*
X121684010Y-76376589D01*
X121572068Y-76646842D01*
X121515000Y-76933740D01*
X121515000Y-77226260D01*
X121572068Y-77513158D01*
X121684010Y-77783411D01*
X121846525Y-78026632D01*
X122053368Y-78233475D01*
X122227760Y-78350000D01*
X122053368Y-78466525D01*
X121846525Y-78673368D01*
X121684010Y-78916589D01*
X121572068Y-79186842D01*
X121515000Y-79473740D01*
X121515000Y-79766260D01*
X121572068Y-80053158D01*
X121684010Y-80323411D01*
X121846525Y-80566632D01*
X122053368Y-80773475D01*
X122227760Y-80890000D01*
X122053368Y-81006525D01*
X121846525Y-81213368D01*
X121684010Y-81456589D01*
X121572068Y-81726842D01*
X121515000Y-82013740D01*
X121515000Y-82306260D01*
X121572068Y-82593158D01*
X121684010Y-82863411D01*
X121846525Y-83106632D01*
X122053368Y-83313475D01*
X122227760Y-83430000D01*
X122053368Y-83546525D01*
X121846525Y-83753368D01*
X121684010Y-83996589D01*
X121572068Y-84266842D01*
X121515000Y-84553740D01*
X121515000Y-84846260D01*
X121572068Y-85133158D01*
X121684010Y-85403411D01*
X121846525Y-85646632D01*
X122053368Y-85853475D01*
X122227760Y-85970000D01*
X122053368Y-86086525D01*
X121846525Y-86293368D01*
X121684010Y-86536589D01*
X121572068Y-86806842D01*
X121515000Y-87093740D01*
X121515000Y-87386260D01*
X121572068Y-87673158D01*
X121684010Y-87943411D01*
X121846525Y-88186632D01*
X122053368Y-88393475D01*
X122227760Y-88510000D01*
X122053368Y-88626525D01*
X121846525Y-88833368D01*
X121684010Y-89076589D01*
X121572068Y-89346842D01*
X121515000Y-89633740D01*
X121515000Y-89926260D01*
X121572068Y-90213158D01*
X121684010Y-90483411D01*
X121846525Y-90726632D01*
X122053368Y-90933475D01*
X122227760Y-91050000D01*
X122053368Y-91166525D01*
X121846525Y-91373368D01*
X121684010Y-91616589D01*
X121572068Y-91886842D01*
X121515000Y-92173740D01*
X121515000Y-92466260D01*
X121572068Y-92753158D01*
X121684010Y-93023411D01*
X121846525Y-93266632D01*
X122053368Y-93473475D01*
X122235534Y-93595195D01*
X122118645Y-93664822D01*
X121902412Y-93859731D01*
X121728359Y-94093080D01*
X121603175Y-94355901D01*
X121558524Y-94503110D01*
X121679845Y-94733000D01*
X122873000Y-94733000D01*
X122873000Y-94713000D01*
X123127000Y-94713000D01*
X123127000Y-94733000D01*
X123147000Y-94733000D01*
X123147000Y-94987000D01*
X123127000Y-94987000D01*
X123127000Y-96180814D01*
X123356891Y-96301481D01*
X123631252Y-96204157D01*
X123881355Y-96055178D01*
X124097588Y-95860269D01*
X124268900Y-95630594D01*
X124386525Y-95806632D01*
X124593368Y-96013475D01*
X124836589Y-96175990D01*
X125106842Y-96287932D01*
X125393740Y-96345000D01*
X125686260Y-96345000D01*
X125973158Y-96287932D01*
X126243411Y-96175990D01*
X126486632Y-96013475D01*
X126693475Y-95806632D01*
X126731983Y-95749000D01*
X128196340Y-95749000D01*
X128240000Y-95753300D01*
X128283660Y-95749000D01*
X128283667Y-95749000D01*
X128294868Y-95747897D01*
X126702264Y-97340501D01*
X126668341Y-97368341D01*
X126557247Y-97503710D01*
X126474697Y-97658150D01*
X126423864Y-97825727D01*
X126411000Y-97956334D01*
X126411000Y-97956340D01*
X126406700Y-98000000D01*
X126411000Y-98043660D01*
X126411001Y-133149203D01*
X126161088Y-132809452D01*
X125497118Y-132449151D01*
X124775615Y-132225306D01*
X124024305Y-132146520D01*
X123272062Y-132215822D01*
X122547792Y-132430548D01*
X121879330Y-132782445D01*
X121838912Y-132809452D01*
X121478724Y-133299119D01*
X120660000Y-133299119D01*
X120660000Y-95216890D01*
X121558524Y-95216890D01*
X121603175Y-95364099D01*
X121728359Y-95626920D01*
X121902412Y-95860269D01*
X122118645Y-96055178D01*
X122368748Y-96204157D01*
X122643109Y-96301481D01*
X122873000Y-96180814D01*
X122873000Y-94987000D01*
X121679845Y-94987000D01*
X121558524Y-95216890D01*
X120660000Y-95216890D01*
X120660000Y-66700881D01*
X121478724Y-66700881D01*
X121838912Y-67190548D01*
X122502882Y-67550849D01*
X123224385Y-67774694D01*
X123975695Y-67853480D01*
X124727938Y-67784178D01*
X125452208Y-67569452D01*
X126120670Y-67217555D01*
X126161088Y-67190548D01*
X126521276Y-66700881D01*
X124000000Y-64179605D01*
X121478724Y-66700881D01*
X120660000Y-66700881D01*
X120660000Y-65888074D01*
X120782445Y-66120670D01*
X120809452Y-66161088D01*
X121299119Y-66521276D01*
X123820395Y-64000000D01*
X124179605Y-64000000D01*
X126700881Y-66521276D01*
X127190548Y-66161088D01*
X127550849Y-65497118D01*
X127719325Y-64954080D01*
X136510525Y-64954080D01*
X136594208Y-65208261D01*
X136866775Y-65339158D01*
X137159642Y-65414365D01*
X137461553Y-65430991D01*
X137760907Y-65388397D01*
X138046199Y-65288222D01*
X138195792Y-65208261D01*
X138279475Y-64954080D01*
X137395000Y-64069605D01*
X136510525Y-64954080D01*
X127719325Y-64954080D01*
X127774694Y-64775615D01*
X127853480Y-64024305D01*
X127847239Y-63956553D01*
X135854009Y-63956553D01*
X135896603Y-64255907D01*
X135996778Y-64541199D01*
X136076739Y-64690792D01*
X136330920Y-64774475D01*
X137215395Y-63890000D01*
X137574605Y-63890000D01*
X138459080Y-64774475D01*
X138713261Y-64690792D01*
X138844158Y-64418225D01*
X138919365Y-64125358D01*
X138935991Y-63823447D01*
X138893397Y-63524093D01*
X138793222Y-63238801D01*
X138713261Y-63089208D01*
X138459080Y-63005525D01*
X137574605Y-63890000D01*
X137215395Y-63890000D01*
X136330920Y-63005525D01*
X136076739Y-63089208D01*
X135945842Y-63361775D01*
X135870635Y-63654642D01*
X135854009Y-63956553D01*
X127847239Y-63956553D01*
X127784178Y-63272062D01*
X127651910Y-62825920D01*
X136510525Y-62825920D01*
X137395000Y-63710395D01*
X138279475Y-62825920D01*
X138195792Y-62571739D01*
X137923225Y-62440842D01*
X137630358Y-62365635D01*
X137328447Y-62349009D01*
X137029093Y-62391603D01*
X136743801Y-62491778D01*
X136594208Y-62571739D01*
X136510525Y-62825920D01*
X127651910Y-62825920D01*
X127569452Y-62547792D01*
X127217555Y-61879330D01*
X127190548Y-61838912D01*
X126700881Y-61478724D01*
X124179605Y-64000000D01*
X123820395Y-64000000D01*
X123806253Y-63985858D01*
X123985858Y-63806253D01*
X124000000Y-63820395D01*
X126521276Y-61299119D01*
X126161088Y-60809452D01*
X125885675Y-60660000D01*
X194111926Y-60660000D01*
X193879330Y-60782445D01*
G04 #@! TA.AperFunction,Conductor*
D21*
G36*
X193879330Y-60782445D02*
G01*
X193838912Y-60809452D01*
X193478724Y-61299119D01*
X196000000Y-63820395D01*
X196014143Y-63806253D01*
X196193748Y-63985858D01*
X196179605Y-64000000D01*
X198700881Y-66521276D01*
X199190548Y-66161088D01*
X199340000Y-65885675D01*
X199340001Y-134111928D01*
X199217555Y-133879330D01*
X199190548Y-133838912D01*
X198700881Y-133478724D01*
X196179605Y-136000000D01*
X196193748Y-136014143D01*
X196014143Y-136193748D01*
X196000000Y-136179605D01*
X193478724Y-138700881D01*
X193838912Y-139190548D01*
X194114325Y-139340000D01*
X125888074Y-139340000D01*
X126120670Y-139217555D01*
X126161088Y-139190548D01*
X126521276Y-138700881D01*
X124000000Y-136179605D01*
X123985858Y-136193748D01*
X123806253Y-136014143D01*
X123820395Y-136000000D01*
X121299119Y-133478724D01*
X120809452Y-133838912D01*
X120660000Y-134114325D01*
X120660000Y-133299119D01*
X121478724Y-133299119D01*
X124000000Y-135820395D01*
X124014143Y-135806253D01*
X124193748Y-135985858D01*
X124179605Y-136000000D01*
X126700881Y-138521276D01*
X127190548Y-138161088D01*
X127550849Y-137497118D01*
X127774694Y-136775615D01*
X127853480Y-136024305D01*
X127784178Y-135272062D01*
X127771262Y-135228498D01*
X129740506Y-137197742D01*
X129768341Y-137231659D01*
X129903709Y-137342753D01*
X130058149Y-137425303D01*
X130093888Y-137436144D01*
X130225725Y-137476136D01*
X130244073Y-137477943D01*
X130356333Y-137489000D01*
X130356339Y-137489000D01*
X130399999Y-137493300D01*
X130443659Y-137489000D01*
X133999712Y-137489000D01*
X134047213Y-137527983D01*
X134156996Y-137586664D01*
X134276118Y-137622799D01*
X134400000Y-137635000D01*
X140000000Y-137635000D01*
X140123882Y-137622799D01*
X140243004Y-137586664D01*
X140352787Y-137527983D01*
X140449013Y-137449013D01*
X141263026Y-136635000D01*
X148800000Y-136635000D01*
X148923882Y-136622799D01*
X149043004Y-136586664D01*
X149152787Y-136527983D01*
X149249013Y-136449013D01*
X149890115Y-135807911D01*
X184965000Y-135807911D01*
X184965000Y-135992089D01*
X185000932Y-136172729D01*
X185012228Y-136200000D01*
X185000932Y-136227271D01*
X184965000Y-136407911D01*
X184965000Y-136592089D01*
X185000932Y-136772729D01*
X185071414Y-136942889D01*
X185173738Y-137096028D01*
X185303972Y-137226262D01*
X185457111Y-137328586D01*
X185627271Y-137399068D01*
X185807911Y-137435000D01*
X185992089Y-137435000D01*
X186172729Y-137399068D01*
X186342889Y-137328586D01*
X186496028Y-137226262D01*
X186626262Y-137096028D01*
X186728586Y-136942889D01*
X186799068Y-136772729D01*
X186835000Y-136592089D01*
X186835000Y-136407911D01*
X186799068Y-136227271D01*
X186787772Y-136200000D01*
X186799068Y-136172729D01*
X186835000Y-135992089D01*
X186835000Y-135975695D01*
X192146520Y-135975695D01*
X192215822Y-136727938D01*
X192430548Y-137452208D01*
X192782445Y-138120670D01*
X192809452Y-138161088D01*
X193299119Y-138521276D01*
X195820395Y-136000000D01*
X193299119Y-133478724D01*
X192809452Y-133838912D01*
X192449151Y-134502882D01*
X192225306Y-135224385D01*
X192146520Y-135975695D01*
X186835000Y-135975695D01*
X186835000Y-135807911D01*
X186799068Y-135627271D01*
X186728586Y-135457111D01*
X186626262Y-135303972D01*
X186496028Y-135173738D01*
X186342889Y-135071414D01*
X186172729Y-135000932D01*
X185992089Y-134965000D01*
X185807911Y-134965000D01*
X185627271Y-135000932D01*
X185457111Y-135071414D01*
X185303972Y-135173738D01*
X185173738Y-135303972D01*
X185071414Y-135457111D01*
X185000932Y-135627271D01*
X184965000Y-135807911D01*
X149890115Y-135807911D01*
X154065000Y-131633026D01*
X154065000Y-132300000D01*
X154077201Y-132423882D01*
X154113336Y-132543004D01*
X154172017Y-132652787D01*
X154250987Y-132749013D01*
X154347213Y-132827983D01*
X154456996Y-132886664D01*
X154576118Y-132922799D01*
X154700000Y-132935000D01*
X166965000Y-132935000D01*
X166965000Y-133092089D01*
X167000932Y-133272729D01*
X167071414Y-133442889D01*
X167173738Y-133596028D01*
X167303972Y-133726262D01*
X167457111Y-133828586D01*
X167627271Y-133899068D01*
X167807911Y-133935000D01*
X167992089Y-133935000D01*
X168172729Y-133899068D01*
X168342889Y-133828586D01*
X168496028Y-133726262D01*
X168626262Y-133596028D01*
X168728586Y-133442889D01*
X168788136Y-133299119D01*
X193478724Y-133299119D01*
X196000000Y-135820395D01*
X198521276Y-133299119D01*
X198161088Y-132809452D01*
X197497118Y-132449151D01*
X196775615Y-132225306D01*
X196024305Y-132146520D01*
X195272062Y-132215822D01*
X194547792Y-132430548D01*
X193879330Y-132782445D01*
X193838912Y-132809452D01*
X193478724Y-133299119D01*
X168788136Y-133299119D01*
X168799068Y-133272729D01*
X168835000Y-133092089D01*
X168835000Y-132935000D01*
X191500000Y-132935000D01*
X191623882Y-132922799D01*
X191743004Y-132886664D01*
X191852787Y-132827983D01*
X191949013Y-132749013D01*
X192027983Y-132652787D01*
X192086664Y-132543004D01*
X192122799Y-132423882D01*
X192135000Y-132300000D01*
X192135000Y-124699213D01*
X194179496Y-124699213D01*
X194179496Y-124883391D01*
X194215428Y-125064031D01*
X194285910Y-125234191D01*
X194388234Y-125387330D01*
X194518468Y-125517564D01*
X194671607Y-125619888D01*
X194841767Y-125690370D01*
X195022407Y-125726302D01*
X195206585Y-125726302D01*
X195387225Y-125690370D01*
X195557385Y-125619888D01*
X195710524Y-125517564D01*
X195840758Y-125387330D01*
X195943082Y-125234191D01*
X196013564Y-125064031D01*
X196049496Y-124883391D01*
X196049496Y-124699213D01*
X196017636Y-124539046D01*
X196042889Y-124528586D01*
X196196028Y-124426262D01*
X196326262Y-124296028D01*
X196428586Y-124142889D01*
X196499068Y-123972729D01*
X196535000Y-123792089D01*
X196535000Y-123607911D01*
X196499068Y-123427271D01*
X196428586Y-123257111D01*
X196326262Y-123103972D01*
X196196028Y-122973738D01*
X196042889Y-122871414D01*
X195872729Y-122800932D01*
X195692089Y-122765000D01*
X195507911Y-122765000D01*
X195327271Y-122800932D01*
X195157111Y-122871414D01*
X195003972Y-122973738D01*
X194873738Y-123103972D01*
X194771414Y-123257111D01*
X194700932Y-123427271D01*
X194665000Y-123607911D01*
X194665000Y-123792089D01*
X194696860Y-123952256D01*
X194671607Y-123962716D01*
X194518468Y-124065040D01*
X194388234Y-124195274D01*
X194285910Y-124348413D01*
X194215428Y-124518573D01*
X194179496Y-124699213D01*
X192135000Y-124699213D01*
X192135000Y-118700000D01*
X192122799Y-118576118D01*
X192086664Y-118456996D01*
X192027983Y-118347213D01*
X191949013Y-118250987D01*
X191852787Y-118172017D01*
X191743004Y-118113336D01*
X191623882Y-118077201D01*
X191500000Y-118065000D01*
X189235000Y-118065000D01*
X189235000Y-116000000D01*
X189222799Y-115876118D01*
X189186664Y-115756996D01*
X189127983Y-115647213D01*
X189049013Y-115550987D01*
X188952787Y-115472017D01*
X188843004Y-115413336D01*
X188723882Y-115377201D01*
X188688072Y-115373674D01*
X188688072Y-113835000D01*
X196000000Y-113835000D01*
X196123882Y-113822799D01*
X196243004Y-113786664D01*
X196352787Y-113727983D01*
X196449013Y-113649013D01*
X196527983Y-113552787D01*
X196586664Y-113443004D01*
X196622799Y-113323882D01*
X196635000Y-113200000D01*
X196635000Y-111382214D01*
X197157101Y-110840776D01*
X197227983Y-110752787D01*
X197286664Y-110643004D01*
X197322799Y-110523882D01*
X197335000Y-110400000D01*
X197335000Y-88200000D01*
X197318738Y-88057214D01*
X197278993Y-87939248D01*
X197216998Y-87831302D01*
X197135135Y-87737525D01*
X197036549Y-87661521D01*
X196635000Y-87410553D01*
X196635000Y-73900000D01*
X196622799Y-73776118D01*
X196586664Y-73656996D01*
X196527983Y-73547213D01*
X196449013Y-73450987D01*
X196352787Y-73372017D01*
X196243004Y-73313336D01*
X196123882Y-73277201D01*
X196000000Y-73265000D01*
X182100000Y-73265000D01*
X181976118Y-73277201D01*
X181856996Y-73313336D01*
X181747213Y-73372017D01*
X181650987Y-73450987D01*
X181572017Y-73547213D01*
X181513336Y-73656996D01*
X181477201Y-73776118D01*
X181465000Y-73900000D01*
X181465000Y-78861942D01*
X181426266Y-78803972D01*
X181296032Y-78673738D01*
X181142893Y-78571414D01*
X180972733Y-78500932D01*
X180792093Y-78465000D01*
X180607915Y-78465000D01*
X180427275Y-78500932D01*
X180257115Y-78571414D01*
X180103976Y-78673738D01*
X179973742Y-78803972D01*
X179871418Y-78957111D01*
X179800936Y-79127271D01*
X179765004Y-79307911D01*
X179765004Y-79492089D01*
X179800936Y-79672729D01*
X179871418Y-79842889D01*
X179973742Y-79996028D01*
X180103976Y-80126262D01*
X180257115Y-80228586D01*
X180427275Y-80299068D01*
X180607915Y-80335000D01*
X180792093Y-80335000D01*
X180972733Y-80299068D01*
X181142893Y-80228586D01*
X181296032Y-80126262D01*
X181426266Y-79996028D01*
X181465000Y-79938058D01*
X181465000Y-89136974D01*
X175050987Y-95550987D01*
X174972017Y-95647213D01*
X174913336Y-95756996D01*
X174877201Y-95876118D01*
X174865000Y-96000000D01*
X174865000Y-104865000D01*
X174807911Y-104865000D01*
X174627271Y-104900932D01*
X174457111Y-104971414D01*
X174303972Y-105073738D01*
X174173738Y-105203972D01*
X174071414Y-105357111D01*
X174000932Y-105527271D01*
X173965000Y-105707911D01*
X173965000Y-105892089D01*
X174000932Y-106072729D01*
X174071414Y-106242889D01*
X174086188Y-106265000D01*
X166000000Y-106265000D01*
X165870975Y-106278246D01*
X165752156Y-106315365D01*
X165642862Y-106374950D01*
X165547292Y-106454713D01*
X159549152Y-112552822D01*
X151736974Y-120365000D01*
X136800000Y-120365000D01*
X136676118Y-120377201D01*
X136556996Y-120413336D01*
X136447213Y-120472017D01*
X136350987Y-120550987D01*
X129589000Y-127312974D01*
X129589000Y-112607911D01*
X142165000Y-112607911D01*
X142165000Y-112792089D01*
X142200932Y-112972729D01*
X142271414Y-113142889D01*
X142373738Y-113296028D01*
X142503972Y-113426262D01*
X142657111Y-113528586D01*
X142827271Y-113599068D01*
X143007911Y-113635000D01*
X143192089Y-113635000D01*
X143372729Y-113599068D01*
X143542889Y-113528586D01*
X143696028Y-113426262D01*
X143826262Y-113296028D01*
X143928586Y-113142889D01*
X143999068Y-112972729D01*
X144035000Y-112792089D01*
X144035000Y-112607911D01*
X144015109Y-112507911D01*
X151365000Y-112507911D01*
X151365000Y-112692089D01*
X151400932Y-112872729D01*
X151471414Y-113042889D01*
X151573738Y-113196028D01*
X151703972Y-113326262D01*
X151857111Y-113428586D01*
X152027271Y-113499068D01*
X152207911Y-113535000D01*
X152392089Y-113535000D01*
X152572729Y-113499068D01*
X152742889Y-113428586D01*
X152896028Y-113326262D01*
X153026262Y-113196028D01*
X153128586Y-113042889D01*
X153199068Y-112872729D01*
X153235000Y-112692089D01*
X153235000Y-112507911D01*
X153199068Y-112327271D01*
X153128586Y-112157111D01*
X153026262Y-112003972D01*
X152896028Y-111873738D01*
X152742889Y-111771414D01*
X152572729Y-111700932D01*
X152392089Y-111665000D01*
X152207911Y-111665000D01*
X152027271Y-111700932D01*
X151857111Y-111771414D01*
X151703972Y-111873738D01*
X151573738Y-112003972D01*
X151471414Y-112157111D01*
X151400932Y-112327271D01*
X151365000Y-112507911D01*
X144015109Y-112507911D01*
X143999068Y-112427271D01*
X143928586Y-112257111D01*
X143826262Y-112103972D01*
X143696028Y-111973738D01*
X143542889Y-111871414D01*
X143372729Y-111800932D01*
X143192089Y-111765000D01*
X143007911Y-111765000D01*
X142827271Y-111800932D01*
X142657111Y-111871414D01*
X142503972Y-111973738D01*
X142373738Y-112103972D01*
X142271414Y-112257111D01*
X142200932Y-112427271D01*
X142165000Y-112607911D01*
X129589000Y-112607911D01*
X129589000Y-110707911D01*
X134265000Y-110707911D01*
X134265000Y-110892089D01*
X134300932Y-111072729D01*
X134371414Y-111242889D01*
X134473738Y-111396028D01*
X134603972Y-111526262D01*
X134757111Y-111628586D01*
X134927271Y-111699068D01*
X135107911Y-111735000D01*
X135292089Y-111735000D01*
X135472729Y-111699068D01*
X135642889Y-111628586D01*
X135796028Y-111526262D01*
X135926262Y-111396028D01*
X136028586Y-111242889D01*
X136099068Y-111072729D01*
X136135000Y-110892089D01*
X136135000Y-110707911D01*
X143465002Y-110707911D01*
X143465002Y-110892089D01*
X143500934Y-111072729D01*
X143571416Y-111242889D01*
X143673740Y-111396028D01*
X143803974Y-111526262D01*
X143957113Y-111628586D01*
X144127273Y-111699068D01*
X144307913Y-111735000D01*
X144492091Y-111735000D01*
X144672731Y-111699068D01*
X144842891Y-111628586D01*
X144996030Y-111526262D01*
X145126264Y-111396028D01*
X145228588Y-111242889D01*
X145299070Y-111072729D01*
X145335002Y-110892089D01*
X145335002Y-110707911D01*
X149465000Y-110707911D01*
X149465000Y-110892089D01*
X149500932Y-111072729D01*
X149571414Y-111242889D01*
X149673738Y-111396028D01*
X149803972Y-111526262D01*
X149957111Y-111628586D01*
X150127271Y-111699068D01*
X150307911Y-111735000D01*
X150492089Y-111735000D01*
X150672729Y-111699068D01*
X150842889Y-111628586D01*
X150996028Y-111526262D01*
X151126262Y-111396028D01*
X151228586Y-111242889D01*
X151299068Y-111072729D01*
X151335000Y-110892089D01*
X151335000Y-110707911D01*
X151299068Y-110527271D01*
X151228586Y-110357111D01*
X151126262Y-110203972D01*
X150996028Y-110073738D01*
X150842889Y-109971414D01*
X150672729Y-109900932D01*
X150492089Y-109865000D01*
X150307911Y-109865000D01*
X150127271Y-109900932D01*
X149957111Y-109971414D01*
X149803972Y-110073738D01*
X149673738Y-110203972D01*
X149571414Y-110357111D01*
X149500932Y-110527271D01*
X149465000Y-110707911D01*
X145335002Y-110707911D01*
X145299070Y-110527271D01*
X145228588Y-110357111D01*
X145126264Y-110203972D01*
X144996030Y-110073738D01*
X144842891Y-109971414D01*
X144672731Y-109900932D01*
X144492091Y-109865000D01*
X144307913Y-109865000D01*
X144127273Y-109900932D01*
X143957113Y-109971414D01*
X143803974Y-110073738D01*
X143673740Y-110203972D01*
X143571416Y-110357111D01*
X143500934Y-110527271D01*
X143465002Y-110707911D01*
X136135000Y-110707911D01*
X136099068Y-110527271D01*
X136028586Y-110357111D01*
X135926262Y-110203972D01*
X135796028Y-110073738D01*
X135642889Y-109971414D01*
X135472729Y-109900932D01*
X135292089Y-109865000D01*
X135107911Y-109865000D01*
X134927271Y-109900932D01*
X134757111Y-109971414D01*
X134603972Y-110073738D01*
X134473738Y-110203972D01*
X134371414Y-110357111D01*
X134300932Y-110527271D01*
X134265000Y-110707911D01*
X129589000Y-110707911D01*
X129589000Y-102207911D01*
X142165000Y-102207911D01*
X142165000Y-102392089D01*
X142200932Y-102572729D01*
X142271414Y-102742889D01*
X142373738Y-102896028D01*
X142503972Y-103026262D01*
X142657111Y-103128586D01*
X142827271Y-103199068D01*
X143007911Y-103235000D01*
X143192089Y-103235000D01*
X143372729Y-103199068D01*
X143542889Y-103128586D01*
X143696028Y-103026262D01*
X143826262Y-102896028D01*
X143928586Y-102742889D01*
X143999068Y-102572729D01*
X144035000Y-102392089D01*
X144035000Y-102207911D01*
X151365000Y-102207911D01*
X151365000Y-102392089D01*
X151400932Y-102572729D01*
X151471414Y-102742889D01*
X151573738Y-102896028D01*
X151703972Y-103026262D01*
X151857111Y-103128586D01*
X152027271Y-103199068D01*
X152207911Y-103235000D01*
X152392089Y-103235000D01*
X152572729Y-103199068D01*
X152742889Y-103128586D01*
X152896028Y-103026262D01*
X153026262Y-102896028D01*
X153128586Y-102742889D01*
X153199068Y-102572729D01*
X153235000Y-102392089D01*
X153235000Y-102207911D01*
X153199068Y-102027271D01*
X153128586Y-101857111D01*
X153026262Y-101703972D01*
X152896028Y-101573738D01*
X152742889Y-101471414D01*
X152572729Y-101400932D01*
X152392089Y-101365000D01*
X152207911Y-101365000D01*
X152027271Y-101400932D01*
X151857111Y-101471414D01*
X151703972Y-101573738D01*
X151573738Y-101703972D01*
X151471414Y-101857111D01*
X151400932Y-102027271D01*
X151365000Y-102207911D01*
X144035000Y-102207911D01*
X143999068Y-102027271D01*
X143928586Y-101857111D01*
X143826262Y-101703972D01*
X143696028Y-101573738D01*
X143542889Y-101471414D01*
X143372729Y-101400932D01*
X143192089Y-101365000D01*
X143007911Y-101365000D01*
X142827271Y-101400932D01*
X142657111Y-101471414D01*
X142503972Y-101573738D01*
X142373738Y-101703972D01*
X142271414Y-101857111D01*
X142200932Y-102027271D01*
X142165000Y-102207911D01*
X129589000Y-102207911D01*
X129589000Y-100307911D01*
X134265000Y-100307911D01*
X134265000Y-100492089D01*
X134300932Y-100672729D01*
X134371414Y-100842889D01*
X134473738Y-100996028D01*
X134603972Y-101126262D01*
X134757111Y-101228586D01*
X134927271Y-101299068D01*
X135107911Y-101335000D01*
X135292089Y-101335000D01*
X135472729Y-101299068D01*
X135642889Y-101228586D01*
X135796028Y-101126262D01*
X135926262Y-100996028D01*
X136028586Y-100842889D01*
X136099068Y-100672729D01*
X136135000Y-100492089D01*
X136135000Y-100307911D01*
X143465000Y-100307911D01*
X143465000Y-100492089D01*
X143500932Y-100672729D01*
X143571414Y-100842889D01*
X143673738Y-100996028D01*
X143803972Y-101126262D01*
X143957111Y-101228586D01*
X144127271Y-101299068D01*
X144307911Y-101335000D01*
X144492089Y-101335000D01*
X144672729Y-101299068D01*
X144842889Y-101228586D01*
X144996028Y-101126262D01*
X145126262Y-100996028D01*
X145228586Y-100842889D01*
X145299068Y-100672729D01*
X145335000Y-100492089D01*
X145335000Y-100307911D01*
X149465000Y-100307911D01*
X149465000Y-100492089D01*
X149500932Y-100672729D01*
X149571414Y-100842889D01*
X149673738Y-100996028D01*
X149803972Y-101126262D01*
X149957111Y-101228586D01*
X150127271Y-101299068D01*
X150307911Y-101335000D01*
X150492089Y-101335000D01*
X150672729Y-101299068D01*
X150842889Y-101228586D01*
X150996028Y-101126262D01*
X151126262Y-100996028D01*
X151228586Y-100842889D01*
X151299068Y-100672729D01*
X151335000Y-100492089D01*
X151335000Y-100307911D01*
X151299068Y-100127271D01*
X151228586Y-99957111D01*
X151126262Y-99803972D01*
X150996028Y-99673738D01*
X150842889Y-99571414D01*
X150672729Y-99500932D01*
X150492089Y-99465000D01*
X150307911Y-99465000D01*
X150127271Y-99500932D01*
X149957111Y-99571414D01*
X149803972Y-99673738D01*
X149673738Y-99803972D01*
X149571414Y-99957111D01*
X149500932Y-100127271D01*
X149465000Y-100307911D01*
X145335000Y-100307911D01*
X145299068Y-100127271D01*
X145228586Y-99957111D01*
X145126262Y-99803972D01*
X144996028Y-99673738D01*
X144842889Y-99571414D01*
X144672729Y-99500932D01*
X144492089Y-99465000D01*
X144307911Y-99465000D01*
X144127271Y-99500932D01*
X143957111Y-99571414D01*
X143803972Y-99673738D01*
X143673738Y-99803972D01*
X143571414Y-99957111D01*
X143500932Y-100127271D01*
X143465000Y-100307911D01*
X136135000Y-100307911D01*
X136099068Y-100127271D01*
X136028586Y-99957111D01*
X135926262Y-99803972D01*
X135796028Y-99673738D01*
X135642889Y-99571414D01*
X135472729Y-99500932D01*
X135292089Y-99465000D01*
X135107911Y-99465000D01*
X134927271Y-99500932D01*
X134757111Y-99571414D01*
X134603972Y-99673738D01*
X134473738Y-99803972D01*
X134371414Y-99957111D01*
X134300932Y-100127271D01*
X134265000Y-100307911D01*
X129589000Y-100307911D01*
X129589000Y-98568235D01*
X131187235Y-96970000D01*
X159071928Y-96970000D01*
X159071928Y-98670000D01*
X159084188Y-98794482D01*
X159120498Y-98914180D01*
X159179463Y-99024494D01*
X159258815Y-99121185D01*
X159355506Y-99200537D01*
X159465820Y-99259502D01*
X159538380Y-99281513D01*
X159406525Y-99413368D01*
X159244010Y-99656589D01*
X159132068Y-99926842D01*
X159075000Y-100213740D01*
X159075000Y-100506260D01*
X159132068Y-100793158D01*
X159244010Y-101063411D01*
X159406525Y-101306632D01*
X159613368Y-101513475D01*
X159787760Y-101630000D01*
X159613368Y-101746525D01*
X159406525Y-101953368D01*
X159244010Y-102196589D01*
X159132068Y-102466842D01*
X159075000Y-102753740D01*
X159075000Y-103046260D01*
X159132068Y-103333158D01*
X159244010Y-103603411D01*
X159406525Y-103846632D01*
X159613368Y-104053475D01*
X159787760Y-104170000D01*
X159613368Y-104286525D01*
X159406525Y-104493368D01*
X159244010Y-104736589D01*
X159132068Y-105006842D01*
X159075000Y-105293740D01*
X159075000Y-105586260D01*
X159132068Y-105873158D01*
X159244010Y-106143411D01*
X159406525Y-106386632D01*
X159613368Y-106593475D01*
X159856589Y-106755990D01*
X160126842Y-106867932D01*
X160413740Y-106925000D01*
X160706260Y-106925000D01*
X160993158Y-106867932D01*
X161263411Y-106755990D01*
X161506632Y-106593475D01*
X161713475Y-106386632D01*
X161830000Y-106212240D01*
X161946525Y-106386632D01*
X162153368Y-106593475D01*
X162396589Y-106755990D01*
X162666842Y-106867932D01*
X162953740Y-106925000D01*
X163246260Y-106925000D01*
X163533158Y-106867932D01*
X163803411Y-106755990D01*
X164046632Y-106593475D01*
X164253475Y-106386632D01*
X164415990Y-106143411D01*
X164527932Y-105873158D01*
X164585000Y-105586260D01*
X164585000Y-105293740D01*
X164527932Y-105006842D01*
X164415990Y-104736589D01*
X164253475Y-104493368D01*
X164046632Y-104286525D01*
X163872240Y-104170000D01*
X164046632Y-104053475D01*
X164253475Y-103846632D01*
X164415990Y-103603411D01*
X164527932Y-103333158D01*
X164585000Y-103046260D01*
X164585000Y-102753740D01*
X164527932Y-102466842D01*
X164415990Y-102196589D01*
X164253475Y-101953368D01*
X164046632Y-101746525D01*
X163872240Y-101630000D01*
X164046632Y-101513475D01*
X164253475Y-101306632D01*
X164415990Y-101063411D01*
X164527932Y-100793158D01*
X164585000Y-100506260D01*
X164585000Y-100213740D01*
X164527932Y-99926842D01*
X164415990Y-99656589D01*
X164253475Y-99413368D01*
X164046632Y-99206525D01*
X163872240Y-99090000D01*
X164046632Y-98973475D01*
X164253475Y-98766632D01*
X164415990Y-98523411D01*
X164527932Y-98253158D01*
X164585000Y-97966260D01*
X164585000Y-97673740D01*
X164527932Y-97386842D01*
X164415990Y-97116589D01*
X164253475Y-96873368D01*
X164046632Y-96666525D01*
X163803411Y-96504010D01*
X163533158Y-96392068D01*
X163246260Y-96335000D01*
X162953740Y-96335000D01*
X162666842Y-96392068D01*
X162396589Y-96504010D01*
X162153368Y-96666525D01*
X162021513Y-96798380D01*
X161999502Y-96725820D01*
X161940537Y-96615506D01*
X161861185Y-96518815D01*
X161764494Y-96439463D01*
X161654180Y-96380498D01*
X161534482Y-96344188D01*
X161410000Y-96331928D01*
X159710000Y-96331928D01*
X159585518Y-96344188D01*
X159465820Y-96380498D01*
X159355506Y-96439463D01*
X159258815Y-96518815D01*
X159179463Y-96615506D01*
X159120498Y-96725820D01*
X159084188Y-96845518D01*
X159071928Y-96970000D01*
X131187235Y-96970000D01*
X135168236Y-92989000D01*
X146256340Y-92989000D01*
X146300000Y-92993300D01*
X146343660Y-92989000D01*
X146343667Y-92989000D01*
X146474274Y-92976136D01*
X146641851Y-92925303D01*
X146796291Y-92842753D01*
X146931659Y-92731659D01*
X146959499Y-92697736D01*
X149297743Y-90359493D01*
X149331659Y-90331659D01*
X149442753Y-90196291D01*
X149489993Y-90107911D01*
X159265000Y-90107911D01*
X159265000Y-90292089D01*
X159300932Y-90472729D01*
X159371414Y-90642889D01*
X159473738Y-90796028D01*
X159603972Y-90926262D01*
X159757111Y-91028586D01*
X159927271Y-91099068D01*
X160107911Y-91135000D01*
X160292089Y-91135000D01*
X160472729Y-91099068D01*
X160642889Y-91028586D01*
X160796028Y-90926262D01*
X160926262Y-90796028D01*
X161028586Y-90642889D01*
X161099068Y-90472729D01*
X161135000Y-90292089D01*
X161135000Y-90107911D01*
X166465000Y-90107911D01*
X166465000Y-90292089D01*
X166500932Y-90472729D01*
X166571414Y-90642889D01*
X166673738Y-90796028D01*
X166803972Y-90926262D01*
X166957111Y-91028586D01*
X167127271Y-91099068D01*
X167307911Y-91135000D01*
X167492089Y-91135000D01*
X167672729Y-91099068D01*
X167842889Y-91028586D01*
X167996028Y-90926262D01*
X168126262Y-90796028D01*
X168228586Y-90642889D01*
X168299068Y-90472729D01*
X168335000Y-90292089D01*
X168335000Y-90107911D01*
X168299068Y-89927271D01*
X168228586Y-89757111D01*
X168126262Y-89603972D01*
X167996028Y-89473738D01*
X167842889Y-89371414D01*
X167672729Y-89300932D01*
X167492089Y-89265000D01*
X167307911Y-89265000D01*
X167127271Y-89300932D01*
X166957111Y-89371414D01*
X166803972Y-89473738D01*
X166673738Y-89603972D01*
X166571414Y-89757111D01*
X166500932Y-89927271D01*
X166465000Y-90107911D01*
X161135000Y-90107911D01*
X161099068Y-89927271D01*
X161028586Y-89757111D01*
X160926262Y-89603972D01*
X160796028Y-89473738D01*
X160642889Y-89371414D01*
X160472729Y-89300932D01*
X160292089Y-89265000D01*
X160107911Y-89265000D01*
X159927271Y-89300932D01*
X159757111Y-89371414D01*
X159603972Y-89473738D01*
X159473738Y-89603972D01*
X159371414Y-89757111D01*
X159300932Y-89927271D01*
X159265000Y-90107911D01*
X149489993Y-90107911D01*
X149525303Y-90041851D01*
X149576136Y-89874274D01*
X149589000Y-89743667D01*
X149589000Y-89743666D01*
X149593301Y-89700000D01*
X149589000Y-89656332D01*
X149589000Y-89126234D01*
X149623882Y-89122799D01*
X149743004Y-89086664D01*
X149852787Y-89027983D01*
X149949013Y-88949013D01*
X150027983Y-88852787D01*
X150086664Y-88743004D01*
X150122799Y-88623882D01*
X150135000Y-88500000D01*
X150135000Y-86507899D01*
X159265012Y-86507899D01*
X159265012Y-86692077D01*
X159300944Y-86872717D01*
X159371426Y-87042877D01*
X159473750Y-87196016D01*
X159603984Y-87326250D01*
X159757123Y-87428574D01*
X159927283Y-87499056D01*
X160107923Y-87534988D01*
X160292101Y-87534988D01*
X160472741Y-87499056D01*
X160642901Y-87428574D01*
X160796040Y-87326250D01*
X160926274Y-87196016D01*
X161028598Y-87042877D01*
X161099080Y-86872717D01*
X161135012Y-86692077D01*
X161135012Y-86507911D01*
X173665000Y-86507911D01*
X173665000Y-86692089D01*
X173700932Y-86872729D01*
X173771414Y-87042889D01*
X173873738Y-87196028D01*
X174003972Y-87326262D01*
X174157111Y-87428586D01*
X174327271Y-87499068D01*
X174507911Y-87535000D01*
X174692089Y-87535000D01*
X174872729Y-87499068D01*
X175042889Y-87428586D01*
X175196028Y-87326262D01*
X175326262Y-87196028D01*
X175428586Y-87042889D01*
X175499068Y-86872729D01*
X175535000Y-86692089D01*
X175535000Y-86507911D01*
X175499068Y-86327271D01*
X175428586Y-86157111D01*
X175326262Y-86003972D01*
X175196028Y-85873738D01*
X175042889Y-85771414D01*
X174872729Y-85700932D01*
X174692089Y-85665000D01*
X174507911Y-85665000D01*
X174327271Y-85700932D01*
X174157111Y-85771414D01*
X174003972Y-85873738D01*
X173873738Y-86003972D01*
X173771414Y-86157111D01*
X173700932Y-86327271D01*
X173665000Y-86507911D01*
X161135012Y-86507911D01*
X161135012Y-86507899D01*
X161099080Y-86327259D01*
X161028598Y-86157099D01*
X160926274Y-86003960D01*
X160796040Y-85873726D01*
X160642901Y-85771402D01*
X160472741Y-85700920D01*
X160292101Y-85664988D01*
X160107923Y-85664988D01*
X159927283Y-85700920D01*
X159757123Y-85771402D01*
X159603984Y-85873726D01*
X159473750Y-86003960D01*
X159371426Y-86157099D01*
X159300944Y-86327259D01*
X159265012Y-86507899D01*
X150135000Y-86507899D01*
X150135000Y-86300000D01*
X150122799Y-86176118D01*
X150086664Y-86056996D01*
X150027983Y-85947213D01*
X149949013Y-85850987D01*
X149852787Y-85772017D01*
X149743004Y-85713336D01*
X149623882Y-85677201D01*
X149500000Y-85665000D01*
X147100000Y-85665000D01*
X146976118Y-85677201D01*
X146856996Y-85713336D01*
X146747213Y-85772017D01*
X146650987Y-85850987D01*
X146572017Y-85947213D01*
X146513336Y-86056996D01*
X146477201Y-86176118D01*
X146465000Y-86300000D01*
X146465000Y-87566466D01*
X146427983Y-87497213D01*
X146349013Y-87400987D01*
X146252787Y-87322017D01*
X146143004Y-87263336D01*
X146023882Y-87227201D01*
X145900000Y-87215000D01*
X142000000Y-87215000D01*
X141876118Y-87227201D01*
X141756996Y-87263336D01*
X141647213Y-87322017D01*
X141550987Y-87400987D01*
X141472017Y-87497213D01*
X141413336Y-87606996D01*
X141377201Y-87726118D01*
X141365000Y-87850000D01*
X141365000Y-89311000D01*
X135143660Y-89311000D01*
X135100000Y-89306700D01*
X135056340Y-89311000D01*
X135056333Y-89311000D01*
X135045132Y-89312103D01*
X141802742Y-82554494D01*
X141836659Y-82526659D01*
X141947753Y-82391291D01*
X142030303Y-82236851D01*
X142071533Y-82100932D01*
X142081136Y-82069275D01*
X142086606Y-82013740D01*
X142094000Y-81938667D01*
X142094000Y-81938660D01*
X142098300Y-81895000D01*
X142094000Y-81851340D01*
X142094000Y-81450000D01*
X162911928Y-81450000D01*
X162911928Y-83150000D01*
X162924188Y-83274482D01*
X162960498Y-83394180D01*
X163019463Y-83504494D01*
X163098815Y-83601185D01*
X163195506Y-83680537D01*
X163305820Y-83739502D01*
X163425518Y-83775812D01*
X163550000Y-83788072D01*
X165250000Y-83788072D01*
X165374482Y-83775812D01*
X165494180Y-83739502D01*
X165604494Y-83680537D01*
X165701185Y-83601185D01*
X165780537Y-83504494D01*
X165839502Y-83394180D01*
X165861513Y-83321620D01*
X165993368Y-83453475D01*
X166236589Y-83615990D01*
X166506842Y-83727932D01*
X166793740Y-83785000D01*
X167086260Y-83785000D01*
X167373158Y-83727932D01*
X167643411Y-83615990D01*
X167886632Y-83453475D01*
X168093475Y-83246632D01*
X168210000Y-83072240D01*
X168326525Y-83246632D01*
X168533368Y-83453475D01*
X168776589Y-83615990D01*
X169046842Y-83727932D01*
X169333740Y-83785000D01*
X169626260Y-83785000D01*
X169913158Y-83727932D01*
X170183411Y-83615990D01*
X170426632Y-83453475D01*
X170633475Y-83246632D01*
X170750000Y-83072240D01*
X170866525Y-83246632D01*
X171073368Y-83453475D01*
X171316589Y-83615990D01*
X171586842Y-83727932D01*
X171873740Y-83785000D01*
X172166260Y-83785000D01*
X172453158Y-83727932D01*
X172723411Y-83615990D01*
X172966632Y-83453475D01*
X173173475Y-83246632D01*
X173335990Y-83003411D01*
X173447932Y-82733158D01*
X173505000Y-82446260D01*
X173505000Y-82153740D01*
X173447932Y-81866842D01*
X173335990Y-81596589D01*
X173173475Y-81353368D01*
X172966632Y-81146525D01*
X172792240Y-81030000D01*
X172966632Y-80913475D01*
X173173475Y-80706632D01*
X173335990Y-80463411D01*
X173447932Y-80193158D01*
X173505000Y-79906260D01*
X173505000Y-79613740D01*
X173447932Y-79326842D01*
X173335990Y-79056589D01*
X173236647Y-78907911D01*
X173665000Y-78907911D01*
X173665000Y-79092089D01*
X173700932Y-79272729D01*
X173732938Y-79350000D01*
X173700932Y-79427271D01*
X173665000Y-79607911D01*
X173665000Y-79792089D01*
X173700932Y-79972729D01*
X173771414Y-80142889D01*
X173873738Y-80296028D01*
X174003972Y-80426262D01*
X174157111Y-80528586D01*
X174327271Y-80599068D01*
X174507911Y-80635000D01*
X174692089Y-80635000D01*
X174872729Y-80599068D01*
X175042889Y-80528586D01*
X175196028Y-80426262D01*
X175326262Y-80296028D01*
X175428586Y-80142889D01*
X175499068Y-79972729D01*
X175535000Y-79792089D01*
X175535000Y-79607911D01*
X175499068Y-79427271D01*
X175467062Y-79350000D01*
X175499068Y-79272729D01*
X175535000Y-79092089D01*
X175535000Y-78907911D01*
X175499068Y-78727271D01*
X175428586Y-78557111D01*
X175326262Y-78403972D01*
X175196028Y-78273738D01*
X175042889Y-78171414D01*
X174872729Y-78100932D01*
X174692089Y-78065000D01*
X174507911Y-78065000D01*
X174327271Y-78100932D01*
X174157111Y-78171414D01*
X174003972Y-78273738D01*
X173873738Y-78403972D01*
X173771414Y-78557111D01*
X173700932Y-78727271D01*
X173665000Y-78907911D01*
X173236647Y-78907911D01*
X173173475Y-78813368D01*
X172966632Y-78606525D01*
X172723411Y-78444010D01*
X172453158Y-78332068D01*
X172166260Y-78275000D01*
X171873740Y-78275000D01*
X171586842Y-78332068D01*
X171316589Y-78444010D01*
X171073368Y-78606525D01*
X170866525Y-78813368D01*
X170750000Y-78987760D01*
X170633475Y-78813368D01*
X170426632Y-78606525D01*
X170183411Y-78444010D01*
X169913158Y-78332068D01*
X169626260Y-78275000D01*
X169333740Y-78275000D01*
X169046842Y-78332068D01*
X168776589Y-78444010D01*
X168533368Y-78606525D01*
X168326525Y-78813368D01*
X168210000Y-78987760D01*
X168093475Y-78813368D01*
X167886632Y-78606525D01*
X167643411Y-78444010D01*
X167373158Y-78332068D01*
X167086260Y-78275000D01*
X166793740Y-78275000D01*
X166506842Y-78332068D01*
X166236589Y-78444010D01*
X165993368Y-78606525D01*
X165786525Y-78813368D01*
X165670000Y-78987760D01*
X165553475Y-78813368D01*
X165346632Y-78606525D01*
X165103411Y-78444010D01*
X164833158Y-78332068D01*
X164546260Y-78275000D01*
X164253740Y-78275000D01*
X163966842Y-78332068D01*
X163696589Y-78444010D01*
X163453368Y-78606525D01*
X163246525Y-78813368D01*
X163084010Y-79056589D01*
X162972068Y-79326842D01*
X162915000Y-79613740D01*
X162915000Y-79906260D01*
X162972068Y-80193158D01*
X163084010Y-80463411D01*
X163246525Y-80706632D01*
X163378380Y-80838487D01*
X163305820Y-80860498D01*
X163195506Y-80919463D01*
X163098815Y-80998815D01*
X163019463Y-81095506D01*
X162960498Y-81205820D01*
X162924188Y-81325518D01*
X162911928Y-81450000D01*
X142094000Y-81450000D01*
X142094000Y-71407911D01*
X172565000Y-71407911D01*
X172565000Y-71592089D01*
X172600932Y-71772729D01*
X172671414Y-71942889D01*
X172709574Y-72000000D01*
X172671414Y-72057111D01*
X172600932Y-72227271D01*
X172565000Y-72407911D01*
X172565000Y-72592089D01*
X172600932Y-72772729D01*
X172671414Y-72942889D01*
X172773738Y-73096028D01*
X172903972Y-73226262D01*
X173057111Y-73328586D01*
X173227271Y-73399068D01*
X173407911Y-73435000D01*
X173592089Y-73435000D01*
X173772729Y-73399068D01*
X173942889Y-73328586D01*
X174096028Y-73226262D01*
X174226262Y-73096028D01*
X174328586Y-72942889D01*
X174399068Y-72772729D01*
X174435000Y-72592089D01*
X174435000Y-72407911D01*
X174399068Y-72227271D01*
X174328586Y-72057111D01*
X174290426Y-72000000D01*
X174328586Y-71942889D01*
X174399068Y-71772729D01*
X174435000Y-71592089D01*
X174435000Y-71407911D01*
X174399068Y-71227271D01*
X174393882Y-71214752D01*
X174472729Y-71199068D01*
X174642889Y-71128586D01*
X174796028Y-71026262D01*
X174926262Y-70896028D01*
X175028586Y-70742889D01*
X175084495Y-70607911D01*
X175765000Y-70607911D01*
X175765000Y-70792089D01*
X175800932Y-70972729D01*
X175871414Y-71142889D01*
X175973738Y-71296028D01*
X176103972Y-71426262D01*
X176257111Y-71528586D01*
X176427271Y-71599068D01*
X176607911Y-71635000D01*
X176792089Y-71635000D01*
X176972729Y-71599068D01*
X177142889Y-71528586D01*
X177296028Y-71426262D01*
X177426262Y-71296028D01*
X177528586Y-71142889D01*
X177599068Y-70972729D01*
X177635000Y-70792089D01*
X177635000Y-70748061D01*
X177665000Y-70748061D01*
X177665000Y-70951939D01*
X177704774Y-71151898D01*
X177782795Y-71340256D01*
X177896063Y-71509774D01*
X178040226Y-71653937D01*
X178209744Y-71767205D01*
X178398102Y-71845226D01*
X178598061Y-71885000D01*
X178801939Y-71885000D01*
X179001898Y-71845226D01*
X179190256Y-71767205D01*
X179359774Y-71653937D01*
X179503937Y-71509774D01*
X179617205Y-71340256D01*
X179695226Y-71151898D01*
X179703975Y-71107911D01*
X180265000Y-71107911D01*
X180265000Y-71292089D01*
X180300932Y-71472729D01*
X180371414Y-71642889D01*
X180473738Y-71796028D01*
X180603972Y-71926262D01*
X180757111Y-72028586D01*
X180927271Y-72099068D01*
X181107911Y-72135000D01*
X181292089Y-72135000D01*
X181472729Y-72099068D01*
X181642889Y-72028586D01*
X181796028Y-71926262D01*
X181926262Y-71796028D01*
X182028586Y-71642889D01*
X182099068Y-71472729D01*
X182135000Y-71292089D01*
X182135000Y-71107911D01*
X182099068Y-70927271D01*
X182028586Y-70757111D01*
X181926262Y-70603972D01*
X181796028Y-70473738D01*
X181642889Y-70371414D01*
X181472729Y-70300932D01*
X181292089Y-70265000D01*
X181107911Y-70265000D01*
X180927271Y-70300932D01*
X180757111Y-70371414D01*
X180603972Y-70473738D01*
X180473738Y-70603972D01*
X180371414Y-70757111D01*
X180300932Y-70927271D01*
X180265000Y-71107911D01*
X179703975Y-71107911D01*
X179735000Y-70951939D01*
X179735000Y-70748061D01*
X179695226Y-70548102D01*
X179617205Y-70359744D01*
X179503937Y-70190226D01*
X179359774Y-70046063D01*
X179190256Y-69932795D01*
X179001898Y-69854774D01*
X178801939Y-69815000D01*
X178598061Y-69815000D01*
X178398102Y-69854774D01*
X178209744Y-69932795D01*
X178040226Y-70046063D01*
X177896063Y-70190226D01*
X177782795Y-70359744D01*
X177704774Y-70548102D01*
X177665000Y-70748061D01*
X177635000Y-70748061D01*
X177635000Y-70607911D01*
X177599068Y-70427271D01*
X177528586Y-70257111D01*
X177426262Y-70103972D01*
X177296028Y-69973738D01*
X177142889Y-69871414D01*
X176972729Y-69800932D01*
X176792089Y-69765000D01*
X176607911Y-69765000D01*
X176427271Y-69800932D01*
X176257111Y-69871414D01*
X176103972Y-69973738D01*
X175973738Y-70103972D01*
X175871414Y-70257111D01*
X175800932Y-70427271D01*
X175765000Y-70607911D01*
X175084495Y-70607911D01*
X175099068Y-70572729D01*
X175135000Y-70392089D01*
X175135000Y-70207911D01*
X175099068Y-70027271D01*
X175028586Y-69857111D01*
X174957016Y-69749999D01*
X175028586Y-69642887D01*
X175099068Y-69472727D01*
X175135000Y-69292087D01*
X175135000Y-69107909D01*
X175099068Y-68927269D01*
X175028586Y-68757109D01*
X174926262Y-68603970D01*
X174796028Y-68473736D01*
X174642889Y-68371412D01*
X174472729Y-68300930D01*
X174292089Y-68264998D01*
X174107911Y-68264998D01*
X173927271Y-68300930D01*
X173757111Y-68371412D01*
X173603972Y-68473736D01*
X173473738Y-68603970D01*
X173371414Y-68757109D01*
X173300932Y-68927269D01*
X173265000Y-69107909D01*
X173265000Y-69292087D01*
X173300932Y-69472727D01*
X173371414Y-69642887D01*
X173442984Y-69749999D01*
X173371414Y-69857111D01*
X173300932Y-70027271D01*
X173265000Y-70207911D01*
X173265000Y-70392089D01*
X173300932Y-70572729D01*
X173306118Y-70585248D01*
X173227271Y-70600932D01*
X173057111Y-70671414D01*
X172903972Y-70773738D01*
X172773738Y-70903972D01*
X172671414Y-71057111D01*
X172600932Y-71227271D01*
X172565000Y-71407911D01*
X142094000Y-71407911D01*
X142094000Y-67898061D01*
X150465000Y-67898061D01*
X150465000Y-68101939D01*
X150504774Y-68301898D01*
X150582795Y-68490256D01*
X150696063Y-68659774D01*
X150840226Y-68803937D01*
X151009744Y-68917205D01*
X151198102Y-68995226D01*
X151398061Y-69035000D01*
X151601939Y-69035000D01*
X151801898Y-68995226D01*
X151990256Y-68917205D01*
X152159774Y-68803937D01*
X152303937Y-68659774D01*
X152417205Y-68490256D01*
X152495226Y-68301898D01*
X152525440Y-68150000D01*
X154511928Y-68150000D01*
X154511928Y-69850000D01*
X154524188Y-69974482D01*
X154560498Y-70094180D01*
X154619463Y-70204494D01*
X154698815Y-70301185D01*
X154795506Y-70380537D01*
X154905820Y-70439502D01*
X155025518Y-70475812D01*
X155150000Y-70488072D01*
X156850000Y-70488072D01*
X156974482Y-70475812D01*
X157094180Y-70439502D01*
X157204494Y-70380537D01*
X157301185Y-70301185D01*
X157380537Y-70204494D01*
X157439502Y-70094180D01*
X157461513Y-70021620D01*
X157593368Y-70153475D01*
X157836589Y-70315990D01*
X158106842Y-70427932D01*
X158393740Y-70485000D01*
X158686260Y-70485000D01*
X158973158Y-70427932D01*
X159243411Y-70315990D01*
X159486632Y-70153475D01*
X159693475Y-69946632D01*
X159810000Y-69772240D01*
X159926525Y-69946632D01*
X160133368Y-70153475D01*
X160376589Y-70315990D01*
X160646842Y-70427932D01*
X160933740Y-70485000D01*
X161226260Y-70485000D01*
X161513158Y-70427932D01*
X161783411Y-70315990D01*
X162026632Y-70153475D01*
X162233475Y-69946632D01*
X162392983Y-69707911D01*
X168265000Y-69707911D01*
X168265000Y-69892089D01*
X168300932Y-70072729D01*
X168371414Y-70242889D01*
X168473738Y-70396028D01*
X168603972Y-70526262D01*
X168757111Y-70628586D01*
X168927271Y-70699068D01*
X169107911Y-70735000D01*
X169292089Y-70735000D01*
X169472729Y-70699068D01*
X169642889Y-70628586D01*
X169796028Y-70526262D01*
X169926262Y-70396028D01*
X170028586Y-70242889D01*
X170099068Y-70072729D01*
X170135000Y-69892089D01*
X170135000Y-69707911D01*
X170099068Y-69527271D01*
X170028586Y-69357111D01*
X169926262Y-69203972D01*
X169796028Y-69073738D01*
X169642889Y-68971414D01*
X169472729Y-68900932D01*
X169292089Y-68865000D01*
X169107911Y-68865000D01*
X168927271Y-68900932D01*
X168757111Y-68971414D01*
X168603972Y-69073738D01*
X168473738Y-69203972D01*
X168371414Y-69357111D01*
X168300932Y-69527271D01*
X168265000Y-69707911D01*
X162392983Y-69707911D01*
X162395990Y-69703411D01*
X162507932Y-69433158D01*
X162565000Y-69146260D01*
X162565000Y-68853740D01*
X162507932Y-68566842D01*
X162395990Y-68296589D01*
X162233475Y-68053368D01*
X162026632Y-67846525D01*
X161783411Y-67684010D01*
X161513158Y-67572068D01*
X161226260Y-67515000D01*
X160933740Y-67515000D01*
X160646842Y-67572068D01*
X160376589Y-67684010D01*
X160133368Y-67846525D01*
X159926525Y-68053368D01*
X159810000Y-68227760D01*
X159693475Y-68053368D01*
X159486632Y-67846525D01*
X159243411Y-67684010D01*
X158973158Y-67572068D01*
X158686260Y-67515000D01*
X158393740Y-67515000D01*
X158106842Y-67572068D01*
X157836589Y-67684010D01*
X157593368Y-67846525D01*
X157461513Y-67978380D01*
X157439502Y-67905820D01*
X157380537Y-67795506D01*
X157301185Y-67698815D01*
X157204494Y-67619463D01*
X157094180Y-67560498D01*
X156974482Y-67524188D01*
X156850000Y-67511928D01*
X155150000Y-67511928D01*
X155025518Y-67524188D01*
X154905820Y-67560498D01*
X154795506Y-67619463D01*
X154698815Y-67698815D01*
X154619463Y-67795506D01*
X154560498Y-67905820D01*
X154524188Y-68025518D01*
X154511928Y-68150000D01*
X152525440Y-68150000D01*
X152535000Y-68101939D01*
X152535000Y-67898061D01*
X152495226Y-67698102D01*
X152417205Y-67509744D01*
X152415981Y-67507911D01*
X168365000Y-67507911D01*
X168365000Y-67692089D01*
X168400932Y-67872729D01*
X168471414Y-68042889D01*
X168573738Y-68196028D01*
X168703972Y-68326262D01*
X168857111Y-68428586D01*
X169027271Y-68499068D01*
X169207911Y-68535000D01*
X169392089Y-68535000D01*
X169572729Y-68499068D01*
X169742889Y-68428586D01*
X169896028Y-68326262D01*
X170026262Y-68196028D01*
X170128586Y-68042889D01*
X170199068Y-67872729D01*
X170235000Y-67692089D01*
X170235000Y-67507911D01*
X170199068Y-67327271D01*
X170128586Y-67157111D01*
X170026262Y-67003972D01*
X169896028Y-66873738D01*
X169742889Y-66771414D01*
X169572729Y-66700932D01*
X169392089Y-66665000D01*
X169207911Y-66665000D01*
X169027271Y-66700932D01*
X168857111Y-66771414D01*
X168703972Y-66873738D01*
X168573738Y-67003972D01*
X168471414Y-67157111D01*
X168400932Y-67327271D01*
X168365000Y-67507911D01*
X152415981Y-67507911D01*
X152303937Y-67340226D01*
X152159774Y-67196063D01*
X151990256Y-67082795D01*
X151801898Y-67004774D01*
X151601939Y-66965000D01*
X151398061Y-66965000D01*
X151198102Y-67004774D01*
X151009744Y-67082795D01*
X150840226Y-67196063D01*
X150696063Y-67340226D01*
X150582795Y-67509744D01*
X150504774Y-67698102D01*
X150465000Y-67898061D01*
X142094000Y-67898061D01*
X142094000Y-65428072D01*
X142105000Y-65428072D01*
X142229482Y-65415812D01*
X142349180Y-65379502D01*
X142459494Y-65320537D01*
X142556185Y-65241185D01*
X142631018Y-65150000D01*
X154521928Y-65150000D01*
X154521928Y-66850000D01*
X154534188Y-66974482D01*
X154570498Y-67094180D01*
X154629463Y-67204494D01*
X154708815Y-67301185D01*
X154805506Y-67380537D01*
X154915820Y-67439502D01*
X155035518Y-67475812D01*
X155160000Y-67488072D01*
X156860000Y-67488072D01*
X156984482Y-67475812D01*
X157104180Y-67439502D01*
X157214494Y-67380537D01*
X157311185Y-67301185D01*
X157390537Y-67204494D01*
X157449502Y-67094180D01*
X157471513Y-67021620D01*
X157603368Y-67153475D01*
X157846589Y-67315990D01*
X158116842Y-67427932D01*
X158403740Y-67485000D01*
X158696260Y-67485000D01*
X158983158Y-67427932D01*
X159253411Y-67315990D01*
X159496632Y-67153475D01*
X159703475Y-66946632D01*
X159820000Y-66772240D01*
X159936525Y-66946632D01*
X160143368Y-67153475D01*
X160386589Y-67315990D01*
X160656842Y-67427932D01*
X160943740Y-67485000D01*
X161236260Y-67485000D01*
X161523158Y-67427932D01*
X161793411Y-67315990D01*
X162036632Y-67153475D01*
X162243475Y-66946632D01*
X162405990Y-66703411D01*
X162517932Y-66433158D01*
X162575000Y-66146260D01*
X162575000Y-65853740D01*
X162517932Y-65566842D01*
X162410680Y-65307911D01*
X173065000Y-65307911D01*
X173065000Y-65492089D01*
X173100932Y-65672729D01*
X173171414Y-65842889D01*
X173273738Y-65996028D01*
X173403972Y-66126262D01*
X173511042Y-66197804D01*
X173471414Y-66257111D01*
X173400932Y-66427271D01*
X173365000Y-66607911D01*
X173365000Y-66792089D01*
X173400932Y-66972729D01*
X173471414Y-67142889D01*
X173573738Y-67296028D01*
X173703972Y-67426262D01*
X173857111Y-67528586D01*
X174027271Y-67599068D01*
X174207911Y-67635000D01*
X174392089Y-67635000D01*
X174572729Y-67599068D01*
X174649997Y-67567063D01*
X174727265Y-67599068D01*
X174907905Y-67635000D01*
X175092083Y-67635000D01*
X175272723Y-67599068D01*
X175442883Y-67528586D01*
X175596022Y-67426262D01*
X175726256Y-67296028D01*
X175828580Y-67142889D01*
X175899062Y-66972729D01*
X175922730Y-66853740D01*
X181495000Y-66853740D01*
X181495000Y-67146260D01*
X181552068Y-67433158D01*
X181664010Y-67703411D01*
X181826525Y-67946632D01*
X182033368Y-68153475D01*
X182276589Y-68315990D01*
X182546842Y-68427932D01*
X182833740Y-68485000D01*
X183126260Y-68485000D01*
X183413158Y-68427932D01*
X183683411Y-68315990D01*
X183926632Y-68153475D01*
X184133475Y-67946632D01*
X184250000Y-67772240D01*
X184366525Y-67946632D01*
X184573368Y-68153475D01*
X184816589Y-68315990D01*
X185086842Y-68427932D01*
X185373740Y-68485000D01*
X185666260Y-68485000D01*
X185953158Y-68427932D01*
X186223411Y-68315990D01*
X186466632Y-68153475D01*
X186673475Y-67946632D01*
X186790000Y-67772240D01*
X186906525Y-67946632D01*
X187113368Y-68153475D01*
X187356589Y-68315990D01*
X187626842Y-68427932D01*
X187913740Y-68485000D01*
X188206260Y-68485000D01*
X188493158Y-68427932D01*
X188763411Y-68315990D01*
X189006632Y-68153475D01*
X189138487Y-68021620D01*
X189160498Y-68094180D01*
X189219463Y-68204494D01*
X189298815Y-68301185D01*
X189395506Y-68380537D01*
X189505820Y-68439502D01*
X189625518Y-68475812D01*
X189750000Y-68488072D01*
X191450000Y-68488072D01*
X191574482Y-68475812D01*
X191694180Y-68439502D01*
X191804494Y-68380537D01*
X191901185Y-68301185D01*
X191980537Y-68204494D01*
X192039502Y-68094180D01*
X192075812Y-67974482D01*
X192088072Y-67850000D01*
X192088072Y-66700881D01*
X193478724Y-66700881D01*
X193838912Y-67190548D01*
X194502882Y-67550849D01*
X195224385Y-67774694D01*
X195975695Y-67853480D01*
X196727938Y-67784178D01*
X197452208Y-67569452D01*
X198120670Y-67217555D01*
X198161088Y-67190548D01*
X198521276Y-66700881D01*
X196000000Y-64179605D01*
X193478724Y-66700881D01*
X192088072Y-66700881D01*
X192088072Y-66150000D01*
X192075812Y-66025518D01*
X192039502Y-65905820D01*
X191980537Y-65795506D01*
X191901185Y-65698815D01*
X191804494Y-65619463D01*
X191694180Y-65560498D01*
X191574482Y-65524188D01*
X191450000Y-65511928D01*
X189750000Y-65511928D01*
X189625518Y-65524188D01*
X189505820Y-65560498D01*
X189395506Y-65619463D01*
X189298815Y-65698815D01*
X189219463Y-65795506D01*
X189160498Y-65905820D01*
X189138487Y-65978380D01*
X189006632Y-65846525D01*
X188763411Y-65684010D01*
X188493158Y-65572068D01*
X188206260Y-65515000D01*
X187913740Y-65515000D01*
X187626842Y-65572068D01*
X187356589Y-65684010D01*
X187113368Y-65846525D01*
X186906525Y-66053368D01*
X186790000Y-66227760D01*
X186673475Y-66053368D01*
X186466632Y-65846525D01*
X186223411Y-65684010D01*
X185953158Y-65572068D01*
X185666260Y-65515000D01*
X185373740Y-65515000D01*
X185086842Y-65572068D01*
X184816589Y-65684010D01*
X184573368Y-65846525D01*
X184366525Y-66053368D01*
X184250000Y-66227760D01*
X184133475Y-66053368D01*
X183926632Y-65846525D01*
X183683411Y-65684010D01*
X183413158Y-65572068D01*
X183126260Y-65515000D01*
X182833740Y-65515000D01*
X182546842Y-65572068D01*
X182276589Y-65684010D01*
X182033368Y-65846525D01*
X181826525Y-66053368D01*
X181664010Y-66296589D01*
X181552068Y-66566842D01*
X181495000Y-66853740D01*
X175922730Y-66853740D01*
X175934994Y-66792089D01*
X175934994Y-66607911D01*
X175899062Y-66427271D01*
X175828580Y-66257111D01*
X175726256Y-66103972D01*
X175596022Y-65973738D01*
X175442883Y-65871414D01*
X175272723Y-65800932D01*
X175092083Y-65765000D01*
X174907905Y-65765000D01*
X174856623Y-65775201D01*
X174899068Y-65672729D01*
X174935000Y-65492089D01*
X174935000Y-65307911D01*
X174899068Y-65127271D01*
X174828586Y-64957111D01*
X174726262Y-64803972D01*
X174596028Y-64673738D01*
X174442889Y-64571414D01*
X174272729Y-64500932D01*
X174092089Y-64465000D01*
X173907911Y-64465000D01*
X173727271Y-64500932D01*
X173557111Y-64571414D01*
X173403972Y-64673738D01*
X173273738Y-64803972D01*
X173171414Y-64957111D01*
X173100932Y-65127271D01*
X173065000Y-65307911D01*
X162410680Y-65307911D01*
X162405990Y-65296589D01*
X162243475Y-65053368D01*
X162036632Y-64846525D01*
X161793411Y-64684010D01*
X161523158Y-64572068D01*
X161236260Y-64515000D01*
X160943740Y-64515000D01*
X160656842Y-64572068D01*
X160386589Y-64684010D01*
X160143368Y-64846525D01*
X159936525Y-65053368D01*
X159820000Y-65227760D01*
X159703475Y-65053368D01*
X159496632Y-64846525D01*
X159253411Y-64684010D01*
X158983158Y-64572068D01*
X158696260Y-64515000D01*
X158403740Y-64515000D01*
X158116842Y-64572068D01*
X157846589Y-64684010D01*
X157603368Y-64846525D01*
X157471513Y-64978380D01*
X157449502Y-64905820D01*
X157390537Y-64795506D01*
X157311185Y-64698815D01*
X157214494Y-64619463D01*
X157104180Y-64560498D01*
X156984482Y-64524188D01*
X156860000Y-64511928D01*
X155160000Y-64511928D01*
X155035518Y-64524188D01*
X154915820Y-64560498D01*
X154805506Y-64619463D01*
X154708815Y-64698815D01*
X154629463Y-64795506D01*
X154570498Y-64905820D01*
X154534188Y-65025518D01*
X154521928Y-65150000D01*
X142631018Y-65150000D01*
X142635537Y-65144494D01*
X142694502Y-65034180D01*
X142730812Y-64914482D01*
X142743072Y-64790000D01*
X142743072Y-63975695D01*
X192146520Y-63975695D01*
X192215822Y-64727938D01*
X192430548Y-65452208D01*
X192782445Y-66120670D01*
X192809452Y-66161088D01*
X193299119Y-66521276D01*
X195820395Y-64000000D01*
X193299119Y-61478724D01*
X192809452Y-61838912D01*
X192449151Y-62502882D01*
X192225306Y-63224385D01*
X192146520Y-63975695D01*
X142743072Y-63975695D01*
X142743072Y-62990000D01*
X142730812Y-62865518D01*
X142694502Y-62745820D01*
X142635537Y-62635506D01*
X142556185Y-62538815D01*
X142459494Y-62459463D01*
X142349180Y-62400498D01*
X142229482Y-62364188D01*
X142105000Y-62351928D01*
X140305000Y-62351928D01*
X140180518Y-62364188D01*
X140060820Y-62400498D01*
X139950506Y-62459463D01*
X139853815Y-62538815D01*
X139774463Y-62635506D01*
X139715498Y-62745820D01*
X139679188Y-62865518D01*
X139666928Y-62990000D01*
X139666928Y-64790000D01*
X139679188Y-64914482D01*
X139715498Y-65034180D01*
X139774463Y-65144494D01*
X139853815Y-65241185D01*
X139950506Y-65320537D01*
X140060820Y-65379502D01*
X140180518Y-65415812D01*
X140305000Y-65428072D01*
X140316000Y-65428072D01*
X140316001Y-81526763D01*
X127871765Y-93971000D01*
X126731983Y-93971000D01*
X126693475Y-93913368D01*
X126486632Y-93706525D01*
X126312240Y-93590000D01*
X126486632Y-93473475D01*
X126693475Y-93266632D01*
X126855990Y-93023411D01*
X126967932Y-92753158D01*
X127025000Y-92466260D01*
X127025000Y-92173740D01*
X126967932Y-91886842D01*
X126855990Y-91616589D01*
X126693475Y-91373368D01*
X126486632Y-91166525D01*
X126312240Y-91050000D01*
X126486632Y-90933475D01*
X126693475Y-90726632D01*
X126855990Y-90483411D01*
X126967932Y-90213158D01*
X127025000Y-89926260D01*
X127025000Y-89633740D01*
X126967932Y-89346842D01*
X126855990Y-89076589D01*
X126693475Y-88833368D01*
X126486632Y-88626525D01*
X126312240Y-88510000D01*
X126486632Y-88393475D01*
X126693475Y-88186632D01*
X126855990Y-87943411D01*
X126953536Y-87707911D01*
X127565000Y-87707911D01*
X127565000Y-87892089D01*
X127600932Y-88072729D01*
X127671414Y-88242889D01*
X127773738Y-88396028D01*
X127903972Y-88526262D01*
X128057111Y-88628586D01*
X128227271Y-88699068D01*
X128407911Y-88735000D01*
X128592089Y-88735000D01*
X128772729Y-88699068D01*
X128942889Y-88628586D01*
X129096028Y-88526262D01*
X129226262Y-88396028D01*
X129328586Y-88242889D01*
X129399068Y-88072729D01*
X129435000Y-87892089D01*
X129435000Y-87707911D01*
X129399068Y-87527271D01*
X129328586Y-87357111D01*
X129226262Y-87203972D01*
X129096028Y-87073738D01*
X128942889Y-86971414D01*
X128772729Y-86900932D01*
X128592089Y-86865000D01*
X128407911Y-86865000D01*
X128227271Y-86900932D01*
X128057111Y-86971414D01*
X127903972Y-87073738D01*
X127773738Y-87203972D01*
X127671414Y-87357111D01*
X127600932Y-87527271D01*
X127565000Y-87707911D01*
X126953536Y-87707911D01*
X126967932Y-87673158D01*
X127025000Y-87386260D01*
X127025000Y-87093740D01*
X126967932Y-86806842D01*
X126855990Y-86536589D01*
X126693475Y-86293368D01*
X126486632Y-86086525D01*
X126312240Y-85970000D01*
X126486632Y-85853475D01*
X126693475Y-85646632D01*
X126855990Y-85403411D01*
X126967932Y-85133158D01*
X127025000Y-84846260D01*
X127025000Y-84553740D01*
X126967932Y-84266842D01*
X126855990Y-83996589D01*
X126693475Y-83753368D01*
X126486632Y-83546525D01*
X126312240Y-83430000D01*
X126486632Y-83313475D01*
X126693475Y-83106632D01*
X126855990Y-82863411D01*
X126967932Y-82593158D01*
X127025000Y-82306260D01*
X127025000Y-82013740D01*
X126967932Y-81726842D01*
X126855990Y-81456589D01*
X126693475Y-81213368D01*
X126486632Y-81006525D01*
X126312240Y-80890000D01*
X126486632Y-80773475D01*
X126693475Y-80566632D01*
X126855990Y-80323411D01*
X126866490Y-80298061D01*
X127165008Y-80298061D01*
X127165008Y-80501939D01*
X127204782Y-80701898D01*
X127282803Y-80890256D01*
X127396071Y-81059774D01*
X127540234Y-81203937D01*
X127709752Y-81317205D01*
X127898110Y-81395226D01*
X128098069Y-81435000D01*
X128301947Y-81435000D01*
X128501906Y-81395226D01*
X128690264Y-81317205D01*
X128859782Y-81203937D01*
X129003945Y-81059774D01*
X129117213Y-80890256D01*
X129195234Y-80701898D01*
X129235008Y-80501939D01*
X129235008Y-80298061D01*
X129195234Y-80098102D01*
X129117213Y-79909744D01*
X129003945Y-79740226D01*
X128859782Y-79596063D01*
X128690264Y-79482795D01*
X128501906Y-79404774D01*
X128301947Y-79365000D01*
X128098069Y-79365000D01*
X127898110Y-79404774D01*
X127709752Y-79482795D01*
X127540234Y-79596063D01*
X127396071Y-79740226D01*
X127282803Y-79909744D01*
X127204782Y-80098102D01*
X127165008Y-80298061D01*
X126866490Y-80298061D01*
X126967932Y-80053158D01*
X127025000Y-79766260D01*
X127025000Y-79473740D01*
X126967932Y-79186842D01*
X126855990Y-78916589D01*
X126693475Y-78673368D01*
X126486632Y-78466525D01*
X126312240Y-78350000D01*
X126486632Y-78233475D01*
X126693475Y-78026632D01*
X126855990Y-77783411D01*
X126967932Y-77513158D01*
X127025000Y-77226260D01*
X127025000Y-76933740D01*
X126967932Y-76646842D01*
X126855990Y-76376589D01*
X126693475Y-76133368D01*
X126486632Y-75926525D01*
X126312240Y-75810000D01*
X126486632Y-75693475D01*
X126693475Y-75486632D01*
X126855990Y-75243411D01*
X126967932Y-74973158D01*
X127025000Y-74686260D01*
X127025000Y-74393740D01*
X126967932Y-74106842D01*
X126855990Y-73836589D01*
X126693475Y-73593368D01*
X126486632Y-73386525D01*
X126312240Y-73270000D01*
X126486632Y-73153475D01*
X126693475Y-72946632D01*
X126855990Y-72703411D01*
X126967932Y-72433158D01*
X127025000Y-72146260D01*
X127025000Y-71853740D01*
X126967932Y-71566842D01*
X126855990Y-71296589D01*
X126693475Y-71053368D01*
X126486632Y-70846525D01*
X126243411Y-70684010D01*
X125973158Y-70572068D01*
X125686260Y-70515000D01*
X125393740Y-70515000D01*
X125106842Y-70572068D01*
X124836589Y-70684010D01*
X124593368Y-70846525D01*
X124461513Y-70978380D01*
X124439502Y-70905820D01*
X124380537Y-70795506D01*
X124301185Y-70698815D01*
X124204494Y-70619463D01*
X124094180Y-70560498D01*
X123974482Y-70524188D01*
X123850000Y-70511928D01*
X122150000Y-70511928D01*
X122025518Y-70524188D01*
X121905820Y-70560498D01*
X121795506Y-70619463D01*
X121698815Y-70698815D01*
X121619463Y-70795506D01*
X121560498Y-70905820D01*
X121524188Y-71025518D01*
X121511928Y-71150000D01*
X121511928Y-72850000D01*
X121524188Y-72974482D01*
X121560498Y-73094180D01*
X121619463Y-73204494D01*
X121698815Y-73301185D01*
X121795506Y-73380537D01*
X121905820Y-73439502D01*
X121978380Y-73461513D01*
X121846525Y-73593368D01*
X121684010Y-73836589D01*
X121572068Y-74106842D01*
X121515000Y-74393740D01*
X121515000Y-74686260D01*
X121572068Y-74973158D01*
X121684010Y-75243411D01*
X121846525Y-75486632D01*
X122053368Y-75693475D01*
X122227760Y-75810000D01*
X122053368Y-75926525D01*
X121846525Y-76133368D01*
X121684010Y-76376589D01*
X121572068Y-76646842D01*
X121515000Y-76933740D01*
X121515000Y-77226260D01*
X121572068Y-77513158D01*
X121684010Y-77783411D01*
X121846525Y-78026632D01*
X122053368Y-78233475D01*
X122227760Y-78350000D01*
X122053368Y-78466525D01*
X121846525Y-78673368D01*
X121684010Y-78916589D01*
X121572068Y-79186842D01*
X121515000Y-79473740D01*
X121515000Y-79766260D01*
X121572068Y-80053158D01*
X121684010Y-80323411D01*
X121846525Y-80566632D01*
X122053368Y-80773475D01*
X122227760Y-80890000D01*
X122053368Y-81006525D01*
X121846525Y-81213368D01*
X121684010Y-81456589D01*
X121572068Y-81726842D01*
X121515000Y-82013740D01*
X121515000Y-82306260D01*
X121572068Y-82593158D01*
X121684010Y-82863411D01*
X121846525Y-83106632D01*
X122053368Y-83313475D01*
X122227760Y-83430000D01*
X122053368Y-83546525D01*
X121846525Y-83753368D01*
X121684010Y-83996589D01*
X121572068Y-84266842D01*
X121515000Y-84553740D01*
X121515000Y-84846260D01*
X121572068Y-85133158D01*
X121684010Y-85403411D01*
X121846525Y-85646632D01*
X122053368Y-85853475D01*
X122227760Y-85970000D01*
X122053368Y-86086525D01*
X121846525Y-86293368D01*
X121684010Y-86536589D01*
X121572068Y-86806842D01*
X121515000Y-87093740D01*
X121515000Y-87386260D01*
X121572068Y-87673158D01*
X121684010Y-87943411D01*
X121846525Y-88186632D01*
X122053368Y-88393475D01*
X122227760Y-88510000D01*
X122053368Y-88626525D01*
X121846525Y-88833368D01*
X121684010Y-89076589D01*
X121572068Y-89346842D01*
X121515000Y-89633740D01*
X121515000Y-89926260D01*
X121572068Y-90213158D01*
X121684010Y-90483411D01*
X121846525Y-90726632D01*
X122053368Y-90933475D01*
X122227760Y-91050000D01*
X122053368Y-91166525D01*
X121846525Y-91373368D01*
X121684010Y-91616589D01*
X121572068Y-91886842D01*
X121515000Y-92173740D01*
X121515000Y-92466260D01*
X121572068Y-92753158D01*
X121684010Y-93023411D01*
X121846525Y-93266632D01*
X122053368Y-93473475D01*
X122235534Y-93595195D01*
X122118645Y-93664822D01*
X121902412Y-93859731D01*
X121728359Y-94093080D01*
X121603175Y-94355901D01*
X121558524Y-94503110D01*
X121679845Y-94733000D01*
X122873000Y-94733000D01*
X122873000Y-94713000D01*
X123127000Y-94713000D01*
X123127000Y-94733000D01*
X123147000Y-94733000D01*
X123147000Y-94987000D01*
X123127000Y-94987000D01*
X123127000Y-96180814D01*
X123356891Y-96301481D01*
X123631252Y-96204157D01*
X123881355Y-96055178D01*
X124097588Y-95860269D01*
X124268900Y-95630594D01*
X124386525Y-95806632D01*
X124593368Y-96013475D01*
X124836589Y-96175990D01*
X125106842Y-96287932D01*
X125393740Y-96345000D01*
X125686260Y-96345000D01*
X125973158Y-96287932D01*
X126243411Y-96175990D01*
X126486632Y-96013475D01*
X126693475Y-95806632D01*
X126731983Y-95749000D01*
X128196340Y-95749000D01*
X128240000Y-95753300D01*
X128283660Y-95749000D01*
X128283667Y-95749000D01*
X128294868Y-95747897D01*
X126702264Y-97340501D01*
X126668341Y-97368341D01*
X126557247Y-97503710D01*
X126474697Y-97658150D01*
X126423864Y-97825727D01*
X126411000Y-97956334D01*
X126411000Y-97956340D01*
X126406700Y-98000000D01*
X126411000Y-98043660D01*
X126411001Y-133149203D01*
X126161088Y-132809452D01*
X125497118Y-132449151D01*
X124775615Y-132225306D01*
X124024305Y-132146520D01*
X123272062Y-132215822D01*
X122547792Y-132430548D01*
X121879330Y-132782445D01*
X121838912Y-132809452D01*
X121478724Y-133299119D01*
X120660000Y-133299119D01*
X120660000Y-95216890D01*
X121558524Y-95216890D01*
X121603175Y-95364099D01*
X121728359Y-95626920D01*
X121902412Y-95860269D01*
X122118645Y-96055178D01*
X122368748Y-96204157D01*
X122643109Y-96301481D01*
X122873000Y-96180814D01*
X122873000Y-94987000D01*
X121679845Y-94987000D01*
X121558524Y-95216890D01*
X120660000Y-95216890D01*
X120660000Y-66700881D01*
X121478724Y-66700881D01*
X121838912Y-67190548D01*
X122502882Y-67550849D01*
X123224385Y-67774694D01*
X123975695Y-67853480D01*
X124727938Y-67784178D01*
X125452208Y-67569452D01*
X126120670Y-67217555D01*
X126161088Y-67190548D01*
X126521276Y-66700881D01*
X124000000Y-64179605D01*
X121478724Y-66700881D01*
X120660000Y-66700881D01*
X120660000Y-65888074D01*
X120782445Y-66120670D01*
X120809452Y-66161088D01*
X121299119Y-66521276D01*
X123820395Y-64000000D01*
X124179605Y-64000000D01*
X126700881Y-66521276D01*
X127190548Y-66161088D01*
X127550849Y-65497118D01*
X127719325Y-64954080D01*
X136510525Y-64954080D01*
X136594208Y-65208261D01*
X136866775Y-65339158D01*
X137159642Y-65414365D01*
X137461553Y-65430991D01*
X137760907Y-65388397D01*
X138046199Y-65288222D01*
X138195792Y-65208261D01*
X138279475Y-64954080D01*
X137395000Y-64069605D01*
X136510525Y-64954080D01*
X127719325Y-64954080D01*
X127774694Y-64775615D01*
X127853480Y-64024305D01*
X127847239Y-63956553D01*
X135854009Y-63956553D01*
X135896603Y-64255907D01*
X135996778Y-64541199D01*
X136076739Y-64690792D01*
X136330920Y-64774475D01*
X137215395Y-63890000D01*
X137574605Y-63890000D01*
X138459080Y-64774475D01*
X138713261Y-64690792D01*
X138844158Y-64418225D01*
X138919365Y-64125358D01*
X138935991Y-63823447D01*
X138893397Y-63524093D01*
X138793222Y-63238801D01*
X138713261Y-63089208D01*
X138459080Y-63005525D01*
X137574605Y-63890000D01*
X137215395Y-63890000D01*
X136330920Y-63005525D01*
X136076739Y-63089208D01*
X135945842Y-63361775D01*
X135870635Y-63654642D01*
X135854009Y-63956553D01*
X127847239Y-63956553D01*
X127784178Y-63272062D01*
X127651910Y-62825920D01*
X136510525Y-62825920D01*
X137395000Y-63710395D01*
X138279475Y-62825920D01*
X138195792Y-62571739D01*
X137923225Y-62440842D01*
X137630358Y-62365635D01*
X137328447Y-62349009D01*
X137029093Y-62391603D01*
X136743801Y-62491778D01*
X136594208Y-62571739D01*
X136510525Y-62825920D01*
X127651910Y-62825920D01*
X127569452Y-62547792D01*
X127217555Y-61879330D01*
X127190548Y-61838912D01*
X126700881Y-61478724D01*
X124179605Y-64000000D01*
X123820395Y-64000000D01*
X123806253Y-63985858D01*
X123985858Y-63806253D01*
X124000000Y-63820395D01*
X126521276Y-61299119D01*
X126161088Y-60809452D01*
X125885675Y-60660000D01*
X194111926Y-60660000D01*
X193879330Y-60782445D01*
G37*
G04 #@! TD.AperFunction*
D20*
X171965000Y-116000000D02*
X171977201Y-116123882D01*
X172013336Y-116243004D01*
X172072017Y-116352787D01*
X172150987Y-116449013D01*
X172247213Y-116527983D01*
X172356996Y-116586664D01*
X172476118Y-116622799D01*
X172600000Y-116635000D01*
X173013405Y-116635000D01*
X173011928Y-116650000D01*
X173011928Y-118350000D01*
X173024188Y-118474482D01*
X173060498Y-118594180D01*
X173103000Y-118673695D01*
X173103001Y-119805366D01*
X173096241Y-119874000D01*
X173123214Y-120147859D01*
X173192785Y-120377201D01*
X173203097Y-120411195D01*
X173332818Y-120653887D01*
X173507393Y-120866608D01*
X173560704Y-120910359D01*
X173589636Y-120939291D01*
X173633392Y-120992608D01*
X173846113Y-121167183D01*
X174088805Y-121296904D01*
X174352140Y-121376786D01*
X174557375Y-121397000D01*
X174626000Y-121403759D01*
X174694625Y-121397000D01*
X179331375Y-121397000D01*
X179400000Y-121403759D01*
X179468625Y-121397000D01*
X182021345Y-121397000D01*
X184403000Y-123778657D01*
X184403001Y-126474709D01*
X184273738Y-126603972D01*
X184171414Y-126757111D01*
X184100932Y-126927271D01*
X184065000Y-127107911D01*
X184065000Y-127292089D01*
X184100932Y-127472729D01*
X184132938Y-127550000D01*
X184100932Y-127627271D01*
X184065000Y-127807911D01*
X184065000Y-127992089D01*
X184100932Y-128172729D01*
X184132938Y-128250000D01*
X184100932Y-128327271D01*
X184065000Y-128507911D01*
X184065000Y-128566974D01*
X184049013Y-128550987D01*
X183952787Y-128472017D01*
X183843004Y-128413336D01*
X183723882Y-128377201D01*
X183600000Y-128365000D01*
X166720497Y-128365000D01*
X166735000Y-128292087D01*
X166735000Y-128107909D01*
X166734744Y-128106624D01*
X166772729Y-128099068D01*
X166942889Y-128028586D01*
X167096028Y-127926262D01*
X167226262Y-127796028D01*
X167328586Y-127642889D01*
X167399068Y-127472729D01*
X167435000Y-127292089D01*
X167435000Y-127107911D01*
X167415109Y-127007911D01*
X170265000Y-127007911D01*
X170265000Y-127192089D01*
X170300932Y-127372729D01*
X170371414Y-127542889D01*
X170473738Y-127696028D01*
X170603972Y-127826262D01*
X170757111Y-127928586D01*
X170927271Y-127999068D01*
X171107911Y-128035000D01*
X171292089Y-128035000D01*
X171472729Y-127999068D01*
X171642889Y-127928586D01*
X171796028Y-127826262D01*
X171926262Y-127696028D01*
X172028586Y-127542889D01*
X172099068Y-127372729D01*
X172132000Y-127207170D01*
X172172729Y-127199068D01*
X172342889Y-127128586D01*
X172496028Y-127026262D01*
X172626262Y-126896028D01*
X172728586Y-126742889D01*
X172799068Y-126572729D01*
X172835000Y-126392089D01*
X172835000Y-126207911D01*
X172799068Y-126027271D01*
X172728586Y-125857111D01*
X172626262Y-125703972D01*
X172496028Y-125573738D01*
X172342889Y-125471414D01*
X172172729Y-125400932D01*
X171992089Y-125365000D01*
X171807911Y-125365000D01*
X171627271Y-125400932D01*
X171457111Y-125471414D01*
X171303972Y-125573738D01*
X171173738Y-125703972D01*
X171071414Y-125857111D01*
X171000932Y-126027271D01*
X170968000Y-126192830D01*
X170927271Y-126200932D01*
X170757111Y-126271414D01*
X170603972Y-126373738D01*
X170473738Y-126503972D01*
X170371414Y-126657111D01*
X170300932Y-126827271D01*
X170265000Y-127007911D01*
X167415109Y-127007911D01*
X167399068Y-126927271D01*
X167328586Y-126757111D01*
X167226262Y-126603972D01*
X167096028Y-126473738D01*
X166942889Y-126371414D01*
X166772729Y-126300932D01*
X166592089Y-126265000D01*
X166407911Y-126265000D01*
X166227271Y-126300932D01*
X166057111Y-126371414D01*
X165903972Y-126473738D01*
X165773738Y-126603972D01*
X165671414Y-126757111D01*
X165600932Y-126927271D01*
X165565000Y-127107911D01*
X165565000Y-127292089D01*
X165565256Y-127293374D01*
X165527271Y-127300930D01*
X165357111Y-127371412D01*
X165203972Y-127473736D01*
X165073738Y-127603970D01*
X164971414Y-127757109D01*
X164900932Y-127927269D01*
X164865000Y-128107909D01*
X164865000Y-128292087D01*
X164879503Y-128365000D01*
X157333026Y-128365000D01*
X161590115Y-124107911D01*
X166965000Y-124107911D01*
X166965000Y-124292089D01*
X167000932Y-124472729D01*
X167071414Y-124642889D01*
X167173738Y-124796028D01*
X167303972Y-124926262D01*
X167457111Y-125028586D01*
X167627271Y-125099068D01*
X167807911Y-125135000D01*
X167992089Y-125135000D01*
X168172729Y-125099068D01*
X168342889Y-125028586D01*
X168496028Y-124926262D01*
X168626262Y-124796028D01*
X168728586Y-124642889D01*
X168799068Y-124472729D01*
X168835000Y-124292089D01*
X168835000Y-124107911D01*
X168799068Y-123927271D01*
X168728586Y-123757111D01*
X168626262Y-123603972D01*
X168496028Y-123473738D01*
X168342889Y-123371414D01*
X168172729Y-123300932D01*
X167992089Y-123265000D01*
X167807911Y-123265000D01*
X167627271Y-123300932D01*
X167457111Y-123371414D01*
X167303972Y-123473738D01*
X167173738Y-123603972D01*
X167071414Y-123757111D01*
X167000932Y-123927271D01*
X166965000Y-124107911D01*
X161590115Y-124107911D01*
X171863026Y-113835000D01*
X171965000Y-113835000D01*
X171965000Y-116000000D01*
G04 #@! TA.AperFunction,Conductor*
D21*
G36*
X171965000Y-116000000D02*
G01*
X171977201Y-116123882D01*
X172013336Y-116243004D01*
X172072017Y-116352787D01*
X172150987Y-116449013D01*
X172247213Y-116527983D01*
X172356996Y-116586664D01*
X172476118Y-116622799D01*
X172600000Y-116635000D01*
X173013405Y-116635000D01*
X173011928Y-116650000D01*
X173011928Y-118350000D01*
X173024188Y-118474482D01*
X173060498Y-118594180D01*
X173103000Y-118673695D01*
X173103001Y-119805366D01*
X173096241Y-119874000D01*
X173123214Y-120147859D01*
X173192785Y-120377201D01*
X173203097Y-120411195D01*
X173332818Y-120653887D01*
X173507393Y-120866608D01*
X173560704Y-120910359D01*
X173589636Y-120939291D01*
X173633392Y-120992608D01*
X173846113Y-121167183D01*
X174088805Y-121296904D01*
X174352140Y-121376786D01*
X174557375Y-121397000D01*
X174626000Y-121403759D01*
X174694625Y-121397000D01*
X179331375Y-121397000D01*
X179400000Y-121403759D01*
X179468625Y-121397000D01*
X182021345Y-121397000D01*
X184403000Y-123778657D01*
X184403001Y-126474709D01*
X184273738Y-126603972D01*
X184171414Y-126757111D01*
X184100932Y-126927271D01*
X184065000Y-127107911D01*
X184065000Y-127292089D01*
X184100932Y-127472729D01*
X184132938Y-127550000D01*
X184100932Y-127627271D01*
X184065000Y-127807911D01*
X184065000Y-127992089D01*
X184100932Y-128172729D01*
X184132938Y-128250000D01*
X184100932Y-128327271D01*
X184065000Y-128507911D01*
X184065000Y-128566974D01*
X184049013Y-128550987D01*
X183952787Y-128472017D01*
X183843004Y-128413336D01*
X183723882Y-128377201D01*
X183600000Y-128365000D01*
X166720497Y-128365000D01*
X166735000Y-128292087D01*
X166735000Y-128107909D01*
X166734744Y-128106624D01*
X166772729Y-128099068D01*
X166942889Y-128028586D01*
X167096028Y-127926262D01*
X167226262Y-127796028D01*
X167328586Y-127642889D01*
X167399068Y-127472729D01*
X167435000Y-127292089D01*
X167435000Y-127107911D01*
X167415109Y-127007911D01*
X170265000Y-127007911D01*
X170265000Y-127192089D01*
X170300932Y-127372729D01*
X170371414Y-127542889D01*
X170473738Y-127696028D01*
X170603972Y-127826262D01*
X170757111Y-127928586D01*
X170927271Y-127999068D01*
X171107911Y-128035000D01*
X171292089Y-128035000D01*
X171472729Y-127999068D01*
X171642889Y-127928586D01*
X171796028Y-127826262D01*
X171926262Y-127696028D01*
X172028586Y-127542889D01*
X172099068Y-127372729D01*
X172132000Y-127207170D01*
X172172729Y-127199068D01*
X172342889Y-127128586D01*
X172496028Y-127026262D01*
X172626262Y-126896028D01*
X172728586Y-126742889D01*
X172799068Y-126572729D01*
X172835000Y-126392089D01*
X172835000Y-126207911D01*
X172799068Y-126027271D01*
X172728586Y-125857111D01*
X172626262Y-125703972D01*
X172496028Y-125573738D01*
X172342889Y-125471414D01*
X172172729Y-125400932D01*
X171992089Y-125365000D01*
X171807911Y-125365000D01*
X171627271Y-125400932D01*
X171457111Y-125471414D01*
X171303972Y-125573738D01*
X171173738Y-125703972D01*
X171071414Y-125857111D01*
X171000932Y-126027271D01*
X170968000Y-126192830D01*
X170927271Y-126200932D01*
X170757111Y-126271414D01*
X170603972Y-126373738D01*
X170473738Y-126503972D01*
X170371414Y-126657111D01*
X170300932Y-126827271D01*
X170265000Y-127007911D01*
X167415109Y-127007911D01*
X167399068Y-126927271D01*
X167328586Y-126757111D01*
X167226262Y-126603972D01*
X167096028Y-126473738D01*
X166942889Y-126371414D01*
X166772729Y-126300932D01*
X166592089Y-126265000D01*
X166407911Y-126265000D01*
X166227271Y-126300932D01*
X166057111Y-126371414D01*
X165903972Y-126473738D01*
X165773738Y-126603972D01*
X165671414Y-126757111D01*
X165600932Y-126927271D01*
X165565000Y-127107911D01*
X165565000Y-127292089D01*
X165565256Y-127293374D01*
X165527271Y-127300930D01*
X165357111Y-127371412D01*
X165203972Y-127473736D01*
X165073738Y-127603970D01*
X164971414Y-127757109D01*
X164900932Y-127927269D01*
X164865000Y-128107909D01*
X164865000Y-128292087D01*
X164879503Y-128365000D01*
X157333026Y-128365000D01*
X161590115Y-124107911D01*
X166965000Y-124107911D01*
X166965000Y-124292089D01*
X167000932Y-124472729D01*
X167071414Y-124642889D01*
X167173738Y-124796028D01*
X167303972Y-124926262D01*
X167457111Y-125028586D01*
X167627271Y-125099068D01*
X167807911Y-125135000D01*
X167992089Y-125135000D01*
X168172729Y-125099068D01*
X168342889Y-125028586D01*
X168496028Y-124926262D01*
X168626262Y-124796028D01*
X168728586Y-124642889D01*
X168799068Y-124472729D01*
X168835000Y-124292089D01*
X168835000Y-124107911D01*
X168799068Y-123927271D01*
X168728586Y-123757111D01*
X168626262Y-123603972D01*
X168496028Y-123473738D01*
X168342889Y-123371414D01*
X168172729Y-123300932D01*
X167992089Y-123265000D01*
X167807911Y-123265000D01*
X167627271Y-123300932D01*
X167457111Y-123371414D01*
X167303972Y-123473738D01*
X167173738Y-123603972D01*
X167071414Y-123757111D01*
X167000932Y-123927271D01*
X166965000Y-124107911D01*
X161590115Y-124107911D01*
X171863026Y-113835000D01*
X171965000Y-113835000D01*
X171965000Y-116000000D01*
G37*
G04 #@! TD.AperFunction*
D22*
X145773000Y-91023000D02*
X145631244Y-91023000D01*
X145659774Y-91003937D01*
X145773000Y-90890711D01*
X145773000Y-91023000D01*
G04 #@! TA.AperFunction,NonConductor*
D23*
G36*
X145773000Y-91023000D02*
G01*
X145631244Y-91023000D01*
X145659774Y-91003937D01*
X145773000Y-90890711D01*
X145773000Y-91023000D01*
G37*
G04 #@! TD.AperFunction*
D22*
X145773000Y-89509289D02*
X145659774Y-89396063D01*
X145490256Y-89282795D01*
X145301898Y-89204774D01*
X145101939Y-89165000D01*
X144898061Y-89165000D01*
X144698102Y-89204774D01*
X144509744Y-89282795D01*
X144500000Y-89289306D01*
X144490256Y-89282795D01*
X144301898Y-89204774D01*
X144101939Y-89165000D01*
X143898061Y-89165000D01*
X143698102Y-89204774D01*
X143509744Y-89282795D01*
X143500000Y-89289306D01*
X143490256Y-89282795D01*
X143301898Y-89204774D01*
X143101939Y-89165000D01*
X142898061Y-89165000D01*
X142698102Y-89204774D01*
X142509744Y-89282795D01*
X142467532Y-89311000D01*
X142127000Y-89311000D01*
X142127000Y-87977000D01*
X145773000Y-87977000D01*
X145773000Y-89509289D01*
G04 #@! TA.AperFunction,NonConductor*
D23*
G36*
X145773000Y-89509289D02*
G01*
X145659774Y-89396063D01*
X145490256Y-89282795D01*
X145301898Y-89204774D01*
X145101939Y-89165000D01*
X144898061Y-89165000D01*
X144698102Y-89204774D01*
X144509744Y-89282795D01*
X144500000Y-89289306D01*
X144490256Y-89282795D01*
X144301898Y-89204774D01*
X144101939Y-89165000D01*
X143898061Y-89165000D01*
X143698102Y-89204774D01*
X143509744Y-89282795D01*
X143500000Y-89289306D01*
X143490256Y-89282795D01*
X143301898Y-89204774D01*
X143101939Y-89165000D01*
X142898061Y-89165000D01*
X142698102Y-89204774D01*
X142509744Y-89282795D01*
X142467532Y-89311000D01*
X142127000Y-89311000D01*
X142127000Y-87977000D01*
X145773000Y-87977000D01*
X145773000Y-89509289D01*
G37*
G04 #@! TD.AperFunction*
D20*
X149373000Y-88373000D02*
X147227000Y-88373000D01*
X147227000Y-86427000D01*
X149373000Y-86427000D01*
X149373000Y-88373000D01*
G04 #@! TA.AperFunction,Conductor*
D21*
G36*
X149373000Y-88373000D02*
G01*
X147227000Y-88373000D01*
X147227000Y-86427000D01*
X149373000Y-86427000D01*
X149373000Y-88373000D01*
G37*
G04 #@! TD.AperFunction*
M02*
