G04 #@! TF.GenerationSoftware,KiCad,Pcbnew,(5.1.12)-1*
G04 #@! TF.CreationDate,2022-01-20T23:42:31+07:00*
G04 #@! TF.ProjectId,Driver_Board,44726976-6572-45f4-926f-6172642e6b69,v.2.0*
G04 #@! TF.SameCoordinates,Original*
G04 #@! TF.FileFunction,Soldermask,Bot*
G04 #@! TF.FilePolarity,Negative*
%FSLAX46Y46*%
G04 Gerber Fmt 4.6, Leading zero omitted, Abs format (unit mm)*
G04 Created by KiCad (PCBNEW (5.1.12)-1) date 2022-01-20 23:42:31*
%MOMM*%
%LPD*%
G01*
G04 APERTURE LIST*
%ADD10O,1.700000X1.700000*%
%ADD11R,1.700000X1.700000*%
%ADD12C,6.400000*%
%ADD13C,0.800000*%
%ADD14C,1.800000*%
%ADD15R,1.800000X1.800000*%
%ADD16C,0.254000*%
%ADD17C,0.100000*%
G04 APERTURE END LIST*
D10*
X172220000Y-111900000D03*
X169680000Y-111900000D03*
X167140000Y-111900000D03*
D11*
X164600000Y-111900000D03*
D12*
X124000000Y-64000000D03*
D13*
X126400000Y-64000000D03*
X125697056Y-65697056D03*
X124000000Y-66400000D03*
X122302944Y-65697056D03*
X121600000Y-64000000D03*
X122302944Y-62302944D03*
X124000000Y-61600000D03*
X125697056Y-62302944D03*
X197697056Y-62302944D03*
X196000000Y-61600000D03*
X194302944Y-62302944D03*
X193600000Y-64000000D03*
X194302944Y-65697056D03*
X196000000Y-66400000D03*
X197697056Y-65697056D03*
X198400000Y-64000000D03*
D12*
X196000000Y-64000000D03*
X196000000Y-136000000D03*
D13*
X198400000Y-136000000D03*
X197697056Y-137697056D03*
X196000000Y-138400000D03*
X194302944Y-137697056D03*
X193600000Y-136000000D03*
X194302944Y-134302944D03*
X196000000Y-133600000D03*
X197697056Y-134302944D03*
X125697056Y-134302944D03*
X124000000Y-133600000D03*
X122302944Y-134302944D03*
X121600000Y-136000000D03*
X122302944Y-137697056D03*
X124000000Y-138400000D03*
X125697056Y-137697056D03*
X126400000Y-136000000D03*
D12*
X124000000Y-136000000D03*
D11*
X123000000Y-72000000D03*
D10*
X125540000Y-72000000D03*
X123000000Y-74540000D03*
X125540000Y-74540000D03*
X123000000Y-77080000D03*
X125540000Y-77080000D03*
X123000000Y-79620000D03*
X125540000Y-79620000D03*
X123000000Y-82160000D03*
X125540000Y-82160000D03*
X123000000Y-84700000D03*
X125540000Y-84700000D03*
X123000000Y-87240000D03*
X125540000Y-87240000D03*
X123000000Y-89780000D03*
X125540000Y-89780000D03*
X123000000Y-92320000D03*
X125540000Y-92320000D03*
X123000000Y-94860000D03*
X125540000Y-94860000D03*
D11*
X187200000Y-114600000D03*
D10*
X187200000Y-117140000D03*
D11*
X156010000Y-66000000D03*
D10*
X158550000Y-66000000D03*
X161090000Y-66000000D03*
X161080000Y-69000000D03*
X158540000Y-69000000D03*
D11*
X156000000Y-69000000D03*
X160560000Y-97820000D03*
D10*
X163100000Y-97820000D03*
X160560000Y-100360000D03*
X163100000Y-100360000D03*
X160560000Y-102900000D03*
X163100000Y-102900000D03*
X160560000Y-105440000D03*
X163100000Y-105440000D03*
D11*
X174500000Y-117500000D03*
D10*
X174500000Y-114960000D03*
X177040000Y-117500000D03*
X177040000Y-114960000D03*
X179580000Y-117500000D03*
X179580000Y-114960000D03*
X182120000Y-117500000D03*
X182120000Y-114960000D03*
X172020000Y-79760000D03*
X172020000Y-82300000D03*
X169480000Y-79760000D03*
X169480000Y-82300000D03*
X166940000Y-79760000D03*
X166940000Y-82300000D03*
X164400000Y-79760000D03*
D11*
X164400000Y-82300000D03*
X190600000Y-67000000D03*
D10*
X188060000Y-67000000D03*
X185520000Y-67000000D03*
X182980000Y-67000000D03*
D14*
X136105000Y-134210000D03*
D15*
X132295000Y-134210000D03*
X141205000Y-63890000D03*
D14*
X137395000Y-63890000D03*
D16*
X174773000Y-119600000D02*
X174775440Y-119624776D01*
X174782667Y-119648601D01*
X174794403Y-119670557D01*
X174810197Y-119689803D01*
X175010197Y-119889803D01*
X175029443Y-119905597D01*
X175051399Y-119917333D01*
X175075224Y-119924560D01*
X175100000Y-119927000D01*
X182647394Y-119927000D01*
X185973000Y-123252606D01*
X185973000Y-127273000D01*
X185527000Y-127273000D01*
X185527000Y-123400000D01*
X185524560Y-123375224D01*
X185517333Y-123351399D01*
X185505597Y-123329443D01*
X185489803Y-123310197D01*
X182589803Y-120410197D01*
X182570557Y-120394403D01*
X182548601Y-120382667D01*
X182524776Y-120375440D01*
X182500000Y-120373000D01*
X174452606Y-120373000D01*
X174227000Y-120147394D01*
X174227000Y-118227000D01*
X174773000Y-118227000D01*
X174773000Y-119600000D01*
D17*
G36*
X174773000Y-119600000D02*
G01*
X174775440Y-119624776D01*
X174782667Y-119648601D01*
X174794403Y-119670557D01*
X174810197Y-119689803D01*
X175010197Y-119889803D01*
X175029443Y-119905597D01*
X175051399Y-119917333D01*
X175075224Y-119924560D01*
X175100000Y-119927000D01*
X182647394Y-119927000D01*
X185973000Y-123252606D01*
X185973000Y-127273000D01*
X185527000Y-127273000D01*
X185527000Y-123400000D01*
X185524560Y-123375224D01*
X185517333Y-123351399D01*
X185505597Y-123329443D01*
X185489803Y-123310197D01*
X182589803Y-120410197D01*
X182570557Y-120394403D01*
X182548601Y-120382667D01*
X182524776Y-120375440D01*
X182500000Y-120373000D01*
X174452606Y-120373000D01*
X174227000Y-120147394D01*
X174227000Y-118227000D01*
X174773000Y-118227000D01*
X174773000Y-119600000D01*
G37*
D16*
X179773000Y-119673000D02*
X179327000Y-119673000D01*
X179327000Y-117927000D01*
X179773000Y-117927000D01*
X179773000Y-119673000D01*
D17*
G36*
X179773000Y-119673000D02*
G01*
X179327000Y-119673000D01*
X179327000Y-117927000D01*
X179773000Y-117927000D01*
X179773000Y-119673000D01*
G37*
D16*
X181273000Y-104847394D02*
X180647394Y-105473000D01*
X175827000Y-105473000D01*
X175827000Y-98127000D01*
X181273000Y-98127000D01*
X181273000Y-104847394D01*
D17*
G36*
X181273000Y-104847394D02*
G01*
X180647394Y-105473000D01*
X175827000Y-105473000D01*
X175827000Y-98127000D01*
X181273000Y-98127000D01*
X181273000Y-104847394D01*
G37*
D16*
X181373000Y-78473000D02*
X175252606Y-78473000D01*
X174627000Y-77847394D01*
X174627000Y-72627000D01*
X181373000Y-72627000D01*
X181373000Y-78473000D01*
D17*
G36*
X181373000Y-78473000D02*
G01*
X175252606Y-78473000D01*
X174627000Y-77847394D01*
X174627000Y-72627000D01*
X181373000Y-72627000D01*
X181373000Y-78473000D01*
G37*
M02*
