G04 #@! TF.GenerationSoftware,KiCad,Pcbnew,(5.1.12)-1*
G04 #@! TF.CreationDate,2022-01-20T23:42:30+07:00*
G04 #@! TF.ProjectId,Driver_Board,44726976-6572-45f4-926f-6172642e6b69,v.2.0*
G04 #@! TF.SameCoordinates,Original*
G04 #@! TF.FileFunction,Legend,Top*
G04 #@! TF.FilePolarity,Positive*
%FSLAX46Y46*%
G04 Gerber Fmt 4.6, Leading zero omitted, Abs format (unit mm)*
G04 Created by KiCad (PCBNEW (5.1.12)-1) date 2022-01-20 23:42:30*
%MOMM*%
%LPD*%
G01*
G04 APERTURE LIST*
%ADD10C,0.120000*%
%ADD11C,0.127000*%
%ADD12C,0.150000*%
%ADD13C,0.200000*%
%ADD14C,0.254000*%
%ADD15C,0.100000*%
G04 APERTURE END LIST*
D10*
X164800000Y-73700000D02*
X164800000Y-72600000D01*
X162600000Y-73700000D02*
X164800000Y-73700000D01*
D11*
X162911666Y-73548333D02*
X162911666Y-72778333D01*
X163095000Y-72778333D01*
X163205000Y-72815000D01*
X163278333Y-72888333D01*
X163315000Y-72961666D01*
X163351666Y-73108333D01*
X163351666Y-73218333D01*
X163315000Y-73365000D01*
X163278333Y-73438333D01*
X163205000Y-73511666D01*
X163095000Y-73548333D01*
X162911666Y-73548333D01*
X163681666Y-73548333D02*
X163681666Y-72778333D01*
X164121666Y-73548333D01*
X164121666Y-72778333D01*
X164488333Y-73548333D02*
X164488333Y-72778333D01*
X151975000Y-74558333D02*
X152011666Y-74595000D01*
X152048333Y-74705000D01*
X152048333Y-74778333D01*
X152011666Y-74888333D01*
X151938333Y-74961666D01*
X151865000Y-74998333D01*
X151718333Y-75035000D01*
X151608333Y-75035000D01*
X151461666Y-74998333D01*
X151388333Y-74961666D01*
X151315000Y-74888333D01*
X151278333Y-74778333D01*
X151278333Y-74705000D01*
X151315000Y-74595000D01*
X151351666Y-74558333D01*
X152048333Y-73861666D02*
X152048333Y-74228333D01*
X151278333Y-74228333D01*
X152048333Y-73605000D02*
X151278333Y-73605000D01*
X152048333Y-73165000D02*
X151608333Y-73495000D01*
X151278333Y-73165000D02*
X151718333Y-73605000D01*
X154178333Y-74815000D02*
X154948333Y-74631666D01*
X154398333Y-74485000D01*
X154948333Y-74338333D01*
X154178333Y-74155000D01*
X154948333Y-73861666D02*
X154178333Y-73861666D01*
X154178333Y-73678333D01*
X154215000Y-73568333D01*
X154288333Y-73495000D01*
X154361666Y-73458333D01*
X154508333Y-73421666D01*
X154618333Y-73421666D01*
X154765000Y-73458333D01*
X154838333Y-73495000D01*
X154911666Y-73568333D01*
X154948333Y-73678333D01*
X154948333Y-73861666D01*
X157445000Y-74375000D02*
X157445000Y-74631666D01*
X157848333Y-74631666D02*
X157078333Y-74631666D01*
X157078333Y-74265000D01*
X157115000Y-73568333D02*
X157078333Y-73641666D01*
X157078333Y-73751666D01*
X157115000Y-73861666D01*
X157188333Y-73935000D01*
X157261666Y-73971666D01*
X157408333Y-74008333D01*
X157518333Y-74008333D01*
X157665000Y-73971666D01*
X157738333Y-73935000D01*
X157811666Y-73861666D01*
X157848333Y-73751666D01*
X157848333Y-73678333D01*
X157811666Y-73568333D01*
X157775000Y-73531666D01*
X157518333Y-73531666D01*
X157518333Y-73678333D01*
X157628333Y-78361666D02*
X157628333Y-77995000D01*
X157848333Y-78435000D02*
X157078333Y-78178333D01*
X157848333Y-77921666D01*
X157848333Y-77298333D02*
X157848333Y-77665000D01*
X157078333Y-77665000D01*
X157151666Y-77078333D02*
X157115000Y-77041666D01*
X157078333Y-76968333D01*
X157078333Y-76785000D01*
X157115000Y-76711666D01*
X157151666Y-76675000D01*
X157225000Y-76638333D01*
X157298333Y-76638333D01*
X157408333Y-76675000D01*
X157848333Y-77115000D01*
X157848333Y-76638333D01*
X154728333Y-78361666D02*
X154728333Y-77995000D01*
X154948333Y-78435000D02*
X154178333Y-78178333D01*
X154948333Y-77921666D01*
X154948333Y-77298333D02*
X154948333Y-77665000D01*
X154178333Y-77665000D01*
X154948333Y-76638333D02*
X154948333Y-77078333D01*
X154948333Y-76858333D02*
X154178333Y-76858333D01*
X154288333Y-76931666D01*
X154361666Y-77005000D01*
X154398333Y-77078333D01*
X151278333Y-78123333D02*
X152048333Y-77610000D01*
X151278333Y-77610000D02*
X152048333Y-78123333D01*
X151351666Y-77353333D02*
X151315000Y-77316666D01*
X151278333Y-77243333D01*
X151278333Y-77060000D01*
X151315000Y-76986666D01*
X151351666Y-76950000D01*
X151425000Y-76913333D01*
X151498333Y-76913333D01*
X151608333Y-76950000D01*
X152048333Y-77390000D01*
X152048333Y-76913333D01*
X148378333Y-78123333D02*
X149148333Y-77610000D01*
X148378333Y-77610000D02*
X149148333Y-78123333D01*
X149148333Y-76913333D02*
X149148333Y-77353333D01*
X149148333Y-77133333D02*
X148378333Y-77133333D01*
X148488333Y-77206666D01*
X148561666Y-77280000D01*
X148598333Y-77353333D01*
X149111666Y-75090000D02*
X149148333Y-74980000D01*
X149148333Y-74796666D01*
X149111666Y-74723333D01*
X149075000Y-74686666D01*
X149001666Y-74650000D01*
X148928333Y-74650000D01*
X148855000Y-74686666D01*
X148818333Y-74723333D01*
X148781666Y-74796666D01*
X148745000Y-74943333D01*
X148708333Y-75016666D01*
X148671666Y-75053333D01*
X148598333Y-75090000D01*
X148525000Y-75090000D01*
X148451666Y-75053333D01*
X148415000Y-75016666D01*
X148378333Y-74943333D01*
X148378333Y-74760000D01*
X148415000Y-74650000D01*
X148378333Y-74173333D02*
X148378333Y-74026666D01*
X148415000Y-73953333D01*
X148488333Y-73880000D01*
X148635000Y-73843333D01*
X148891666Y-73843333D01*
X149038333Y-73880000D01*
X149111666Y-73953333D01*
X149148333Y-74026666D01*
X149148333Y-74173333D01*
X149111666Y-74246666D01*
X149038333Y-74320000D01*
X148891666Y-74356666D01*
X148635000Y-74356666D01*
X148488333Y-74320000D01*
X148415000Y-74246666D01*
X148378333Y-74173333D01*
X148378333Y-73586666D02*
X149148333Y-73073333D01*
X148378333Y-73073333D02*
X149148333Y-73586666D01*
D10*
X147400000Y-75800000D02*
X158800000Y-75800000D01*
X150200000Y-72300000D02*
X150200000Y-79400000D01*
X156000000Y-72300000D02*
X156000000Y-79400000D01*
X153000000Y-72300000D02*
X153000000Y-79400000D01*
X158800000Y-72300000D02*
X158800000Y-79400000D01*
X147400000Y-72300000D02*
X158800000Y-72300000D01*
X147400000Y-79400000D02*
X147400000Y-72300000D01*
X158800000Y-79400000D02*
X147400000Y-79400000D01*
X163070000Y-83630000D02*
X158800000Y-79400000D01*
D11*
X140838095Y-137642857D02*
X142361904Y-137642857D01*
X141600000Y-138404761D02*
X141600000Y-136880952D01*
X155613333Y-105911666D02*
X155723333Y-105948333D01*
X155906666Y-105948333D01*
X155980000Y-105911666D01*
X156016666Y-105875000D01*
X156053333Y-105801666D01*
X156053333Y-105728333D01*
X156016666Y-105655000D01*
X155980000Y-105618333D01*
X155906666Y-105581666D01*
X155760000Y-105545000D01*
X155686666Y-105508333D01*
X155650000Y-105471666D01*
X155613333Y-105398333D01*
X155613333Y-105325000D01*
X155650000Y-105251666D01*
X155686666Y-105215000D01*
X155760000Y-105178333D01*
X155943333Y-105178333D01*
X156053333Y-105215000D01*
X156383333Y-105948333D02*
X156383333Y-105178333D01*
X156676666Y-105178333D01*
X156750000Y-105215000D01*
X156786666Y-105251666D01*
X156823333Y-105325000D01*
X156823333Y-105435000D01*
X156786666Y-105508333D01*
X156750000Y-105545000D01*
X156676666Y-105581666D01*
X156383333Y-105581666D01*
X157153333Y-105545000D02*
X157410000Y-105545000D01*
X157520000Y-105948333D02*
X157153333Y-105948333D01*
X157153333Y-105178333D01*
X157520000Y-105178333D01*
X157850000Y-105545000D02*
X158106666Y-105545000D01*
X158216666Y-105948333D02*
X157850000Y-105948333D01*
X157850000Y-105178333D01*
X158216666Y-105178333D01*
X158546666Y-105948333D02*
X158546666Y-105178333D01*
X158730000Y-105178333D01*
X158840000Y-105215000D01*
X158913333Y-105288333D01*
X158950000Y-105361666D01*
X158986666Y-105508333D01*
X158986666Y-105618333D01*
X158950000Y-105765000D01*
X158913333Y-105838333D01*
X158840000Y-105911666D01*
X158730000Y-105948333D01*
X158546666Y-105948333D01*
X156530000Y-103248333D02*
X156530000Y-102478333D01*
X156713333Y-102478333D01*
X156823333Y-102515000D01*
X156896666Y-102588333D01*
X156933333Y-102661666D01*
X156970000Y-102808333D01*
X156970000Y-102918333D01*
X156933333Y-103065000D01*
X156896666Y-103138333D01*
X156823333Y-103211666D01*
X156713333Y-103248333D01*
X156530000Y-103248333D01*
X157300000Y-103248333D02*
X157300000Y-102478333D01*
X158106666Y-103248333D02*
X157850000Y-102881666D01*
X157666666Y-103248333D02*
X157666666Y-102478333D01*
X157960000Y-102478333D01*
X158033333Y-102515000D01*
X158070000Y-102551666D01*
X158106666Y-102625000D01*
X158106666Y-102735000D01*
X158070000Y-102808333D01*
X158033333Y-102845000D01*
X157960000Y-102881666D01*
X157666666Y-102881666D01*
X156383333Y-98211666D02*
X156493333Y-98248333D01*
X156676666Y-98248333D01*
X156750000Y-98211666D01*
X156786666Y-98175000D01*
X156823333Y-98101666D01*
X156823333Y-98028333D01*
X156786666Y-97955000D01*
X156750000Y-97918333D01*
X156676666Y-97881666D01*
X156530000Y-97845000D01*
X156456666Y-97808333D01*
X156420000Y-97771666D01*
X156383333Y-97698333D01*
X156383333Y-97625000D01*
X156420000Y-97551666D01*
X156456666Y-97515000D01*
X156530000Y-97478333D01*
X156713333Y-97478333D01*
X156823333Y-97515000D01*
X157593333Y-98175000D02*
X157556666Y-98211666D01*
X157446666Y-98248333D01*
X157373333Y-98248333D01*
X157263333Y-98211666D01*
X157190000Y-98138333D01*
X157153333Y-98065000D01*
X157116666Y-97918333D01*
X157116666Y-97808333D01*
X157153333Y-97661666D01*
X157190000Y-97588333D01*
X157263333Y-97515000D01*
X157373333Y-97478333D01*
X157446666Y-97478333D01*
X157556666Y-97515000D01*
X157593333Y-97551666D01*
X158290000Y-98248333D02*
X157923333Y-98248333D01*
X157923333Y-97478333D01*
X156365000Y-100711666D02*
X156475000Y-100748333D01*
X156658333Y-100748333D01*
X156731666Y-100711666D01*
X156768333Y-100675000D01*
X156805000Y-100601666D01*
X156805000Y-100528333D01*
X156768333Y-100455000D01*
X156731666Y-100418333D01*
X156658333Y-100381666D01*
X156511666Y-100345000D01*
X156438333Y-100308333D01*
X156401666Y-100271666D01*
X156365000Y-100198333D01*
X156365000Y-100125000D01*
X156401666Y-100051666D01*
X156438333Y-100015000D01*
X156511666Y-99978333D01*
X156695000Y-99978333D01*
X156805000Y-100015000D01*
X157135000Y-100748333D02*
X157135000Y-99978333D01*
X157318333Y-99978333D01*
X157428333Y-100015000D01*
X157501666Y-100088333D01*
X157538333Y-100161666D01*
X157575000Y-100308333D01*
X157575000Y-100418333D01*
X157538333Y-100565000D01*
X157501666Y-100638333D01*
X157428333Y-100711666D01*
X157318333Y-100748333D01*
X157135000Y-100748333D01*
X157868333Y-100528333D02*
X158235000Y-100528333D01*
X157795000Y-100748333D02*
X158051666Y-99978333D01*
X158308333Y-100748333D01*
D10*
X180900000Y-111000000D02*
X180900000Y-113600000D01*
X175700000Y-111000000D02*
X175700000Y-113600000D01*
X174000000Y-111000000D02*
X173600000Y-111000000D01*
X173600000Y-109600000D02*
X173600000Y-113600000D01*
X173600000Y-109600000D02*
X174300000Y-109600000D01*
X183500000Y-109600000D02*
X183500000Y-113600000D01*
X174000000Y-111000000D02*
X183500000Y-111000000D01*
D11*
X174775000Y-112728333D02*
X174811666Y-112765000D01*
X174848333Y-112875000D01*
X174848333Y-112948333D01*
X174811666Y-113058333D01*
X174738333Y-113131666D01*
X174665000Y-113168333D01*
X174518333Y-113205000D01*
X174408333Y-113205000D01*
X174261666Y-113168333D01*
X174188333Y-113131666D01*
X174115000Y-113058333D01*
X174078333Y-112948333D01*
X174078333Y-112875000D01*
X174115000Y-112765000D01*
X174151666Y-112728333D01*
X174811666Y-112435000D02*
X174848333Y-112325000D01*
X174848333Y-112141666D01*
X174811666Y-112068333D01*
X174775000Y-112031666D01*
X174701666Y-111995000D01*
X174628333Y-111995000D01*
X174555000Y-112031666D01*
X174518333Y-112068333D01*
X174481666Y-112141666D01*
X174445000Y-112288333D01*
X174408333Y-112361666D01*
X174371666Y-112398333D01*
X174298333Y-112435000D01*
X174225000Y-112435000D01*
X174151666Y-112398333D01*
X174115000Y-112361666D01*
X174078333Y-112288333D01*
X174078333Y-112105000D01*
X174115000Y-111995000D01*
X177348333Y-113271666D02*
X176578333Y-113271666D01*
X177348333Y-112831666D01*
X176578333Y-112831666D01*
X177275000Y-112025000D02*
X177311666Y-112061666D01*
X177348333Y-112171666D01*
X177348333Y-112245000D01*
X177311666Y-112355000D01*
X177238333Y-112428333D01*
X177165000Y-112465000D01*
X177018333Y-112501666D01*
X176908333Y-112501666D01*
X176761666Y-112465000D01*
X176688333Y-112428333D01*
X176615000Y-112355000D01*
X176578333Y-112245000D01*
X176578333Y-112171666D01*
X176615000Y-112061666D01*
X176651666Y-112025000D01*
X177311666Y-111731666D02*
X177348333Y-111621666D01*
X177348333Y-111438333D01*
X177311666Y-111365000D01*
X177275000Y-111328333D01*
X177201666Y-111291666D01*
X177128333Y-111291666D01*
X177055000Y-111328333D01*
X177018333Y-111365000D01*
X176981666Y-111438333D01*
X176945000Y-111585000D01*
X176908333Y-111658333D01*
X176871666Y-111695000D01*
X176798333Y-111731666D01*
X176725000Y-111731666D01*
X176651666Y-111695000D01*
X176615000Y-111658333D01*
X176578333Y-111585000D01*
X176578333Y-111401666D01*
X176615000Y-111291666D01*
X182448333Y-113271666D02*
X181678333Y-113271666D01*
X182448333Y-112831666D01*
X181678333Y-112831666D01*
X182375000Y-112025000D02*
X182411666Y-112061666D01*
X182448333Y-112171666D01*
X182448333Y-112245000D01*
X182411666Y-112355000D01*
X182338333Y-112428333D01*
X182265000Y-112465000D01*
X182118333Y-112501666D01*
X182008333Y-112501666D01*
X181861666Y-112465000D01*
X181788333Y-112428333D01*
X181715000Y-112355000D01*
X181678333Y-112245000D01*
X181678333Y-112171666D01*
X181715000Y-112061666D01*
X181751666Y-112025000D01*
X182411666Y-111731666D02*
X182448333Y-111621666D01*
X182448333Y-111438333D01*
X182411666Y-111365000D01*
X182375000Y-111328333D01*
X182301666Y-111291666D01*
X182228333Y-111291666D01*
X182155000Y-111328333D01*
X182118333Y-111365000D01*
X182081666Y-111438333D01*
X182045000Y-111585000D01*
X182008333Y-111658333D01*
X181971666Y-111695000D01*
X181898333Y-111731666D01*
X181825000Y-111731666D01*
X181751666Y-111695000D01*
X181715000Y-111658333D01*
X181678333Y-111585000D01*
X181678333Y-111401666D01*
X181715000Y-111291666D01*
X179875000Y-112728333D02*
X179911666Y-112765000D01*
X179948333Y-112875000D01*
X179948333Y-112948333D01*
X179911666Y-113058333D01*
X179838333Y-113131666D01*
X179765000Y-113168333D01*
X179618333Y-113205000D01*
X179508333Y-113205000D01*
X179361666Y-113168333D01*
X179288333Y-113131666D01*
X179215000Y-113058333D01*
X179178333Y-112948333D01*
X179178333Y-112875000D01*
X179215000Y-112765000D01*
X179251666Y-112728333D01*
X179911666Y-112435000D02*
X179948333Y-112325000D01*
X179948333Y-112141666D01*
X179911666Y-112068333D01*
X179875000Y-112031666D01*
X179801666Y-111995000D01*
X179728333Y-111995000D01*
X179655000Y-112031666D01*
X179618333Y-112068333D01*
X179581666Y-112141666D01*
X179545000Y-112288333D01*
X179508333Y-112361666D01*
X179471666Y-112398333D01*
X179398333Y-112435000D01*
X179325000Y-112435000D01*
X179251666Y-112398333D01*
X179215000Y-112361666D01*
X179178333Y-112288333D01*
X179178333Y-112105000D01*
X179215000Y-111995000D01*
D10*
X178400000Y-109600000D02*
X178400000Y-109900000D01*
X174000000Y-109600000D02*
X183500000Y-109600000D01*
D11*
X174790000Y-110711666D02*
X174900000Y-110748333D01*
X175083333Y-110748333D01*
X175156666Y-110711666D01*
X175193333Y-110675000D01*
X175230000Y-110601666D01*
X175230000Y-110528333D01*
X175193333Y-110455000D01*
X175156666Y-110418333D01*
X175083333Y-110381666D01*
X174936666Y-110345000D01*
X174863333Y-110308333D01*
X174826666Y-110271666D01*
X174790000Y-110198333D01*
X174790000Y-110125000D01*
X174826666Y-110051666D01*
X174863333Y-110015000D01*
X174936666Y-109978333D01*
X175120000Y-109978333D01*
X175230000Y-110015000D01*
X175560000Y-110748333D02*
X175560000Y-109978333D01*
X175926666Y-110748333D02*
X175926666Y-109978333D01*
X176366666Y-110748333D01*
X176366666Y-109978333D01*
X176733333Y-109978333D02*
X176733333Y-110601666D01*
X176770000Y-110675000D01*
X176806666Y-110711666D01*
X176880000Y-110748333D01*
X177026666Y-110748333D01*
X177100000Y-110711666D01*
X177136666Y-110675000D01*
X177173333Y-110601666D01*
X177173333Y-109978333D01*
X180321666Y-110345000D02*
X180065000Y-110345000D01*
X180065000Y-110748333D02*
X180065000Y-109978333D01*
X180431666Y-109978333D01*
X180871666Y-109978333D02*
X181018333Y-109978333D01*
X181091666Y-110015000D01*
X181165000Y-110088333D01*
X181201666Y-110235000D01*
X181201666Y-110491666D01*
X181165000Y-110638333D01*
X181091666Y-110711666D01*
X181018333Y-110748333D01*
X180871666Y-110748333D01*
X180798333Y-110711666D01*
X180725000Y-110638333D01*
X180688333Y-110491666D01*
X180688333Y-110235000D01*
X180725000Y-110088333D01*
X180798333Y-110015000D01*
X180871666Y-109978333D01*
X181971666Y-110675000D02*
X181935000Y-110711666D01*
X181825000Y-110748333D01*
X181751666Y-110748333D01*
X181641666Y-110711666D01*
X181568333Y-110638333D01*
X181531666Y-110565000D01*
X181495000Y-110418333D01*
X181495000Y-110308333D01*
X181531666Y-110161666D01*
X181568333Y-110088333D01*
X181641666Y-110015000D01*
X181751666Y-109978333D01*
X181825000Y-109978333D01*
X181935000Y-110015000D01*
X181971666Y-110051666D01*
D10*
X178400000Y-113600000D02*
X178400000Y-109800000D01*
D11*
X176125000Y-106945000D02*
X175868333Y-106945000D01*
X175868333Y-107348333D02*
X175868333Y-106578333D01*
X176235000Y-106578333D01*
X176931666Y-106615000D02*
X176858333Y-106578333D01*
X176748333Y-106578333D01*
X176638333Y-106615000D01*
X176565000Y-106688333D01*
X176528333Y-106761666D01*
X176491666Y-106908333D01*
X176491666Y-107018333D01*
X176528333Y-107165000D01*
X176565000Y-107238333D01*
X176638333Y-107311666D01*
X176748333Y-107348333D01*
X176821666Y-107348333D01*
X176931666Y-107311666D01*
X176968333Y-107275000D01*
X176968333Y-107018333D01*
X176821666Y-107018333D01*
X156611666Y-89678333D02*
X156868333Y-90448333D01*
X157125000Y-89678333D01*
X157381666Y-90448333D02*
X157381666Y-89935000D01*
X157381666Y-89678333D02*
X157345000Y-89715000D01*
X157381666Y-89751666D01*
X157418333Y-89715000D01*
X157381666Y-89678333D01*
X157381666Y-89751666D01*
X157748333Y-89935000D02*
X157748333Y-90448333D01*
X157748333Y-90008333D02*
X157785000Y-89971666D01*
X157858333Y-89935000D01*
X157968333Y-89935000D01*
X158041666Y-89971666D01*
X158078333Y-90045000D01*
X158078333Y-90448333D01*
X156573333Y-87978333D02*
X156830000Y-88748333D01*
X157086666Y-87978333D01*
X157600000Y-88345000D02*
X157710000Y-88381666D01*
X157746666Y-88418333D01*
X157783333Y-88491666D01*
X157783333Y-88601666D01*
X157746666Y-88675000D01*
X157710000Y-88711666D01*
X157636666Y-88748333D01*
X157343333Y-88748333D01*
X157343333Y-87978333D01*
X157600000Y-87978333D01*
X157673333Y-88015000D01*
X157710000Y-88051666D01*
X157746666Y-88125000D01*
X157746666Y-88198333D01*
X157710000Y-88271666D01*
X157673333Y-88308333D01*
X157600000Y-88345000D01*
X157343333Y-88345000D01*
X158113333Y-88748333D02*
X158113333Y-87978333D01*
X158553333Y-88748333D02*
X158223333Y-88308333D01*
X158553333Y-87978333D02*
X158113333Y-88418333D01*
X156648333Y-86828333D02*
X157015000Y-86828333D01*
X156575000Y-87048333D02*
X156831666Y-86278333D01*
X157088333Y-87048333D01*
X157455000Y-87048333D02*
X157381666Y-87011666D01*
X157345000Y-86938333D01*
X157345000Y-86278333D01*
X158078333Y-87048333D02*
X158078333Y-86645000D01*
X158041666Y-86571666D01*
X157968333Y-86535000D01*
X157821666Y-86535000D01*
X157748333Y-86571666D01*
X158078333Y-87011666D02*
X158005000Y-87048333D01*
X157821666Y-87048333D01*
X157748333Y-87011666D01*
X157711666Y-86938333D01*
X157711666Y-86865000D01*
X157748333Y-86791666D01*
X157821666Y-86755000D01*
X158005000Y-86755000D01*
X158078333Y-86718333D01*
X158445000Y-87048333D02*
X158445000Y-86535000D01*
X158445000Y-86681666D02*
X158481666Y-86608333D01*
X158518333Y-86571666D01*
X158591666Y-86535000D01*
X158665000Y-86535000D01*
X158921666Y-87048333D02*
X158921666Y-86535000D01*
X158921666Y-86608333D02*
X158958333Y-86571666D01*
X159031666Y-86535000D01*
X159141666Y-86535000D01*
X159215000Y-86571666D01*
X159251666Y-86645000D01*
X159251666Y-87048333D01*
X159251666Y-86645000D02*
X159288333Y-86571666D01*
X159361666Y-86535000D01*
X159471666Y-86535000D01*
X159545000Y-86571666D01*
X159581666Y-86645000D01*
X159581666Y-87048333D01*
X159911666Y-86351666D02*
X159948333Y-86315000D01*
X160021666Y-86278333D01*
X160205000Y-86278333D01*
X160278333Y-86315000D01*
X160315000Y-86351666D01*
X160351666Y-86425000D01*
X160351666Y-86498333D01*
X160315000Y-86608333D01*
X159875000Y-87048333D01*
X160351666Y-87048333D01*
X156648333Y-85228333D02*
X157015000Y-85228333D01*
X156575000Y-85448333D02*
X156831666Y-84678333D01*
X157088333Y-85448333D01*
X157455000Y-85448333D02*
X157381666Y-85411666D01*
X157345000Y-85338333D01*
X157345000Y-84678333D01*
X158078333Y-85448333D02*
X158078333Y-85045000D01*
X158041666Y-84971666D01*
X157968333Y-84935000D01*
X157821666Y-84935000D01*
X157748333Y-84971666D01*
X158078333Y-85411666D02*
X158005000Y-85448333D01*
X157821666Y-85448333D01*
X157748333Y-85411666D01*
X157711666Y-85338333D01*
X157711666Y-85265000D01*
X157748333Y-85191666D01*
X157821666Y-85155000D01*
X158005000Y-85155000D01*
X158078333Y-85118333D01*
X158445000Y-85448333D02*
X158445000Y-84935000D01*
X158445000Y-85081666D02*
X158481666Y-85008333D01*
X158518333Y-84971666D01*
X158591666Y-84935000D01*
X158665000Y-84935000D01*
X158921666Y-85448333D02*
X158921666Y-84935000D01*
X158921666Y-85008333D02*
X158958333Y-84971666D01*
X159031666Y-84935000D01*
X159141666Y-84935000D01*
X159215000Y-84971666D01*
X159251666Y-85045000D01*
X159251666Y-85448333D01*
X159251666Y-85045000D02*
X159288333Y-84971666D01*
X159361666Y-84935000D01*
X159471666Y-84935000D01*
X159545000Y-84971666D01*
X159581666Y-85045000D01*
X159581666Y-85448333D01*
X160351666Y-85448333D02*
X159911666Y-85448333D01*
X160131666Y-85448333D02*
X160131666Y-84678333D01*
X160058333Y-84788333D01*
X159985000Y-84861666D01*
X159911666Y-84898333D01*
D10*
X169200000Y-78200000D02*
X169200000Y-77700000D01*
X164200000Y-78200000D02*
X169200000Y-78200000D01*
X162600000Y-72600000D02*
X168200000Y-72600000D01*
X162600000Y-76700000D02*
X162600000Y-72600000D01*
X162600000Y-78200000D02*
X164200000Y-78200000D01*
X162600000Y-76700000D02*
X162600000Y-78200000D01*
X169200000Y-72600000D02*
X169200000Y-73600000D01*
X168200000Y-72600000D02*
X169200000Y-72600000D01*
D11*
X166313333Y-67911666D02*
X166423333Y-67948333D01*
X166606666Y-67948333D01*
X166680000Y-67911666D01*
X166716666Y-67875000D01*
X166753333Y-67801666D01*
X166753333Y-67728333D01*
X166716666Y-67655000D01*
X166680000Y-67618333D01*
X166606666Y-67581666D01*
X166460000Y-67545000D01*
X166386666Y-67508333D01*
X166350000Y-67471666D01*
X166313333Y-67398333D01*
X166313333Y-67325000D01*
X166350000Y-67251666D01*
X166386666Y-67215000D01*
X166460000Y-67178333D01*
X166643333Y-67178333D01*
X166753333Y-67215000D01*
X167083333Y-67948333D02*
X167083333Y-67178333D01*
X167376666Y-67178333D01*
X167450000Y-67215000D01*
X167486666Y-67251666D01*
X167523333Y-67325000D01*
X167523333Y-67435000D01*
X167486666Y-67508333D01*
X167450000Y-67545000D01*
X167376666Y-67581666D01*
X167083333Y-67581666D01*
X167853333Y-67545000D02*
X168110000Y-67545000D01*
X168220000Y-67948333D02*
X167853333Y-67948333D01*
X167853333Y-67178333D01*
X168220000Y-67178333D01*
X168550000Y-67545000D02*
X168806666Y-67545000D01*
X168916666Y-67948333D02*
X168550000Y-67948333D01*
X168550000Y-67178333D01*
X168916666Y-67178333D01*
X169246666Y-67948333D02*
X169246666Y-67178333D01*
X169430000Y-67178333D01*
X169540000Y-67215000D01*
X169613333Y-67288333D01*
X169650000Y-67361666D01*
X169686666Y-67508333D01*
X169686666Y-67618333D01*
X169650000Y-67765000D01*
X169613333Y-67838333D01*
X169540000Y-67911666D01*
X169430000Y-67948333D01*
X169246666Y-67948333D01*
X167930000Y-70148333D02*
X167930000Y-69378333D01*
X168113333Y-69378333D01*
X168223333Y-69415000D01*
X168296666Y-69488333D01*
X168333333Y-69561666D01*
X168370000Y-69708333D01*
X168370000Y-69818333D01*
X168333333Y-69965000D01*
X168296666Y-70038333D01*
X168223333Y-70111666D01*
X168113333Y-70148333D01*
X167930000Y-70148333D01*
X168700000Y-70148333D02*
X168700000Y-69378333D01*
X169506666Y-70148333D02*
X169250000Y-69781666D01*
X169066666Y-70148333D02*
X169066666Y-69378333D01*
X169360000Y-69378333D01*
X169433333Y-69415000D01*
X169470000Y-69451666D01*
X169506666Y-69525000D01*
X169506666Y-69635000D01*
X169470000Y-69708333D01*
X169433333Y-69745000D01*
X169360000Y-69781666D01*
X169066666Y-69781666D01*
X157206666Y-71245000D02*
X157316666Y-71281666D01*
X157353333Y-71318333D01*
X157390000Y-71391666D01*
X157390000Y-71501666D01*
X157353333Y-71575000D01*
X157316666Y-71611666D01*
X157243333Y-71648333D01*
X156950000Y-71648333D01*
X156950000Y-70878333D01*
X157206666Y-70878333D01*
X157280000Y-70915000D01*
X157316666Y-70951666D01*
X157353333Y-71025000D01*
X157353333Y-71098333D01*
X157316666Y-71171666D01*
X157280000Y-71208333D01*
X157206666Y-71245000D01*
X156950000Y-71245000D01*
X158160000Y-71648333D02*
X157903333Y-71281666D01*
X157720000Y-71648333D02*
X157720000Y-70878333D01*
X158013333Y-70878333D01*
X158086666Y-70915000D01*
X158123333Y-70951666D01*
X158160000Y-71025000D01*
X158160000Y-71135000D01*
X158123333Y-71208333D01*
X158086666Y-71245000D01*
X158013333Y-71281666D01*
X157720000Y-71281666D01*
X158490000Y-71245000D02*
X158746666Y-71245000D01*
X158856666Y-71648333D02*
X158490000Y-71648333D01*
X158490000Y-70878333D01*
X158856666Y-70878333D01*
X159150000Y-71428333D02*
X159516666Y-71428333D01*
X159076666Y-71648333D02*
X159333333Y-70878333D01*
X159590000Y-71648333D01*
X159846666Y-71648333D02*
X159846666Y-70878333D01*
X160286666Y-71648333D02*
X159956666Y-71208333D01*
X160286666Y-70878333D02*
X159846666Y-71318333D01*
X156326666Y-63748333D02*
X156326666Y-62978333D01*
X156510000Y-62978333D01*
X156620000Y-63015000D01*
X156693333Y-63088333D01*
X156730000Y-63161666D01*
X156766666Y-63308333D01*
X156766666Y-63418333D01*
X156730000Y-63565000D01*
X156693333Y-63638333D01*
X156620000Y-63711666D01*
X156510000Y-63748333D01*
X156326666Y-63748333D01*
X157536666Y-63748333D02*
X157280000Y-63381666D01*
X157096666Y-63748333D02*
X157096666Y-62978333D01*
X157390000Y-62978333D01*
X157463333Y-63015000D01*
X157500000Y-63051666D01*
X157536666Y-63125000D01*
X157536666Y-63235000D01*
X157500000Y-63308333D01*
X157463333Y-63345000D01*
X157390000Y-63381666D01*
X157096666Y-63381666D01*
X157756666Y-62978333D02*
X158013333Y-63748333D01*
X158270000Y-62978333D01*
X158343333Y-63821666D02*
X158930000Y-63821666D01*
X159260000Y-62978333D02*
X159406666Y-62978333D01*
X159480000Y-63015000D01*
X159553333Y-63088333D01*
X159590000Y-63235000D01*
X159590000Y-63491666D01*
X159553333Y-63638333D01*
X159480000Y-63711666D01*
X159406666Y-63748333D01*
X159260000Y-63748333D01*
X159186666Y-63711666D01*
X159113333Y-63638333D01*
X159076666Y-63491666D01*
X159076666Y-63235000D01*
X159113333Y-63088333D01*
X159186666Y-63015000D01*
X159260000Y-62978333D01*
X160176666Y-63345000D02*
X159920000Y-63345000D01*
X159920000Y-63748333D02*
X159920000Y-62978333D01*
X160286666Y-62978333D01*
X160836666Y-63345000D02*
X160580000Y-63345000D01*
X160580000Y-63748333D02*
X160580000Y-62978333D01*
X160946666Y-62978333D01*
D12*
X136855000Y-118911666D02*
X136965000Y-118948333D01*
X137148333Y-118948333D01*
X137221666Y-118911666D01*
X137258333Y-118875000D01*
X137295000Y-118801666D01*
X137295000Y-118728333D01*
X137258333Y-118655000D01*
X137221666Y-118618333D01*
X137148333Y-118581666D01*
X137001666Y-118545000D01*
X136928333Y-118508333D01*
X136891666Y-118471666D01*
X136855000Y-118398333D01*
X136855000Y-118325000D01*
X136891666Y-118251666D01*
X136928333Y-118215000D01*
X137001666Y-118178333D01*
X137185000Y-118178333D01*
X137295000Y-118215000D01*
X138065000Y-118875000D02*
X138028333Y-118911666D01*
X137918333Y-118948333D01*
X137845000Y-118948333D01*
X137735000Y-118911666D01*
X137661666Y-118838333D01*
X137625000Y-118765000D01*
X137588333Y-118618333D01*
X137588333Y-118508333D01*
X137625000Y-118361666D01*
X137661666Y-118288333D01*
X137735000Y-118215000D01*
X137845000Y-118178333D01*
X137918333Y-118178333D01*
X138028333Y-118215000D01*
X138065000Y-118251666D01*
X138761666Y-118948333D02*
X138395000Y-118948333D01*
X138395000Y-118178333D01*
X138835000Y-119021666D02*
X139421666Y-119021666D01*
X139605000Y-118948333D02*
X139605000Y-118178333D01*
X140411666Y-118875000D02*
X140375000Y-118911666D01*
X140265000Y-118948333D01*
X140191666Y-118948333D01*
X140081666Y-118911666D01*
X140008333Y-118838333D01*
X139971666Y-118765000D01*
X139935000Y-118618333D01*
X139935000Y-118508333D01*
X139971666Y-118361666D01*
X140008333Y-118288333D01*
X140081666Y-118215000D01*
X140191666Y-118178333D01*
X140265000Y-118178333D01*
X140375000Y-118215000D01*
X140411666Y-118251666D01*
X140668333Y-118178333D02*
X141181666Y-118178333D01*
X140851666Y-118948333D01*
X145955000Y-118911666D02*
X146065000Y-118948333D01*
X146248333Y-118948333D01*
X146321666Y-118911666D01*
X146358333Y-118875000D01*
X146395000Y-118801666D01*
X146395000Y-118728333D01*
X146358333Y-118655000D01*
X146321666Y-118618333D01*
X146248333Y-118581666D01*
X146101666Y-118545000D01*
X146028333Y-118508333D01*
X145991666Y-118471666D01*
X145955000Y-118398333D01*
X145955000Y-118325000D01*
X145991666Y-118251666D01*
X146028333Y-118215000D01*
X146101666Y-118178333D01*
X146285000Y-118178333D01*
X146395000Y-118215000D01*
X147165000Y-118875000D02*
X147128333Y-118911666D01*
X147018333Y-118948333D01*
X146945000Y-118948333D01*
X146835000Y-118911666D01*
X146761666Y-118838333D01*
X146725000Y-118765000D01*
X146688333Y-118618333D01*
X146688333Y-118508333D01*
X146725000Y-118361666D01*
X146761666Y-118288333D01*
X146835000Y-118215000D01*
X146945000Y-118178333D01*
X147018333Y-118178333D01*
X147128333Y-118215000D01*
X147165000Y-118251666D01*
X147861666Y-118948333D02*
X147495000Y-118948333D01*
X147495000Y-118178333D01*
X147935000Y-119021666D02*
X148521666Y-119021666D01*
X148705000Y-118948333D02*
X148705000Y-118178333D01*
X149511666Y-118875000D02*
X149475000Y-118911666D01*
X149365000Y-118948333D01*
X149291666Y-118948333D01*
X149181666Y-118911666D01*
X149108333Y-118838333D01*
X149071666Y-118765000D01*
X149035000Y-118618333D01*
X149035000Y-118508333D01*
X149071666Y-118361666D01*
X149108333Y-118288333D01*
X149181666Y-118215000D01*
X149291666Y-118178333D01*
X149365000Y-118178333D01*
X149475000Y-118215000D01*
X149511666Y-118251666D01*
X150171666Y-118178333D02*
X150025000Y-118178333D01*
X149951666Y-118215000D01*
X149915000Y-118251666D01*
X149841666Y-118361666D01*
X149805000Y-118508333D01*
X149805000Y-118801666D01*
X149841666Y-118875000D01*
X149878333Y-118911666D01*
X149951666Y-118948333D01*
X150098333Y-118948333D01*
X150171666Y-118911666D01*
X150208333Y-118875000D01*
X150245000Y-118801666D01*
X150245000Y-118618333D01*
X150208333Y-118545000D01*
X150171666Y-118508333D01*
X150098333Y-118471666D01*
X149951666Y-118471666D01*
X149878333Y-118508333D01*
X149841666Y-118545000D01*
X149805000Y-118618333D01*
X145936666Y-97411666D02*
X146046666Y-97448333D01*
X146230000Y-97448333D01*
X146303333Y-97411666D01*
X146340000Y-97375000D01*
X146376666Y-97301666D01*
X146376666Y-97228333D01*
X146340000Y-97155000D01*
X146303333Y-97118333D01*
X146230000Y-97081666D01*
X146083333Y-97045000D01*
X146010000Y-97008333D01*
X145973333Y-96971666D01*
X145936666Y-96898333D01*
X145936666Y-96825000D01*
X145973333Y-96751666D01*
X146010000Y-96715000D01*
X146083333Y-96678333D01*
X146266666Y-96678333D01*
X146376666Y-96715000D01*
X146706666Y-97448333D02*
X146706666Y-96678333D01*
X146890000Y-96678333D01*
X147000000Y-96715000D01*
X147073333Y-96788333D01*
X147110000Y-96861666D01*
X147146666Y-97008333D01*
X147146666Y-97118333D01*
X147110000Y-97265000D01*
X147073333Y-97338333D01*
X147000000Y-97411666D01*
X146890000Y-97448333D01*
X146706666Y-97448333D01*
X147440000Y-97228333D02*
X147806666Y-97228333D01*
X147366666Y-97448333D02*
X147623333Y-96678333D01*
X147880000Y-97448333D01*
X147953333Y-97521666D02*
X148540000Y-97521666D01*
X148723333Y-97448333D02*
X148723333Y-96678333D01*
X149530000Y-97375000D02*
X149493333Y-97411666D01*
X149383333Y-97448333D01*
X149310000Y-97448333D01*
X149200000Y-97411666D01*
X149126666Y-97338333D01*
X149090000Y-97265000D01*
X149053333Y-97118333D01*
X149053333Y-97008333D01*
X149090000Y-96861666D01*
X149126666Y-96788333D01*
X149200000Y-96715000D01*
X149310000Y-96678333D01*
X149383333Y-96678333D01*
X149493333Y-96715000D01*
X149530000Y-96751666D01*
X150190000Y-96678333D02*
X150043333Y-96678333D01*
X149970000Y-96715000D01*
X149933333Y-96751666D01*
X149860000Y-96861666D01*
X149823333Y-97008333D01*
X149823333Y-97301666D01*
X149860000Y-97375000D01*
X149896666Y-97411666D01*
X149970000Y-97448333D01*
X150116666Y-97448333D01*
X150190000Y-97411666D01*
X150226666Y-97375000D01*
X150263333Y-97301666D01*
X150263333Y-97118333D01*
X150226666Y-97045000D01*
X150190000Y-97008333D01*
X150116666Y-96971666D01*
X149970000Y-96971666D01*
X149896666Y-97008333D01*
X149860000Y-97045000D01*
X149823333Y-97118333D01*
X136836666Y-97411666D02*
X136946666Y-97448333D01*
X137130000Y-97448333D01*
X137203333Y-97411666D01*
X137240000Y-97375000D01*
X137276666Y-97301666D01*
X137276666Y-97228333D01*
X137240000Y-97155000D01*
X137203333Y-97118333D01*
X137130000Y-97081666D01*
X136983333Y-97045000D01*
X136910000Y-97008333D01*
X136873333Y-96971666D01*
X136836666Y-96898333D01*
X136836666Y-96825000D01*
X136873333Y-96751666D01*
X136910000Y-96715000D01*
X136983333Y-96678333D01*
X137166666Y-96678333D01*
X137276666Y-96715000D01*
X137606666Y-97448333D02*
X137606666Y-96678333D01*
X137790000Y-96678333D01*
X137900000Y-96715000D01*
X137973333Y-96788333D01*
X138010000Y-96861666D01*
X138046666Y-97008333D01*
X138046666Y-97118333D01*
X138010000Y-97265000D01*
X137973333Y-97338333D01*
X137900000Y-97411666D01*
X137790000Y-97448333D01*
X137606666Y-97448333D01*
X138340000Y-97228333D02*
X138706666Y-97228333D01*
X138266666Y-97448333D02*
X138523333Y-96678333D01*
X138780000Y-97448333D01*
X138853333Y-97521666D02*
X139440000Y-97521666D01*
X139623333Y-97448333D02*
X139623333Y-96678333D01*
X140430000Y-97375000D02*
X140393333Y-97411666D01*
X140283333Y-97448333D01*
X140210000Y-97448333D01*
X140100000Y-97411666D01*
X140026666Y-97338333D01*
X139990000Y-97265000D01*
X139953333Y-97118333D01*
X139953333Y-97008333D01*
X139990000Y-96861666D01*
X140026666Y-96788333D01*
X140100000Y-96715000D01*
X140210000Y-96678333D01*
X140283333Y-96678333D01*
X140393333Y-96715000D01*
X140430000Y-96751666D01*
X140686666Y-96678333D02*
X141200000Y-96678333D01*
X140870000Y-97448333D01*
D10*
X153700000Y-96000000D02*
X130900000Y-96000000D01*
X153700000Y-119600000D02*
X153700000Y-96000000D01*
X131000000Y-119600000D02*
X153700000Y-119600000D01*
X131000000Y-96000000D02*
X131000000Y-119600000D01*
D11*
X139350000Y-95145000D02*
X139460000Y-95181666D01*
X139496666Y-95218333D01*
X139533333Y-95291666D01*
X139533333Y-95401666D01*
X139496666Y-95475000D01*
X139460000Y-95511666D01*
X139386666Y-95548333D01*
X139093333Y-95548333D01*
X139093333Y-94778333D01*
X139350000Y-94778333D01*
X139423333Y-94815000D01*
X139460000Y-94851666D01*
X139496666Y-94925000D01*
X139496666Y-94998333D01*
X139460000Y-95071666D01*
X139423333Y-95108333D01*
X139350000Y-95145000D01*
X139093333Y-95145000D01*
X140193333Y-95035000D02*
X140193333Y-95548333D01*
X139863333Y-95035000D02*
X139863333Y-95438333D01*
X139900000Y-95511666D01*
X139973333Y-95548333D01*
X140083333Y-95548333D01*
X140156666Y-95511666D01*
X140193333Y-95475000D01*
X140523333Y-95511666D02*
X140596666Y-95548333D01*
X140743333Y-95548333D01*
X140816666Y-95511666D01*
X140853333Y-95438333D01*
X140853333Y-95401666D01*
X140816666Y-95328333D01*
X140743333Y-95291666D01*
X140633333Y-95291666D01*
X140560000Y-95255000D01*
X140523333Y-95181666D01*
X140523333Y-95145000D01*
X140560000Y-95071666D01*
X140633333Y-95035000D01*
X140743333Y-95035000D01*
X140816666Y-95071666D01*
X141770000Y-95548333D02*
X141770000Y-94778333D01*
X142063333Y-94778333D01*
X142136666Y-94815000D01*
X142173333Y-94851666D01*
X142210000Y-94925000D01*
X142210000Y-95035000D01*
X142173333Y-95108333D01*
X142136666Y-95145000D01*
X142063333Y-95181666D01*
X141770000Y-95181666D01*
X142540000Y-95548333D02*
X142540000Y-95035000D01*
X142540000Y-95181666D02*
X142576666Y-95108333D01*
X142613333Y-95071666D01*
X142686666Y-95035000D01*
X142760000Y-95035000D01*
X143126666Y-95548333D02*
X143053333Y-95511666D01*
X143016666Y-95475000D01*
X142980000Y-95401666D01*
X142980000Y-95181666D01*
X143016666Y-95108333D01*
X143053333Y-95071666D01*
X143126666Y-95035000D01*
X143236666Y-95035000D01*
X143310000Y-95071666D01*
X143346666Y-95108333D01*
X143383333Y-95181666D01*
X143383333Y-95401666D01*
X143346666Y-95475000D01*
X143310000Y-95511666D01*
X143236666Y-95548333D01*
X143126666Y-95548333D01*
X143603333Y-95035000D02*
X143896666Y-95035000D01*
X143713333Y-94778333D02*
X143713333Y-95438333D01*
X143750000Y-95511666D01*
X143823333Y-95548333D01*
X143896666Y-95548333D01*
X144446666Y-95511666D02*
X144373333Y-95548333D01*
X144226666Y-95548333D01*
X144153333Y-95511666D01*
X144116666Y-95438333D01*
X144116666Y-95145000D01*
X144153333Y-95071666D01*
X144226666Y-95035000D01*
X144373333Y-95035000D01*
X144446666Y-95071666D01*
X144483333Y-95145000D01*
X144483333Y-95218333D01*
X144116666Y-95291666D01*
X145143333Y-95511666D02*
X145070000Y-95548333D01*
X144923333Y-95548333D01*
X144850000Y-95511666D01*
X144813333Y-95475000D01*
X144776666Y-95401666D01*
X144776666Y-95181666D01*
X144813333Y-95108333D01*
X144850000Y-95071666D01*
X144923333Y-95035000D01*
X145070000Y-95035000D01*
X145143333Y-95071666D01*
X145363333Y-95035000D02*
X145656666Y-95035000D01*
X145473333Y-94778333D02*
X145473333Y-95438333D01*
X145510000Y-95511666D01*
X145583333Y-95548333D01*
X145656666Y-95548333D01*
X145913333Y-95548333D02*
X145913333Y-95035000D01*
X145913333Y-94778333D02*
X145876666Y-94815000D01*
X145913333Y-94851666D01*
X145950000Y-94815000D01*
X145913333Y-94778333D01*
X145913333Y-94851666D01*
X146390000Y-95548333D02*
X146316666Y-95511666D01*
X146280000Y-95475000D01*
X146243333Y-95401666D01*
X146243333Y-95181666D01*
X146280000Y-95108333D01*
X146316666Y-95071666D01*
X146390000Y-95035000D01*
X146500000Y-95035000D01*
X146573333Y-95071666D01*
X146610000Y-95108333D01*
X146646666Y-95181666D01*
X146646666Y-95401666D01*
X146610000Y-95475000D01*
X146573333Y-95511666D01*
X146500000Y-95548333D01*
X146390000Y-95548333D01*
X146976666Y-95035000D02*
X146976666Y-95548333D01*
X146976666Y-95108333D02*
X147013333Y-95071666D01*
X147086666Y-95035000D01*
X147196666Y-95035000D01*
X147270000Y-95071666D01*
X147306666Y-95145000D01*
X147306666Y-95548333D01*
D13*
X175625000Y-97750000D02*
X177100000Y-97750000D01*
D10*
X173550000Y-113230000D02*
X173550000Y-110570000D01*
X165870000Y-113230000D02*
X173550000Y-113230000D01*
X165870000Y-110570000D02*
X173550000Y-110570000D01*
X165870000Y-113230000D02*
X165870000Y-110570000D01*
X164600000Y-113230000D02*
X163270000Y-113230000D01*
X163270000Y-113230000D02*
X163270000Y-111900000D01*
X171846267Y-101640000D02*
X171553733Y-101640000D01*
X171846267Y-102660000D02*
X171553733Y-102660000D01*
X171553733Y-103140000D02*
X171846267Y-103140000D01*
X171553733Y-104160000D02*
X171846267Y-104160000D01*
X172090000Y-96853733D02*
X172090000Y-97146267D01*
X173110000Y-96853733D02*
X173110000Y-97146267D01*
X177346267Y-95410000D02*
X177053733Y-95410000D01*
X177346267Y-94390000D02*
X177053733Y-94390000D01*
X188810000Y-96510000D02*
X188810000Y-94160000D01*
X188810000Y-89690000D02*
X188810000Y-92040000D01*
X183054437Y-89690000D02*
X188810000Y-89690000D01*
X183054437Y-96510000D02*
X188810000Y-96510000D01*
X181990000Y-95445563D02*
X181990000Y-94160000D01*
X181990000Y-90754437D02*
X181990000Y-92040000D01*
X181990000Y-90754437D02*
X183054437Y-89690000D01*
X181990000Y-95445563D02*
X183054437Y-96510000D01*
X180962500Y-91252500D02*
X181750000Y-91252500D01*
X181356250Y-90858750D02*
X181356250Y-91646250D01*
X137153733Y-105890000D02*
X137446267Y-105890000D01*
X137153733Y-106910000D02*
X137446267Y-106910000D01*
X137153733Y-117510000D02*
X137446267Y-117510000D01*
X137153733Y-116490000D02*
X137446267Y-116490000D01*
X146253733Y-107160000D02*
X146546267Y-107160000D01*
X146253733Y-106140000D02*
X146546267Y-106140000D01*
X146253733Y-117510000D02*
X146546267Y-117510000D01*
X146253733Y-116490000D02*
X146546267Y-116490000D01*
X178953733Y-136760000D02*
X179246267Y-136760000D01*
X178953733Y-135740000D02*
X179246267Y-135740000D01*
X178953733Y-126940000D02*
X179246267Y-126940000D01*
X178953733Y-127960000D02*
X179246267Y-127960000D01*
X180860000Y-133103733D02*
X180860000Y-133396267D01*
X179840000Y-133103733D02*
X179840000Y-133396267D01*
X179840000Y-124303733D02*
X179840000Y-124596267D01*
X180860000Y-124303733D02*
X180860000Y-124596267D01*
X190840000Y-124303733D02*
X190840000Y-124596267D01*
X191860000Y-124303733D02*
X191860000Y-124596267D01*
X194640000Y-116046267D02*
X194640000Y-115753733D01*
X195660000Y-116046267D02*
X195660000Y-115753733D01*
X197910000Y-125946267D02*
X197910000Y-125653733D01*
X196890000Y-125946267D02*
X196890000Y-125653733D01*
X176210000Y-81116233D02*
X176210000Y-81408767D01*
X175190000Y-81116233D02*
X175190000Y-81408767D01*
X181210000Y-81446267D02*
X181210000Y-81153733D01*
X180190000Y-81446267D02*
X180190000Y-81153733D01*
X179210000Y-81446267D02*
X179210000Y-81153733D01*
X178190000Y-81446267D02*
X178190000Y-81153733D01*
X179210000Y-68546267D02*
X179210000Y-68253733D01*
X178190000Y-68546267D02*
X178190000Y-68253733D01*
X165146267Y-75210000D02*
X164853733Y-75210000D01*
X165146267Y-74190000D02*
X164853733Y-74190000D01*
X165146267Y-77610000D02*
X164853733Y-77610000D01*
X165146267Y-76590000D02*
X164853733Y-76590000D01*
X141610000Y-128546267D02*
X141610000Y-128253733D01*
X140590000Y-128546267D02*
X140590000Y-128253733D01*
X142190000Y-128546267D02*
X142190000Y-128253733D01*
X143210000Y-128546267D02*
X143210000Y-128253733D01*
X146410000Y-128546267D02*
X146410000Y-128253733D01*
X145390000Y-128546267D02*
X145390000Y-128253733D01*
X143790000Y-128546267D02*
X143790000Y-128253733D01*
X144810000Y-128546267D02*
X144810000Y-128253733D01*
X154910000Y-135253733D02*
X154910000Y-135546267D01*
X153890000Y-135253733D02*
X153890000Y-135546267D01*
X152390000Y-135253733D02*
X152390000Y-135546267D01*
X153410000Y-135253733D02*
X153410000Y-135546267D01*
X156410000Y-135253733D02*
X156410000Y-135546267D01*
X155390000Y-135253733D02*
X155390000Y-135546267D01*
X157910000Y-135253733D02*
X157910000Y-135546267D01*
X156890000Y-135253733D02*
X156890000Y-135546267D01*
X169535000Y-125685000D02*
X169535000Y-123400000D01*
X168065000Y-125685000D02*
X169535000Y-125685000D01*
X168065000Y-123400000D02*
X168065000Y-125685000D01*
X169585000Y-134485000D02*
X169585000Y-132200000D01*
X168115000Y-134485000D02*
X169585000Y-134485000D01*
X168115000Y-132200000D02*
X168115000Y-134485000D01*
X161400000Y-89235000D02*
X163685000Y-89235000D01*
X163685000Y-89235000D02*
X163685000Y-87765000D01*
X163685000Y-87765000D02*
X161400000Y-87765000D01*
X161400000Y-85835000D02*
X163685000Y-85835000D01*
X163685000Y-85835000D02*
X163685000Y-84365000D01*
X163685000Y-84365000D02*
X161400000Y-84365000D01*
X163685000Y-86065000D02*
X161400000Y-86065000D01*
X163685000Y-87535000D02*
X163685000Y-86065000D01*
X161400000Y-87535000D02*
X163685000Y-87535000D01*
X161400000Y-90935000D02*
X163685000Y-90935000D01*
X163685000Y-90935000D02*
X163685000Y-89465000D01*
X163685000Y-89465000D02*
X161400000Y-89465000D01*
D13*
X136220000Y-99500000D02*
X136712000Y-99500000D01*
X137062000Y-101200000D02*
X137062000Y-99600000D01*
X137538000Y-101200000D02*
X137062000Y-101200000D01*
X137538000Y-99600000D02*
X137538000Y-101200000D01*
X137062000Y-99600000D02*
X137538000Y-99600000D01*
X137062000Y-110000000D02*
X137538000Y-110000000D01*
X137538000Y-110000000D02*
X137538000Y-111600000D01*
X137538000Y-111600000D02*
X137062000Y-111600000D01*
X137062000Y-111600000D02*
X137062000Y-110000000D01*
X136220000Y-109900000D02*
X136712000Y-109900000D01*
X146162000Y-99600000D02*
X146638000Y-99600000D01*
X146638000Y-99600000D02*
X146638000Y-101200000D01*
X146638000Y-101200000D02*
X146162000Y-101200000D01*
X146162000Y-101200000D02*
X146162000Y-99600000D01*
X145320000Y-99500000D02*
X145812000Y-99500000D01*
X145320000Y-109900000D02*
X145812000Y-109900000D01*
X146162000Y-111600000D02*
X146162000Y-110000000D01*
X146638000Y-111600000D02*
X146162000Y-111600000D01*
X146638000Y-110000000D02*
X146638000Y-111600000D01*
X146162000Y-110000000D02*
X146638000Y-110000000D01*
X174950000Y-132500000D02*
X177250000Y-132500000D01*
X177250000Y-132500000D02*
X177250000Y-135500000D01*
X177250000Y-135500000D02*
X174950000Y-135500000D01*
X174950000Y-135500000D02*
X174950000Y-132500000D01*
X173200000Y-132500000D02*
X174600000Y-132500000D01*
X173200000Y-123700000D02*
X174600000Y-123700000D01*
X174950000Y-126700000D02*
X174950000Y-123700000D01*
X177250000Y-126700000D02*
X174950000Y-126700000D01*
X177250000Y-123700000D02*
X177250000Y-126700000D01*
X174950000Y-123700000D02*
X177250000Y-123700000D01*
X196100000Y-123300000D02*
X196100000Y-125600000D01*
X196100000Y-125600000D02*
X193100000Y-125600000D01*
X193100000Y-125600000D02*
X193100000Y-123300000D01*
X193100000Y-123300000D02*
X196100000Y-123300000D01*
X196100000Y-121550000D02*
X196100000Y-122950000D01*
D14*
X175075000Y-78200000D02*
G75*
G03*
X175075000Y-78200000I-125000J0D01*
G01*
D10*
X121670000Y-70670000D02*
X123000000Y-70670000D01*
X121670000Y-72000000D02*
X121670000Y-70670000D01*
X124270000Y-70670000D02*
X126870000Y-70670000D01*
X124270000Y-73270000D02*
X124270000Y-70670000D01*
X121670000Y-73270000D02*
X124270000Y-73270000D01*
X126870000Y-70670000D02*
X126870000Y-96190000D01*
X121670000Y-73270000D02*
X121670000Y-96190000D01*
X121670000Y-96190000D02*
X126870000Y-96190000D01*
X187200000Y-113270000D02*
X188530000Y-113270000D01*
X188530000Y-113270000D02*
X188530000Y-114600000D01*
X188530000Y-115870000D02*
X188530000Y-118470000D01*
X185870000Y-118470000D02*
X188530000Y-118470000D01*
X185870000Y-115870000D02*
X185870000Y-118470000D01*
X185870000Y-115870000D02*
X188530000Y-115870000D01*
X154680000Y-66000000D02*
X154680000Y-64670000D01*
X154680000Y-64670000D02*
X156010000Y-64670000D01*
X157280000Y-64670000D02*
X162420000Y-64670000D01*
X162420000Y-67330000D02*
X162420000Y-64670000D01*
X157280000Y-67330000D02*
X162420000Y-67330000D01*
X157280000Y-67330000D02*
X157280000Y-64670000D01*
X157270000Y-70330000D02*
X157270000Y-67670000D01*
X157270000Y-70330000D02*
X162410000Y-70330000D01*
X162410000Y-70330000D02*
X162410000Y-67670000D01*
X157270000Y-67670000D02*
X162410000Y-67670000D01*
X154670000Y-67670000D02*
X156000000Y-67670000D01*
X154670000Y-69000000D02*
X154670000Y-67670000D01*
D13*
X137150000Y-103650000D02*
X137450000Y-103650000D01*
X137450000Y-103650000D02*
X137450000Y-105650000D01*
X137450000Y-105650000D02*
X137150000Y-105650000D01*
X137150000Y-105650000D02*
X137150000Y-103650000D01*
X135800000Y-103450000D02*
X136800000Y-103450000D01*
X137150000Y-114050000D02*
X137450000Y-114050000D01*
X137450000Y-114050000D02*
X137450000Y-116050000D01*
X137450000Y-116050000D02*
X137150000Y-116050000D01*
X137150000Y-116050000D02*
X137150000Y-114050000D01*
X135800000Y-113850000D02*
X136800000Y-113850000D01*
X146250000Y-103650000D02*
X146550000Y-103650000D01*
X146550000Y-103650000D02*
X146550000Y-105650000D01*
X146550000Y-105650000D02*
X146250000Y-105650000D01*
X146250000Y-105650000D02*
X146250000Y-103650000D01*
X144900000Y-103450000D02*
X145900000Y-103450000D01*
X144900000Y-113850000D02*
X145900000Y-113850000D01*
X146250000Y-116050000D02*
X146250000Y-114050000D01*
X146550000Y-116050000D02*
X146250000Y-116050000D01*
X146550000Y-114050000D02*
X146550000Y-116050000D01*
X146250000Y-114050000D02*
X146550000Y-114050000D01*
D10*
X141154724Y-97877500D02*
X140645276Y-97877500D01*
X141154724Y-98922500D02*
X140645276Y-98922500D01*
X140954724Y-109322500D02*
X140445276Y-109322500D01*
X140954724Y-108277500D02*
X140445276Y-108277500D01*
X137045276Y-98922500D02*
X137554724Y-98922500D01*
X137045276Y-97877500D02*
X137554724Y-97877500D01*
X137045276Y-109322500D02*
X137554724Y-109322500D01*
X137045276Y-108277500D02*
X137554724Y-108277500D01*
X142522500Y-101654724D02*
X142522500Y-101145276D01*
X141477500Y-101654724D02*
X141477500Y-101145276D01*
X142522500Y-112054724D02*
X142522500Y-111545276D01*
X141477500Y-112054724D02*
X141477500Y-111545276D01*
X139777500Y-105154724D02*
X139777500Y-104645276D01*
X140822500Y-105154724D02*
X140822500Y-104645276D01*
X140822500Y-115554724D02*
X140822500Y-115045276D01*
X139777500Y-115554724D02*
X139777500Y-115045276D01*
X140822500Y-101145276D02*
X140822500Y-101654724D01*
X139777500Y-101145276D02*
X139777500Y-101654724D01*
X137554724Y-102922500D02*
X137045276Y-102922500D01*
X137554724Y-101877500D02*
X137045276Y-101877500D01*
X140822500Y-111545276D02*
X140822500Y-112054724D01*
X139777500Y-111545276D02*
X139777500Y-112054724D01*
X137554724Y-113322500D02*
X137045276Y-113322500D01*
X137554724Y-112277500D02*
X137045276Y-112277500D01*
X150254724Y-99122500D02*
X149745276Y-99122500D01*
X150254724Y-98077500D02*
X149745276Y-98077500D01*
X150054724Y-109322500D02*
X149545276Y-109322500D01*
X150054724Y-108277500D02*
X149545276Y-108277500D01*
X146145276Y-98077500D02*
X146654724Y-98077500D01*
X146145276Y-99122500D02*
X146654724Y-99122500D01*
X146145276Y-108277500D02*
X146654724Y-108277500D01*
X146145276Y-109322500D02*
X146654724Y-109322500D01*
X151622500Y-101654724D02*
X151622500Y-101145276D01*
X150577500Y-101654724D02*
X150577500Y-101145276D01*
X150577500Y-111954724D02*
X150577500Y-111445276D01*
X151622500Y-111954724D02*
X151622500Y-111445276D01*
X149922500Y-105154724D02*
X149922500Y-104645276D01*
X148877500Y-105154724D02*
X148877500Y-104645276D01*
X149922500Y-115554724D02*
X149922500Y-115045276D01*
X148877500Y-115554724D02*
X148877500Y-115045276D01*
X148877500Y-101145276D02*
X148877500Y-101654724D01*
X149922500Y-101145276D02*
X149922500Y-101654724D01*
X146654724Y-102922500D02*
X146145276Y-102922500D01*
X146654724Y-101877500D02*
X146145276Y-101877500D01*
X148877500Y-111457776D02*
X148877500Y-111967224D01*
X149922500Y-111457776D02*
X149922500Y-111967224D01*
X146654724Y-112277500D02*
X146145276Y-112277500D01*
X146654724Y-113322500D02*
X146145276Y-113322500D01*
X132945276Y-98177500D02*
X133454724Y-98177500D01*
X132945276Y-99222500D02*
X133454724Y-99222500D01*
X132945276Y-109622500D02*
X133454724Y-109622500D01*
X132945276Y-108577500D02*
X133454724Y-108577500D01*
X172372500Y-133254724D02*
X172372500Y-132745276D01*
X171327500Y-133254724D02*
X171327500Y-132745276D01*
X171327500Y-124454724D02*
X171327500Y-123945276D01*
X172372500Y-124454724D02*
X172372500Y-123945276D01*
X183104724Y-131977500D02*
X182595276Y-131977500D01*
X183104724Y-133022500D02*
X182595276Y-133022500D01*
X183104724Y-134522500D02*
X182595276Y-134522500D01*
X183104724Y-133477500D02*
X182595276Y-133477500D01*
X186760000Y-132522936D02*
X186760000Y-133977064D01*
X184940000Y-132522936D02*
X184940000Y-133977064D01*
X183104724Y-124222500D02*
X182595276Y-124222500D01*
X183104724Y-123177500D02*
X182595276Y-123177500D01*
X183104724Y-125722500D02*
X182595276Y-125722500D01*
X183104724Y-124677500D02*
X182595276Y-124677500D01*
X184940000Y-123722936D02*
X184940000Y-125177064D01*
X186760000Y-123722936D02*
X186760000Y-125177064D01*
X189104724Y-123177500D02*
X188595276Y-123177500D01*
X189104724Y-124222500D02*
X188595276Y-124222500D01*
X189104724Y-125722500D02*
X188595276Y-125722500D01*
X189104724Y-124677500D02*
X188595276Y-124677500D01*
X169827500Y-124454724D02*
X169827500Y-123945276D01*
X170872500Y-124454724D02*
X170872500Y-123945276D01*
X169872501Y-133259723D02*
X169872501Y-132750275D01*
X170917501Y-133259723D02*
X170917501Y-132750275D01*
X192395276Y-116177500D02*
X192904724Y-116177500D01*
X192395276Y-117222500D02*
X192904724Y-117222500D01*
X192395276Y-115622500D02*
X192904724Y-115622500D01*
X192395276Y-114577500D02*
X192904724Y-114577500D01*
X190810000Y-116627064D02*
X190810000Y-115172936D01*
X188990000Y-116627064D02*
X188990000Y-115172936D01*
X179677500Y-68145276D02*
X179677500Y-68654724D01*
X180722500Y-68145276D02*
X180722500Y-68654724D01*
X164145276Y-66522500D02*
X164654724Y-66522500D01*
X164145276Y-65477500D02*
X164654724Y-65477500D01*
X164145276Y-68477500D02*
X164654724Y-68477500D01*
X164145276Y-69522500D02*
X164654724Y-69522500D01*
X170245276Y-75722500D02*
X170754724Y-75722500D01*
X170245276Y-74677500D02*
X170754724Y-74677500D01*
X170754724Y-77122500D02*
X170245276Y-77122500D01*
X170754724Y-76077500D02*
X170245276Y-76077500D01*
X165245276Y-87977500D02*
X165754724Y-87977500D01*
X165245276Y-89022500D02*
X165754724Y-89022500D01*
X165245276Y-85622500D02*
X165754724Y-85622500D01*
X165245276Y-84577500D02*
X165754724Y-84577500D01*
X165245276Y-86277500D02*
X165754724Y-86277500D01*
X165245276Y-87322500D02*
X165754724Y-87322500D01*
X165245276Y-90722500D02*
X165754724Y-90722500D01*
X165245276Y-89677500D02*
X165754724Y-89677500D01*
X169922500Y-85742224D02*
X169922500Y-85232776D01*
X168877500Y-85742224D02*
X168877500Y-85232776D01*
X172522500Y-85754724D02*
X172522500Y-85245276D01*
X171477500Y-85754724D02*
X171477500Y-85245276D01*
X177222500Y-68145276D02*
X177222500Y-68654724D01*
X176177500Y-68145276D02*
X176177500Y-68654724D01*
X177350000Y-108500000D02*
G75*
G03*
X177350000Y-108500000I-950000J0D01*
G01*
X135050000Y-100400000D02*
G75*
G03*
X135050000Y-100400000I-950000J0D01*
G01*
X135050000Y-110800000D02*
G75*
G03*
X135050000Y-110800000I-950000J0D01*
G01*
X143450000Y-104000000D02*
G75*
G03*
X143450000Y-104000000I-950000J0D01*
G01*
X143450000Y-114400000D02*
G75*
G03*
X143450000Y-114400000I-950000J0D01*
G01*
X152550000Y-104000000D02*
G75*
G03*
X152550000Y-104000000I-950000J0D01*
G01*
X152550000Y-114400000D02*
G75*
G03*
X152550000Y-114400000I-950000J0D01*
G01*
X172050000Y-67600000D02*
G75*
G03*
X172050000Y-67600000I-950000J0D01*
G01*
X172050000Y-69800000D02*
G75*
G03*
X172050000Y-69800000I-950000J0D01*
G01*
X172050000Y-72000000D02*
G75*
G03*
X172050000Y-72000000I-950000J0D01*
G01*
X166925000Y-76575000D02*
X166925000Y-75225000D01*
X168675000Y-76575000D02*
X168675000Y-75225000D01*
X172050000Y-65400000D02*
G75*
G03*
X172050000Y-65400000I-950000J0D01*
G01*
X159230000Y-96490000D02*
X160560000Y-96490000D01*
X159230000Y-97820000D02*
X159230000Y-96490000D01*
X161830000Y-96490000D02*
X164430000Y-96490000D01*
X161830000Y-99090000D02*
X161830000Y-96490000D01*
X159230000Y-99090000D02*
X161830000Y-99090000D01*
X164430000Y-96490000D02*
X164430000Y-106770000D01*
X159230000Y-99090000D02*
X159230000Y-106770000D01*
X159230000Y-106770000D02*
X164430000Y-106770000D01*
X173170000Y-118830000D02*
X173170000Y-117500000D01*
X174500000Y-118830000D02*
X173170000Y-118830000D01*
X173170000Y-116230000D02*
X173170000Y-113630000D01*
X175770000Y-116230000D02*
X173170000Y-116230000D01*
X175770000Y-118830000D02*
X175770000Y-116230000D01*
X173170000Y-113630000D02*
X183450000Y-113630000D01*
X175770000Y-118830000D02*
X183450000Y-118830000D01*
X183450000Y-118830000D02*
X183450000Y-113630000D01*
X173350000Y-83630000D02*
X173350000Y-78430000D01*
X165670000Y-83630000D02*
X173350000Y-83630000D01*
X163070000Y-78430000D02*
X173350000Y-78430000D01*
X165670000Y-83630000D02*
X165670000Y-81030000D01*
X165670000Y-81030000D02*
X163070000Y-81030000D01*
X163070000Y-81030000D02*
X163070000Y-78430000D01*
X164400000Y-83630000D02*
X163070000Y-83630000D01*
X163070000Y-83630000D02*
X163070000Y-82300000D01*
X176888748Y-85690000D02*
X178311252Y-85690000D01*
X176888748Y-87510000D02*
X178311252Y-87510000D01*
X178327064Y-85210000D02*
X176872936Y-85210000D01*
X178327064Y-83390000D02*
X176872936Y-83390000D01*
X181990000Y-87810000D02*
X184340000Y-87810000D01*
X188810000Y-87810000D02*
X186460000Y-87810000D01*
X188810000Y-82054437D02*
X188810000Y-87810000D01*
X181990000Y-82054437D02*
X181990000Y-87810000D01*
X183054437Y-80990000D02*
X184340000Y-80990000D01*
X187745563Y-80990000D02*
X186460000Y-80990000D01*
X187745563Y-80990000D02*
X188810000Y-82054437D01*
X183054437Y-80990000D02*
X181990000Y-82054437D01*
X187247500Y-79962500D02*
X187247500Y-80750000D01*
X187641250Y-80356250D02*
X186853750Y-80356250D01*
X168488748Y-97290000D02*
X169911252Y-97290000D01*
X168488748Y-99110000D02*
X169911252Y-99110000D01*
X171528733Y-99790000D02*
X171871267Y-99790000D01*
X171528733Y-100810000D02*
X171871267Y-100810000D01*
X153200000Y-133100000D02*
X153200000Y-131950000D01*
X153200000Y-127700000D02*
X153200000Y-128850000D01*
X147600000Y-133100000D02*
X147600000Y-131950000D01*
X147600000Y-127700000D02*
X147600000Y-128850000D01*
X147600000Y-133100000D02*
X153200000Y-133100000D01*
X147600000Y-127700000D02*
X153200000Y-127700000D01*
X164760000Y-121440000D02*
X160910000Y-121440000D01*
X154040000Y-121440000D02*
X157890000Y-121440000D01*
X154040000Y-131095563D02*
X154040000Y-121440000D01*
X164760000Y-131095563D02*
X164760000Y-121440000D01*
X163695563Y-132160000D02*
X160910000Y-132160000D01*
X155104437Y-132160000D02*
X157890000Y-132160000D01*
X155104437Y-132160000D02*
X154040000Y-131095563D01*
X163695563Y-132160000D02*
X164760000Y-131095563D01*
X156640000Y-133650000D02*
X156640000Y-132400000D01*
X156015000Y-133025000D02*
X157265000Y-133025000D01*
X152145276Y-66522500D02*
X152654724Y-66522500D01*
X152145276Y-65477500D02*
X152654724Y-65477500D01*
X152145276Y-68477500D02*
X152654724Y-68477500D01*
X152145276Y-69522500D02*
X152654724Y-69522500D01*
X150354724Y-121977500D02*
X149845276Y-121977500D01*
X150354724Y-123022500D02*
X149845276Y-123022500D01*
D15*
X197100000Y-113060000D02*
X199750000Y-113060000D01*
X199750000Y-113060000D02*
X199750000Y-94140000D01*
X199750000Y-94140000D02*
X197100000Y-94140000D01*
X189600000Y-109100000D02*
X189600000Y-109100000D01*
X189700000Y-109100000D02*
X189700000Y-109100000D01*
X189700000Y-109100000D02*
G75*
G02*
X189600000Y-109100000I-50000J0D01*
G01*
X189600000Y-109100000D02*
G75*
G02*
X189700000Y-109100000I50000J0D01*
G01*
X189700000Y-83200000D02*
X189700000Y-83200000D01*
X189600000Y-83200000D02*
X189600000Y-83200000D01*
X199750000Y-68240000D02*
X197100000Y-68240000D01*
X199750000Y-87160000D02*
X199750000Y-68240000D01*
X197100000Y-87160000D02*
X199750000Y-87160000D01*
X189600000Y-83200000D02*
G75*
G02*
X189700000Y-83200000I50000J0D01*
G01*
X189700000Y-83200000D02*
G75*
G02*
X189600000Y-83200000I-50000J0D01*
G01*
D10*
X191930000Y-65670000D02*
X191930000Y-67000000D01*
X190600000Y-65670000D02*
X191930000Y-65670000D01*
X189330000Y-65670000D02*
X189330000Y-68330000D01*
X189330000Y-68330000D02*
X181650000Y-68330000D01*
X189330000Y-65670000D02*
X181650000Y-65670000D01*
X181650000Y-65670000D02*
X181650000Y-68330000D01*
X146246267Y-64410000D02*
X145953733Y-64410000D01*
X146246267Y-63390000D02*
X145953733Y-63390000D01*
X145910000Y-87646267D02*
X145910000Y-87353733D01*
X144890000Y-87646267D02*
X144890000Y-87353733D01*
X146246267Y-64890000D02*
X145953733Y-64890000D01*
X146246267Y-65910000D02*
X145953733Y-65910000D01*
D13*
X141700000Y-89050000D02*
X134900000Y-89050000D01*
X134900000Y-89050000D02*
X134900000Y-71150000D01*
X134900000Y-71150000D02*
X141700000Y-71150000D01*
X141700000Y-71150000D02*
X141700000Y-89050000D01*
X143975000Y-89055000D02*
X142050000Y-89055000D01*
D10*
X133728700Y-134210016D02*
G75*
G03*
X133728700Y-134210016I-1433708J0D01*
G01*
X137558357Y-134210016D02*
G75*
G03*
X137558357Y-134210016I-1453349J0D01*
G01*
X137057512Y-136710339D02*
X137057512Y-137781906D01*
X135152504Y-136710339D02*
X137057512Y-136710339D01*
X135152504Y-137781906D02*
X135152504Y-136710339D01*
X133128433Y-136710339D02*
X133128433Y-137781906D01*
X131342488Y-136710339D02*
X133128433Y-136710339D01*
X131342488Y-137781906D02*
X131342488Y-136710339D01*
X130270921Y-131114378D02*
X138129079Y-131114378D01*
X130270921Y-137781906D02*
X130270921Y-130400000D01*
X138129079Y-137781906D02*
X130270921Y-137781906D01*
X138129079Y-130400000D02*
X138129079Y-137781906D01*
X130270921Y-130400000D02*
X138129079Y-130400000D01*
X143229079Y-67700000D02*
X135370921Y-67700000D01*
X135370921Y-67700000D02*
X135370921Y-60318094D01*
X135370921Y-60318094D02*
X143229079Y-60318094D01*
X143229079Y-60318094D02*
X143229079Y-67700000D01*
X143229079Y-66985622D02*
X135370921Y-66985622D01*
X142157512Y-60318094D02*
X142157512Y-61389661D01*
X142157512Y-61389661D02*
X140371567Y-61389661D01*
X140371567Y-61389661D02*
X140371567Y-60318094D01*
X138347496Y-60318094D02*
X138347496Y-61389661D01*
X138347496Y-61389661D02*
X136442488Y-61389661D01*
X136442488Y-61389661D02*
X136442488Y-60318094D01*
X138848341Y-63889984D02*
G75*
G03*
X138848341Y-63889984I-1453349J0D01*
G01*
X142638716Y-63889984D02*
G75*
G03*
X142638716Y-63889984I-1433708J0D01*
G01*
D11*
X175748333Y-97248333D02*
X175748333Y-96478333D01*
X176555000Y-97175000D02*
X176518333Y-97211666D01*
X176408333Y-97248333D01*
X176335000Y-97248333D01*
X176225000Y-97211666D01*
X176151666Y-97138333D01*
X176115000Y-97065000D01*
X176078333Y-96918333D01*
X176078333Y-96808333D01*
X176115000Y-96661666D01*
X176151666Y-96588333D01*
X176225000Y-96515000D01*
X176335000Y-96478333D01*
X176408333Y-96478333D01*
X176518333Y-96515000D01*
X176555000Y-96551666D01*
X177288333Y-97248333D02*
X176848333Y-97248333D01*
X177068333Y-97248333D02*
X177068333Y-96478333D01*
X176995000Y-96588333D01*
X176921666Y-96661666D01*
X176848333Y-96698333D01*
X169071666Y-102425000D02*
X169035000Y-102461666D01*
X168925000Y-102498333D01*
X168851666Y-102498333D01*
X168741666Y-102461666D01*
X168668333Y-102388333D01*
X168631666Y-102315000D01*
X168595000Y-102168333D01*
X168595000Y-102058333D01*
X168631666Y-101911666D01*
X168668333Y-101838333D01*
X168741666Y-101765000D01*
X168851666Y-101728333D01*
X168925000Y-101728333D01*
X169035000Y-101765000D01*
X169071666Y-101801666D01*
X169365000Y-101801666D02*
X169401666Y-101765000D01*
X169475000Y-101728333D01*
X169658333Y-101728333D01*
X169731666Y-101765000D01*
X169768333Y-101801666D01*
X169805000Y-101875000D01*
X169805000Y-101948333D01*
X169768333Y-102058333D01*
X169328333Y-102498333D01*
X169805000Y-102498333D01*
X169071666Y-103925000D02*
X169035000Y-103961666D01*
X168925000Y-103998333D01*
X168851666Y-103998333D01*
X168741666Y-103961666D01*
X168668333Y-103888333D01*
X168631666Y-103815000D01*
X168595000Y-103668333D01*
X168595000Y-103558333D01*
X168631666Y-103411666D01*
X168668333Y-103338333D01*
X168741666Y-103265000D01*
X168851666Y-103228333D01*
X168925000Y-103228333D01*
X169035000Y-103265000D01*
X169071666Y-103301666D01*
X169328333Y-103228333D02*
X169805000Y-103228333D01*
X169548333Y-103521666D01*
X169658333Y-103521666D01*
X169731666Y-103558333D01*
X169768333Y-103595000D01*
X169805000Y-103668333D01*
X169805000Y-103851666D01*
X169768333Y-103925000D01*
X169731666Y-103961666D01*
X169658333Y-103998333D01*
X169438333Y-103998333D01*
X169365000Y-103961666D01*
X169328333Y-103925000D01*
X172471666Y-95175000D02*
X172435000Y-95211666D01*
X172325000Y-95248333D01*
X172251666Y-95248333D01*
X172141666Y-95211666D01*
X172068333Y-95138333D01*
X172031666Y-95065000D01*
X171995000Y-94918333D01*
X171995000Y-94808333D01*
X172031666Y-94661666D01*
X172068333Y-94588333D01*
X172141666Y-94515000D01*
X172251666Y-94478333D01*
X172325000Y-94478333D01*
X172435000Y-94515000D01*
X172471666Y-94551666D01*
X173131666Y-94735000D02*
X173131666Y-95248333D01*
X172948333Y-94441666D02*
X172765000Y-94991666D01*
X173241666Y-94991666D01*
X177071666Y-93975000D02*
X177035000Y-94011666D01*
X176925000Y-94048333D01*
X176851666Y-94048333D01*
X176741666Y-94011666D01*
X176668333Y-93938333D01*
X176631666Y-93865000D01*
X176595000Y-93718333D01*
X176595000Y-93608333D01*
X176631666Y-93461666D01*
X176668333Y-93388333D01*
X176741666Y-93315000D01*
X176851666Y-93278333D01*
X176925000Y-93278333D01*
X177035000Y-93315000D01*
X177071666Y-93351666D01*
X177768333Y-93278333D02*
X177401666Y-93278333D01*
X177365000Y-93645000D01*
X177401666Y-93608333D01*
X177475000Y-93571666D01*
X177658333Y-93571666D01*
X177731666Y-93608333D01*
X177768333Y-93645000D01*
X177805000Y-93718333D01*
X177805000Y-93901666D01*
X177768333Y-93975000D01*
X177731666Y-94011666D01*
X177658333Y-94048333D01*
X177475000Y-94048333D01*
X177401666Y-94011666D01*
X177365000Y-93975000D01*
X189671666Y-91675000D02*
X189635000Y-91711666D01*
X189525000Y-91748333D01*
X189451666Y-91748333D01*
X189341666Y-91711666D01*
X189268333Y-91638333D01*
X189231666Y-91565000D01*
X189195000Y-91418333D01*
X189195000Y-91308333D01*
X189231666Y-91161666D01*
X189268333Y-91088333D01*
X189341666Y-91015000D01*
X189451666Y-90978333D01*
X189525000Y-90978333D01*
X189635000Y-91015000D01*
X189671666Y-91051666D01*
X190331666Y-90978333D02*
X190185000Y-90978333D01*
X190111666Y-91015000D01*
X190075000Y-91051666D01*
X190001666Y-91161666D01*
X189965000Y-91308333D01*
X189965000Y-91601666D01*
X190001666Y-91675000D01*
X190038333Y-91711666D01*
X190111666Y-91748333D01*
X190258333Y-91748333D01*
X190331666Y-91711666D01*
X190368333Y-91675000D01*
X190405000Y-91601666D01*
X190405000Y-91418333D01*
X190368333Y-91345000D01*
X190331666Y-91308333D01*
X190258333Y-91271666D01*
X190111666Y-91271666D01*
X190038333Y-91308333D01*
X190001666Y-91345000D01*
X189965000Y-91418333D01*
X179805000Y-131275000D02*
X179768333Y-131311666D01*
X179658333Y-131348333D01*
X179585000Y-131348333D01*
X179475000Y-131311666D01*
X179401666Y-131238333D01*
X179365000Y-131165000D01*
X179328333Y-131018333D01*
X179328333Y-130908333D01*
X179365000Y-130761666D01*
X179401666Y-130688333D01*
X179475000Y-130615000D01*
X179585000Y-130578333D01*
X179658333Y-130578333D01*
X179768333Y-130615000D01*
X179805000Y-130651666D01*
X180538333Y-131348333D02*
X180098333Y-131348333D01*
X180318333Y-131348333D02*
X180318333Y-130578333D01*
X180245000Y-130688333D01*
X180171666Y-130761666D01*
X180098333Y-130798333D01*
X180795000Y-130578333D02*
X181271666Y-130578333D01*
X181015000Y-130871666D01*
X181125000Y-130871666D01*
X181198333Y-130908333D01*
X181235000Y-130945000D01*
X181271666Y-131018333D01*
X181271666Y-131201666D01*
X181235000Y-131275000D01*
X181198333Y-131311666D01*
X181125000Y-131348333D01*
X180905000Y-131348333D01*
X180831666Y-131311666D01*
X180795000Y-131275000D01*
X179805000Y-122475000D02*
X179768333Y-122511666D01*
X179658333Y-122548333D01*
X179585000Y-122548333D01*
X179475000Y-122511666D01*
X179401666Y-122438333D01*
X179365000Y-122365000D01*
X179328333Y-122218333D01*
X179328333Y-122108333D01*
X179365000Y-121961666D01*
X179401666Y-121888333D01*
X179475000Y-121815000D01*
X179585000Y-121778333D01*
X179658333Y-121778333D01*
X179768333Y-121815000D01*
X179805000Y-121851666D01*
X180538333Y-122548333D02*
X180098333Y-122548333D01*
X180318333Y-122548333D02*
X180318333Y-121778333D01*
X180245000Y-121888333D01*
X180171666Y-121961666D01*
X180098333Y-121998333D01*
X181198333Y-122035000D02*
X181198333Y-122548333D01*
X181015000Y-121741666D02*
X180831666Y-122291666D01*
X181308333Y-122291666D01*
X178975000Y-65995000D02*
X179011666Y-66031666D01*
X179048333Y-66141666D01*
X179048333Y-66215000D01*
X179011666Y-66325000D01*
X178938333Y-66398333D01*
X178865000Y-66435000D01*
X178718333Y-66471666D01*
X178608333Y-66471666D01*
X178461666Y-66435000D01*
X178388333Y-66398333D01*
X178315000Y-66325000D01*
X178278333Y-66215000D01*
X178278333Y-66141666D01*
X178315000Y-66031666D01*
X178351666Y-65995000D01*
X178351666Y-65701666D02*
X178315000Y-65665000D01*
X178278333Y-65591666D01*
X178278333Y-65408333D01*
X178315000Y-65335000D01*
X178351666Y-65298333D01*
X178425000Y-65261666D01*
X178498333Y-65261666D01*
X178608333Y-65298333D01*
X179048333Y-65738333D01*
X179048333Y-65261666D01*
X178278333Y-65005000D02*
X178278333Y-64528333D01*
X178571666Y-64785000D01*
X178571666Y-64675000D01*
X178608333Y-64601666D01*
X178645000Y-64565000D01*
X178718333Y-64528333D01*
X178901666Y-64528333D01*
X178975000Y-64565000D01*
X179011666Y-64601666D01*
X179048333Y-64675000D01*
X179048333Y-64895000D01*
X179011666Y-64968333D01*
X178975000Y-65005000D01*
X141375000Y-125995000D02*
X141411666Y-126031666D01*
X141448333Y-126141666D01*
X141448333Y-126215000D01*
X141411666Y-126325000D01*
X141338333Y-126398333D01*
X141265000Y-126435000D01*
X141118333Y-126471666D01*
X141008333Y-126471666D01*
X140861666Y-126435000D01*
X140788333Y-126398333D01*
X140715000Y-126325000D01*
X140678333Y-126215000D01*
X140678333Y-126141666D01*
X140715000Y-126031666D01*
X140751666Y-125995000D01*
X140751666Y-125701666D02*
X140715000Y-125665000D01*
X140678333Y-125591666D01*
X140678333Y-125408333D01*
X140715000Y-125335000D01*
X140751666Y-125298333D01*
X140825000Y-125261666D01*
X140898333Y-125261666D01*
X141008333Y-125298333D01*
X141448333Y-125738333D01*
X141448333Y-125261666D01*
X140678333Y-124601666D02*
X140678333Y-124748333D01*
X140715000Y-124821666D01*
X140751666Y-124858333D01*
X140861666Y-124931666D01*
X141008333Y-124968333D01*
X141301666Y-124968333D01*
X141375000Y-124931666D01*
X141411666Y-124895000D01*
X141448333Y-124821666D01*
X141448333Y-124675000D01*
X141411666Y-124601666D01*
X141375000Y-124565000D01*
X141301666Y-124528333D01*
X141118333Y-124528333D01*
X141045000Y-124565000D01*
X141008333Y-124601666D01*
X140971666Y-124675000D01*
X140971666Y-124821666D01*
X141008333Y-124895000D01*
X141045000Y-124931666D01*
X141118333Y-124968333D01*
X142975000Y-125995000D02*
X143011666Y-126031666D01*
X143048333Y-126141666D01*
X143048333Y-126215000D01*
X143011666Y-126325000D01*
X142938333Y-126398333D01*
X142865000Y-126435000D01*
X142718333Y-126471666D01*
X142608333Y-126471666D01*
X142461666Y-126435000D01*
X142388333Y-126398333D01*
X142315000Y-126325000D01*
X142278333Y-126215000D01*
X142278333Y-126141666D01*
X142315000Y-126031666D01*
X142351666Y-125995000D01*
X142351666Y-125701666D02*
X142315000Y-125665000D01*
X142278333Y-125591666D01*
X142278333Y-125408333D01*
X142315000Y-125335000D01*
X142351666Y-125298333D01*
X142425000Y-125261666D01*
X142498333Y-125261666D01*
X142608333Y-125298333D01*
X143048333Y-125738333D01*
X143048333Y-125261666D01*
X142278333Y-125005000D02*
X142278333Y-124491666D01*
X143048333Y-124821666D01*
X146175000Y-125995000D02*
X146211666Y-126031666D01*
X146248333Y-126141666D01*
X146248333Y-126215000D01*
X146211666Y-126325000D01*
X146138333Y-126398333D01*
X146065000Y-126435000D01*
X145918333Y-126471666D01*
X145808333Y-126471666D01*
X145661666Y-126435000D01*
X145588333Y-126398333D01*
X145515000Y-126325000D01*
X145478333Y-126215000D01*
X145478333Y-126141666D01*
X145515000Y-126031666D01*
X145551666Y-125995000D01*
X145551666Y-125701666D02*
X145515000Y-125665000D01*
X145478333Y-125591666D01*
X145478333Y-125408333D01*
X145515000Y-125335000D01*
X145551666Y-125298333D01*
X145625000Y-125261666D01*
X145698333Y-125261666D01*
X145808333Y-125298333D01*
X146248333Y-125738333D01*
X146248333Y-125261666D01*
X145808333Y-124821666D02*
X145771666Y-124895000D01*
X145735000Y-124931666D01*
X145661666Y-124968333D01*
X145625000Y-124968333D01*
X145551666Y-124931666D01*
X145515000Y-124895000D01*
X145478333Y-124821666D01*
X145478333Y-124675000D01*
X145515000Y-124601666D01*
X145551666Y-124565000D01*
X145625000Y-124528333D01*
X145661666Y-124528333D01*
X145735000Y-124565000D01*
X145771666Y-124601666D01*
X145808333Y-124675000D01*
X145808333Y-124821666D01*
X145845000Y-124895000D01*
X145881666Y-124931666D01*
X145955000Y-124968333D01*
X146101666Y-124968333D01*
X146175000Y-124931666D01*
X146211666Y-124895000D01*
X146248333Y-124821666D01*
X146248333Y-124675000D01*
X146211666Y-124601666D01*
X146175000Y-124565000D01*
X146101666Y-124528333D01*
X145955000Y-124528333D01*
X145881666Y-124565000D01*
X145845000Y-124601666D01*
X145808333Y-124675000D01*
X144575000Y-125995000D02*
X144611666Y-126031666D01*
X144648333Y-126141666D01*
X144648333Y-126215000D01*
X144611666Y-126325000D01*
X144538333Y-126398333D01*
X144465000Y-126435000D01*
X144318333Y-126471666D01*
X144208333Y-126471666D01*
X144061666Y-126435000D01*
X143988333Y-126398333D01*
X143915000Y-126325000D01*
X143878333Y-126215000D01*
X143878333Y-126141666D01*
X143915000Y-126031666D01*
X143951666Y-125995000D01*
X143951666Y-125701666D02*
X143915000Y-125665000D01*
X143878333Y-125591666D01*
X143878333Y-125408333D01*
X143915000Y-125335000D01*
X143951666Y-125298333D01*
X144025000Y-125261666D01*
X144098333Y-125261666D01*
X144208333Y-125298333D01*
X144648333Y-125738333D01*
X144648333Y-125261666D01*
X144648333Y-124895000D02*
X144648333Y-124748333D01*
X144611666Y-124675000D01*
X144575000Y-124638333D01*
X144465000Y-124565000D01*
X144318333Y-124528333D01*
X144025000Y-124528333D01*
X143951666Y-124565000D01*
X143915000Y-124601666D01*
X143878333Y-124675000D01*
X143878333Y-124821666D01*
X143915000Y-124895000D01*
X143951666Y-124931666D01*
X144025000Y-124968333D01*
X144208333Y-124968333D01*
X144281666Y-124931666D01*
X144318333Y-124895000D01*
X144355000Y-124821666D01*
X144355000Y-124675000D01*
X144318333Y-124601666D01*
X144281666Y-124565000D01*
X144208333Y-124528333D01*
X154675000Y-138795000D02*
X154711666Y-138831666D01*
X154748333Y-138941666D01*
X154748333Y-139015000D01*
X154711666Y-139125000D01*
X154638333Y-139198333D01*
X154565000Y-139235000D01*
X154418333Y-139271666D01*
X154308333Y-139271666D01*
X154161666Y-139235000D01*
X154088333Y-139198333D01*
X154015000Y-139125000D01*
X153978333Y-139015000D01*
X153978333Y-138941666D01*
X154015000Y-138831666D01*
X154051666Y-138795000D01*
X153978333Y-138538333D02*
X153978333Y-138061666D01*
X154271666Y-138318333D01*
X154271666Y-138208333D01*
X154308333Y-138135000D01*
X154345000Y-138098333D01*
X154418333Y-138061666D01*
X154601666Y-138061666D01*
X154675000Y-138098333D01*
X154711666Y-138135000D01*
X154748333Y-138208333D01*
X154748333Y-138428333D01*
X154711666Y-138501666D01*
X154675000Y-138538333D01*
X154748333Y-137328333D02*
X154748333Y-137768333D01*
X154748333Y-137548333D02*
X153978333Y-137548333D01*
X154088333Y-137621666D01*
X154161666Y-137695000D01*
X154198333Y-137768333D01*
X153175000Y-138795000D02*
X153211666Y-138831666D01*
X153248333Y-138941666D01*
X153248333Y-139015000D01*
X153211666Y-139125000D01*
X153138333Y-139198333D01*
X153065000Y-139235000D01*
X152918333Y-139271666D01*
X152808333Y-139271666D01*
X152661666Y-139235000D01*
X152588333Y-139198333D01*
X152515000Y-139125000D01*
X152478333Y-139015000D01*
X152478333Y-138941666D01*
X152515000Y-138831666D01*
X152551666Y-138795000D01*
X152478333Y-138538333D02*
X152478333Y-138061666D01*
X152771666Y-138318333D01*
X152771666Y-138208333D01*
X152808333Y-138135000D01*
X152845000Y-138098333D01*
X152918333Y-138061666D01*
X153101666Y-138061666D01*
X153175000Y-138098333D01*
X153211666Y-138135000D01*
X153248333Y-138208333D01*
X153248333Y-138428333D01*
X153211666Y-138501666D01*
X153175000Y-138538333D01*
X152551666Y-137768333D02*
X152515000Y-137731666D01*
X152478333Y-137658333D01*
X152478333Y-137475000D01*
X152515000Y-137401666D01*
X152551666Y-137365000D01*
X152625000Y-137328333D01*
X152698333Y-137328333D01*
X152808333Y-137365000D01*
X153248333Y-137805000D01*
X153248333Y-137328333D01*
X156175000Y-138795000D02*
X156211666Y-138831666D01*
X156248333Y-138941666D01*
X156248333Y-139015000D01*
X156211666Y-139125000D01*
X156138333Y-139198333D01*
X156065000Y-139235000D01*
X155918333Y-139271666D01*
X155808333Y-139271666D01*
X155661666Y-139235000D01*
X155588333Y-139198333D01*
X155515000Y-139125000D01*
X155478333Y-139015000D01*
X155478333Y-138941666D01*
X155515000Y-138831666D01*
X155551666Y-138795000D01*
X155478333Y-138538333D02*
X155478333Y-138061666D01*
X155771666Y-138318333D01*
X155771666Y-138208333D01*
X155808333Y-138135000D01*
X155845000Y-138098333D01*
X155918333Y-138061666D01*
X156101666Y-138061666D01*
X156175000Y-138098333D01*
X156211666Y-138135000D01*
X156248333Y-138208333D01*
X156248333Y-138428333D01*
X156211666Y-138501666D01*
X156175000Y-138538333D01*
X155478333Y-137805000D02*
X155478333Y-137328333D01*
X155771666Y-137585000D01*
X155771666Y-137475000D01*
X155808333Y-137401666D01*
X155845000Y-137365000D01*
X155918333Y-137328333D01*
X156101666Y-137328333D01*
X156175000Y-137365000D01*
X156211666Y-137401666D01*
X156248333Y-137475000D01*
X156248333Y-137695000D01*
X156211666Y-137768333D01*
X156175000Y-137805000D01*
X157675000Y-138795000D02*
X157711666Y-138831666D01*
X157748333Y-138941666D01*
X157748333Y-139015000D01*
X157711666Y-139125000D01*
X157638333Y-139198333D01*
X157565000Y-139235000D01*
X157418333Y-139271666D01*
X157308333Y-139271666D01*
X157161666Y-139235000D01*
X157088333Y-139198333D01*
X157015000Y-139125000D01*
X156978333Y-139015000D01*
X156978333Y-138941666D01*
X157015000Y-138831666D01*
X157051666Y-138795000D01*
X156978333Y-138538333D02*
X156978333Y-138061666D01*
X157271666Y-138318333D01*
X157271666Y-138208333D01*
X157308333Y-138135000D01*
X157345000Y-138098333D01*
X157418333Y-138061666D01*
X157601666Y-138061666D01*
X157675000Y-138098333D01*
X157711666Y-138135000D01*
X157748333Y-138208333D01*
X157748333Y-138428333D01*
X157711666Y-138501666D01*
X157675000Y-138538333D01*
X157235000Y-137401666D02*
X157748333Y-137401666D01*
X156941666Y-137585000D02*
X157491666Y-137768333D01*
X157491666Y-137291666D01*
X173148333Y-132148333D02*
X173148333Y-131378333D01*
X173955000Y-132075000D02*
X173918333Y-132111666D01*
X173808333Y-132148333D01*
X173735000Y-132148333D01*
X173625000Y-132111666D01*
X173551666Y-132038333D01*
X173515000Y-131965000D01*
X173478333Y-131818333D01*
X173478333Y-131708333D01*
X173515000Y-131561666D01*
X173551666Y-131488333D01*
X173625000Y-131415000D01*
X173735000Y-131378333D01*
X173808333Y-131378333D01*
X173918333Y-131415000D01*
X173955000Y-131451666D01*
X174615000Y-131378333D02*
X174468333Y-131378333D01*
X174395000Y-131415000D01*
X174358333Y-131451666D01*
X174285000Y-131561666D01*
X174248333Y-131708333D01*
X174248333Y-132001666D01*
X174285000Y-132075000D01*
X174321666Y-132111666D01*
X174395000Y-132148333D01*
X174541666Y-132148333D01*
X174615000Y-132111666D01*
X174651666Y-132075000D01*
X174688333Y-132001666D01*
X174688333Y-131818333D01*
X174651666Y-131745000D01*
X174615000Y-131708333D01*
X174541666Y-131671666D01*
X174395000Y-131671666D01*
X174321666Y-131708333D01*
X174285000Y-131745000D01*
X174248333Y-131818333D01*
X173148333Y-123448333D02*
X173148333Y-122678333D01*
X173955000Y-123375000D02*
X173918333Y-123411666D01*
X173808333Y-123448333D01*
X173735000Y-123448333D01*
X173625000Y-123411666D01*
X173551666Y-123338333D01*
X173515000Y-123265000D01*
X173478333Y-123118333D01*
X173478333Y-123008333D01*
X173515000Y-122861666D01*
X173551666Y-122788333D01*
X173625000Y-122715000D01*
X173735000Y-122678333D01*
X173808333Y-122678333D01*
X173918333Y-122715000D01*
X173955000Y-122751666D01*
X174211666Y-122678333D02*
X174725000Y-122678333D01*
X174395000Y-123448333D01*
X196448333Y-122548333D02*
X196448333Y-121778333D01*
X197255000Y-122475000D02*
X197218333Y-122511666D01*
X197108333Y-122548333D01*
X197035000Y-122548333D01*
X196925000Y-122511666D01*
X196851666Y-122438333D01*
X196815000Y-122365000D01*
X196778333Y-122218333D01*
X196778333Y-122108333D01*
X196815000Y-121961666D01*
X196851666Y-121888333D01*
X196925000Y-121815000D01*
X197035000Y-121778333D01*
X197108333Y-121778333D01*
X197218333Y-121815000D01*
X197255000Y-121851666D01*
X197695000Y-122108333D02*
X197621666Y-122071666D01*
X197585000Y-122035000D01*
X197548333Y-121961666D01*
X197548333Y-121925000D01*
X197585000Y-121851666D01*
X197621666Y-121815000D01*
X197695000Y-121778333D01*
X197841666Y-121778333D01*
X197915000Y-121815000D01*
X197951666Y-121851666D01*
X197988333Y-121925000D01*
X197988333Y-121961666D01*
X197951666Y-122035000D01*
X197915000Y-122071666D01*
X197841666Y-122108333D01*
X197695000Y-122108333D01*
X197621666Y-122145000D01*
X197585000Y-122181666D01*
X197548333Y-122255000D01*
X197548333Y-122401666D01*
X197585000Y-122475000D01*
X197621666Y-122511666D01*
X197695000Y-122548333D01*
X197841666Y-122548333D01*
X197915000Y-122511666D01*
X197951666Y-122475000D01*
X197988333Y-122401666D01*
X197988333Y-122255000D01*
X197951666Y-122181666D01*
X197915000Y-122145000D01*
X197841666Y-122108333D01*
X173448333Y-72848333D02*
X173448333Y-72078333D01*
X174255000Y-72775000D02*
X174218333Y-72811666D01*
X174108333Y-72848333D01*
X174035000Y-72848333D01*
X173925000Y-72811666D01*
X173851666Y-72738333D01*
X173815000Y-72665000D01*
X173778333Y-72518333D01*
X173778333Y-72408333D01*
X173815000Y-72261666D01*
X173851666Y-72188333D01*
X173925000Y-72115000D01*
X174035000Y-72078333D01*
X174108333Y-72078333D01*
X174218333Y-72115000D01*
X174255000Y-72151666D01*
X174621666Y-72848333D02*
X174768333Y-72848333D01*
X174841666Y-72811666D01*
X174878333Y-72775000D01*
X174951666Y-72665000D01*
X174988333Y-72518333D01*
X174988333Y-72225000D01*
X174951666Y-72151666D01*
X174915000Y-72115000D01*
X174841666Y-72078333D01*
X174695000Y-72078333D01*
X174621666Y-72115000D01*
X174585000Y-72151666D01*
X174548333Y-72225000D01*
X174548333Y-72408333D01*
X174585000Y-72481666D01*
X174621666Y-72518333D01*
X174695000Y-72555000D01*
X174841666Y-72555000D01*
X174915000Y-72518333D01*
X174951666Y-72481666D01*
X174988333Y-72408333D01*
X172248333Y-130795000D02*
X171881666Y-131051666D01*
X172248333Y-131235000D02*
X171478333Y-131235000D01*
X171478333Y-130941666D01*
X171515000Y-130868333D01*
X171551666Y-130831666D01*
X171625000Y-130795000D01*
X171735000Y-130795000D01*
X171808333Y-130831666D01*
X171845000Y-130868333D01*
X171881666Y-130941666D01*
X171881666Y-131235000D01*
X171551666Y-130501666D02*
X171515000Y-130465000D01*
X171478333Y-130391666D01*
X171478333Y-130208333D01*
X171515000Y-130135000D01*
X171551666Y-130098333D01*
X171625000Y-130061666D01*
X171698333Y-130061666D01*
X171808333Y-130098333D01*
X172248333Y-130538333D01*
X172248333Y-130061666D01*
X171478333Y-129805000D02*
X171478333Y-129291666D01*
X172248333Y-129621666D01*
X172248333Y-121995000D02*
X171881666Y-122251666D01*
X172248333Y-122435000D02*
X171478333Y-122435000D01*
X171478333Y-122141666D01*
X171515000Y-122068333D01*
X171551666Y-122031666D01*
X171625000Y-121995000D01*
X171735000Y-121995000D01*
X171808333Y-122031666D01*
X171845000Y-122068333D01*
X171881666Y-122141666D01*
X171881666Y-122435000D01*
X171551666Y-121701666D02*
X171515000Y-121665000D01*
X171478333Y-121591666D01*
X171478333Y-121408333D01*
X171515000Y-121335000D01*
X171551666Y-121298333D01*
X171625000Y-121261666D01*
X171698333Y-121261666D01*
X171808333Y-121298333D01*
X172248333Y-121738333D01*
X172248333Y-121261666D01*
X171808333Y-120821666D02*
X171771666Y-120895000D01*
X171735000Y-120931666D01*
X171661666Y-120968333D01*
X171625000Y-120968333D01*
X171551666Y-120931666D01*
X171515000Y-120895000D01*
X171478333Y-120821666D01*
X171478333Y-120675000D01*
X171515000Y-120601666D01*
X171551666Y-120565000D01*
X171625000Y-120528333D01*
X171661666Y-120528333D01*
X171735000Y-120565000D01*
X171771666Y-120601666D01*
X171808333Y-120675000D01*
X171808333Y-120821666D01*
X171845000Y-120895000D01*
X171881666Y-120931666D01*
X171955000Y-120968333D01*
X172101666Y-120968333D01*
X172175000Y-120931666D01*
X172211666Y-120895000D01*
X172248333Y-120821666D01*
X172248333Y-120675000D01*
X172211666Y-120601666D01*
X172175000Y-120565000D01*
X172101666Y-120528333D01*
X171955000Y-120528333D01*
X171881666Y-120565000D01*
X171845000Y-120601666D01*
X171808333Y-120675000D01*
X170748333Y-121995000D02*
X170381666Y-122251666D01*
X170748333Y-122435000D02*
X169978333Y-122435000D01*
X169978333Y-122141666D01*
X170015000Y-122068333D01*
X170051666Y-122031666D01*
X170125000Y-121995000D01*
X170235000Y-121995000D01*
X170308333Y-122031666D01*
X170345000Y-122068333D01*
X170381666Y-122141666D01*
X170381666Y-122435000D01*
X169978333Y-121738333D02*
X169978333Y-121261666D01*
X170271666Y-121518333D01*
X170271666Y-121408333D01*
X170308333Y-121335000D01*
X170345000Y-121298333D01*
X170418333Y-121261666D01*
X170601666Y-121261666D01*
X170675000Y-121298333D01*
X170711666Y-121335000D01*
X170748333Y-121408333D01*
X170748333Y-121628333D01*
X170711666Y-121701666D01*
X170675000Y-121738333D01*
X169978333Y-121005000D02*
X169978333Y-120491666D01*
X170748333Y-120821666D01*
X170748333Y-130795000D02*
X170381666Y-131051666D01*
X170748333Y-131235000D02*
X169978333Y-131235000D01*
X169978333Y-130941666D01*
X170015000Y-130868333D01*
X170051666Y-130831666D01*
X170125000Y-130795000D01*
X170235000Y-130795000D01*
X170308333Y-130831666D01*
X170345000Y-130868333D01*
X170381666Y-130941666D01*
X170381666Y-131235000D01*
X169978333Y-130538333D02*
X169978333Y-130061666D01*
X170271666Y-130318333D01*
X170271666Y-130208333D01*
X170308333Y-130135000D01*
X170345000Y-130098333D01*
X170418333Y-130061666D01*
X170601666Y-130061666D01*
X170675000Y-130098333D01*
X170711666Y-130135000D01*
X170748333Y-130208333D01*
X170748333Y-130428333D01*
X170711666Y-130501666D01*
X170675000Y-130538333D01*
X170308333Y-129621666D02*
X170271666Y-129695000D01*
X170235000Y-129731666D01*
X170161666Y-129768333D01*
X170125000Y-129768333D01*
X170051666Y-129731666D01*
X170015000Y-129695000D01*
X169978333Y-129621666D01*
X169978333Y-129475000D01*
X170015000Y-129401666D01*
X170051666Y-129365000D01*
X170125000Y-129328333D01*
X170161666Y-129328333D01*
X170235000Y-129365000D01*
X170271666Y-129401666D01*
X170308333Y-129475000D01*
X170308333Y-129621666D01*
X170345000Y-129695000D01*
X170381666Y-129731666D01*
X170455000Y-129768333D01*
X170601666Y-129768333D01*
X170675000Y-129731666D01*
X170711666Y-129695000D01*
X170748333Y-129621666D01*
X170748333Y-129475000D01*
X170711666Y-129401666D01*
X170675000Y-129365000D01*
X170601666Y-129328333D01*
X170455000Y-129328333D01*
X170381666Y-129365000D01*
X170345000Y-129401666D01*
X170308333Y-129475000D01*
X180548333Y-65995000D02*
X180181666Y-66251666D01*
X180548333Y-66435000D02*
X179778333Y-66435000D01*
X179778333Y-66141666D01*
X179815000Y-66068333D01*
X179851666Y-66031666D01*
X179925000Y-65995000D01*
X180035000Y-65995000D01*
X180108333Y-66031666D01*
X180145000Y-66068333D01*
X180181666Y-66141666D01*
X180181666Y-66435000D01*
X180035000Y-65335000D02*
X180548333Y-65335000D01*
X179741666Y-65518333D02*
X180291666Y-65701666D01*
X180291666Y-65225000D01*
X179778333Y-65005000D02*
X179778333Y-64528333D01*
X180071666Y-64785000D01*
X180071666Y-64675000D01*
X180108333Y-64601666D01*
X180145000Y-64565000D01*
X180218333Y-64528333D01*
X180401666Y-64528333D01*
X180475000Y-64565000D01*
X180511666Y-64601666D01*
X180548333Y-64675000D01*
X180548333Y-64895000D01*
X180511666Y-64968333D01*
X180475000Y-65005000D01*
X163905000Y-65148333D02*
X163648333Y-64781666D01*
X163465000Y-65148333D02*
X163465000Y-64378333D01*
X163758333Y-64378333D01*
X163831666Y-64415000D01*
X163868333Y-64451666D01*
X163905000Y-64525000D01*
X163905000Y-64635000D01*
X163868333Y-64708333D01*
X163831666Y-64745000D01*
X163758333Y-64781666D01*
X163465000Y-64781666D01*
X164565000Y-64635000D02*
X164565000Y-65148333D01*
X164381666Y-64341666D02*
X164198333Y-64891666D01*
X164675000Y-64891666D01*
X165298333Y-64635000D02*
X165298333Y-65148333D01*
X165115000Y-64341666D02*
X164931666Y-64891666D01*
X165408333Y-64891666D01*
X163905000Y-68148333D02*
X163648333Y-67781666D01*
X163465000Y-68148333D02*
X163465000Y-67378333D01*
X163758333Y-67378333D01*
X163831666Y-67415000D01*
X163868333Y-67451666D01*
X163905000Y-67525000D01*
X163905000Y-67635000D01*
X163868333Y-67708333D01*
X163831666Y-67745000D01*
X163758333Y-67781666D01*
X163465000Y-67781666D01*
X164565000Y-67635000D02*
X164565000Y-68148333D01*
X164381666Y-67341666D02*
X164198333Y-67891666D01*
X164675000Y-67891666D01*
X165335000Y-67378333D02*
X164968333Y-67378333D01*
X164931666Y-67745000D01*
X164968333Y-67708333D01*
X165041666Y-67671666D01*
X165225000Y-67671666D01*
X165298333Y-67708333D01*
X165335000Y-67745000D01*
X165371666Y-67818333D01*
X165371666Y-68001666D01*
X165335000Y-68075000D01*
X165298333Y-68111666D01*
X165225000Y-68148333D01*
X165041666Y-68148333D01*
X164968333Y-68111666D01*
X164931666Y-68075000D01*
X169848333Y-88795000D02*
X169481666Y-89051666D01*
X169848333Y-89235000D02*
X169078333Y-89235000D01*
X169078333Y-88941666D01*
X169115000Y-88868333D01*
X169151666Y-88831666D01*
X169225000Y-88795000D01*
X169335000Y-88795000D01*
X169408333Y-88831666D01*
X169445000Y-88868333D01*
X169481666Y-88941666D01*
X169481666Y-89235000D01*
X169078333Y-88098333D02*
X169078333Y-88465000D01*
X169445000Y-88501666D01*
X169408333Y-88465000D01*
X169371666Y-88391666D01*
X169371666Y-88208333D01*
X169408333Y-88135000D01*
X169445000Y-88098333D01*
X169518333Y-88061666D01*
X169701666Y-88061666D01*
X169775000Y-88098333D01*
X169811666Y-88135000D01*
X169848333Y-88208333D01*
X169848333Y-88391666D01*
X169811666Y-88465000D01*
X169775000Y-88501666D01*
X169335000Y-87401666D02*
X169848333Y-87401666D01*
X169041666Y-87585000D02*
X169591666Y-87768333D01*
X169591666Y-87291666D01*
X172448333Y-88795000D02*
X172081666Y-89051666D01*
X172448333Y-89235000D02*
X171678333Y-89235000D01*
X171678333Y-88941666D01*
X171715000Y-88868333D01*
X171751666Y-88831666D01*
X171825000Y-88795000D01*
X171935000Y-88795000D01*
X172008333Y-88831666D01*
X172045000Y-88868333D01*
X172081666Y-88941666D01*
X172081666Y-89235000D01*
X171678333Y-88098333D02*
X171678333Y-88465000D01*
X172045000Y-88501666D01*
X172008333Y-88465000D01*
X171971666Y-88391666D01*
X171971666Y-88208333D01*
X172008333Y-88135000D01*
X172045000Y-88098333D01*
X172118333Y-88061666D01*
X172301666Y-88061666D01*
X172375000Y-88098333D01*
X172411666Y-88135000D01*
X172448333Y-88208333D01*
X172448333Y-88391666D01*
X172411666Y-88465000D01*
X172375000Y-88501666D01*
X171678333Y-87365000D02*
X171678333Y-87731666D01*
X172045000Y-87768333D01*
X172008333Y-87731666D01*
X171971666Y-87658333D01*
X171971666Y-87475000D01*
X172008333Y-87401666D01*
X172045000Y-87365000D01*
X172118333Y-87328333D01*
X172301666Y-87328333D01*
X172375000Y-87365000D01*
X172411666Y-87401666D01*
X172448333Y-87475000D01*
X172448333Y-87658333D01*
X172411666Y-87731666D01*
X172375000Y-87768333D01*
X177048333Y-65995000D02*
X176681666Y-66251666D01*
X177048333Y-66435000D02*
X176278333Y-66435000D01*
X176278333Y-66141666D01*
X176315000Y-66068333D01*
X176351666Y-66031666D01*
X176425000Y-65995000D01*
X176535000Y-65995000D01*
X176608333Y-66031666D01*
X176645000Y-66068333D01*
X176681666Y-66141666D01*
X176681666Y-66435000D01*
X176278333Y-65298333D02*
X176278333Y-65665000D01*
X176645000Y-65701666D01*
X176608333Y-65665000D01*
X176571666Y-65591666D01*
X176571666Y-65408333D01*
X176608333Y-65335000D01*
X176645000Y-65298333D01*
X176718333Y-65261666D01*
X176901666Y-65261666D01*
X176975000Y-65298333D01*
X177011666Y-65335000D01*
X177048333Y-65408333D01*
X177048333Y-65591666D01*
X177011666Y-65665000D01*
X176975000Y-65701666D01*
X176278333Y-64601666D02*
X176278333Y-64748333D01*
X176315000Y-64821666D01*
X176351666Y-64858333D01*
X176461666Y-64931666D01*
X176608333Y-64968333D01*
X176901666Y-64968333D01*
X176975000Y-64931666D01*
X177011666Y-64895000D01*
X177048333Y-64821666D01*
X177048333Y-64675000D01*
X177011666Y-64601666D01*
X176975000Y-64565000D01*
X176901666Y-64528333D01*
X176718333Y-64528333D01*
X176645000Y-64565000D01*
X176608333Y-64601666D01*
X176571666Y-64675000D01*
X176571666Y-64821666D01*
X176608333Y-64895000D01*
X176645000Y-64931666D01*
X176718333Y-64968333D01*
X167433333Y-73381666D02*
X167433333Y-73748333D01*
X167176666Y-72978333D02*
X167433333Y-73381666D01*
X167690000Y-72978333D01*
X168350000Y-73748333D02*
X167910000Y-73748333D01*
X168130000Y-73748333D02*
X168130000Y-72978333D01*
X168056666Y-73088333D01*
X167983333Y-73161666D01*
X167910000Y-73198333D01*
X161573333Y-95398333D02*
X161573333Y-95948333D01*
X161536666Y-96058333D01*
X161463333Y-96131666D01*
X161353333Y-96168333D01*
X161280000Y-96168333D01*
X161903333Y-95471666D02*
X161940000Y-95435000D01*
X162013333Y-95398333D01*
X162196666Y-95398333D01*
X162270000Y-95435000D01*
X162306666Y-95471666D01*
X162343333Y-95545000D01*
X162343333Y-95618333D01*
X162306666Y-95728333D01*
X161866666Y-96168333D01*
X162343333Y-96168333D01*
X177105000Y-88475000D02*
X177068333Y-88511666D01*
X176958333Y-88548333D01*
X176885000Y-88548333D01*
X176775000Y-88511666D01*
X176701666Y-88438333D01*
X176665000Y-88365000D01*
X176628333Y-88218333D01*
X176628333Y-88108333D01*
X176665000Y-87961666D01*
X176701666Y-87888333D01*
X176775000Y-87815000D01*
X176885000Y-87778333D01*
X176958333Y-87778333D01*
X177068333Y-87815000D01*
X177105000Y-87851666D01*
X177838333Y-88548333D02*
X177398333Y-88548333D01*
X177618333Y-88548333D02*
X177618333Y-87778333D01*
X177545000Y-87888333D01*
X177471666Y-87961666D01*
X177398333Y-87998333D01*
X178278333Y-88108333D02*
X178205000Y-88071666D01*
X178168333Y-88035000D01*
X178131666Y-87961666D01*
X178131666Y-87925000D01*
X178168333Y-87851666D01*
X178205000Y-87815000D01*
X178278333Y-87778333D01*
X178425000Y-87778333D01*
X178498333Y-87815000D01*
X178535000Y-87851666D01*
X178571666Y-87925000D01*
X178571666Y-87961666D01*
X178535000Y-88035000D01*
X178498333Y-88071666D01*
X178425000Y-88108333D01*
X178278333Y-88108333D01*
X178205000Y-88145000D01*
X178168333Y-88181666D01*
X178131666Y-88255000D01*
X178131666Y-88401666D01*
X178168333Y-88475000D01*
X178205000Y-88511666D01*
X178278333Y-88548333D01*
X178425000Y-88548333D01*
X178498333Y-88511666D01*
X178535000Y-88475000D01*
X178571666Y-88401666D01*
X178571666Y-88255000D01*
X178535000Y-88181666D01*
X178498333Y-88145000D01*
X178425000Y-88108333D01*
X173605000Y-85148333D02*
X173348333Y-84781666D01*
X173165000Y-85148333D02*
X173165000Y-84378333D01*
X173458333Y-84378333D01*
X173531666Y-84415000D01*
X173568333Y-84451666D01*
X173605000Y-84525000D01*
X173605000Y-84635000D01*
X173568333Y-84708333D01*
X173531666Y-84745000D01*
X173458333Y-84781666D01*
X173165000Y-84781666D01*
X174265000Y-84635000D02*
X174265000Y-85148333D01*
X174081666Y-84341666D02*
X173898333Y-84891666D01*
X174375000Y-84891666D01*
X174631666Y-84451666D02*
X174668333Y-84415000D01*
X174741666Y-84378333D01*
X174925000Y-84378333D01*
X174998333Y-84415000D01*
X175035000Y-84451666D01*
X175071666Y-84525000D01*
X175071666Y-84598333D01*
X175035000Y-84708333D01*
X174595000Y-85148333D01*
X175071666Y-85148333D01*
X187205000Y-88875000D02*
X187168333Y-88911666D01*
X187058333Y-88948333D01*
X186985000Y-88948333D01*
X186875000Y-88911666D01*
X186801666Y-88838333D01*
X186765000Y-88765000D01*
X186728333Y-88618333D01*
X186728333Y-88508333D01*
X186765000Y-88361666D01*
X186801666Y-88288333D01*
X186875000Y-88215000D01*
X186985000Y-88178333D01*
X187058333Y-88178333D01*
X187168333Y-88215000D01*
X187205000Y-88251666D01*
X187498333Y-88251666D02*
X187535000Y-88215000D01*
X187608333Y-88178333D01*
X187791666Y-88178333D01*
X187865000Y-88215000D01*
X187901666Y-88251666D01*
X187938333Y-88325000D01*
X187938333Y-88398333D01*
X187901666Y-88508333D01*
X187461666Y-88948333D01*
X187938333Y-88948333D01*
X188671666Y-88948333D02*
X188231666Y-88948333D01*
X188451666Y-88948333D02*
X188451666Y-88178333D01*
X188378333Y-88288333D01*
X188305000Y-88361666D01*
X188231666Y-88398333D01*
X169071666Y-96975000D02*
X169035000Y-97011666D01*
X168925000Y-97048333D01*
X168851666Y-97048333D01*
X168741666Y-97011666D01*
X168668333Y-96938333D01*
X168631666Y-96865000D01*
X168595000Y-96718333D01*
X168595000Y-96608333D01*
X168631666Y-96461666D01*
X168668333Y-96388333D01*
X168741666Y-96315000D01*
X168851666Y-96278333D01*
X168925000Y-96278333D01*
X169035000Y-96315000D01*
X169071666Y-96351666D01*
X169805000Y-97048333D02*
X169365000Y-97048333D01*
X169585000Y-97048333D02*
X169585000Y-96278333D01*
X169511666Y-96388333D01*
X169438333Y-96461666D01*
X169365000Y-96498333D01*
X169271666Y-100648333D02*
X168905000Y-100648333D01*
X168905000Y-99878333D01*
X169931666Y-100648333D02*
X169491666Y-100648333D01*
X169711666Y-100648333D02*
X169711666Y-99878333D01*
X169638333Y-99988333D01*
X169565000Y-100061666D01*
X169491666Y-100098333D01*
X150371666Y-127248333D02*
X150005000Y-127248333D01*
X150005000Y-126478333D01*
X150591666Y-126551666D02*
X150628333Y-126515000D01*
X150701666Y-126478333D01*
X150885000Y-126478333D01*
X150958333Y-126515000D01*
X150995000Y-126551666D01*
X151031666Y-126625000D01*
X151031666Y-126698333D01*
X150995000Y-126808333D01*
X150555000Y-127248333D01*
X151031666Y-127248333D01*
X154805000Y-120975000D02*
X154768333Y-121011666D01*
X154658333Y-121048333D01*
X154585000Y-121048333D01*
X154475000Y-121011666D01*
X154401666Y-120938333D01*
X154365000Y-120865000D01*
X154328333Y-120718333D01*
X154328333Y-120608333D01*
X154365000Y-120461666D01*
X154401666Y-120388333D01*
X154475000Y-120315000D01*
X154585000Y-120278333D01*
X154658333Y-120278333D01*
X154768333Y-120315000D01*
X154805000Y-120351666D01*
X155061666Y-120278333D02*
X155538333Y-120278333D01*
X155281666Y-120571666D01*
X155391666Y-120571666D01*
X155465000Y-120608333D01*
X155501666Y-120645000D01*
X155538333Y-120718333D01*
X155538333Y-120901666D01*
X155501666Y-120975000D01*
X155465000Y-121011666D01*
X155391666Y-121048333D01*
X155171666Y-121048333D01*
X155098333Y-121011666D01*
X155061666Y-120975000D01*
X156015000Y-120278333D02*
X156088333Y-120278333D01*
X156161666Y-120315000D01*
X156198333Y-120351666D01*
X156235000Y-120425000D01*
X156271666Y-120571666D01*
X156271666Y-120755000D01*
X156235000Y-120901666D01*
X156198333Y-120975000D01*
X156161666Y-121011666D01*
X156088333Y-121048333D01*
X156015000Y-121048333D01*
X155941666Y-121011666D01*
X155905000Y-120975000D01*
X155868333Y-120901666D01*
X155831666Y-120755000D01*
X155831666Y-120571666D01*
X155868333Y-120425000D01*
X155905000Y-120351666D01*
X155941666Y-120315000D01*
X156015000Y-120278333D01*
X151905000Y-65148333D02*
X151648333Y-64781666D01*
X151465000Y-65148333D02*
X151465000Y-64378333D01*
X151758333Y-64378333D01*
X151831666Y-64415000D01*
X151868333Y-64451666D01*
X151905000Y-64525000D01*
X151905000Y-64635000D01*
X151868333Y-64708333D01*
X151831666Y-64745000D01*
X151758333Y-64781666D01*
X151465000Y-64781666D01*
X152565000Y-64635000D02*
X152565000Y-65148333D01*
X152381666Y-64341666D02*
X152198333Y-64891666D01*
X152675000Y-64891666D01*
X153298333Y-64378333D02*
X153151666Y-64378333D01*
X153078333Y-64415000D01*
X153041666Y-64451666D01*
X152968333Y-64561666D01*
X152931666Y-64708333D01*
X152931666Y-65001666D01*
X152968333Y-65075000D01*
X153005000Y-65111666D01*
X153078333Y-65148333D01*
X153225000Y-65148333D01*
X153298333Y-65111666D01*
X153335000Y-65075000D01*
X153371666Y-65001666D01*
X153371666Y-64818333D01*
X153335000Y-64745000D01*
X153298333Y-64708333D01*
X153225000Y-64671666D01*
X153078333Y-64671666D01*
X153005000Y-64708333D01*
X152968333Y-64745000D01*
X152931666Y-64818333D01*
X151905000Y-68148333D02*
X151648333Y-67781666D01*
X151465000Y-68148333D02*
X151465000Y-67378333D01*
X151758333Y-67378333D01*
X151831666Y-67415000D01*
X151868333Y-67451666D01*
X151905000Y-67525000D01*
X151905000Y-67635000D01*
X151868333Y-67708333D01*
X151831666Y-67745000D01*
X151758333Y-67781666D01*
X151465000Y-67781666D01*
X152565000Y-67635000D02*
X152565000Y-68148333D01*
X152381666Y-67341666D02*
X152198333Y-67891666D01*
X152675000Y-67891666D01*
X152895000Y-67378333D02*
X153408333Y-67378333D01*
X153078333Y-68148333D01*
X149605000Y-121648333D02*
X149348333Y-121281666D01*
X149165000Y-121648333D02*
X149165000Y-120878333D01*
X149458333Y-120878333D01*
X149531666Y-120915000D01*
X149568333Y-120951666D01*
X149605000Y-121025000D01*
X149605000Y-121135000D01*
X149568333Y-121208333D01*
X149531666Y-121245000D01*
X149458333Y-121281666D01*
X149165000Y-121281666D01*
X150301666Y-120878333D02*
X149935000Y-120878333D01*
X149898333Y-121245000D01*
X149935000Y-121208333D01*
X150008333Y-121171666D01*
X150191666Y-121171666D01*
X150265000Y-121208333D01*
X150301666Y-121245000D01*
X150338333Y-121318333D01*
X150338333Y-121501666D01*
X150301666Y-121575000D01*
X150265000Y-121611666D01*
X150191666Y-121648333D01*
X150008333Y-121648333D01*
X149935000Y-121611666D01*
X149898333Y-121575000D01*
X150595000Y-120878333D02*
X151108333Y-120878333D01*
X150778333Y-121648333D01*
D14*
X193979523Y-104023333D02*
X194886666Y-104023333D01*
X195068095Y-104083809D01*
X195189047Y-104204761D01*
X195249523Y-104386190D01*
X195249523Y-104507142D01*
X193979523Y-103539523D02*
X193979523Y-102753333D01*
X194463333Y-103176666D01*
X194463333Y-102995238D01*
X194523809Y-102874285D01*
X194584285Y-102813809D01*
X194705238Y-102753333D01*
X195007619Y-102753333D01*
X195128571Y-102813809D01*
X195189047Y-102874285D01*
X195249523Y-102995238D01*
X195249523Y-103358095D01*
X195189047Y-103479047D01*
X195128571Y-103539523D01*
X193979523Y-78728095D02*
X194886666Y-78728095D01*
X195068095Y-78788571D01*
X195189047Y-78909523D01*
X195249523Y-79090952D01*
X195249523Y-79211904D01*
X195249523Y-77458095D02*
X195249523Y-78183809D01*
X195249523Y-77820952D02*
X193979523Y-77820952D01*
X194160952Y-77941904D01*
X194281904Y-78062857D01*
X194342380Y-78183809D01*
X195249523Y-76248571D02*
X195249523Y-76974285D01*
X195249523Y-76611428D02*
X193979523Y-76611428D01*
X194160952Y-76732380D01*
X194281904Y-76853333D01*
X194342380Y-76974285D01*
D11*
X148505000Y-64175000D02*
X148468333Y-64211666D01*
X148358333Y-64248333D01*
X148285000Y-64248333D01*
X148175000Y-64211666D01*
X148101666Y-64138333D01*
X148065000Y-64065000D01*
X148028333Y-63918333D01*
X148028333Y-63808333D01*
X148065000Y-63661666D01*
X148101666Y-63588333D01*
X148175000Y-63515000D01*
X148285000Y-63478333D01*
X148358333Y-63478333D01*
X148468333Y-63515000D01*
X148505000Y-63551666D01*
X148761666Y-63478333D02*
X149238333Y-63478333D01*
X148981666Y-63771666D01*
X149091666Y-63771666D01*
X149165000Y-63808333D01*
X149201666Y-63845000D01*
X149238333Y-63918333D01*
X149238333Y-64101666D01*
X149201666Y-64175000D01*
X149165000Y-64211666D01*
X149091666Y-64248333D01*
X148871666Y-64248333D01*
X148798333Y-64211666D01*
X148761666Y-64175000D01*
X149935000Y-63478333D02*
X149568333Y-63478333D01*
X149531666Y-63845000D01*
X149568333Y-63808333D01*
X149641666Y-63771666D01*
X149825000Y-63771666D01*
X149898333Y-63808333D01*
X149935000Y-63845000D01*
X149971666Y-63918333D01*
X149971666Y-64101666D01*
X149935000Y-64175000D01*
X149898333Y-64211666D01*
X149825000Y-64248333D01*
X149641666Y-64248333D01*
X149568333Y-64211666D01*
X149531666Y-64175000D01*
X146975000Y-87995000D02*
X147011666Y-88031666D01*
X147048333Y-88141666D01*
X147048333Y-88215000D01*
X147011666Y-88325000D01*
X146938333Y-88398333D01*
X146865000Y-88435000D01*
X146718333Y-88471666D01*
X146608333Y-88471666D01*
X146461666Y-88435000D01*
X146388333Y-88398333D01*
X146315000Y-88325000D01*
X146278333Y-88215000D01*
X146278333Y-88141666D01*
X146315000Y-88031666D01*
X146351666Y-87995000D01*
X146278333Y-87738333D02*
X146278333Y-87261666D01*
X146571666Y-87518333D01*
X146571666Y-87408333D01*
X146608333Y-87335000D01*
X146645000Y-87298333D01*
X146718333Y-87261666D01*
X146901666Y-87261666D01*
X146975000Y-87298333D01*
X147011666Y-87335000D01*
X147048333Y-87408333D01*
X147048333Y-87628333D01*
X147011666Y-87701666D01*
X146975000Y-87738333D01*
X146278333Y-86601666D02*
X146278333Y-86748333D01*
X146315000Y-86821666D01*
X146351666Y-86858333D01*
X146461666Y-86931666D01*
X146608333Y-86968333D01*
X146901666Y-86968333D01*
X146975000Y-86931666D01*
X147011666Y-86895000D01*
X147048333Y-86821666D01*
X147048333Y-86675000D01*
X147011666Y-86601666D01*
X146975000Y-86565000D01*
X146901666Y-86528333D01*
X146718333Y-86528333D01*
X146645000Y-86565000D01*
X146608333Y-86601666D01*
X146571666Y-86675000D01*
X146571666Y-86821666D01*
X146608333Y-86895000D01*
X146645000Y-86931666D01*
X146718333Y-86968333D01*
X148505000Y-65675000D02*
X148468333Y-65711666D01*
X148358333Y-65748333D01*
X148285000Y-65748333D01*
X148175000Y-65711666D01*
X148101666Y-65638333D01*
X148065000Y-65565000D01*
X148028333Y-65418333D01*
X148028333Y-65308333D01*
X148065000Y-65161666D01*
X148101666Y-65088333D01*
X148175000Y-65015000D01*
X148285000Y-64978333D01*
X148358333Y-64978333D01*
X148468333Y-65015000D01*
X148505000Y-65051666D01*
X148761666Y-64978333D02*
X149238333Y-64978333D01*
X148981666Y-65271666D01*
X149091666Y-65271666D01*
X149165000Y-65308333D01*
X149201666Y-65345000D01*
X149238333Y-65418333D01*
X149238333Y-65601666D01*
X149201666Y-65675000D01*
X149165000Y-65711666D01*
X149091666Y-65748333D01*
X148871666Y-65748333D01*
X148798333Y-65711666D01*
X148761666Y-65675000D01*
X149495000Y-64978333D02*
X150008333Y-64978333D01*
X149678333Y-65748333D01*
D14*
X136455476Y-75874523D02*
X136455476Y-74604523D01*
X137785952Y-75753571D02*
X137725476Y-75814047D01*
X137544047Y-75874523D01*
X137423095Y-75874523D01*
X137241666Y-75814047D01*
X137120714Y-75693095D01*
X137060238Y-75572142D01*
X136999761Y-75330238D01*
X136999761Y-75148809D01*
X137060238Y-74906904D01*
X137120714Y-74785952D01*
X137241666Y-74665000D01*
X137423095Y-74604523D01*
X137544047Y-74604523D01*
X137725476Y-74665000D01*
X137785952Y-74725476D01*
X138995476Y-75874523D02*
X138269761Y-75874523D01*
X138632619Y-75874523D02*
X138632619Y-74604523D01*
X138511666Y-74785952D01*
X138390714Y-74906904D01*
X138269761Y-74967380D01*
X139781666Y-74604523D02*
X139902619Y-74604523D01*
X140023571Y-74665000D01*
X140084047Y-74725476D01*
X140144523Y-74846428D01*
X140205000Y-75088333D01*
X140205000Y-75390714D01*
X140144523Y-75632619D01*
X140084047Y-75753571D01*
X140023571Y-75814047D01*
X139902619Y-75874523D01*
X139781666Y-75874523D01*
X139660714Y-75814047D01*
X139600238Y-75753571D01*
X139539761Y-75632619D01*
X139479285Y-75390714D01*
X139479285Y-75088333D01*
X139539761Y-74846428D01*
X139600238Y-74725476D01*
X139660714Y-74665000D01*
X139781666Y-74604523D01*
D12*
X133390476Y-127947380D02*
X133390476Y-128661666D01*
X133342857Y-128804523D01*
X133247619Y-128899761D01*
X133104761Y-128947380D01*
X133009523Y-128947380D01*
X134390476Y-128947380D02*
X133819047Y-128947380D01*
X134104761Y-128947380D02*
X134104761Y-127947380D01*
X134009523Y-128090238D01*
X133914285Y-128185476D01*
X133819047Y-128233095D01*
X135009523Y-127947380D02*
X135104761Y-127947380D01*
X135200000Y-127995000D01*
X135247619Y-128042619D01*
X135295238Y-128137857D01*
X135342857Y-128328333D01*
X135342857Y-128566428D01*
X135295238Y-128756904D01*
X135247619Y-128852142D01*
X135200000Y-128899761D01*
X135104761Y-128947380D01*
X135009523Y-128947380D01*
X134914285Y-128899761D01*
X134866666Y-128852142D01*
X134819047Y-128756904D01*
X134771428Y-128566428D01*
X134771428Y-128328333D01*
X134819047Y-128137857D01*
X134866666Y-128042619D01*
X134914285Y-127995000D01*
X135009523Y-127947380D01*
M02*
